<svg id="Calque_1" data-name="Calque 1" xmlns="http://www.w3.org/2000/svg" viewBox="0 0 795.45 250.9"><defs><style>.cls-1{fill:#fff;}.cls-2{font-size:100px;font-family:STHeitiTC-Medium, Heiti TC;font-weight:500;letter-spacing:0.03em;}</style></defs><ellipse cx="126.59" cy="125.45" rx="126.59" ry="125.45"/><path class="cls-1" d="M195.49,50.06h-3.34a15.11,15.11,0,0,0-15.1,15.11h0v7.74a81.34,81.34,0,0,1,0,105.94v7.41a15.1,15.1,0,0,0,15.1,15.1h3.34a15.1,15.1,0,0,0,15.11-15.1h0V65.18a15.12,15.12,0,0,0-15.1-15.12Z" transform="translate(-1.03 0.9)"/><path class="cls-1" d="M159.52,145.44a48.53,48.53,0,1,1,1.95-34.06H86.92A12.63,12.63,0,0,0,74.28,124v1.32A12.63,12.63,0,0,0,86.92,138h82v0h21a75.52,75.52,0,1,0-1.59,7.51Z" transform="translate(-1.03 0.9)"/><text class="cls-2" transform="translate(337.05 106.3)">arnaud<tspan x="0" y="120">engineer</tspan></text><text class="cls-2" transform="translate(284.78 226.88)">.</text></svg>