<svg id="Draw" xmlns="http://www.w3.org/2000/svg" viewBox="0 0 840.59 250"><defs><style>.cls-1{fill:red;}.cls-2{fill:#fff;}</style></defs><rect class="cls-1" x="350.59" width="490" height="250"/><path class="cls-2" d="M482.85,94.84v88.79h-29.6V94.84H428.94V69.77h78.22V94.84Z" transform="translate(-72.41)"/><path class="cls-2" d="M549.89,69.77v61.91q0,5,.38,10.2a27.78,27.78,0,0,0,2.27,9.43,15.61,15.61,0,0,0,6,6.87q4.08,2.65,11.48,2.65t11.4-2.65a16.4,16.4,0,0,0,6-6.87,26.69,26.69,0,0,0,2.34-9.43q.38-5.22.38-10.2V69.77H619.5v66q0,26.58-12.15,38.81T570,186.8q-25.23,0-37.45-12.23T520.3,135.76v-66Z" transform="translate(-72.41)"/><path class="cls-2" d="M643.36,69.77h44.09q15.7,0,23.86,7.55t8.15,21.75q0,8.61-3.09,14.27a26,26,0,0,1-9.44,9.58,35.93,35.93,0,0,1,10.8,3.7,23.62,23.62,0,0,1,7.25,6.12,23,23,0,0,1,4,8.15,37.67,37.67,0,0,1,1.21,9.67,34.22,34.22,0,0,1-2.8,14.19,28.82,28.82,0,0,1-7.85,10.42,33.49,33.49,0,0,1-12.31,6.34,58.11,58.11,0,0,1-16.3,2.12H643.36Zm29.6,44.7h5.43q13.89,0,13.9-11t-13.9-11H673Zm0,46.2h6.49q11.17,0,16-2.86t4.83-9.22q0-6.33-4.83-9.21t-16-2.87H673Z" transform="translate(-72.41)"/><path class="cls-2" d="M812.63,94.84H777.45v19h33.22v25.07H777.45v19.63h35.18v25.07H747.85V69.77h64.78Z" transform="translate(-72.41)"/><path d="M139.3,69.7v79a74.86,74.86,0,0,1-.53,9.21,29.57,29.57,0,0,1-1.73,7.25,32.46,32.46,0,0,1-5.36,8.83,33.18,33.18,0,0,1-7.93,6.8,40.44,40.44,0,0,1-10,4.38,41.52,41.52,0,0,1-11.55,1.58q-18.28,0-29.75-16.76l19.33-19.78a15.89,15.89,0,0,0,3.32,8.16,8,8,0,0,0,6.34,3q8.31,0,8.31-13.14V69.7Z" transform="translate(-72.41)"/><path d="M158.18,126.63a58.65,58.65,0,0,1,37.52-55.5,72.45,72.45,0,0,1,50.81,0,60.31,60.31,0,0,1,20,12.76A58.4,58.4,0,0,1,279.58,103a62,62,0,0,1,0,47.26,58.35,58.35,0,0,1-13.06,19.1,60,60,0,0,1-20,12.76,72.45,72.45,0,0,1-50.81,0,58.88,58.88,0,0,1-37.52-55.49Zm30.95,0a30.36,30.36,0,0,0,2.57,12.53,31.4,31.4,0,0,0,17.14,16.53,32.93,32.93,0,0,0,34.88-6.57,30.9,30.9,0,0,0,7-10,31.85,31.85,0,0,0,0-25.07,31.12,31.12,0,0,0-7-10,32.33,32.33,0,0,0-10.27-6.57,33.52,33.52,0,0,0-24.61,0,31.22,31.22,0,0,0-10.19,6.57,31.56,31.56,0,0,0-7,10A30.41,30.41,0,0,0,189.13,126.63Z" transform="translate(-72.41)"/><path d="M332.58,69.7v88.79h35.48v25.06H303V69.7Z" transform="translate(-72.41)"/><path d="M412.91,69.7V183.55H383.32V69.7Z" transform="translate(-72.41)"/></svg>