<svg xmlns="http://www.w3.org/2000/svg" width="560.82" height="189.62" viewBox="0 0 560.82 189.62"><defs><style>.cls-1{fill:#fff;}</style></defs><g id="Texte"><path d="M287.16,81.14l-.73.17c.6-.12,0,0-.1,0a10.17,10.17,0,0,1-1.46,0c.71.08-.66-.19-.8-.24l-.53-.17c-.35-.12.26.17-.3-.13a14,14,0,0,1-1.3-.74,6.67,6.67,0,0,1-.61-.43c.15.12.37.36-.11-.12s-.71-.69-1.05-1c0,0-.4-.47-.18-.19s-.29-.43-.34-.5c-2.27-3.5-2.55-7.82-2.9-12a47.33,47.33,0,0,1-.17-7.24,15.46,15.46,0,0,1,.49-3c.16-.58.35-1.15.54-1.72,0-.11.28-.67,0-.08.12-.27.25-.53.38-.79a21.34,21.34,0,0,1,1.36-2.25c.06-.09.43-.56.05-.08.15-.19.3-.37.46-.55.34-.4.71-.79,1.09-1.17s.6-.58.91-.86c.09-.07,1.15-.94.65-.55a23.78,23.78,0,0,1,2.6-1.71,19.1,19.1,0,0,1,4.94-2.1c.9-.27,1.82-.5,2.74-.68.13,0,1.55-.26.86-.16.63-.09,1.27-.14,1.9-.17s1.17,0,1.76,0a7.72,7.72,0,0,0,.95.07c.57.1,1.11.29,1.67.44.15,0,.66.28,0,0,.24.11.48.24.72.37s.37.22.55.33.64.44.26.16.43.38.58.52a12.21,12.21,0,0,1,.84.92c-.46-.54-.1-.15,0,0s.3.44.44.66.43.73.62,1.11c.11.21.52,1.09.23.43a19.18,19.18,0,0,1,.89,2.65c.21.81.39,1.62.53,2.44,0,.21.19,1.47.1.64q.09.73.15,1.47c.37,4.62.4,9-1,13.25-.1.29-.19.57-.29.85s-.4.93-.14.37c-.22.48-.45,1-.7,1.41s-.53.92-.81,1.36c-.13.2-.26.39-.4.58,0,0-.57.78-.34.48s-.2.24-.26.31l-.59.67c-.36.39-.73.77-1.12,1.14s-.81.72-1.21,1.08-.22.19-.09.09c-.24.18-.48.36-.73.53a24.28,24.28,0,0,1-2.8,1.7c-.49.26-1,.5-1.48.72.53-.24,0,0-.13,0l-.86.32a24.79,24.79,0,0,1-3.2.88l-.72.13c-.24,0-.83.11-.29,0-.61.07-1.23.11-1.85.14a3.75,3.75,0,0,0,0,7.5c9.65-.41,19.42-5.86,23.76-14.71,2.55-5.21,3.1-11,2.85-16.76a32.9,32.9,0,0,0-3-13.4,14.9,14.9,0,0,0-11.69-8.27c-5.2-.65-10.65.77-15.35,2.91a26.21,26.21,0,0,0-11,9.29c-3.1,4.74-3.73,10.48-3.41,16,.34,6,.7,12.85,4.09,18s9.76,8.51,16,6.87a3.75,3.75,0,1,0-2-7.23Z" transform="translate(-3.94 -3.68)"/><path d="M308.09,35.27a314.45,314.45,0,0,1-1.31,52.34c-.21,2,1.88,3.83,3.75,3.75a3.86,3.86,0,0,0,3.75-3.75,314.45,314.45,0,0,0,1.31-52.34,3.75,3.75,0,1,0-7.5,0Z" transform="translate(-3.94 -3.68)"/><path d="M334.39,36,332.7,90.63a3.75,3.75,0,0,0,7.5,0L341.89,36a3.78,3.78,0,0,0-3.75-3.75A3.83,3.83,0,0,0,334.39,36Z" transform="translate(-3.94 -3.68)"/><path d="M343.2,48.61a11.94,11.94,0,0,1,.89-1.7,8.31,8.31,0,0,1,.49-.72c-.44.57.29-.29.31-.32a14.89,14.89,0,0,1,1.3-1.21c-.4.33.06,0,.24-.16l.76-.49,1-.52c.57-.31-.09,0,.27-.13a14.14,14.14,0,0,1,1.91-.61c.3-.07.59-.13.89-.18s-.41,0,.28,0a15.13,15.13,0,0,1,2,0c.14,0,.93.14.28,0l.89.19c.3.07.59.16.88.25,0,0,1.11.4.47.13a12.13,12.13,0,0,1,1.6.83c.31.19.61.39.91.59.53.37-.06-.07.23.19.49.43.94.89,1.39,1.36.17.18.32.38.08.06a10.22,10.22,0,0,1,.59.87,9.78,9.78,0,0,1,.82,1.53c-.3-.71.08.34.1.39.1.33.18.67.25,1a3.75,3.75,0,0,0,7.23-2c-1.55-7.2-8.25-12.17-15.35-12.89-6.83-.69-14.4,3.41-17.16,9.76-.81,1.86-.55,4,1.34,5.13,1.59.93,4.32.52,5.13-1.34Z" transform="translate(-3.94 -3.68)"/><path d="M384.7,35.26l1.2,54.61a3.75,3.75,0,0,0,7.5,0l-1.2-54.61a3.75,3.75,0,1,0-7.5,0Z" transform="translate(-3.94 -3.68)"/><path d="M392.19,50.56a9.94,9.94,0,0,1,.83-.89c.18-.17,1.06-.86.4-.39a19.45,19.45,0,0,1,2.1-1.26c.61-.32.1,0,0,0l.58-.21c.4-.14.8-.26,1.2-.37s.82-.17,1.23-.26c.18,0,.72-.06-.06,0l.79-.07a17.19,17.19,0,0,1,2.38,0l.63.06c-.78-.07-.23,0-.06,0,.46.1.92.18,1.38.3s.8.24,1.19.38c.11,0,.72.29.28.1s.15.07.25.13c.32.16.64.32,1,.51l.51.33c.14.09.83.69.22.13a20.17,20.17,0,0,1,1.46,1.44c-.21-.27.26.37.29.43s.28.44.42.66l.28.51s.5,1.06.27.51a15.09,15.09,0,0,1,.84,2.78c.06.26.11.51.16.77,0,.08.14.87.08.47s.05.4.06.48c0,.33.06.66.08,1,.34,4.8-.13,9.67-.33,14.47l-.78,18.13a3.78,3.78,0,0,0,3.75,3.75,3.84,3.84,0,0,0,3.75-3.75L418,72.84c.23-5.25.82-10.66.25-15.9-.54-4.95-2.18-10-6.15-13.25a18.58,18.58,0,0,0-12.29-4.1c-4.8.13-9.78,1.94-13,5.67a3.83,3.83,0,0,0,0,5.3,3.77,3.77,0,0,0,5.3,0Z" transform="translate(-3.94 -3.68)"/><path d="M443.34,68.83a50.48,50.48,0,0,1-1.19-11,17.34,17.34,0,0,1,.86-5.18c.07-.22.14-.43.22-.64,0,0,.27-.71.1-.3s.25-.51.33-.66a13.45,13.45,0,0,1,1.22-1.94c-.34.45.2-.23.31-.36s.49-.53.75-.78.61-.58.93-.85,0,0-.06,0c.19-.15.39-.29.59-.42a20.36,20.36,0,0,1,1.85-1.09c.6-.32-.22,0,.41-.18.39-.14.78-.27,1.18-.38s.68-.16,1-.22-.06,0-.13,0l.7,0c.35,0,.7,0,1.05,0,0,0,.62.05.21,0s.3.06.37.08a9.73,9.73,0,0,1,1.06.28l.53.19c-.08,0-.41-.19,0,0s.66.35,1,.55c.16.09,1,.72.59.39a14.37,14.37,0,0,1,1.7,1.7c.27.33,0,0,0,0l.32.45c.24.36.47.72.68,1.1A15.86,15.86,0,0,1,461.44,54a54.37,54.37,0,0,1,1.06,10.55c.07,3.51-.21,6.63-1.88,9.53a16.09,16.09,0,0,1-6.95,6.4,5.58,5.58,0,0,1-.79.31,11.69,11.69,0,0,1-1.38.36l-.61.12c.42-.06,0,0-.17,0-.45,0-.9,0-1.36,0a5.67,5.67,0,0,1-.58,0c.41.06,0,0-.16,0-.51-.12-1-.26-1.5-.41,0,0-.59-.22-.27-.09s-.37-.18-.43-.21c-.4-.2-.78-.44-1.16-.67,0,0-.5-.36-.23-.15s-.3-.27-.35-.31a10.6,10.6,0,0,1-.93-1c.28.34-.32-.5-.41-.66s-.55-1.11-.36-.64a13.34,13.34,0,0,1-.44-1.45s-.13-.63-.07-.25,0-.36,0-.44c0-.44,0-.87,0-1.31,0,.07-.09.51,0,.06s.13-.61.21-.92a3.75,3.75,0,1,0-7.23-2,14.23,14.23,0,0,0,3.28,13.19,15.57,15.57,0,0,0,12.22,4.81c9.46-.66,17.37-9.2,18.7-18.33a51.92,51.92,0,0,0-.2-13.64c-.59-4.94-1.73-9.65-4.88-13.61a15.26,15.26,0,0,0-11.22-5.84,17.34,17.34,0,0,0-11.62,4.39A19.66,19.66,0,0,0,435,53.94c-.85,5.68.05,11.29,1.08,16.89.36,2,2.78,3.12,4.61,2.62a3.84,3.84,0,0,0,2.62-4.62Z" transform="translate(-3.94 -3.68)"/><path d="M465.39,38.71a223.88,223.88,0,0,0-3.75,46.86,3.75,3.75,0,1,0,7.5,0,214.52,214.52,0,0,1,3.48-44.86A3.84,3.84,0,0,0,470,36.09c-1.85-.42-4.23.56-4.62,2.62Z" transform="translate(-3.94 -3.68)"/><path d="M483.25,41.31c-.28,7.91-2.47,15.61-2.43,23.65,0,6.24,1.59,12.82,5.39,17.87,4.32,5.73,12.18,10.31,19.35,7.06,3.36-1.53,5.33-4.77,6.29-8.21a79.25,79.25,0,0,0,1.89-10.82,96.47,96.47,0,0,0,.77-14c0-4.35-.1-8.69.84-12.83a3.75,3.75,0,1,0-7.23-2c-1.68,7.44-.76,15-1.21,22.52a97,97,0,0,1-1.37,10.57c-.24,1.41-.46,2.83-.83,4.22a16.73,16.73,0,0,1-.53,1.7c.27-.72-.16.32-.2.38a9,9,0,0,0-.46.78c.32-.41-.42.45-.38.41-.56.64.42-.13-.36.29,0,0-1.11.49-.45.26-.24.09-.48.14-.72.21-.93.29.48.08-.5.08-.38,0-.76,0-1.15,0-1.08,0,.51.2-.54-.09-.38-.1-.77-.18-1.14-.3,0,0-1.18-.43-.57-.18a10.94,10.94,0,0,1-1-.51c-.53-.3-1-.64-1.54-1-.93-.62.45.45-.37-.29l-.79-.71c-.51-.49-1-1-1.44-1.54-.73-.84.36.57-.27-.35-.13-.2-.27-.39-.4-.58-.38-.59-.74-1.2-1.07-1.82-.16-.31-.31-.63-.47-1-.32-.64-.11-.23-.05-.07a23.34,23.34,0,0,1-.83-2.35,31.06,31.06,0,0,1-.87-3.82c-.13-.75,0-.23,0-.07,0-.35-.08-.7-.11-1.06-.07-.76-.11-1.52-.13-2.29-.15-8.15,2.14-16,2.43-24.17A3.79,3.79,0,0,0,487,37.56a3.83,3.83,0,0,0-3.75,3.75Z" transform="translate(-3.94 -3.68)"/><path d="M548.37,79.34A8.41,8.41,0,0,1,541.21,77a11.92,11.92,0,0,1-.84-.9c.31.37-.2-.28-.26-.37a16.52,16.52,0,0,1-1.1-1.86,21.84,21.84,0,0,1-2-13,30.06,30.06,0,0,1,1.23-4.46c.41-1.1-.32.56.22-.49.17-.34.33-.68.52-1s.25-.44.39-.66.8-1.19.54-.84a10.92,10.92,0,0,1,6.7-4.17,9.78,9.78,0,0,1,6.74.9,10.71,10.71,0,0,1,.9.59c-.61-.44.27.24.32.29a12.3,12.3,0,0,1,1.16,1.23c-.51-.63.13.24.18.32.17.27.31.57.47.84.35.59.07.14,0,0a10.12,10.12,0,0,1,.38,1.18c0,.07.17,1.05.09.36a8.47,8.47,0,0,1,.06,1.13,7.15,7.15,0,0,1-.19,1.93,24,24,0,0,1-1.65,4.86A106.94,106.94,0,0,1,543.59,82.9c-1.22,1.62-.26,4.19,1.34,5.13,1.92,1.12,3.91.28,5.13-1.34a103.11,103.11,0,0,0,11.88-21c1.8-4.15,3.18-8.64,2.06-13.18a14.8,14.8,0,0,0-6.11-8.43c-6.7-4.65-16.42-2.84-22.06,2.62-6,5.75-7.46,15.09-6.05,22.94a24.52,24.52,0,0,0,5.69,12.18,15.84,15.84,0,0,0,12.9,5c2-.2,3.85-1.57,3.75-3.75-.08-1.85-1.66-4-3.75-3.75Z" transform="translate(-3.94 -3.68)"/><path d="M554.32,10.36q-.15,29.54,1.7,59.05.54,8.41,1.23,16.84A3.83,3.83,0,0,0,561,90c1.89-.09,3.92-1.66,3.75-3.75q-2.43-29.44-2.86-59-.12-8.44-.07-16.88a3.75,3.75,0,0,0-7.5,0Z" transform="translate(-3.94 -3.68)"/><path d="M226.27,183.87c-2.32-.22-5-.64-6.12-2.55-1.29-2.23.42-4.9,2.14-6.87a3,3,0,0,1,1-.82c1.11-.51,2.41.36,3.06,1.34a6.24,6.24,0,0,1-1.54,8.28Z" transform="translate(-3.94 -3.68)"/><path d="M226.27,180.12l-1.16-.13,1,.13a11.85,11.85,0,0,1-2.82-.68l.9.38a5.94,5.94,0,0,1-1.18-.66l.76.58A4,4,0,0,1,223,179l.58.76a4.12,4.12,0,0,1-.43-.77l.38.9a4.79,4.79,0,0,1-.21-.74l.14,1a3.76,3.76,0,0,1,0-1.06l-.14,1a6,6,0,0,1,.39-1.37l-.38.89a11,11,0,0,1,1.41-2.33l-.59.75a10.2,10.2,0,0,1,1.31-1.48l-.76.59a2.75,2.75,0,0,1,.4-.26l-.9.38a2.35,2.35,0,0,1,.43-.13l-1,.13a2.81,2.81,0,0,1,.58,0l-1-.13a3.74,3.74,0,0,1,.57.17l-.9-.38a4.83,4.83,0,0,1,.66.4l-.76-.58a4.57,4.57,0,0,1,.67.65l-.59-.76a5.74,5.74,0,0,1,.64,1.1l-.38-.9a6.17,6.17,0,0,1,.43,1.58l-.13-1a6.92,6.92,0,0,1,0,1.64l.13-1a7,7,0,0,1-.47,1.72l.38-.9a6.62,6.62,0,0,1-.77,1.31l.59-.76a7.09,7.09,0,0,1-1.08,1.11l.76-.59-.12.09a4.75,4.75,0,0,0-1.34,1.34,3.7,3.7,0,0,0-.45,2.39,3.52,3.52,0,0,0,.74,1.78,4.18,4.18,0,0,0,2,1.34l1.5.61a3.75,3.75,0,0,0,4.61-2.62,3.79,3.79,0,0,0-.38-2.89l-.58-.76a3.8,3.8,0,0,0-1.66-1l-1.5-.61.9,6.85a10.41,10.41,0,0,0,3.09-3.41A10.9,10.9,0,0,0,231,178.7a8.89,8.89,0,0,0-3.88-8,5.64,5.64,0,0,0-6.16,0,13.46,13.46,0,0,0-3.34,3.82,10.34,10.34,0,0,0-1.63,4.77,7.22,7.22,0,0,0,1.83,5.17c2,2.44,5.51,2.93,8.47,3.21a3.78,3.78,0,0,0,2.65-1.1,3.82,3.82,0,0,0,1.1-2.65,3.87,3.87,0,0,0-1.1-2.66A4.23,4.23,0,0,0,226.27,180.12Z" transform="translate(-3.94 -3.68)"/><path d="M299.93,133.78a21.92,21.92,0,0,0-16.1,6.59,45.68,45.68,0,0,0-5.18,6.41,60.68,60.68,0,0,0-4.38,6.85A32,32,0,0,0,270.69,171a18.42,18.42,0,0,0,8.7,14.13c5.69,3.69,12.82,4.44,19.44,4a3.82,3.82,0,0,0,3.75-3.75c-.09-1.91-1.66-3.89-3.75-3.75a42.3,42.3,0,0,1-7.32-.07,24.49,24.49,0,0,1-3.58-.75c-.59-.17-1.16-.38-1.74-.57s-.34-.12-.17-.05c-.35-.14-.69-.31-1-.48a21.37,21.37,0,0,1-2.6-1.57c-.06-.05-.54-.44-.13-.1-.19-.16-.38-.32-.56-.49a13.14,13.14,0,0,1-1.18-1.18c-.1-.1-.61-.7-.23-.22-.15-.19-.29-.4-.42-.6a11.93,11.93,0,0,1-.74-1.24,10.46,10.46,0,0,1-.87-2.79,20.39,20.39,0,0,1-.16-2.89c0-.59,0-1.17.07-1.75,0-.3,0-.59.07-.89,0-.09.11-1,.06-.54a26.24,26.24,0,0,1,1.85-6.79,45.27,45.27,0,0,1,3.86-6.45,48.94,48.94,0,0,1,3.65-4.93,26.69,26.69,0,0,1,2.48-2.51,12.53,12.53,0,0,1,2.59-1.82,13.44,13.44,0,0,1,7.2-1.64,3.75,3.75,0,0,0,0-7.5Z" transform="translate(-3.94 -3.68)"/><path d="M339.33,179.49c.57-.11-.25,0-.46,0-.67,0,.23.13-.41-.05-.18-.06-1-.34-.45-.1a12.05,12.05,0,0,1-1.26-.72c-.51-.33,0,.09-.42-.34-.27-.26-.55-.51-.81-.79s-.51-.56-.75-.86c.3.38-.31-.48-.4-.62a18.92,18.92,0,0,1-1.09-2l-.38-.79c.16.35-.15-.38-.18-.45l-.27-.72a28.69,28.69,0,0,1-1.23-4.65c0-.16-.16-1.09-.09-.52-.05-.38-.09-.77-.12-1.15-.07-.89-.1-1.79-.1-2.68s0-1.54.11-2.31q0-.57.12-1.14c-.07.56.1-.54.13-.72a24.33,24.33,0,0,1,3.17-8.67c.42-.73.89-1.44,1.38-2.13l.35-.48c-.06.07-.25.31,0,0s.59-.72.91-1.06.55-.57.84-.84c.1-.09.8-.66.48-.43.33-.23.69-.43,1-.63,0,0,.57-.29.29-.17a4.27,4.27,0,0,0,.5-.18,13.91,13.91,0,0,1,4.76-.71c.83,0,1.68,0,2.51,0l.63,0s.66.06.33,0a.61.61,0,0,1,.47.19c-.34-.37,0,0,0,.09s-.33-.48-.08-.07c.08.15.45.9.34.63s.16.54.21.7q.22.75.39,1.53a30,30,0,0,1,.72,5.48,99.75,99.75,0,0,1-.11,12,19.17,19.17,0,0,1-1.06,5.34c-.06.17-.12.34-.19.51.14-.37.05-.11-.05.11-.2.44-.42.87-.65,1.3a23.39,23.39,0,0,1-1.38,2.17s-.37.48-.15.21-.25.29-.29.34c-.28.33-.58.65-.88,1a21.41,21.41,0,0,1-1.92,1.77s-.49.37-.21.17a6.45,6.45,0,0,0-.54.37c-.36.25-.74.49-1.12.71s-.76.44-1.16.65l-.51.25c-.08,0-.83.38-.32.17-1.87.78-3.21,2.48-2.62,4.61.48,1.76,2.73,3.41,4.61,2.62,7.77-3.25,14.14-9.91,15.5-18.45a77.58,77.58,0,0,0,.6-14.85,49.76,49.76,0,0,0-.84-7.5,15.51,15.51,0,0,0-2.19-6c-3-4.22-8.61-3.84-13.21-3.25a16.29,16.29,0,0,0-6.88,2.24,20.5,20.5,0,0,0-5.15,5.11,32.86,32.86,0,0,0-6.18,23.22c1.07,8.91,6.57,21.9,17.7,19.8,2-.37,3.12-2.77,2.62-4.61a3.84,3.84,0,0,0-4.62-2.62Z" transform="translate(-3.94 -3.68)"/><path d="M397,178.89a6.08,6.08,0,0,1-3.14-1.8,11.41,11.41,0,0,1-2.35-3.33c-.18-.32-.34-.65-.49-1,0-.07-.35-.77-.19-.4s-.08-.22-.09-.23c-.28-.75-.54-1.5-.76-2.27s-.38-1.41-.52-2.13c-.08-.36-.14-.72-.2-1.08s0,0,0,.09c0-.3-.07-.6-.1-.91a28.92,28.92,0,0,1-.06-4.56c0-.37.06-.73.1-1.1.06-.71-.06.25,0-.45s.3-1.69.51-2.52a30.8,30.8,0,0,1,1.33-4.09,34.64,34.64,0,0,1,2.17-4,19.69,19.69,0,0,1,6.18-6.21,5.7,5.7,0,0,1,2-.79l.53-.11c-.07,0-.53,0-.08,0s.85,0,1.28,0c.68,0-.2-.1.45.08.18,0,1,.32.46.08a5.48,5.48,0,0,1,.91.52c-.61-.43.48.63.23.28a4.26,4.26,0,0,1,.77,1.68c.3.91.54,1.84.8,2.75a42.27,42.27,0,0,1,1.29,5.7c.44,3.73-.51,7.34-1.46,11.09-1,4.13-2.12,7.73-4.48,11.2,0,0-.36.49-.15.22s-.25.29-.29.34c-.28.33-.57.65-.88,1s-.62.61-.95.9l-.43.36c.31-.25,0,0-.13.1a15.37,15.37,0,0,1-2.42,1.4c-.4.18-.05,0,0,0-.24.09-.47.18-.71.25a15.24,15.24,0,0,1-1.48.37,3.75,3.75,0,0,0,2,7.23c9.16-1.86,14.11-10.41,16.45-18.72,1.29-4.59,2.73-9.52,2.51-14.33a37,37,0,0,0-1.23-7.45,37.71,37.71,0,0,0-2.18-6.75c-2.15-4.58-7.18-6.3-11.93-5.53-4.26.7-7.94,3.69-10.68,6.88a33.13,33.13,0,0,0-8.08,22c.14,8.69,4.08,20,13.46,22.47a3.75,3.75,0,1,0,2-7.23Z" transform="translate(-3.94 -3.68)"/><path d="M433.74,112.09a29.81,29.81,0,0,0-1.08,13.66c.56,4.81,1.47,9.57,2.11,14.37,1.25,9.39,2.09,19,2.75,28.57.38,5.47.7,10.94,1,16.42a3.75,3.75,0,1,0,7.5,0c-.55-9.56-1.13-19.12-2-28.66s-2.17-19.2-3.63-28.76c-.68-4.44-1-9.24.54-13.6a3.77,3.77,0,0,0-2.62-4.61,3.84,3.84,0,0,0-4.61,2.61Z" transform="translate(-3.94 -3.68)"/></g><g id="Logo"><path d="M8.08,126.52A94,94,0,0,1,21.67,44.06,88.93,88.93,0,0,1,38.25,26.8a85.87,85.87,0,0,1,20.45-12A171.09,171.09,0,0,1,77.62,8.67c8.1-2.29,16.29-4.59,24.7-4.94,19-.78,36.93,8.42,52.3,19.53,10.46,7.56,20.29,16.21,27.86,26.66s12.8,22.86,13.45,35.75c.31,6.21-.43,12.42-1.17,18.6-1.36,11.26-2.77,22.74-7.59,33-3.41,7.26-8.4,13.65-13.66,19.71-5.68,6.54-11.78,12.84-19.06,17.55-5.71,3.7-12,6.35-18.3,9-7.8,3.26-15.65,6.54-23.92,8.28-12.53,2.64-25.63,1.61-38.08-1.41a150.15,150.15,0,0,1-29.85-11c-5-2.4-9.9-5.06-13.81-9C19.1,159.1,19,140.11,8.42,128Z" transform="translate(-3.94 -3.68)"/><path class="cls-1" d="M107.49,66.15A101.44,101.44,0,0,0,122,52.07a82.32,82.32,0,0,0-26.8-8.43,49.9,49.9,0,0,0-13.48-.19c-5.35.76-10.45,2.71-15.49,4.66A33.58,33.58,0,0,0,60.1,51,28.92,28.92,0,0,0,55.32,55,100.69,100.69,0,0,0,44.84,67.43,68,68,0,0,0,37,81.38a50.62,50.62,0,0,0-3.27,24.32c1.38,12.23,7.32,23.72,15.73,32.7a134.4,134.4,0,0,0,11.9,10.85,30.81,30.81,0,0,0,4.78,3.52c3.43,1.88,7.43,2.36,11.14,3.61,3,1,5.92,2.59,9,3.35,7.14,1.72,14.53-.9,21.4-3.49l10.87-4.09-16.2-15.93a4.33,4.33,0,0,0-2.69-1.57,5.19,5.19,0,0,0-2.52,1c-6,3.35-13.49,1-20-1.37-3.94-1.45-8-3-11.1-5.79a33.18,33.18,0,0,1-4.45-5.35c-2.3-3.22-4.64-6.48-6-10.19a30.93,30.93,0,0,1-1.74-10.15c-.23-9.07,2.17-18.42,7.92-25.44C68.17,69.58,78,65.34,88,63.86c6.85-1,14.4-.69,19.91,3.5" transform="translate(-3.94 -3.68)"/><path class="cls-1" d="M116.36,69.71A41.07,41.07,0,0,1,127.19,58.4a79.15,79.15,0,0,1,10.57,13.54,66.75,66.75,0,0,1,7.18,15.59,54.5,54.5,0,0,1,2.4,15.51,45.91,45.91,0,0,1-3.79,18.9,45,45,0,0,1-4.85,8.32,51.3,51.3,0,0,1-16.16,14.41,49.94,49.94,0,0,1-9.7-11l8.68-5a15.43,15.43,0,0,0,5.24-4.17c1.2-1.75,1.61-3.89,2.38-5.87,1-2.44,2.47-4.64,3.37-7.1a22.44,22.44,0,0,0,1.16-7.9,42.1,42.1,0,0,0-16.67-33" transform="translate(-3.94 -3.68)"/><path class="cls-1" d="M138.52,60.45c6.71,3.87,9.48,12,11.72,19.39,2.2,7.27,4.42,14.67,4.35,22.27-.07,7.94-2.64,15.61-5.23,23.12-1.42,4.12-3,8.4-6.09,11.42-1.18,1.14-2.59,2.1-3.39,3.53a8.17,8.17,0,0,0-.86,3,15.92,15.92,0,0,0,1.8,10,11.45,11.45,0,0,0,8.25,5.69c5.54.67,10.73-3.6,13-8.71s2.22-10.89,2.16-16.47l-.9-79.51c0-3-.21-6.4-2.38-8.52A10.5,10.5,0,0,0,157,43.56c-3.86-1.39-8.27-2.34-12-.56a12.07,12.07,0,0,0-5.84,7.47,35.57,35.57,0,0,0-1.11,9.66" transform="translate(-3.94 -3.68)"/></g></svg>