<svg id="Calque_1" data-name="Calque 1" xmlns="http://www.w3.org/2000/svg" width="555.35" height="466.34" viewBox="0 0 555.35 466.34"><defs><style>.cls-1{fill:#fff;}</style></defs><path class="cls-1" d="M156.65,481.39c28.11-20.53,34.77-59,39.2-93.52-33.51-8.43-64.11-28.79-83.8-57.19S84,266,90.54,232.05c2.76-14.32,8-28,14-41.34,16.91-37.66,40.41-73.32,73.44-98.08,14.66-11,30.94-19.66,47.55-27.39C310.21,25.83,406.35,10,498.64,24.33c40.94,6.38,83.25,20,110.23,51.47a126.81,126.81,0,0,1,21.57,36.66c18.13,46.52,11.44,100.59-11.89,144.73s-62,78.88-105.34,103.65c-75.7,43.26-167.55,57.44-252.77,39C249,420.6,236.84,441.38,219.5,457.5s-40.76,27.17-64.29,24.61Z" transform="translate(-86.97 -17.61)"/><path d="M157.41,482.69C180,466,189,438.19,193.81,411.58c1.42-7.86,2.52-15.78,3.54-23.71a1.49,1.49,0,0,0-1.1-1.45c-42.75-10.88-80.23-41-96.82-82.29-8.62-21.45-11.76-45.25-8.07-68.13,3.84-23.79,14.44-46.56,25.85-67.6,10.69-19.71,23.51-38.38,39.09-54.55,16.63-17.26,36.28-30.53,57.6-41.32A488,488,0,0,1,354.36,26.9c48.57-8,98.62-8.63,147.23-.59,42.12,7,86.67,22.21,112.4,58.48,27.64,38.94,31,90.69,17.88,135.55-12.71,43.6-41.06,80.78-75.85,109.35-35.5,29.16-77.73,50.12-121.82,62.68A362.13,362.13,0,0,1,295.07,404q-17.25-1.95-34.23-5.61a1.53,1.53,0,0,0-1.69.68c-17.43,31.63-38.34,65.69-74.43,78a69.46,69.46,0,0,1-29.51,3.55l.76,2.79,1.44-.71c1.73-.86.21-3.45-1.52-2.59l-1.43.71c-1.46.73-.58,2.66.75,2.8,18.21,1.85,36.26-4.11,51.37-14.06,15.66-10.31,27.93-24.81,38.21-40.32,6.13-9.25,11.6-18.9,17-28.61l-1.7.69a361.84,361.84,0,0,0,143,1.5C449.6,394,494.62,376.12,534,349.74c37.28-25,70.12-58.3,89.54-99.14,20.18-42.43,25.68-93.25,8.69-137.69-8.3-21.7-21.72-40.85-40.22-55C574.65,44.62,554.18,36,533.25,30.15c-22.53-6.29-45.95-9.56-69.25-11.3a457.06,457.06,0,0,0-75.91.72A493.48,493.48,0,0,0,242,56.33C218.85,66.06,195.81,77.1,175.8,92.4c-18,13.76-33.22,30.8-46,49.47a307.71,307.71,0,0,0-32.71,62.66c-8.74,22.67-12.4,46.31-8.75,70.46,6.81,45.13,36.82,83.45,77.49,103.44a152,152,0,0,0,29.6,10.88l-1.11-1.44c-3.35,26-7.43,54.05-22.81,76.07a69.59,69.59,0,0,1-15.65,16.16C154.36,481.23,155.85,483.84,157.41,482.69Z" transform="translate(-86.97 -17.61)"/><g id="Jour_" data-name="Jour !"><path d="M146.17,269c7.3,9.36,17.37,18.25,29.81,18.82,11.54.54,21.22-7.09,27-16.53,6.54-10.77,8.25-23.81,7.78-36.21-.55-14.25-3.9-28.22-7-42.07L193,145.75a4.53,4.53,0,0,0-5.54-3.14,4.6,4.6,0,0,0-3.14,5.53l9.19,40.43c1.48,6.55,3,13.08,4.41,19.64.71,3.31,1.38,6.63,2,10,.26,1.5.51,3,.73,4.52.06.4.12.8.17,1.19.23,1.53,0-.43.07.47s.22,1.75.31,2.63a95.49,95.49,0,0,1,.31,19.71l-.12,1.18c0-.13-.17,1.41-.1.82s-.14.95-.12.81l-.15.94c-.27,1.6-.58,3.2-1,4.78-.29,1.15-.62,2.29-1,3.42-.19.57-.39,1.14-.6,1.7-.09.22-.17.45-.26.67l-.27.67c.22-.52.23-.54,0-.07a46.74,46.74,0,0,1-3.43,6.34q-.49.75-1,1.47c-.1.14-.83,1.09-.15.22-.14.19-.29.37-.44.56a34.85,34.85,0,0,1-2.6,2.84c-.41.4-.83.79-1.27,1.16-.23.2-1.63,1.25-.69.59a32.15,32.15,0,0,1-3,1.92c-.5.27-1,.52-1.51.76-.25.11-1,.37,0,0l-.79.29a25.76,25.76,0,0,1-3.45.91c-1.14.23,1-.07-.17,0-.35,0-.69.07-1,.09a22.44,22.44,0,0,1-2.32,0l-.77-.05-.75-.07.25,0c-.68-.14-1.36-.25-2-.42s-1.46-.41-2.17-.66c-.3-.1-.59-.23-.89-.33s-.24-.09.19.09l-.69-.31a31.36,31.36,0,0,1-3.73-2q-1-.63-1.95-1.32l-.49-.36c.38.29-.68-.54-.79-.63q-1.77-1.47-3.42-3.09a71.11,71.11,0,0,1-6.19-7c-1.46-1.87-4.86-1.65-6.37,0-1.81,2-1.55,4.37,0,6.36Z" transform="translate(-86.97 -17.61)"/><path d="M268.43,273A92.31,92.31,0,0,1,261,259.54c-.24-.54-.48-1.07-.71-1.61.28.65,0,0-.05-.15l-.33-.81c-.49-1.23-.95-2.46-1.39-3.71-.84-2.42-1.59-4.88-2.23-7.37s-1.2-5.19-1.65-7.82c-.48-2.78-.78-5-1.07-7.3-.72-5.6-1.39-11.22-1.8-16.85a126.58,126.58,0,0,1-.2-16.64,76,76,0,0,1,.8-7.64c.38-2.3.86-4.58,1.46-6.83a61.52,61.52,0,0,1,2.08-6.37c.2-.54.41-1.07.64-1.6-.37.88.21-.46.31-.68.47-1,1-2.08,1.51-3.09a54.44,54.44,0,0,1,3.35-5.52c.32-.47.65-.93,1-1.39.08-.1.57-.73.22-.29s.15-.18.23-.29c.75-.92,1.53-1.82,2.35-2.69a45.65,45.65,0,0,1,4.7-4.31c-.74.59.36-.26.59-.42.41-.29.82-.58,1.24-.85a33.09,33.09,0,0,1,3-1.8l1-.5c.09,0,.93-.39.47-.21s.39-.13.48-.16c.35-.12.7-.23,1-.32s.56-.12.85-.18c-.2,0-.82,0,.08,0l.87,0,.44,0c.51.05.42,0-.25,0,.15-.11,1,.22,1.2.28a3.44,3.44,0,0,1,.57.19s-1-.51-.25-.11c.36.19.71.37,1,.58l.5.33c.83.56-.69-.65,0,.05.3.29.6.55.89.85l.42.46.24.28c-.41-.49.4.57.5.71.3.46.58.93.85,1.41.47.83.88,1.69,1.28,2.56.09.21.28.79-.06-.13.08.22.17.43.25.64.21.53.4,1.07.59,1.61,1.58,4.65,2.61,9.51,3.8,14.27a316.92,316.92,0,0,1,6.77,33c0,.08.12.88,0,.24l.12,1c.08.64.16,1.28.23,1.93.17,1.44.31,2.88.44,4.33.24,2.64.41,5.3.5,7.95a125.44,125.44,0,0,1-.4,15.51c-.11,1.27-.24,2.53-.4,3.8,0,.1-.13,1-.06.51s-.06.4-.08.51c-.11.74-.22,1.48-.34,2.22-.44,2.57-1,5.13-1.6,7.66s-1.34,4.88-2.16,7.27c-.42,1.2-.86,2.39-1.32,3.56-.11.28-.23.55-.34.83-.28.7.23-.53-.06.16s-.6,1.37-.92,2a26.75,26.75,0,0,1-1.57,3c-.14.22-.29.43-.44.65.11-.15.55-.6,0,0l-.54.56c-.71.76.64-.29-.34.28l-.74.41c-.16.09-.77.26-.1.05-.55.17-1.09.36-1.65.5-1.34.35-2.69.62-4,.9-1.15.24-2.93.58-3.7.67.47-.06-.51.05-.6.06l-1.2.1q-1.08.06-2.16,0l-1-.05c-.28,0-1.34-.16-.27,0-.49-.08-1-.17-1.48-.29s-1-.26-1.45-.42l-.7-.26c.95.33-.14-.08-.3-.16a13.84,13.84,0,0,1-1.29-.74l-.61-.42c.72.51.2.14.06,0-.36-.35-.7-.69-1-1.05-.76-.8.21.48-.08-.11-.14-.27-.33-.53-.48-.79a4.5,4.5,0,1,0-7.77,4.54c2.69,4.74,7.8,7.65,13.11,8.42a33.63,33.63,0,0,0,10.45-.33,52.82,52.82,0,0,0,8.14-1.8,14.49,14.49,0,0,0,7.76-5.91,41.83,41.83,0,0,0,3.59-7.48,89,89,0,0,0,4.79-15.79c4.83-23.3,1.48-47.12-3.83-70-1.35-5.83-2.82-11.63-4.31-17.42a53.21,53.21,0,0,0-4.74-13.12c-2.28-4.05-5.74-7.63-10.33-8.92-5.72-1.61-11.43.87-16.15,4a52.34,52.34,0,0,0-18.49,22.5c-4.57,10.32-6.38,21.42-6.47,32.68-.09,12.08,1.44,24.31,3.35,36.23a97.34,97.34,0,0,0,10.84,31.72c1.27,2.31,2.65,4.56,4.12,6.76,1.3,2,4,3,6.15,1.61,1.95-1.25,3-4.06,1.62-6.16Z" transform="translate(-86.97 -17.61)"/><path d="M336.1,135c.45,23.71-1.12,47.4-1.15,71.11,0,23.51,1.49,47.35,8.08,70,1.43,4.91,2.84,10.25,6,14.4a14.87,14.87,0,0,0,6.75,5.36,12,12,0,0,0,9.06-.7c4.77-2.14,9-6,12.39-10a66.09,66.09,0,0,0,8.72-13.39c10-20.13,12.79-42.7,13.87-64.89.54-11.16.67-22.33,1.15-33.49.23-5.53.55-11.06,1-16.58.25-2.75.53-5.49.88-8.23,0-.36.09-.72.13-1.08.11-.83-.15,1.07,0-.31l.24-1.72c.21-1.43.44-2.85.69-4.28.47-2.7,1-5.4,1.61-8.07a4.5,4.5,0,0,0-8.68-2.4c-4.85,21.4-5,43.43-5.69,65.25-.34,10.77-.83,21.56-2.16,32.26,0,.28-.08.57-.11.85-.12.91,0,.27,0,.08l-.27,1.91c-.2,1.34-.41,2.68-.63,4-.46,2.67-1,5.32-1.58,8A122.42,122.42,0,0,1,382,258.23c-.45,1.21-.91,2.41-1.4,3.6l-.33.8c.29-.68,0,0-.05.11-.29.66-.58,1.32-.88,2-1.06,2.33-2.22,4.61-3.5,6.83-.61,1-1.24,2.07-1.91,3.08-.29.45-.59.89-.9,1.33-.19.28-.39.55-.58.82-.08.11-.79,1.05-.49.67s-.42.52-.39.49l-.51.62c-.34.4-.69.81-1,1.2-.89,1-1.81,1.94-2.79,2.84-.43.41-.88.8-1.33,1.18l-.77.64c-.13.1-.69.48,0,0-1,.74-2.08,1.47-3.18,2.11-.3.18-.62.33-.92.5-.14.08-.79.32-.07.06a7.3,7.3,0,0,1-.79.26s-1.24.17-.62.16-.46,0-.47,0c-.76,0,.32,0,.25.05a3.81,3.81,0,0,1-.6-.14,3.26,3.26,0,0,1-.44-.15c-.32-.12-.2-.06.36.15a7.17,7.17,0,0,1-.86-.47c.6.37-.21-.2-.28-.27s-.32-.3-.47-.45l-.44-.49c-.75-.77.34.54,0,0s-.66-.94-1-1.44-.52-.92-.75-1.39c-.11-.21-.21-.42-.31-.63,0,0-.49-1.09-.2-.43s-.16-.4-.17-.43l-.24-.64c-.23-.65-.44-1.3-.66-1.95a165.61,165.61,0,0,1-4.42-16.38c-.61-2.82-1.16-5.67-1.64-8.52-.21-1.27-.42-2.55-.61-3.83-.1-.68-.2-1.36-.29-2-.13-.93-.05-.37,0-.17-.06-.45-.12-.9-.17-1.36A297.49,297.49,0,0,1,344,212.34c-.26-23,1.23-46,1.21-69,0-2.78,0-5.55-.09-8.33a4.5,4.5,0,0,0-9,0Z" transform="translate(-86.97 -17.61)"/><path d="M446.34,278.52a349,349,0,0,1-2-50.39,337.06,337.06,0,0,1,5.2-49.68q1.11-6.15,2.44-12.26a77.35,77.35,0,0,1,2.56-9.73c.11-.33.23-.65.36-1l.19-.48c.22-.6-.33.71-.06.13s.61-1.33,1-2,.7-1.25,1.09-1.85c.18-.27.39-.53.56-.81.26-.43-.22.27-.22.27a2.67,2.67,0,0,1,.41-.49,19.54,19.54,0,0,1,1.43-1.45c.06-.05.27-.3.35-.3s-.74.5-.3.23.68-.47,1-.68.56-.27.82-.43c.44-.29-.38.16-.36.14a1.35,1.35,0,0,1,.45-.17c.36-.11.71-.23,1.08-.31l.5-.11c.62-.17-.72,0-.09,0,.37,0,.74-.05,1.11,0s1.34.16.45,0c.8.15,1.54.41,2.32.6.48.12-.14-.07-.21-.1.23.09.46.2.68.31s.67.35,1,.55.64.41,1,.62c.05,0,.56.41.15.1s.35.3.43.37a22.22,22.22,0,0,1,1.6,1.62c.05.05.46.54.13.14s.13.19.21.3c.28.39.54.8.79,1.22s.42.73.61,1.11c.1.18.19.37.28.56s.42.9.21.42.08.21.09.24c.08.2.15.4.22.59.17.47.33.94.47,1.41a39.5,39.5,0,0,1,1.23,5.61l.09.63c0-.08-.07-.67,0-.14s.1.85.14,1.27c.12,1.11.21,2.21.29,3.31a103.5,103.5,0,0,1,.09,12.7c-.06,1.06-.13,2.11-.23,3.17,0,.36-.06.72-.1,1.07s-.23,1.6-.06.62a38.84,38.84,0,0,1-1,4.65c-.1.35-.21.69-.33,1-.06.17-.5,1.32-.29.8s-.21.44-.28.59c-.19.37-.38.73-.59,1.08s-.45.67-.66,1,.15-.18.18-.22l-.33.4q-.34.39-.72.75l-.38.35c-.6.58.39-.22-.05.07s-.64.43-1,.63l-.56.31s-.65.32-.23.12-.2.08-.24.09l-.8.28c-.47.14-.95.27-1.44.38s-.83.18-1.25.26c-.22,0-1.56.24-.71.13-1,.13-2,.22-3,.32a117.09,117.09,0,0,1-12.84.5c-2.1,0-4.2-.13-6.3-.27a4.47,4.47,0,0,0-4.11,2.77,4.64,4.64,0,0,0,.93,4.92c3.53,4.1,7.32,8.79,10.11,12.48q5.06,6.69,9.71,13.67a276.25,276.25,0,0,1,16.64,28.6q2.08,4.14,4,8.34c.68,1.47,1.34,3,2,4.43.29.67.59,1.34.88,2,.15.34.29.68.43,1s.18.41.26.61l.06.15c.91,2.16,3,4,5.54,3.14,2.08-.67,4.12-3.21,3.14-5.53a280.39,280.39,0,0,0-33.86-59.57q-6-8.07-12.57-15.72l-3.19,7.68a118.31,118.31,0,0,0,13.58.16,65.84,65.84,0,0,0,13.5-1.57,18,18,0,0,0,10.4-7.29,25.42,25.42,0,0,0,3.77-10.1,89.51,89.51,0,0,0,.21-26.85c-1.13-8.4-4.19-17-11.91-21.44A16.5,16.5,0,0,0,451.32,144c-4.73,5.6-6.54,12.75-8.06,19.76a356.54,356.54,0,0,0-7.5,54.24,350,350,0,0,0,.89,53.79q.32,3.35.69,6.69c.27,2.34,1.89,4.62,4.5,4.5,2.22-.09,4.79-2,4.5-4.5Z" transform="translate(-86.97 -17.61)"/><path d="M556.49,136.89A730.45,730.45,0,0,1,559,220.18q-.31,11.65-1,23.3a4.53,4.53,0,0,0,4.5,4.5,4.61,4.61,0,0,0,4.5-4.5,728.3,728.3,0,0,0,.13-83.32q-.64-11.65-1.67-23.27c-.2-2.34-1.92-4.61-4.5-4.5-2.26.1-4.72,2-4.5,4.5Z" transform="translate(-86.97 -17.61)"/><path d="M568.44,285.51V273a4.5,4.5,0,0,0-9,0v12.54a4.5,4.5,0,0,0,9,0Z" transform="translate(-86.97 -17.61)"/></g></svg>