<svg id="Calque_1" data-name="Calque 1" xmlns="http://www.w3.org/2000/svg" width="555.35" height="466.34" viewBox="0 0 555.35 466.34"><defs><style>.cls-1{fill:#fff;}</style></defs><path class="cls-1" d="M156.65,481.39c28.11-20.53,34.77-59,39.2-93.52-33.51-8.43-64.11-28.79-83.8-57.19S84,266,90.54,232.05c2.76-14.32,8-28,14-41.34,16.91-37.66,40.41-73.32,73.44-98.08,14.66-11,30.94-19.66,47.55-27.39C310.21,25.83,406.35,10,498.64,24.33c40.94,6.38,83.25,20,110.23,51.47a126.81,126.81,0,0,1,21.57,36.66c18.13,46.52,11.44,100.59-11.89,144.73s-62,78.88-105.34,103.65c-75.7,43.26-167.55,57.44-252.77,39C249,420.6,236.84,441.38,219.5,457.5s-40.76,27.17-64.29,24.61Z" transform="translate(-86.97 -17.61)"/><path d="M157.41,482.69C180,466,189,438.19,193.81,411.58c1.42-7.86,2.52-15.78,3.54-23.71a1.49,1.49,0,0,0-1.1-1.45c-42.75-10.88-80.23-41-96.82-82.29-8.62-21.45-11.76-45.25-8.07-68.13,3.84-23.79,14.44-46.56,25.85-67.6,10.69-19.71,23.51-38.38,39.09-54.55,16.63-17.26,36.28-30.53,57.6-41.32A488,488,0,0,1,354.36,26.9c48.57-8,98.62-8.63,147.23-.59,42.12,7,86.67,22.21,112.4,58.48,27.64,38.94,31,90.69,17.88,135.55-12.71,43.6-41.06,80.78-75.85,109.35-35.5,29.16-77.73,50.12-121.82,62.68A362.13,362.13,0,0,1,295.07,404q-17.25-1.95-34.23-5.61a1.53,1.53,0,0,0-1.69.68c-17.43,31.63-38.34,65.69-74.43,78a69.46,69.46,0,0,1-29.51,3.55l.76,2.79,1.44-.71c1.73-.86.21-3.45-1.52-2.59l-1.43.71c-1.46.73-.58,2.66.75,2.8,18.21,1.85,36.26-4.11,51.37-14.06,15.66-10.31,27.93-24.81,38.21-40.32,6.13-9.25,11.6-18.9,17-28.61l-1.7.69a361.84,361.84,0,0,0,143,1.5C449.6,394,494.62,376.12,534,349.74c37.28-25,70.12-58.3,89.54-99.14,20.18-42.43,25.68-93.25,8.69-137.69-8.3-21.7-21.72-40.85-40.22-55C574.65,44.62,554.18,36,533.25,30.15c-22.53-6.29-45.95-9.56-69.25-11.3a457.06,457.06,0,0,0-75.91.72A493.48,493.48,0,0,0,242,56.33C218.85,66.06,195.81,77.1,175.8,92.4c-18,13.76-33.22,30.8-46,49.47a307.71,307.71,0,0,0-32.71,62.66c-8.74,22.67-12.4,46.31-8.75,70.46,6.81,45.13,36.82,83.45,77.49,103.44a152,152,0,0,0,29.6,10.88l-1.11-1.44c-3.35,26-7.43,54.05-22.81,76.07a69.59,69.59,0,0,1-15.65,16.16C154.36,481.23,155.85,483.84,157.41,482.69Z" transform="translate(-86.97 -17.61)"/><g id="Nuit_" data-name="Nuit !"><path d="M153.48,285.75a90.06,90.06,0,0,1,.46-14.5c.11-1.1.25-2.21.39-3.31a2.08,2.08,0,0,1,0-.23c0-.23.07-.47.1-.71.1-.71.21-1.41.32-2.12.36-2.37.76-4.73,1.17-7.09,1.68-9.61,3.3-19.2,3.83-29,1-18.42-.74-36.88.43-55.29.16-2.55.38-5.1.67-7.63.07-.6.15-1.19.22-1.79-.1.78.12-.79.15-1,.19-1.26.39-2.51.62-3.76a94.66,94.66,0,0,1,4-15h-8.68q8.76,26.76,16.08,54t13.15,54.75q3.3,15.6,6.13,31.31c.39,2.19,2.9,3.49,4.94,3.22,2.38-.32,3.62-2.16,3.9-4.42q3.41-28,6.82-56l6.82-56,3.87-31.72c.28-2.35-2.27-4.6-4.5-4.5-2.68.12-4.19,2-4.5,4.5l-6.82,56q-3.42,28-6.83,56l-3.86,31.72,8.84-1.2q-5-27.71-11.47-55.12t-14.42-54.43q-4.5-15.3-9.47-30.46a4.6,4.6,0,0,0-4.34-3.31,4.73,4.73,0,0,0-4.34,3.31c-6.35,17.66-6.61,36.71-6.32,55.25.14,9.25.4,18.5.08,27.75-.16,4.63-.47,9.27-1,13.88-.24,2.06-.5,3.85-.91,6.38s-.82,4.89-1.25,7.34c-1.92,10.94-3.91,22-3.29,33.19.13,2.34,2,4.61,4.5,4.5,2.33-.11,4.64-2,4.5-4.5Z" transform="translate(-86.97 -17.61)"/><path d="M257.89,140.59a509.11,509.11,0,0,0-5.25,69.77q-.09,17.2,1,34.38c.36,5.67.75,11.36,1.41,17s1.72,11.21,4.19,16.4c3.9,8.21,12,15.06,21,16.91A24.63,24.63,0,0,0,294.38,294a35.4,35.4,0,0,0,12.26-8.55,82.53,82.53,0,0,0,9.28-12.09,80.14,80.14,0,0,0,7.51-14.44c4.11-10.51,4.72-22,5.68-33.17l6.07-69.76.76-8.69a4.53,4.53,0,0,0-4.5-4.5,4.62,4.62,0,0,0-4.5,4.5l-5.88,67.53q-.72,8.37-1.45,16.75c-.23,2.57-.47,5.13-.78,7.68,0,.38-.09.77-.14,1.16,0,.1-.13.88,0,.19-.08.62-.17,1.23-.27,1.85-.2,1.3-.44,2.6-.7,3.89a63.18,63.18,0,0,1-2,7.64c-.4,1.2-.85,2.4-1.34,3.57.3-.71-.37.84-.43,1-.28.61-.57,1.21-.86,1.81a92.05,92.05,0,0,1-7.84,12.79q-.45.63-.93,1.26c-.15.22-.31.42-.47.63-.42.56.41-.5,0,0-.75.92-1.49,1.85-2.28,2.74a42.14,42.14,0,0,1-4.65,4.51c-.19.17-.4.33-.6.49.7-.54,0,0-.17.1-.42.3-.84.59-1.27.87a31.35,31.35,0,0,1-2.84,1.56c-.76.38-.14.07,0,0-.23.09-.47.19-.71.27-.54.2-1.09.38-1.64.53s-1,.26-1.5.36l-.7.13c-.56.11.84-.07-.05,0a23.08,23.08,0,0,1-3,.05c-.23,0-.47,0-.7-.06s-.91-.12-.27,0-.12,0-.28,0l-.86-.18a23.43,23.43,0,0,1-2.72-.78l-.66-.25c-1.08-.4.56.29-.07,0s-1-.46-1.45-.71a25.53,25.53,0,0,1-2.46-1.49c-.4-.28-.8-.56-1.18-.85.76.58.1.06-.08-.09l-.69-.59c-.73-.65-1.42-1.34-2.08-2.05-.32-.36-.63-.74-.95-1.11-.54-.63-.08-.08,0,.06-.22-.29-.43-.59-.64-.89a27.43,27.43,0,0,1-1.55-2.46q-.35-.65-.66-1.29c-.11-.22-.21-.44-.31-.66-.5-1.09.33.93-.17-.43a45.1,45.1,0,0,1-2-7.41c-.11-.59-.21-1.19-.3-1.79-.05-.3-.09-.6-.14-.9.11.73,0,0,0-.15-.16-1.36-.3-2.72-.43-4.08-.26-2.73-.48-5.47-.69-8.21q-1.23-16.54-1.37-33.15a500,500,0,0,1,3.89-66.43c.08-.65.17-1.3.25-1.95,0-.33.09-.65.13-1l.06-.49c0,.31,0,.3,0,0,.18-1.38.38-2.76.57-4.14.34-2.32-.56-4.94-3.14-5.53-2.13-.49-5.18.65-5.53,3.14Z" transform="translate(-86.97 -17.61)"/><path d="M392.61,148l2.16,54.37,2.16,54.13,1.22,30.68a4.5,4.5,0,0,0,9,0L405,232.77l-2.16-54.13L401.61,148a4.5,4.5,0,0,0-9,0Z" transform="translate(-86.97 -17.61)"/><path d="M429.51,158.58a488.37,488.37,0,0,0,54.91-1.24c5.15-.41,10.31-.9,15.45-1.47,2.33-.26,4.62-1.89,4.5-4.5-.1-2.22-2-4.78-4.5-4.5a487.78,487.78,0,0,1-54.84,3q-7.75,0-15.52-.28a4.54,4.54,0,0,0-4.5,4.5,4.6,4.6,0,0,0,4.5,4.5Z" transform="translate(-86.97 -17.61)"/><path d="M460.94,154.21l.45,51.64.44,51.39.25,29.19a4.5,4.5,0,0,0,9,0l-.44-51.64-.45-51.39-.25-29.19a4.5,4.5,0,1,0-9,0Z" transform="translate(-86.97 -17.61)"/><path d="M567.21,148.65c-1.49,14.76,2.38,29.28,3.15,44a127.49,127.49,0,0,1-1,21.74c-.81,7-1.89,13.66-2.75,21.16a116.93,116.93,0,0,0-.69,24.45c.21,2.34,1.91,4.62,4.5,4.5,2.25-.1,4.73-2,4.5-4.5a110.13,110.13,0,0,1,.38-21.63c.17-1.72.37-3.45.59-5.17q.17-1.41.36-2.82l.12-.94c-.09.7.14-1,.16-1.15.52-3.85,1.07-7.7,1.55-11.55A141.84,141.84,0,0,0,579.46,195a216.42,216.42,0,0,0-2.18-21.54c-1.06-8.23-1.9-16.53-1.07-24.82.24-2.35-2.24-4.6-4.5-4.5a4.63,4.63,0,0,0-4.5,4.5Z" transform="translate(-86.97 -17.61)"/><path d="M563.6,277.38v12.53a4.5,4.5,0,0,0,9,0V277.38a4.5,4.5,0,0,0-9,0Z" transform="translate(-86.97 -17.61)"/></g></svg>