<svg xmlns="http://www.w3.org/2000/svg" width="2379.42" height="815.11" viewBox="0 0 2379.42 815.11"><defs><style>.cls-1{fill:#c4c4c4;}.cls-2{fill:#d8a988;}</style></defs><g id="Calque_2" data-name="Calque 2"><path class="cls-1" d="M-38.49,855l3.43,236.1a167.28,167.28,0,0,1,34.47-2.38Q.38,973.89-2,859a200,200,0,0,1-37.55-4.14" transform="translate(230.48 -277.49)"/><path d="M-40,855l1.34,92.34,1.34,91.85.75,51.91a1.53,1.53,0,0,0,1.9,1.45,166.88,166.88,0,0,1,34.07-2.33,1.52,1.52,0,0,0,1.5-1.5q.37-44.94.25-89.89Q1,954.15.37,909.46,0,884.24-.52,859a1.53,1.53,0,0,0-1.5-1.5,200.73,200.73,0,0,1-37.15-4.08c-1.89-.39-2.69,2.5-.8,2.89A205.11,205.11,0,0,0-2,860.52l-1.5-1.5q.94,44.94,1.37,89.89.42,44.69.33,89.39-.06,25.21-.27,50.44l1.5-1.5a171.14,171.14,0,0,0-34.87,2.43l1.9,1.45-1.34-92.35-1.33-91.84L-37,855c0-1.93-3-1.94-3,0Z" transform="translate(230.48 -277.49)"/><path class="cls-1" d="M1921.08,854.91l3.43,236.11a167.28,167.28,0,0,1,34.47-2.38q1-114.87-1.43-229.72a200,200,0,0,1-37.55-4.14" transform="translate(230.48 -277.49)"/><path d="M1919.58,854.91l1.34,92.35,1.34,91.84L1923,1091a1.52,1.52,0,0,0,1.9,1.44,167.59,167.59,0,0,1,34.07-2.32,1.53,1.53,0,0,0,1.5-1.5q.38-45,.25-89.9-.13-44.68-.79-89.38-.36-25.23-.89-50.44a1.53,1.53,0,0,0-1.5-1.5,200.74,200.74,0,0,1-37.15-4.09c-1.89-.38-2.7,2.51-.8,2.9a205.11,205.11,0,0,0,38,4.19l-1.5-1.5q.95,44.94,1.37,89.89.42,44.69.32,89.39,0,25.21-.26,50.44l1.5-1.5a171.14,171.14,0,0,0-34.87,2.43l1.9,1.45-1.34-92.35-1.33-91.84-.76-51.92c0-1.92-3-1.93-3,0Z" transform="translate(230.48 -277.49)"/></g><g id="Desk"><g id="Surface"><path class="cls-2" d="M1887.12,793.3c17.82,1.83,36-.27,53.87,1.19,14.06,1.16,27.65,4.48,41.5,6.65,22,3.45,44.78,4,66.71,7.86,18.17,3.23,35.5,8.74,52.74,14.23,9.44,3,18.95,6,27.48,10.36,6.38,3.23,12.33,7.34,15.38,12.72,2,3.57,2.67,7.51,3,11.4a73.55,73.55,0,0,1-.84,18.14l.54.2c-248.11,7.2-426.19-3.33-688.17,9.26-95.67,4.6-268.5,2.76-364.33,1-138.9-2.5-224.6,9.26-373.46,7.21-197.53-2.74-463.75,6-658.14-3.09C11.26,888-41.53,891.93-93.7,892.06c-29.79.08-59.69-.29-89.34-2.6-10.08-.78-30.22-.22-38.81-4.6-12-6.14-5.68-25.85-3.58-35.87,59-25.93,125.41-41.91,193.18-46.45,27.16-1.82,54.48-1.83,81.69-3.12,27.41-1.3,54.68-3.89,81.89-6.75,81-8.53,161.89-19.53,243.65-21.43,20.32-.48,40.93-.41,60.58-4.45" transform="translate(230.48 -277.49)"/><path d="M1887.12,794.8c25,2.12,49.47-.33,74.3,4.08,21.13,3.75,42.06,6.2,63.41,8.39,23.65,2.42,46.1,7.78,68.74,14.88,11.78,3.69,24.1,7,35.09,12.73,5.67,3,11.54,6.47,14.85,12.19,4.51,7.8,3.16,19.95,2,28.38a1.56,1.56,0,0,0,1.05,1.85l.53.19.4-2.94c-203.35,5.82-406.82-.76-610.16,6.07-89.23,3-178.13,6.27-267.44,6.06-87.43-.2-175-3.49-262.38-1.67-96.56,2-192.86,8.23-289.5,7-95.92-1.24-191.85-.08-287.77.61-99.58.72-199.21,1.36-298.77-1.23-50.48-1.31-100.7-3.84-151.23-2.46-56.27,1.54-111.93,1.44-168.15-1.23-9.32-.44-20.34.54-29.2-2.68-11.75-4.28-13.27-22-7.61-32.32,4.72-8.63,27.74-13.72,37.14-17q19.29-6.78,39-12.16C-94,808.64-38.66,803.62,17.66,802c115-3.26,228.49-24.8,343.44-28.87,25-.89,50.16-.21,74.85-4.91,1.9-.36,1.1-3.26-.79-2.9-28.88,5.5-58.67,4-87.92,5.38-30,1.4-59.9,3.86-89.77,6.79-58,5.7-115.76,13.52-173.83,18.19C27.3,800.22-29.32,798.21-85.3,807A587.61,587.61,0,0,0-166,825.4q-18.42,5.63-36.42,12.51c-6.31,2.42-20.16,5.42-24.5,10.69-3.12,3.78-3.6,16.08-3.6,21.16,0,5.53,1.15,11.38,5.71,15,5,4,12.51,4.44,18.63,5,10.77,1,21.67,1.17,32.47,1.87,59,3.82,118,.8,177-.25,50.19-.89,100.36,2.48,150.54,3.53,50.51,1.05,101,1.32,151.56,1.28,103-.07,206-1.53,309-1.69,98.68-.15,197.06.92,295.7-3.15,90.25-3.73,180.12-3.26,270.41-2.28,87.9,1,176,1.78,263.81-1.62,105.72-4.08,211.27-7.17,317.07-7.3,101.12-.14,202.24.82,303.35-.77q41.34-.64,82.67-1.83a1.51,1.51,0,0,0,.4-2.95c1.87.67.71-23.48-1-27.21-3.82-8.41-12.37-13.18-20.44-16.88-23.1-10.58-49.85-17.89-74.77-22.56-27.55-5.17-55.69-5.72-83.28-10.82-27.26-5-53.88-3-81.29-5.33-1.92-.16-1.91,2.84,0,3Z" transform="translate(230.48 -277.49)"/><path class="cls-2" d="M104.64,335.5c-28,49.09-56.64,100.35-88,148.25q-11.11,17-22.41,33.9l-163.47,246-56.9,85.6.39.3c79.08,14.3,232.38,3.46,288.59,6,194.39,8.8,460.61.35,658.14,3,148.86,2,234.56-9.43,373.46-7,95.83,1.68,268.66,3.47,364.33-1,262-12.23,440.07-2,688.17-9h0c-115.89-191.31-216.56-366.29-322.72-560.88l.18-.12c-176.48-4.91-345.11,3.62-521.5,10.22L104.31,335.57" transform="translate(230.48 -277.49)"/><path d="M103.34,334.74c-38.74,68-78.75,134.54-122.07,199.72l-132.33,199.1Q-189.25,791-227.42,848.44a1.55,1.55,0,0,0,.54,2.06c2.91,2.24,10,2,13.6,2.47,7.49,1,15,1.83,22.53,2.48,16.17,1.41,32.4,2.15,48.62,2.59,34.71,1,69.45.49,104.16-.18,29.11-.55,58.24-1.58,87.35-1.21,33.41.41,66.82,2.43,100.23,3.14,166.18,3.5,332.4-.64,498.59-.31,82.39.16,164.54.76,246.9-2.49,76.33-3,152.38-4.66,228.77-3.51,72.67,1.09,145.37,1.69,218.05,1.15,77.47-.58,154.77-4.8,232.21-6.82,168.32-4.4,336.7-.33,505-3.27q33.9-.59,67.79-1.54a1.52,1.52,0,0,0,1.3-2.26q-130-214.63-252.54-433.66-17.57-31.47-35-63c-2.94-5.33-34.54-62.94-35.57-62.25a1.52,1.52,0,0,0-.76-2.8c-222-6-444.23,7.33-666,15.63l-675.1,25.26-379,14.18c-1.93.07-1.93,3.07,0,3l675.1-25.26q336.58-12.6,673.16-25.36c123.89-4.61,247.87-7.82,371.84-4.45l-.75-2.8-.19.13a1.54,1.54,0,0,0-.53,2.05q95.36,174.72,195.43,346.81,51,87.6,103.36,174.44,5.94,9.89,11.91,19.76c2.12,3.51,11.07,14,8.84,17.73-1.27,2.12-23.36.6-26.55.68q-13,.3-26,.55-46,.87-92,1.15c-118,.79-235.94-.87-353.9.89-112.76,1.67-225.31,8.17-338.1,8.41-105.28.22-210.69-4-315.93-1.24-54.18,1.42-108.3,4.33-162.47,5.73-59.78,1.53-119.52.31-179.31.19-118.47-.24-236.94,1.68-355.41,1.64-57.65,0-115.3-.45-172.92-2.06-41.76-1.17-83.2-2.7-125-1.86-49.47,1-99,2.34-148.46.47-10.93-.41-21.85-1-32.74-1.85q-8-.63-15.9-1.49c-5.15-.56-13.78-.05-18.2-2.43-3.9-2.1-2-2.07.75-6.72,1.56-2.66,3.46-5.21,5.17-7.79L-199,811.05l28.45-42.81L-53.77,592.58c37.36-56.2,75.65-111.86,110-170,16.91-28.58,33.23-57.52,49.67-86.37a1.5,1.5,0,0,0-2.59-1.52Z" transform="translate(230.48 -277.49)"/></g></g></svg>