<svg id="Desk" xmlns="http://www.w3.org/2000/svg" viewBox="0 0 1920 1080"><defs><style>.cls-1{fill:#d8a988;}</style></defs><g id="Desk-2" data-name="Desk"><path class="cls-1" d="M297.5,584.5c-21.44,49.09-43.37,100.35-67.38,148.25-5.67,11.32-11.42,22.61-17.16,33.9l-125.18,246L44.2,1098.2l.3.3c60.56,14.3,178,3.46,221,6,148.86,8.8,352.73.35,504,3,114,2,179.63-9.43,286-7,73.38,1.68,205.73,3.47,279-1,200.62-12.23,337-2,527-9h0c-88.75-191.31-165.84-366.29-247.14-560.88l.14-.12c-135.15-4.91-264.28,3.62-399.37,10.22L297.25,584.57"/><path d="M296.2,583.74c-29.25,67-59.59,133.14-92.77,198.33L100.48,984.33,42.91,1097.44a1.55,1.55,0,0,0,.23,1.82c2,2,7,2,9.65,2.5,5.4,1,10.83,1.78,16.27,2.43,12.27,1.48,24.61,2.27,37,2.76,27,1.06,54,.61,81-.06,22.15-.54,44.33-1.53,66.49-1.27,25.65.31,51.31,2.41,77,3.13,127.25,3.57,254.56-.57,381.82-.28,62.69.15,125.08.87,187.72-2.33,59-3,117.72-4.85,176.85-3.68,55.57,1.1,111.17,1.7,166.75,1.18,59.28-.56,118.31-4.72,177.53-6.77,129.44-4.48,259-.38,388.41-3.33q26-.58,51.92-1.54a1.53,1.53,0,0,0,1.3-2.26q-99.42-214.34-192.49-431.54-13-30.39-25.87-60.84Q1637,579.71,1629.55,562c-1.17-2.77-14.27-31.22-14-31.46a1.51,1.51,0,0,0-1.06-2.56c-170-6-340.32,7.33-510,15.63l-517,25.26L297.25,583.07c-1.92.1-1.93,3.1,0,3l517-25.26q257.76-12.6,515.5-25.36c94.85-4.61,189.81-7.82,284.76-4.45l-1.06-2.56-.14.12a1.45,1.45,0,0,0-.39,1.46q91.86,219.78,190.16,436.77,28.31,62.36,57.13,124.47l1.3-2.26c-163.77,6-327.7-1.16-491.42,7-70,3.5-139.79,5.16-209.92,4.6s-140-3.26-210.09,0c-37,1.71-74,4.07-111.1,5.06-39.83,1.07-79.63,0-119.46-.15-79.67-.31-159.33,1.16-239,1.53-39.79.18-79.58.13-119.37-.58-34-.62-68-2.74-102-3.72-60.35-1.74-120.67,5.12-181-.57-7.89-.74-15.75-1.71-23.55-3.11-1.55-.28-7-.38-7.82-1.57-1.19-1.67,7.38-15.52,8.41-17.54l30.66-60.25L150,893.61c41.83-82.19,85.1-163.74,122.43-248.12,8.87-20,17.58-40.15,26.35-60.23.76-1.76-1.82-3.28-2.6-1.52Z"/></g></svg>