<svg xmlns="http://www.w3.org/2000/svg" viewBox="0 0 1863.69 638.86"><defs><style>.cls-1{fill:#c4c4c4;}.cls-2{fill:#d8a988;}</style></defs><g id="Calque_2" data-name="Calque 2"><path class="cls-1" d="M178.1,882.14,180.78,1067a130.5,130.5,0,0,1,27-1.86q.76-89.94-1.12-179.86a157.92,157.92,0,0,1-29.4-3.25" transform="translate(-27.45 -429.62)"/><path d="M176.6,882.14l1.05,72.19,1,72.2.58,40.47a1.53,1.53,0,0,0,1.9,1.45,130.15,130.15,0,0,1,26.59-1.81,1.52,1.52,0,0,0,1.5-1.5q.3-35.1.2-70.2t-.62-70.2q-.28-19.74-.7-39.46a1.51,1.51,0,0,0-1.5-1.5,157,157,0,0,1-29-3.2c-1.89-.38-2.69,2.51-.8,2.9a163.12,163.12,0,0,0,29.8,3.3l-1.5-1.5q.73,35.09,1.07,70.19t.26,70.2q0,19.72-.21,39.47l1.5-1.5a135.75,135.75,0,0,0-27.38,1.91l1.89,1.45-1-72.2-1.05-72.19-.59-40.47c0-1.93-3-1.94-3,0Z" transform="translate(-27.45 -429.62)"/><path class="cls-1" d="M1712.4,882.06l2.68,184.86a130.5,130.5,0,0,1,27-1.86q.77-89.94-1.12-179.86a157.92,157.92,0,0,1-29.4-3.25" transform="translate(-27.45 -429.62)"/><path d="M1710.9,882.06l1,72.19,1,72.2.58,40.47a1.53,1.53,0,0,0,1.9,1.45,130.86,130.86,0,0,1,26.59-1.81,1.52,1.52,0,0,0,1.5-1.5q.3-35.1.2-70.2t-.62-70.2q-.29-19.73-.7-39.46a1.51,1.51,0,0,0-1.5-1.5,157.86,157.86,0,0,1-29-3.19c-1.89-.39-2.69,2.5-.8,2.89a163.12,163.12,0,0,0,29.8,3.3l-1.5-1.5q.73,35.09,1.07,70.19t.26,70.2q0,19.73-.21,39.47l1.5-1.5a135.75,135.75,0,0,0-27.38,1.91l1.89,1.45-1-72.2-1-72.19-.59-40.47c0-1.93-3-1.94-3,0Z" transform="translate(-27.45 -429.62)"/></g><g id="Desk"><g id="Surface"><path class="cls-2" d="M1685.81,833.82c14,1.42,28.18-.22,42.18.93,11,.9,21.64,3.5,32.49,5.2,17.27,2.7,35.07,3.1,52.23,6.16,14.23,2.53,27.8,6.84,41.29,11.14,7.4,2.35,14.84,4.72,21.52,8.11,5,2.53,9.66,5.75,12,10a21,21,0,0,1,2.33,8.93,57.3,57.3,0,0,1-.66,14.2l.42.15c-194.26,5.64-333.7-2.6-538.82,7.26-74.91,3.6-210.23,2.15-285.26.8-108.76-2-175.86,7.26-292.42,5.64-154.66-2.14-363.1,4.68-515.3-2.41-40.81-1.91-82.14,1.15-123,1.25-23.32.06-46.74-.22-70-2-7.89-.62-23.65-.17-30.38-3.61-9.42-4.81-4.45-20.24-2.81-28.08,46.2-20.31,98.2-32.81,151.26-36.37,21.27-1.43,42.66-1.44,64-2.45,21.46-1,42.81-3,64.11-5.28,63.45-6.68,126.76-15.29,190.77-16.78,15.92-.37,32.06-.32,47.43-3.48" transform="translate(-27.45 -429.62)"/><path d="M1685.81,835.32c19.5,1.65,38.67-.27,58.09,3.18,16.57,2.94,33,4.86,49.73,6.58,18.49,1.89,36,6.09,53.74,11.64,9.19,2.88,18.81,5.47,27.39,9.93,4.4,2.29,9,5,11.51,9.43,3.49,6,2.44,15.46,1.53,22a1.56,1.56,0,0,0,1,1.85l.42.15.39-2.95c-159.22,4.57-318.53-.59-477.74,4.76-69.86,2.35-139.47,4.91-209.4,4.74-68.46-.16-137-2.73-205.43-1.31-75.61,1.58-151,6.45-226.68,5.48-75.1-1-150.21-.06-225.32.48-78,.56-156,1.06-233.92-1-39.53-1-78.86-3-118.42-1.92-44.05,1.2-87.64,1.13-131.65-1-7.26-.34-15.89.45-22.78-2.09-8.95-3.29-10.15-17-5.73-24.9,3.7-6.6,21.6-10.55,28.86-13.1Q76.54,862,92,857.78c42.69-11.63,86-15.56,130.06-16.81,90-2.56,178.9-19.42,268.91-22.61,19.61-.7,39.33-.17,58.69-3.86,1.9-.36,1.1-3.25-.79-2.89-22.58,4.3-45.89,3.13-68.75,4.2-23.48,1.09-46.91,3-70.29,5.32-45.4,4.46-90.64,10.58-136.11,14.23-44.14,3.55-88.5,2-132.36,8.83A459.51,459.51,0,0,0,78.2,858.64q-14.41,4.4-28.51,9.79c-5,1.92-16,4.32-19.41,8.59-2.45,3.11-2.83,12.58-2.83,16.66,0,4.44,1,9.13,4.63,12,4,3.14,9.89,3.51,14.75,4,8.43.79,17,.91,25.42,1.46,46.2,3,92.4.63,138.62-.19,39.3-.7,78.58,1.93,117.87,2.75,39.55.83,79.11,1,118.67,1,80.65-.06,161.29-1.2,241.94-1.32,77.27-.12,154.3.72,231.53-2.47,70.66-2.92,141-2.55,211.73-1.78,68.81.75,137.77,1.39,206.55-1.27,82.77-3.2,165.42-5.61,248.26-5.72,79.17-.1,158.35.65,237.51-.6q32.37-.51,64.73-1.44a1.5,1.5,0,0,0,.4-2.94c2.07.74.74-18.3-.57-21.16-3-6.63-9.75-10.41-16.12-13.33-18.11-8.31-39.08-14-58.62-17.7-21.57-4.05-43.61-4.48-65.21-8.47-21.37-4-42.24-2.36-63.73-4.18-1.92-.17-1.91,2.83,0,3Z" transform="translate(-27.45 -429.62)"/><path class="cls-2" d="M290.16,475.37c-21.92,38.44-44.35,78.57-68.89,116.07q-8.7,13.3-17.55,26.54l-128,192.58-44.55,67,.3.24c61.92,11.19,182,2.7,226,4.7,152.21,6.88,360.65.27,515.31,2.34,116.56,1.57,183.66-7.38,292.42-5.48,75,1.32,210.35,2.72,285.26-.78C1555.55,869,1695,877,1889.25,871.55h0c-90.74-149.79-169.56-286.79-252.68-439.15l.14-.1c-138.19-3.84-270.21,2.84-408.33,8L289.91,475.42" transform="translate(-27.45 -429.62)"/><path d="M288.87,474.61C258.53,527.84,227.2,580,193.29,631L89.67,786.87l-59.78,90a1.53,1.53,0,0,0,.54,2c2.32,1.8,7.91,1.58,10.77,2,5.87.81,11.77,1.44,17.68,1.95,12.66,1.11,25.37,1.69,38.07,2,27.18.74,54.38.38,81.56-.14,22.78-.43,45.59-1.23,68.39-1,26.15.32,52.31,1.9,78.47,2.46,130.12,2.74,260.27-.51,390.39-.24,64.51.12,128.83.6,193.32-2,59.76-2.36,119.31-3.65,179.12-2.75,56.9.85,113.82,1.32,170.73.9,60.66-.46,121.18-3.76,181.81-5.34,131.79-3.44,263.63-.26,395.43-2.56q26.55-.46,53.08-1.21a1.51,1.51,0,0,0,1.3-2.25q-101.79-168.06-197.73-339.55-13.75-24.64-27.39-49.35c-2.37-4.3-26.67-49.17-28-48.3a1.52,1.52,0,0,0-.76-2.8c-173.8-4.72-347.83,5.74-521.46,12.24L586.66,462.82l-296.75,11.1c-1.93.07-1.94,3.07,0,3l528.58-19.78q263.55-9.86,527.07-19.85c97-3.62,194.08-6.12,291.15-3.49L1636,431l-.14.09a1.54,1.54,0,0,0-.54,2.06Q1729.2,605.27,1829.05,774q29.21,49.28,58.91,98.27l1.29-2.26c-160.39,4.47-320.86-.62-481.23,4.74-70.61,2.37-141,4.7-211.64,4.48-69-.21-138.12-2.73-207.13-1.1-75.93,1.8-151.59,5.87-227.57,5.06-76.61-.82-153.23.15-229.84.65-77.53.52-155.11.91-232.62-1.33-27.17-.79-54.2-2.09-81.39-1.63-32,.53-63.94,1.47-95.93,1.3-15.87-.09-31.75-.41-47.61-1.32-7-.4-14.06-.92-21.06-1.63q-4.89-.48-9.75-1.11-2.88-.37-5.75-.82c-3.42-.52-2.87,0-3.23-2.05s7.75-11.65,9.11-13.71l9.12-13.71L73,817.41q18.78-28.27,37.57-56.53C160.66,685.48,213.25,611.19,258.9,533c11-18.86,21.74-37.87,32.56-56.85a1.5,1.5,0,0,0-2.59-1.51Z" transform="translate(-27.45 -429.62)"/></g></g></svg>