<svg id="Calque_1" data-name="Calque 1" xmlns="http://www.w3.org/2000/svg" viewBox="0 0 1900 500"><defs><style>.cls-1{fill:#d8a988;}</style></defs><path class="cls-1" d="M234.55,48.52c-22.18,50.8-22.76,35.29-47.59,84.84-5.87,11.72-41.65,75.23-47.59,86.91C96.19,305.1,98,309.37,54.81,394.19q-22.54,44.3-45.08,88.58l.3.3c62.66,14.8,184.12,3.58,228.66,6.21,154,9.11,365,.36,521.47,3.11,118,2.07,185.85-9.76,295.91-7.25,75.92,1.74,212.86,3.59,288.67-1,207.57-12.66,348.68-2.07,545.26-9.31h0c-91.83-197.94-165.24-266.33-249.35-467.67h0c-139.84-5.08-279.27.42-419,7.25C905.05,29.84,551.12,33.05,234.55,48.52"/><path d="M233.26,47.76c-6.07,13.8-12.41,27.5-20.84,40-6.81,10.13-13.61,20-19.46,30.79-12.32,22.63-24.36,45.38-36.85,67.93-28.16,50.83-52,103.58-77.24,155.89-22.62,47-46.8,93.17-70.44,139.61a1.56,1.56,0,0,0,.24,1.82c2.05,2.07,7.19,2.06,10,2.57,5.57,1,11.19,1.83,16.82,2.51,12.69,1.53,25.46,2.35,38.22,2.85,27.94,1.1,55.92.64,83.86-.05,22.91-.57,45.86-1.59,68.79-1.32,26.54.32,53.09,2.49,79.63,3.23,131.65,3.7,263.37-.58,395.05-.28,64.85.15,129.41.9,194.22-2.42,61.09-3.13,121.8-5,183-3.81,57.5,1.14,115,1.77,172.53,1.23,61.33-.58,122.41-4.89,183.68-7,133.93-4.63,267.93-.38,401.88-3.44q26.85-.61,53.71-1.59a1.53,1.53,0,0,0,1.3-2.26c-30-64.57-64.17-126.89-100.73-188-31.75-53.06-64.26-105.67-92.9-160.52C1677.42,86.76,1659,47.08,1642.09,6.73a1.57,1.57,0,0,0-1.44-1.1c-187.59-6.69-374.84,6.29-562.21,13.4C897.32,25.91,716.1,29.93,534.93,35.52,434.78,38.6,334.64,42.14,234.55,47c-1.92.09-1.93,3.09,0,3,128.94-6.28,258-10.36,387-14.07C753,32.17,884.5,28.84,1015.94,24.29c133.43-4.61,266.74-12.7,400.2-16.14,69.2-1.78,138.46-2.18,207.65-.08,3.63.11,9.59-.76,13.11.43,3.76,1.27,4.64,4.6,6,7.84q4.86,11.46,9.9,22.86,9.45,21.38,19.55,42.46,18.15,37.88,38.41,74.67c50.79,92.4,109.44,180,156.48,274.56q11,22.19,21.45,44.66l1.3-2.25c-180.49,6.56-361.13-1.66-541.52,9.08-73.81,4.4-148,3.53-221.88,2.54-37.32-.5-74.66-1.87-112-1.59-40.81.31-81.54,2.67-122.29,4.74-84.7,4.29-169.34,1.9-254.09,2.43-87.79.55-175.57,2.12-263.36,1.34-41.27-.36-82.54-1.22-123.75-3.37-29.54-1.54-58.91-.65-88.47.11-36,.92-72.12,1.74-108.06-.86-8.53-.61-17.05-1.43-25.51-2.64-3.58-.52-7.14-1.09-10.69-1.77-1.07-.2-3.21-.32-4.05-.81-2,.25-2.59-.51-1.65-2.26l2.51-4.92,34.23-67.25c31.7-62.28,59.55-126.48,91.94-188.4,11.89-22.74,24.79-45,37.14-67.47,11.86-21.58,23.18-43,36.89-63.47,8.26-12.36,14.48-25.88,20.45-39.45.77-1.75-1.82-3.28-2.59-1.52Z"/></svg>