<svg xmlns="http://www.w3.org/2000/svg" viewBox="0 0 1863.69 554.45"><defs><style>.cls-1{fill:#c4c4c4;}.cls-2{fill:#d8a988;}</style></defs><g id="Calque_2" data-name="Calque 2"><path class="cls-1" d="M1713.17,969.63l.91,67.94.45,33.58c0,1.46-.88,5.29,0,6.35,1,1.31,4.42,1,6,1h16c2.63,0,4.87.07,7.5-.09-2.63-.9-1.13-20.38-1.16-23.84q-.1-13.72-.27-27.44-.33-27-.84-54.09a145.12,145.12,0,0,1-29.41-3.53" transform="translate(-28.45 -525.62)"/><path d="M1711.67,969.63l.8,59.95.4,29.72.1,7.41a44.67,44.67,0,0,1-.06,5.9c-.33,2.91-.85,6.32,2.77,7.16a23,23,0,0,0,5.24.23h7.58c5.16,0,10.35.19,15.5-.09a1.5,1.5,0,0,0,.4-2.94c.19.07.46.22.41.25s0,.09-.07-.13,0,.16-.07-.12-.1-.31-.14-.47a12.21,12.21,0,0,1-.37-2.23,64.66,64.66,0,0,1-.22-6.82c0-4.12.32-8.23.39-12.35.14-8.32-.13-16.66-.23-25q-.15-13.41-.35-26.81-.24-15.13-.52-30.27a1.52,1.52,0,0,0-1.5-1.5,146.76,146.76,0,0,1-29-3.47c-1.88-.42-2.68,2.47-.8,2.89a150.29,150.29,0,0,0,29.81,3.58l-1.5-1.5q.52,27.78.85,55.59c.11,8.77.37,17.57.26,26.35-.06,4.25-.38,8.49-.4,12.75a57.81,57.81,0,0,0,.33,7.56c.23,1.72.52,3.83,2.33,4.57l.4-2.95c-4.39.24-8.82.09-13.21.09-4,0-7.93,0-11.9,0-.71,0-2.7.2-3.19-.45-.27-.36,0-1.38,0-1.79,0-.77.16-1.55.25-2.32a46.11,46.11,0,0,0,0-5.76l-.09-7.16-.77-57.45-.44-32.47a1.5,1.5,0,0,0-3,0Z" transform="translate(-28.45 -525.62)"/><path class="cls-1" d="M1714.62,980.54l.83,62.57.42,30.93c0,1.34-1.12,6,.13,6h20c2.42,0,4.59.14,7,0-2.41-.83-1.15-18-1.18-21.23q-.09-12.64-.25-25.28-.28-24.9-.77-49.82a132.61,132.61,0,0,1-27-3.24" transform="translate(-28.45 -525.62)"/><path class="cls-1" d="M178.79,969.63l.91,67.94.45,33.58c0,1.46-.88,5.29,0,6.35,1.06,1.31,4.42,1,6,1h16c2.64,0,4.87.07,7.5-.09-2.63-.9-1.13-20.38-1.16-23.84q-.11-13.72-.27-27.44-.31-27-.84-54.09a145.12,145.12,0,0,1-29.41-3.53" transform="translate(-28.45 -525.62)"/><path d="M177.29,969.63l.81,59.95.39,29.72.1,7.41a46.45,46.45,0,0,1-.05,5.9c-.34,2.91-.86,6.32,2.76,7.16a23,23,0,0,0,5.24.23h7.58c5.16,0,10.35.19,15.5-.09a1.5,1.5,0,0,0,.4-2.94c.19.07.46.22.41.25s0,.09-.07-.13,0,.16-.07-.12-.1-.31-.14-.47a12.21,12.21,0,0,1-.37-2.23,67.46,67.46,0,0,1-.22-6.82c0-4.12.33-8.23.4-12.35.13-8.32-.14-16.66-.24-25q-.15-13.41-.35-26.81-.23-15.13-.52-30.27a1.52,1.52,0,0,0-1.5-1.5,146.76,146.76,0,0,1-29-3.47c-1.88-.42-2.68,2.47-.79,2.89a150.1,150.1,0,0,0,29.8,3.58l-1.5-1.5q.53,27.78.86,55.59c.1,8.77.36,17.57.25,26.35-.06,4.25-.37,8.49-.4,12.75a57.81,57.81,0,0,0,.33,7.56c.23,1.72.52,3.83,2.33,4.57l.4-2.95c-4.39.24-8.82.09-13.21.09-4,0-7.93,0-11.9,0-.7,0-2.7.2-3.18-.45-.28-.36-.06-1.38,0-1.79.06-.77.17-1.55.25-2.32a44.27,44.27,0,0,0,0-5.76l-.09-7.16-.77-57.45-.44-32.47a1.5,1.5,0,0,0-3,0Z" transform="translate(-28.45 -525.62)"/><path class="cls-1" d="M180.24,980.54l.83,62.57.42,30.93c0,1.34-1.12,6,.13,6h20c2.42,0,4.59.14,7,0-2.41-.83-1.15-18-1.18-21.23q-.09-12.64-.24-25.28-.3-24.9-.78-49.82a132.61,132.61,0,0,1-27-3.24" transform="translate(-28.45 -525.62)"/></g><g id="Desk"><g id="Surface"><path class="cls-2" d="M1686.81,929.82c14,1.42,28.18-.22,42.18.93,11,.9,21.64,3.5,32.49,5.2,17.27,2.7,35.07,3.1,52.23,6.16,14.23,2.53,27.8,6.84,41.29,11.14,7.4,2.35,14.84,4.72,21.52,8.11,5,2.53,9.66,5.75,12,10a21,21,0,0,1,2.33,8.93,57.3,57.3,0,0,1-.66,14.2l.42.15c-194.26,5.64-333.7-2.6-538.82,7.26-74.91,3.6-210.23,2.15-285.26.8-108.76-2-175.86,7.26-292.42,5.64-154.66-2.14-363.1,4.68-515.3-2.41-40.81-1.91-82.14,1.15-123,1.25-23.32.06-46.74-.22-70-2-7.89-.62-23.65-.17-30.38-3.61-9.42-4.81-4.45-20.24-2.81-28.08,46.2-20.31,98.2-32.81,151.26-36.37,21.27-1.43,42.66-1.44,64-2.45,21.46-1,42.81-3,64.11-5.28,63.45-6.68,126.76-15.29,190.77-16.78,15.92-.37,32.06-.32,47.43-3.48" transform="translate(-28.45 -525.62)"/><path d="M1686.81,931.32c19.5,1.65,38.67-.27,58.09,3.18,16.57,2.94,33,4.86,49.73,6.58,18.49,1.89,36,6.09,53.74,11.64,9.19,2.88,18.81,5.47,27.39,9.93,4.4,2.29,9,5,11.51,9.43,3.49,6,2.44,15.46,1.53,22a1.56,1.56,0,0,0,1,1.85l.42.15.39-2.95c-159.22,4.57-318.53-.59-477.74,4.76-69.86,2.35-139.47,4.91-209.4,4.74-68.46-.16-137-2.73-205.43-1.31-75.61,1.58-151,6.45-226.68,5.48-75.1-1-150.21-.06-225.32.48-78,.56-156,1.06-233.92-1-39.53-1-78.86-3-118.42-1.92-44.05,1.2-87.64,1.13-131.65-1-7.26-.34-15.89.45-22.78-2.09-8.95-3.29-10.15-17-5.73-24.9,3.7-6.6,21.6-10.55,28.86-13.1Q77.54,958,93,953.78c42.69-11.63,86-15.56,130.06-16.81,90-2.56,178.9-19.42,268.91-22.61,19.61-.7,39.33-.17,58.69-3.86,1.9-.36,1.1-3.25-.79-2.89-22.58,4.3-45.89,3.13-68.75,4.2-23.48,1.09-46.91,3-70.29,5.32-45.4,4.46-90.64,10.58-136.11,14.23-44.14,3.55-88.5,2-132.36,8.83A459.51,459.51,0,0,0,79.2,954.64q-14.42,4.4-28.51,9.79c-5,1.92-16,4.32-19.41,8.59-2.45,3.11-2.83,12.58-2.83,16.66,0,4.44,1,9.13,4.63,12,4,3.14,9.89,3.51,14.75,4,8.43.79,17,.91,25.42,1.46,46.2,3,92.4.63,138.62-.19,39.3-.7,78.58,1.93,117.87,2.75,39.55.83,79.11,1,118.67,1,80.65-.06,161.29-1.2,241.94-1.32,77.27-.12,154.3.72,231.53-2.47,70.66-2.92,141-2.55,211.73-1.78,68.81.75,137.77,1.39,206.55-1.27,82.77-3.2,165.42-5.61,248.26-5.72,79.17-.1,158.35.65,237.51-.6q32.37-.51,64.73-1.44a1.5,1.5,0,0,0,.4-2.94c2.07.74.74-18.3-.57-21.16-3-6.63-9.75-10.41-16.12-13.33-18.11-8.31-39.08-14-58.62-17.7-21.57-4.05-43.61-4.48-65.21-8.47-21.37-4-42.24-2.36-63.73-4.18-1.92-.17-1.91,2.83,0,3Z" transform="translate(-28.45 -525.62)"/><path class="cls-2" d="M291.16,571.37c-21.92,38.44-44.35,78.57-68.89,116.07q-8.7,13.3-17.55,26.54l-128,192.58-44.55,67,.3.24c61.92,11.19,182,2.7,226,4.7,152.21,6.88,360.65.27,515.31,2.34,116.56,1.57,183.66-7.38,292.42-5.48,75,1.32,210.35,2.72,285.26-.78C1556.55,965,1696,973,1890.25,967.55h0c-90.74-149.79-169.56-286.79-252.68-439.15l.14-.1c-138.19-3.84-270.21,2.84-408.33,8L290.91,571.42" transform="translate(-28.45 -525.62)"/><path d="M289.87,570.61C259.53,623.84,228.2,676,194.29,727L90.67,882.87l-59.78,90a1.53,1.53,0,0,0,.54,2c2.32,1.8,7.91,1.58,10.77,2,5.87.81,11.77,1.44,17.68,1.95,12.66,1.11,25.37,1.69,38.07,2,27.18.74,54.38.38,81.56-.14,22.78-.43,45.59-1.23,68.39-1,26.15.32,52.31,1.9,78.47,2.46,130.12,2.74,260.27-.51,390.39-.24,64.51.12,128.83.6,193.32-2,59.76-2.36,119.31-3.65,179.12-2.75,56.9.85,113.82,1.32,170.73.9,60.66-.46,121.18-3.76,181.81-5.34,131.79-3.44,263.63-.26,395.43-2.56q26.55-.46,53.08-1.21a1.51,1.51,0,0,0,1.3-2.25q-101.79-168.06-197.73-339.55-13.75-24.64-27.39-49.35c-2.37-4.3-26.67-49.17-28-48.3a1.52,1.52,0,0,0-.76-2.8c-173.8-4.72-347.83,5.74-521.46,12.24L587.66,558.82l-296.75,11.1c-1.93.07-1.94,3.07,0,3l528.58-19.78q263.55-9.85,527.07-19.85c97-3.62,194.08-6.12,291.15-3.49L1637,527l-.14.09a1.54,1.54,0,0,0-.54,2.06Q1730.2,701.27,1830.05,870q29.21,49.28,58.91,98.27l1.29-2.26c-160.39,4.47-320.86-.62-481.23,4.74-70.61,2.37-141,4.7-211.64,4.48-69-.21-138.12-2.73-207.13-1.1-75.93,1.8-151.59,5.87-227.57,5.06-76.61-.82-153.23.15-229.84.65-77.53.52-155.11.91-232.62-1.33-27.17-.79-54.2-2.09-81.39-1.63-32,.53-63.94,1.47-95.93,1.3-15.87-.09-31.75-.41-47.61-1.32-7-.4-14.06-.92-21.06-1.63q-4.89-.48-9.75-1.11-2.88-.37-5.75-.82c-3.42-.52-2.87,0-3.23-2.05s7.75-11.65,9.11-13.71l9.12-13.71L74,913.41q18.78-28.27,37.57-56.53C161.66,781.48,214.25,707.19,259.9,629c11-18.86,21.74-37.87,32.56-56.85a1.5,1.5,0,0,0-2.59-1.51Z" transform="translate(-28.45 -525.62)"/></g></g></svg>