<svg id="Calque_1" data-name="Calque 1" xmlns="http://www.w3.org/2000/svg" width="468" height="264.43" viewBox="0 0 468 264.43"><defs><style>.cls-1{fill:#fffde1;stroke:#000;stroke-miterlimit:10;}.cls-2{fill:#fff;}.cls-3{fill:#d8a988;}</style></defs><rect class="cls-1" x="18.99" y="19.4" width="430" height="231"/><g id="Logo"><path d="M155.07,150.54c2.36-13.73,11.06-25.82,22-34.39s24.12-14,37.45-18c20.91-6.34,43.52-9.61,64.55-3.69a31.62,31.62,0,0,1,9.48,4.08,34.3,34.3,0,0,1,7.28,7.4,121.34,121.34,0,0,1,23,95.82c-.78,4.1-1.81,8.23-4,11.78-2,3.25-4.9,5.85-7.76,8.41-9.94,8.9-20.08,17.93-32.18,23.58-12.45,5.81-26.38,7.75-40.11,8-10.67.17-21.52-.68-31.52-4.41-18.35-6.85-32.16-23-39.76-41s-9.59-38-9.82-57.56Z" transform="translate(-5.88 -43.85)"/><path d="M156.52,150.94c2.77-15.73,13.56-28.7,26.64-37.29a108.78,108.78,0,0,1,23.1-11.19,179.88,179.88,0,0,1,25.91-7.2,117.57,117.57,0,0,1,27.12-2.33,84.84,84.84,0,0,1,13.57,1.57,48,48,0,0,1,12.57,3.91c3.87,2,6.74,5.19,9.38,8.59a116.38,116.38,0,0,1,6.84,9.92,117.78,117.78,0,0,1,10.46,21.62,121.38,121.38,0,0,1,7.19,47.05,111.6,111.6,0,0,1-1.2,12,53.77,53.77,0,0,1-2.93,12.14c-1.64,4-4.54,7.05-7.68,9.91s-6.43,5.77-9.71,8.58c-6.58,5.62-13.5,10.93-21.23,14.89a80.88,80.88,0,0,1-25.39,7.72,130.45,130.45,0,0,1-26.79,1c-8.71-.57-17.44-2.3-25.33-6.15-13.47-6.56-23.92-18.16-30.86-31.28-8.19-15.5-11.39-33.17-12.48-50.51-.27-4.44-.41-8.89-.47-13.34l-1.5,1.5,1.34,0c1.93.05,1.93-2.95,0-3l-1.34,0a1.52,1.52,0,0,0-1.5,1.5c.23,18.65,2,37.66,8.76,55.19,5.64,14.61,14.88,28,27.68,37.23a61.39,61.39,0,0,0,22.22,10c9.16,2.08,18.67,2.38,28,2a106.82,106.82,0,0,0,27.16-4.34,81.69,81.69,0,0,0,24.06-12.44,222.34,222.34,0,0,0,20.42-17.24,29.32,29.32,0,0,0,7.51-10.37,55.58,55.58,0,0,0,3-12.55,122.46,122.46,0,0,0-2.71-49.5,120.8,120.8,0,0,0-21.95-44.24c-2.79-3.52-5.94-6.69-10-8.67a53.7,53.7,0,0,0-12.94-4,98.31,98.31,0,0,0-28-1.23,168.94,168.94,0,0,0-53.17,14.76c-14.85,7.21-28.46,18.4-35.18,33.83a49.33,49.33,0,0,0-3.42,11.22C153.29,152,156.18,152.84,156.52,150.94Z" transform="translate(-5.88 -43.85)"/><path class="cls-2" d="M275.29,138.9a12.86,12.86,0,0,1,2.07-13.49c3.26-3.53,9.09-4.56,13.14-2,5.34,3.42,5.9,10.86,5.9,17.2q0,38.21,0,76.4a9,9,0,0,1-.67,4.2c-1.18,2.25-3.94,3.07-6.41,3.67-4,1-8.56,1.86-11.95-.48s-4.2-7.24-3.15-11.26,3.55-7.47,5.62-11.07c10.75-18.72,9.82-43.54-2.32-61.39Z" transform="translate(-5.88 -43.85)"/><path class="cls-2" d="M275.65,138.8c-2.9-7.13,1-16.18,9.38-16.42a9.47,9.47,0,0,1,8.61,5c1.72,3,2.17,6.66,2.32,10.09.2,4.21.07,8.45.07,12.67v63.41c0,2.17.34,4.72-.33,6.81-1.18,3.63-6.43,4.34-9.65,4.88-4,.68-8.52.32-10.68-3.61-4.11-7.45,2.67-15.11,5.92-21.39a57.68,57.68,0,0,0,6-20.2,61.14,61.14,0,0,0-1.48-21.56,58.7,58.7,0,0,0-3.6-10.16q-1.14-2.48-2.52-4.83a13.83,13.83,0,0,0-2.21-3.27c-.62-.56-1.31-1.06-2-1.58-.37-.3-.91.22-.53.53a25.72,25.72,0,0,1,2.07,1.68A19.58,19.58,0,0,1,280,145.4a55.91,55.91,0,0,1,4.61,11.21,60.22,60.22,0,0,1,2,23.62,56.93,56.93,0,0,1-7.68,22.8c-3.43,5.76-8.52,14-3.25,20.3,2.4,2.89,6.23,3.26,9.72,2.78a39,39,0,0,0,5.63-1.23,9.72,9.72,0,0,0,4.13-2.16,6.5,6.5,0,0,0,1.67-4.59c.09-2.52,0-5,0-7.57V150.14c0-4.51.17-9.06-.12-13.56-.4-6.3-2.64-13.94-10-14.87s-12.87,5.16-12.82,12.14a14,14,0,0,0,1.05,5.15C275.11,139.44,275.84,139.25,275.65,138.8Z" transform="translate(-5.88 -43.85)"/><path class="cls-2" d="M261.92,164.59c-13.33.73-26.68,1.47-40,1.12-4.33-.11-8.9-.28-12.7,1.79s-6.22,7.32-3.74,10.87c2,2.94,6.19,3.31,9.78,3.39l46.25,1.11c5.88.14,11.85.27,17.56-1.13a2.73,2.73,0,0,0,1.88-1.11,2.78,2.78,0,0,0,.16-1.62c-1-9.93-2.08-20.29-7.48-28.68a63,63,0,0,0-8.69-10.07c-4.81-4.84-9.84-9.83-16.24-12.18a45.32,45.32,0,0,0-9.46-2c-7.93-1.11-16-2.07-23.93-.69a41.39,41.39,0,0,0-27.48,18.42,77.36,77.36,0,0,0-5.34,10.7,77.68,77.68,0,0,0-4.54,12.69c-2.79,12,.07,24.93,6.89,35.13s17.36,17.68,29,21.64a32.06,32.06,0,0,0,8.52,1.85,68.5,68.5,0,0,0,9-.59c3.16-.26,6.35-.25,9.5-.62,17.65-2,32.78-16.71,36.45-34.09l-15.64-.37a2.29,2.29,0,0,0-1.24.21,2.32,2.32,0,0,0-.75,1,29,29,0,0,1-14,12.88,48.92,48.92,0,0,1-18.87,4,21.56,21.56,0,0,1-7.68-.82,25.3,25.3,0,0,1-6.78-4.08c-4.22-3.21-8.55-6.51-11.35-11a32.75,32.75,0,0,1-3.79-9.77c-1.55-6.37-2.12-13.22.15-19.36a27.44,27.44,0,0,1,4.55-7.76c8.15-10.05,21.63-15.15,34.53-14.14a21,21,0,0,1,7.82,1.89,24.41,24.41,0,0,1,5.85,4.48,114.09,114.09,0,0,1,8.62,9.24c1.73,2.07,3.48,4.59,2.93,7.22Z" transform="translate(-5.88 -43.85)"/><path class="cls-2" d="M261.92,164.21c-9,.5-17.94,1-26.92,1.16q-6.76.12-13.52-.05c-3.63-.09-7.42-.2-10.87,1.12a10.2,10.2,0,0,0-6,5.84,6.62,6.62,0,0,0,1.36,7.26c2.15,2.06,5.37,2.44,8.21,2.56,4.33.2,8.67.22,13,.32l27.1.65c4.47.11,9,.29,13.43.25a62.61,62.61,0,0,0,6.42-.35,25.72,25.72,0,0,0,5.65-1.05,2.48,2.48,0,0,0,1.69-2.91c-.15-1.9-.38-3.8-.6-5.69a86.39,86.39,0,0,0-1.88-11,42.25,42.25,0,0,0-4-10.41,45.14,45.14,0,0,0-7-9.09c-5.12-5.36-10.54-11.25-17.39-14.38-3.72-1.7-7.74-2.3-11.75-2.86-4.17-.58-8.36-1.1-12.57-1.27a45.35,45.35,0,0,0-21.87,4.18A42,42,0,0,0,189,141.37,56.83,56.83,0,0,0,183.16,152a114.15,114.15,0,0,0-4.59,11.52,43.56,43.56,0,0,0-1.16,22c2.92,14.44,12.62,26.45,25.21,33.77a61.58,61.58,0,0,0,9.4,4.44,33.12,33.12,0,0,0,11.73,2.49c2.15,0,4.28-.3,6.42-.51s4.28-.29,6.42-.4a46.32,46.32,0,0,0,10.47-1.56c12.23-3.52,22.5-12.88,27.73-24.41a43.16,43.16,0,0,0,2.88-8.73.38.38,0,0,0-.36-.47l-11.24-.26a32.65,32.65,0,0,0-5-.09c-1.19.17-1.52,1.13-2,2.08a28.75,28.75,0,0,1-13.18,11.89,48.19,48.19,0,0,1-20.86,4.1,17,17,0,0,1-9.93-3,81.57,81.57,0,0,1-8-6.23,28.4,28.4,0,0,1-6.37-7.61,36.33,36.33,0,0,1-3.35-9.63c-1.53-6.9-1.75-14.31,1.59-20.73,5.7-10.93,17.88-17.59,29.85-18.85a38.47,38.47,0,0,1,10.28.19c4.23.69,7.43,2.74,10.5,5.65a112.72,112.72,0,0,1,8,8.47,17.53,17.53,0,0,1,3.44,5.05,6,6,0,0,1,.28.94c.14.69-.06,1.28,0,1.94a2.13,2.13,0,0,0,.32.82c.23.42.88,0,.65-.38s-.17-.61-.14-1.12a5.58,5.58,0,0,0-.28-2,12.65,12.65,0,0,0-2.34-4.05A96.82,96.82,0,0,0,252,149c-2.5-2.5-5.11-5.14-8.42-6.55a25.57,25.57,0,0,0-9.49-1.68c-12.07-.27-24.47,4.69-32.25,14.07a27,27,0,0,0-6.39,18.81,48.21,48.21,0,0,0,1.72,10.46,29.73,29.73,0,0,0,4.15,9.41,35.17,35.17,0,0,0,6.74,6.94,58.89,58.89,0,0,0,8.43,6.16,18.78,18.78,0,0,0,9.81,2,59,59,0,0,0,10.44-1.12c7.2-1.46,14.18-4.67,19.21-10.15a26.05,26.05,0,0,0,3.09-4.08c.39-.64.7-1.33,1.09-2,.67-1.11,2.36-.73,3.48-.7l13.68.32-.36-.47a44.54,44.54,0,0,1-21.22,28.84,41.16,41.16,0,0,1-18.43,5.26c-4.05.23-8.08.68-12.12.9a30.28,30.28,0,0,1-11.65-1.94C200.62,219,189,210,182.58,197.78a46.05,46.05,0,0,1-5.33-20.9c-.07-7.88,2.47-15.07,5.55-22.22,2.88-6.69,6.12-13,11.44-18.15a41.36,41.36,0,0,1,17.06-9.85c7.61-2.19,15.6-1.79,23.38-.85a78.08,78.08,0,0,1,12.15,2.06,29,29,0,0,1,9.81,5.24,87.32,87.32,0,0,1,7.87,7.27,75,75,0,0,1,7.65,8.49c4.3,5.9,6.27,13,7.38,20.12.3,1.93.54,3.86.75,5.81.09.84.18,1.68.26,2.53.1,1,.49,2.4-.15,3.23a4.16,4.16,0,0,1-2.61,1.08c-1.13.23-2.28.42-3.42.55a56.23,56.23,0,0,1-5.95.37c-8.26.14-16.57-.3-24.83-.5l-25.12-.59c-3.34-.08-7.18.21-10.27-1.3a5.92,5.92,0,0,1-2.71-8.06c3.23-7.26,12.64-6.07,19.13-6,8.4.13,16.81-.14,25.2-.54,4-.19,8.06-.42,12.1-.64C262.4,164.94,262.4,164.19,261.92,164.21Z" transform="translate(-5.88 -43.85)"/></g><g id="Frame"><path class="cls-3" d="M17.23,49.78l1.32,0c.2-1.48.37-3,.57-4.45Z" transform="translate(-5.88 -43.85)"/><path d="M17.23,51.28l1.32,0a1.52,1.52,0,0,0,1.06-.44l.23-.3a1.48,1.48,0,0,0,.21-.76c.19-1.43.36-2.85.55-4.28l-.05.4,0-.18a1.64,1.64,0,0,0-.15-1.15A1.55,1.55,0,0,0,19.7,44a1.47,1.47,0,0,0-1-.07,1.43,1.43,0,0,0-.9.69l-1.66,3.87-.24.55a1.67,1.67,0,0,0-.15,1.16,1.59,1.59,0,0,0,.69.9,1.56,1.56,0,0,0,1.16.15,1.44,1.44,0,0,0,.89-.69l1.66-3.88.24-.55L17.68,45c-.22,1.61-.42,3.23-.63,4.85l1.5-1.5-1.32,0a1.5,1.5,0,0,0-1.5,1.5A1.52,1.52,0,0,0,17.23,51.28Z" transform="translate(-5.88 -43.85)"/><path class="cls-3" d="M469,51.49c-1.89-1.06-4.16-.87-6.29-.63-19.13,2.08-38.21,4.81-57.41,6-21.68,1.4-43.42.9-65.14.39L18.55,49.81a1304.19,1304.19,0,0,0-8.44,254.72c148.87,10,299-17.49,447.11.86-5-34.43,6.57-68.87,10.2-103.49,4.76-45.38-4.19-91.87,4.29-136.63C472.65,60.31,473.19,53.87,469,51.49Zm-18,29.36c-7.68,38.49.42,78.47-3.89,117.48-3.29,29.78-13.79,59.38-9.23,89-134.14-15.77-270,7.86-404.83-.73a1066,1066,0,0,1,7.65-219l-1.2,0,1.72-3.8c-.18,1.27-.35,2.55-.52,3.83L331.78,74c19.66.43,39.35.87,59-.34,17.38-1.06,34.66-3.41,52-5.2,1.93-.2,4-.37,5.7.54C452.27,71.05,451.78,76.59,450.93,80.85Z" transform="translate(-5.88 -43.85)"/><path d="M469.72,50.19c-2.59-1.24-5.16-1-8-.74-3.88.43-7.77.89-11.65,1.35-7.17.84-14.34,1.72-21.51,2.51-14.47,1.58-29,2.64-43.52,2.91-29.41.54-58.87-.74-88.27-1.43L119,50.65,18.55,48.31a1.54,1.54,0,0,0-1.5,1.5q-6.48,49.31-9.22,99T6.18,248.26q.6,28.15,2.43,56.27a1.53,1.53,0,0,0,1.5,1.5c58.29,3.89,116.75,2.09,175.05-.48,58-2.56,116-5.87,174.14-5a912.93,912.93,0,0,1,97.92,6.34c1.08.13,1.57-1.06,1.45-1.9-4.93-34.73,6.66-68.83,10.25-103.09,3.65-34.77-.73-69.71.79-104.55a224.48,224.48,0,0,1,3.05-29.5c1-5.73,2.93-13.93-3-17.66-1.64-1-3.15,1.57-1.52,2.59,2.68,1.67,2.8,5.12,2.62,8-.24,3.73-1.18,7.42-1.74,11.12a244.22,244.22,0,0,0-2.36,25c-.76,17-.1,34.12.35,51.17s.7,34.16-.89,51.16c-1.6,17.17-5.26,34-8.06,51-3,18.37-5,37-2.34,55.52l1.44-1.9c-57.88-7.13-116.32-7.33-174.54-5.48s-116.14,5.71-174.28,6.67c-32.78.54-65.58.13-98.29-2.05l1.5,1.5Q8.4,254.9,9,205.1t4.94-99.33q2.46-28,6.14-56l-1.5,1.5,176.91,4.12,88.46,2.06c29.12.68,58.27,1.74,87.41,1.83a489.71,489.71,0,0,0,49.2-2.17c8.09-.8,16.15-1.75,24.21-2.71l11.65-1.38c3.49-.4,8.49-1.87,11.81-.28C469.94,53.61,471.46,51,469.72,50.19Z" transform="translate(-5.88 -43.85)"/><path d="M449.48,80.45c-5.28,26.87-3.13,54.28-2.67,81.45.24,13.86,0,27.76-1.9,41.52-1.83,13.37-4.82,26.54-7,39.85-2.41,14.72-3.76,29.62-1.55,44.45l1.45-1.9c-52.44-6.13-105.33-6.3-158-4.71S174.61,286,122,286.84c-29.68.47-59.37.12-89-1.75l1.5,1.5q-2.88-42.46-2.39-85,.49-42.76,4.43-85.38Q38.74,92,42.07,68a1.52,1.52,0,0,0-1.44-1.9l-1.2,0,1.3,2.26,1.71-3.8L39.7,63.33c-.18,1.28-.34,2.55-.52,3.83a1.53,1.53,0,0,0,1.45,1.9l166,3.67,83.42,1.85c27.45.6,55,1.76,82.43,1.28,15.51-.27,30.92-1.55,46.33-3.25,7.7-.85,15.38-1.77,23.08-2.57,3-.3,6.56-.75,7.72,2.7.82,2.43.33,5.27-.15,7.71-.36,1.89,2.53,2.69,2.9.8.75-3.93,1.49-9-1.52-12.26a8.11,8.11,0,0,0-6.49-2.17c-3.3.16-6.6.66-9.88,1-14,1.55-28,3.28-42.08,4.21-28.35,1.87-56.86.52-85.24-.11l-85.09-1.88-85.51-1.89L51.47,66.3l-10.84-.24L42.07,68c.18-1.28.35-2.56.52-3.83.21-1.5-2-2.87-2.74-1.16l-1.71,3.81A1.51,1.51,0,0,0,39.43,69l1.2,0-1.45-1.9q-5.86,42.36-8.37,85.07-2.49,42.9-1.53,85.9.55,24.24,2.2,48.46a1.56,1.56,0,0,0,1.5,1.5c52.79,3.34,105.71,1.79,158.5-.42,52.53-2.2,105.08-5,157.67-4.3a869.74,869.74,0,0,1,88.66,5.45c1.07.13,1.57-1.05,1.44-1.9-4-26.8,4.15-53.28,8.11-79.57,4-26.71,1.88-53.53,1.62-80.4-.15-15.3.43-30.65,3.4-45.7C452.75,79.36,449.86,78.55,449.48,80.45Z" transform="translate(-5.88 -43.85)"/></g></svg>