<svg id="Calque_1" data-name="Calque 1" xmlns="http://www.w3.org/2000/svg" width="337.85" height="329.37" viewBox="0 0 337.85 329.37"><defs><style>.cls-1{fill:#282828;}</style></defs><path class="cls-1" d="M89.64,145.88a478.47,478.47,0,0,1-.94-53.42c14.23,2.71,28.75-1.34,43.17-2.68,25.62-2.38,51.26,3.84,77,3.87,11.83,0,23.62-1.29,35.42-2,30.38-1.83,60.85.24,91.29-.13a570,570,0,0,0,78.07-6.33,265.36,265.36,0,0,1-.62,60.61c-17.23-4.41-35.35-2.72-53.08-1.21A2355,2355,0,0,1,88.64,152l-.09-5.43Z" transform="translate(-84.56 -83.71)"/><path d="M91.14,145.88a485.78,485.78,0,0,1-.94-53.42L88.3,93.9c10.12,1.86,20.28.56,30.36-.91A175.79,175.79,0,0,1,150,90.83c21,.7,41.71,4.72,62.73,4.28,10.76-.23,21.46-1.38,32.2-2s21.78-.78,32.67-.72c21.57.12,43.14,1,64.71.5a574.43,574.43,0,0,0,63.78-5.12c2.65-.36,5.3-.75,7.95-1.14l-1.9-1.45a267.65,267.65,0,0,1-.62,60.61l1.9-1.45c-20.05-5-40.9-2.28-61.21-.61q-31.89,2.61-63.85,4.36-63.92,3.51-128,3.52-35.88,0-71.75-1.07l1.5,1.5-.09-5.43-.75,1.29,1.1-.73c1.61-1,.1-3.65-1.51-2.59-.64.43-1.56.83-1.79,1.63a8.79,8.79,0,0,0,0,2.51l.06,3.32a1.52,1.52,0,0,0,1.5,1.5q64,1.92,128,.38,63.66-1.53,127.18-6.52c11.51-.9,23-2.12,34.54-2.69s23.06-.29,34.26,2.52a1.52,1.52,0,0,0,1.89-1.44,267.65,267.65,0,0,0,.62-60.61,1.54,1.54,0,0,0-1.9-1.45,568,568,0,0,1-64.18,6c-21.34.76-42.67,0-64-.23-10.79-.14-21.58-.14-32.36.27-10.55.41-21.05,1.44-31.58,2a221.87,221.87,0,0,1-31.68-.59C179.19,90.3,169,89,158.75,88.3a166.35,166.35,0,0,0-34.7.91C112.5,90.8,100.74,93.15,89.1,91a1.53,1.53,0,0,0-1.9,1.45,485.78,485.78,0,0,0,.94,53.42C88.28,147.79,91.29,147.81,91.14,145.88Z" transform="translate(-84.56 -83.71)"/><path class="cls-1" d="M88.47,217.49c41.46,9.07,84.57,2.53,127,4.14,14.79.56,29.53,2.12,44.32,2.58,18.6.57,37.19-.58,55.76-1.74l96.78-6,1.8,58.78C307,284.5,199.23,283.23,91.7,282a5.75,5.75,0,0,1-3.21-.67c-1.41-1-1.69-2.89-1.81-4.58a231.56,231.56,0,0,1,2.59-55.28Z" transform="translate(-84.56 -83.71)"/><path d="M88.07,218.94c40.91,8.87,82.83,2.9,124.22,4.08,21.27.62,42.39,3.12,63.69,2.79s42.84-2,64.22-3.37L412.3,218l-1.5-1.5,1.8,58.78,1.5-1.5c-25.91,2.24-51.87,3.87-77.85,5s-52,1.85-78,2.22-52.05.42-78.07.31-52.05-.4-78.07-.71l-9.76-.11c-1.29,0-2.9.17-3.61-1.14a9.71,9.71,0,0,1-.65-3.9q-.65-9.54-.5-19.11c.09-6.37.45-12.75,1.08-19.09.32-3.25.7-6.49,1.16-9.73.31-2.16,1.2-4.75.79-6.92-.22-1.16-.47-2.32-.7-3.49-.38-1.89-3.27-1.09-2.89.8a31.68,31.68,0,0,1,.72,3.59,21,21,0,0,1-.44,2.7q-.34,2.31-.66,4.62-1.29,9.57-1.79,19.24-.49,9.87-.16,19.75c.11,3.13.21,6.27.52,9.38.22,2.21.79,4.54,2.92,5.65,2.37,1.23,5.87.67,8.44.7l10.08.11,19.84.23q19.84.21,39.69.35,39.69.27,79.38-.07c26.55-.28,53.1-.87,79.63-1.92s52.82-2.55,79.18-4.68l9.72-.81a1.53,1.53,0,0,0,1.5-1.5l-1.8-58.78a1.52,1.52,0,0,0-1.5-1.5L348,219c-21.18,1.32-42.38,3-63.59,3.66-10.79.35-21.58.34-32.36-.23-10.5-.55-21-1.48-31.46-2-20.68-1.07-41.36-.08-62,.37-23.3.51-46.8.28-69.68-4.68C87,215.64,86.19,218.53,88.07,218.94Z" transform="translate(-84.56 -83.71)"/><path class="cls-1" d="M90.54,343.3q-2,32.28-1.8,64.64l113.45,1.27,212.28,2.37,6.44-61.91c-20.37-4.89-41.65-.23-62.59-.08-9.9.07-19.78-.88-29.66-1.51-80-5.1-161.13,10.46-240-4Z" transform="translate(-84.56 -83.71)"/><path d="M89,343.3q-2,32.28-1.8,64.64a1.51,1.51,0,0,0,1.5,1.5l127.39,1.42,126.7,1.42,71.64.8a1.54,1.54,0,0,0,1.5-1.5l6.44-61.91a1.51,1.51,0,0,0-1.1-1.45c-21-4.94-42.43-.18-63.65-.13-11.08,0-22.12-1.15-33.17-1.75-10.81-.6-21.64-.83-32.46-.83-21.71,0-43.4.95-65.09,1.85s-43.51,1.74-65.28,1.51C140,348.64,118.39,347.36,97,344c-2.64-.41-5.28-.87-7.91-1.35v2.9l1.83-.77c1.76-.74,1-3.64-.8-2.89l-1.83.76c-1.19.5-1.64,2.6,0,2.9a415.68,415.68,0,0,0,64.06,6.18c21.64.56,43.28-.1,64.9-.95s43.39-1.92,65.1-2.18c10.94-.13,21.88-.06,32.81.34s21.94,1.42,32.92,1.94,21.66-.17,32.5-1c10.61-.79,21.33-1.52,31.93-.19a75,75,0,0,1,8,1.44l-1.1-1.44L413,411.58l1.5-1.5L287.1,408.66l-126.7-1.42-71.66-.8,1.5,1.5Q90.06,375.6,92,343.3C92.16,341.37,89.16,341.38,89,343.3Z" transform="translate(-84.56 -83.71)"/></svg>