<svg id="Draw" xmlns="http://www.w3.org/2000/svg" width="1611.77" height="1065.71" viewBox="0 0 1611.77 1065.71"><defs><style>.cls-1{fill:#5e3a26;}.cls-2{fill:#3d3936;}.cls-3{fill:#dfa07c;}.cls-4{fill:#fffdf3;}.cls-5{fill:#624540;}.cls-6{fill:#fff;}.cls-7{fill:#db9f86;}.cls-8{fill:#d6836d;}.cls-9{fill:#3c3533;}.cls-10{fill:#bb7368;}.cls-11{fill:#fff5c2;}.cls-12{fill:#b3a392;}.cls-13{fill:#f4ede9;}</style></defs><g id="Corps"><path class="cls-1" d="M1482.53,783.59c50.38,21.85,120.82,62.65,107.3,128.3-6.18,30-25.55,58.8-38.75,86.07-14.46,29.9-27.91,63.24-55,84.16-29.19,22.56-175.59-.79-212.45.77-170.48,7.19-151,1.91-321.57,0-75.72-.86-167.41,8.08-249.26.85-69.67-6.16-211.69-3.28-281.59-1.71s-141,6.48-210.22,7.42c-30.2.41-69,13.69-58.34-28.92,6.22-24.78,26.83-45.44,47.64-58.93,30.13-19.55,65.65-31.52,91.17-56.8,25.23-25,38.39-60.94,66.25-83,15.28-12.08,34.41-19.45,47.12-34.2,16.64-19.3,18.85-47,30.52-69.62,26-50.43,90.19-64.64,146.27-73.28l311.89-48c61-9.4,123.13-18.8,184.16-9.56,52.16,7.9,101.24,29.09,149.64,50.09l64.62,28Z" transform="translate(-159.36 -28.09)"/><path d="M1481.78,784.89c38.55,16.8,83.77,40.31,101.77,80.74,11.25,25.25,5.58,51.49-5.21,75.87-6.31,14.25-14,27.82-21.33,41.58-6.44,12.13-12.11,24.6-18.11,36.95s-12.32,24.46-20.18,35.67c-6.8,9.68-15.47,20.7-25.87,26.77-11.87,7-28.09,7.25-41.41,7.77-40.06,1.57-80.3-2.85-120.17-6.21-14.52-1.22-29.17-2.75-43.77-2.72-26,.06-52,2-78,2.79-34.82,1-69.62,1.18-104.45.32-44.89-1.11-89.77-2.38-134.67-2.94-62.11-.76-124.12,3.71-186.23,3.6-50-.09-99.75-5.39-149.74-6.22s-100.06-.29-150.07.59c-55.19,1-110.3,2.94-165.45,5.33-33.14,1.44-66.28,2.29-99.44,3.2-9.19.26-18.31,1.49-27.49,2-7.5.44-17,1.15-23.58-3.25-9.24-6.18-6.12-20.17-3.45-29,4.25-14,13-26.22,23.2-36.47,20.44-20.48,47.25-32,72.24-45.78,23.62-13,43.54-28.42,59.41-50.37,16.46-22.78,29.71-48.75,53.15-65.39,10.81-7.69,22.81-13.62,33.21-21.9,10.21-8.13,17.29-18.43,22.36-30.39,10.38-24.46,14.51-50.26,33.39-70.29,34.85-37,90.8-45,138.5-52.31L804.16,653.5l102.48-15.79C940.26,632.54,974,627.47,1008,625.6s68-.29,101.27,7.1c31.35,6.95,61.58,18.12,91.19,30.39,63.2,26.17,125.65,54.27,188.41,81.49l92.92,40.31c1.75.76,3.28-1.83,1.51-2.59l-196.11-85.08c-60.36-26.18-121.09-56.69-186.13-69.3-66.68-12.92-134.48-2.45-200.75,7.75L689.56,668.13c-34.74,5.35-69.53,10.51-104.24,16.07-24.71,4-49.51,8.88-73,17.83-21.77,8.31-42.7,20.4-57.53,38.74C437.8,761.84,435,788.4,423.2,812c-13.77,27.64-43.92,35.54-64.81,56.05-19.67,19.32-31.57,44.74-49.05,65.83C272.42,978.46,207.18,986,173.51,1034c-7.09,10.12-12.37,21.84-13.84,34.19-.83,6.93-.27,14.78,5.32,19.69,11.18,9.84,32.17,4.62,45.35,3.6,14.47-1.12,29.07-.84,43.57-1.26q26.28-.77,52.54-1.92c34.23-1.44,68.44-3.12,102.68-4.19,49-1.53,98.06-2.27,147.09-2.57,48.49-.3,97.2-.52,145.6,2.82,29.69,2,59.2,3.8,89,3.7,32.84-.11,65.66-1.42,98.47-2.48,57.31-1.87,114.56-.88,171.86.63,34,.89,68,2,102,1.77,21.94-.17,43.88-.77,65.81-1.51,22.83-.77,45.87-3,68.7-1.9,38.88,1.84,77.55,6.85,116.46,8.41,18.69.74,37.66,1.16,56.25-1.26,15.72-2,26.29-6.64,37.5-18.13,19-19.46,30.19-44.77,41.71-69,12.91-27.16,30.21-52.75,39-81.7,6.5-21.42,5.8-43.35-4.65-63.4-9.91-19-26.26-34-43.6-46.21-17.73-12.48-37.17-22.36-57-31C1481.54,781.53,1480,784.12,1481.78,784.89Z" transform="translate(-159.36 -28.09)"/></g><g id="Cheveux"><path class="cls-2" d="M729.16,853.62A1161.76,1161.76,0,0,1,482,771.53c-10.38-4.81-20.87-9.88-29.25-17.67-11.61-10.81-18.19-25.93-23.08-41-25.09-77.34-13.49-161.23-.92-241.56,3.37-21.53,6.8-43.47,3.47-65-1.7-11.05-5.16-21.77-6.73-32.84-2.24-15.76-.6-31.78,1.08-47.61,5.49-52.06,12.37-106.95,44.14-148.55,47.49-62.18,133.55-75.27,208.11-99,41.36-13.15,81.34-30.9,123.67-40.49,140.71-31.87,289.9,32.63,392.7,133.86,16.8,16.55,32.76,34.19,45.2,54.23,32.85,52.9,38.71,117.93,38.9,180.2.18,62.5-4.7,126.06-26.94,184.47-35.89,94.28-112.95,166-188.53,232.76-15.66,13.85-31.59,27.79-50.26,37.21-32.41,16.33-70,17.64-106.32,18.61-61.13,1.64-125.6,2.52-179.15-27" transform="translate(-159.36 -28.09)"/><path d="M729.55,852.17a1166.78,1166.78,0,0,1-141.8-39.51Q553,800.56,519,786.25q-17.53-7.38-34.81-15.35c-10.69-4.93-21.69-10-30.4-18.1-16.77-15.61-23.51-40-28.66-61.61-5.68-23.81-8.25-48.26-8.74-72.72-1-49.27,6.21-98.25,13.79-146.8,3.74-23.93,7.22-48.05,2.33-72.09C430,387,426.46,374.85,426,362c-.47-12.56.9-25.09,2.22-37.56,4.57-43.05,9.85-88,31-126.59C499,125.06,585.49,107.34,658.63,86c45.2-13.21,88.48-32.53,134.1-44.28a345.38,345.38,0,0,1,125-8.26c84.43,9.58,164.54,47.29,231,99.4a538.52,538.52,0,0,1,47.52,42c16.91,16.83,32.85,34.86,45,55.47,23.06,39,31.86,84.42,34.94,129.11,3.21,46.78,2.39,94.66-3.65,141.17-6.1,46.87-19.41,92.21-42.3,133.69-42.35,76.72-109.18,137.07-174.47,194-18.2,15.87-37.33,30.35-60.47,38.13-21.85,7.35-45,9.51-67.92,10.51-45.1,2-91.56,3.78-136.14-4.57-21.79-4.08-43-10.93-62.48-21.59-1.7-.92-3.21,1.67-1.52,2.6,40.51,22.13,87.09,27.33,132.54,27.84,23.27.27,46.61-.28,69.85-1.38,22.89-1.09,46.09-3.43,67.86-11,22-7.66,40.58-21.3,58.08-36.42,17.08-14.75,33.88-29.87,50.43-45.2,32.73-30.31,64.28-62.15,91.42-97.64,26.92-35.21,49-74.12,62.5-116.48,14.93-47,19.74-96.63,20.63-145.75.82-45.81-.41-92.58-11.88-137.18-5.51-21.43-13.55-42.29-24.83-61.37-12-20.37-27.73-38.3-44.41-55-60.57-60.63-136.25-108-219.1-131.12-40.35-11.24-82.5-16.52-124.37-14a338.14,338.14,0,0,0-63.33,9.89c-24.67,6.3-48.6,15.08-72.51,23.75-21.82,7.91-43.74,15.35-66.05,21.8-19.34,5.6-38.78,10.85-58,16.83-36.45,11.35-73.22,25.51-102.74,50.4-32.74,27.59-50,66.31-58.76,107.5-4.57,21.62-7.11,43.59-9.44,65.54-1.32,12.47-2.69,25-2.22,37.56s3.71,24.56,6.32,36.85c5.56,26.16,1.06,52.29-3,78.32-3.77,24.31-7.34,48.67-9.79,73.16-4.93,49.2-5.37,99.63,7.25,147.79,5.4,20.6,12.53,43.25,29,57.83,8.33,7.37,18.43,12.26,28.44,16.9q17.44,8.07,35.15,15.55a1164.29,1164.29,0,0,0,140.85,49.19q35.47,9.88,71.53,17.51c1.88.4,2.69-2.5.79-2.9Z" transform="translate(-159.36 -28.09)"/></g><g id="Visage"><g id="Base"><path class="cls-3" d="M1160.28,650.72c-10.3,34.7-22.08,70.43-28.28,106.09-11.19,64.39-18.79,136.29-67.7,179.65-19.13,16.95-42.92,27.68-66.85,36.65-16.55,6.22-33.57,11.76-51.19,13.29-56.3,4.88-107.16-30.92-152.14-65.12C760,895.34,725.26,868.56,702,832.56c-14.69-22.76-24.26-48.41-37.5-72-9.12-16.26-20-31.55-28.25-48.25-20.17-40.68-24-87.24-27.38-132.52-6-80-11.39-161.55,7.76-239.43S683.82,187.44,757.6,156c51.48-21.93,109.51-20.78,165.4-18,25.76,1.3,51.72,2.91,76.59,9.73,59.24,16.24,109,63.54,128.25,121.87,7.69,23.31,10.71,47.86,13.7,72.22l22.38,182.64c5.17,42.16,10.19,86-3.23,126.29" transform="translate(-159.36 -28.09)"/><path d="M1158.83,650.32c-11.56,38.9-23.48,77.35-30.21,117.45-5.38,32.08-10.26,64.53-20.66,95.46-10.53,31.33-27.6,60.52-54.74,80.2-15.45,11.2-32.93,19.25-50.65,26.13-18.54,7.21-37.76,14-57.74,15.45-37,2.77-72.07-12.51-102.82-31.73-15.51-9.69-30.28-20.52-44.84-31.56-14.92-11.3-29.82-22.66-44-34.89-13.81-11.92-26.95-24.72-38.33-39-12.13-15.22-21.37-32.18-29.84-49.65s-16.64-34.65-26.71-51.13c-10.4-17-21-33.71-28.09-52.45-13.67-36.16-16.86-75.12-19.71-113.34-3.06-40.87-6-81.82-5.65-122.82.61-73,12.57-147.2,51.73-210.09,17.12-27.5,39.07-52.3,65.68-70.94,29.62-20.74,64-32.06,99.71-36.52,38.76-4.83,78.27-2.93,117.14-.45,20.63,1.31,41.34,3.48,61.29,9.11a181,181,0,0,1,43.73,18.95,191.66,191.66,0,0,1,67,67.73c19.47,33.47,24.68,71.15,29.32,109L1156,471.72c2.53,20.68,5.13,41.36,7.59,62.06,2.34,19.65,4.36,39.41,4.24,59.23-.12,19.46-2.48,38.84-8.55,57.38-.6,1.84,2.3,2.63,2.89.8,12.6-38.49,9-79.45,4.23-119-5.2-43.36-10.61-86.7-15.93-130q-4-32.55-8-65.09c-2.5-20.24-5.2-40.56-10.82-60.21A189.45,189.45,0,0,0,1082,194c-22.81-22.39-51.17-39.24-82-47.72-19.83-5.45-40.41-7.58-60.88-8.88-20.16-1.29-40.39-2.23-60.6-2.39-39.06-.31-79,2.87-115.66,17.2-30.25,11.82-57,31.12-78.92,55-47.4,51.62-70.79,119.84-78.52,188.51-4.71,41.77-4.15,83.92-1.91,125.83,1.12,20.92,2.65,41.82,4.22,62.71,1.46,19.34,3.09,38.7,6.11,57.87,3,19.34,7.57,38.53,14.84,56.75s18,34.81,28.25,51.66c20.28,33.43,32.62,71.08,57.61,101.63,23.63,28.86,53.84,51.52,83.42,73.87s60.81,44.52,96.57,55.68c17.18,5.37,35.33,7.8,53.29,6,19.71-2,38.61-8.65,56.94-15.83,17.49-6.86,34.71-14.84,50-25.9A139,139,0,0,0,1088.45,911c18.3-27.16,27.44-59.4,34-91.16,3.41-16.57,6.1-33.27,8.89-49.95A597.71,597.71,0,0,1,1144.06,711c5.48-20.06,11.74-39.9,17.66-59.83.55-1.86-2.34-2.65-2.89-.8Z" transform="translate(-159.36 -28.09)"/></g><g id="Traits"><path d="M834.78,544.6l-30.22,51.62-30.22,51.62c-4.69,8-9.74,15.94-12.94,24.68s-4,18.05-3.85,27.26a241.49,241.49,0,0,0,7,53.85A250.36,250.36,0,0,0,783,804.54q1.47,3,3,6c.89,1.71,3.48.2,2.59-1.51A247.24,247.24,0,0,1,760.76,706.4c-.43-9.17-.43-18.51,1.81-27.47s6.94-16.91,11.56-24.8l29.69-50.71,29.82-50.94,3.73-6.37a1.5,1.5,0,0,0-2.59-1.51Z" transform="translate(-159.36 -28.09)"/><path d="M1036.77,533.22a130.24,130.24,0,0,1,28.82,30.89,161.67,161.67,0,0,1,18.7,38.07,193.22,193.22,0,0,1,9.32,43.57,272.34,272.34,0,0,1-.24,52.1,456.37,456.37,0,0,1-8.29,52.09q-.67,3.19-1.38,6.39c-.42,1.88,2.47,2.69,2.89.8a506.83,506.83,0,0,0,9.11-52.77,286.16,286.16,0,0,0,1.38-53.08,201.73,201.73,0,0,0-8.47-45.57,168.41,168.41,0,0,0-18-39.34,135.88,135.88,0,0,0-28-32.33c-1.41-1.17-2.85-2.3-4.3-3.41s-3,1.43-1.52,2.59Z" transform="translate(-159.36 -28.09)"/><path d="M717.3,706c1.52,13.51,5.73,26.45,10.66,39.07,5.15,13.19,10.71,26.24,16.11,39.34q8.25,20.05,16.51,40.1c5.31,12.89,10.51,25.83,16,38.63,5.89,13.73,12.38,27.27,20.75,39.69,1.07,1.59,3.67.09,2.59-1.51-7.38-11-13.31-22.79-18.65-34.85-5.57-12.6-10.66-25.41-15.91-38.15-10.81-26.27-21.79-52.48-32.44-78.81C727.27,735.5,722,721.1,720.3,706c-.22-1.9-3.22-1.92-3,0Z" transform="translate(-159.36 -28.09)"/><path d="M1123.81,662.38q-4.33,43.89-11.29,87.45T1096,836.37q-5.37,24.24-11.55,48.29c-.48,1.87,2.42,2.67,2.9.79q11-42.9,19.46-86.41t14.25-87.34q3.27-24.6,5.71-49.32c.19-1.92-2.81-1.9-3,0Z" transform="translate(-159.36 -28.09)"/></g></g><g id="Yeux"><g id="Gauche"><path class="cls-4" d="M856.56,427.5c-4.36-.89-7.79,3.38-11,6.46-6.36,6.09-15.28,8.56-23.88,10.47-28.72,6.4-60,8.76-86.56-3.82-3.88-1.84-7.94-4.36-9.21-8.46-1.47-4.81,1.48-9.85,4.92-13.52,15.46-16.47,40.45-18.78,63-19.27,8-.17,16.11-.23,23.73,2.15,12.59,3.92,31.3,15.8,39.39,26.21Z" transform="translate(-159.36 -28.09)"/><path d="M857,426.05c-4.68-.81-8.09,2.5-11.15,5.55a34.09,34.09,0,0,1-11.56,7.64,88.89,88.89,0,0,1-14.24,4c-5,1.09-10,2-15.07,2.81-20.23,3.1-41.5,3.35-61-3.48-4.48-1.56-9.43-3.33-13.18-6.31a9.47,9.47,0,0,1-3.54-5.13,9.91,9.91,0,0,1,1.24-6.74c2.16-4.08,5.84-7.43,9.52-10.14a53.59,53.59,0,0,1,11.3-6.34c8.26-3.43,17.19-5.13,26.06-6.05,4.53-.46,9.07-.73,13.62-.89,5.17-.19,10.36-.35,15.52-.1a50.19,50.19,0,0,1,15.06,2.84A79.7,79.7,0,0,1,830.8,409a94.63,94.63,0,0,1,21.46,15.64,46.58,46.58,0,0,1,3.67,4.14l1.82-2.36-.43-.22c-1.72-.86-3.24,1.72-1.52,2.59l.44.22a1.5,1.5,0,0,0,1.81-2.35c-5.43-6.93-12.87-12.39-20.27-17-7.69-4.82-16.2-9.3-25.23-10.86a89.13,89.13,0,0,0-17-.93c-4.81.08-9.62.24-14.43.57-9.3.65-18.68,1.9-27.58,4.79-8.65,2.81-16.83,7.26-23.21,13.84-3.35,3.45-6.61,8.1-6.24,13.16.35,4.87,4,8.26,8,10.52a74,74,0,0,0,14.35,5.86,101,101,0,0,0,15.29,3.37,138.1,138.1,0,0,0,31.87.54,218,218,0,0,0,31.71-5.34,61,61,0,0,0,14.19-5,33.8,33.8,0,0,0,6-4c1.84-1.56,3.42-3.42,5.26-5,1.51-1.29,3.4-2.53,5.48-2.17C858.05,429.27,858.86,426.38,857,426.05Z" transform="translate(-159.36 -28.09)"/><path class="cls-5" d="M758.82,447.59c-2.1-3.74-2.21-8.24-2.27-12.53,0-3.29-.09-6.64.9-9.78,1.31-4.12,4.3-7.5,7.65-10.24a33.81,33.81,0,0,1,17.11-7.66,24.43,24.43,0,0,1,17.92,4.68c5,4,8,9.93,10.29,15.87,1.2,3.05,2.29,6.24,2.19,9.51s-1.63,6.68-4.54,8.2a14.33,14.33,0,0,1-5,1.21c-14.77,1.73-29.84,3.46-44.41.5Z" transform="translate(-159.36 -28.09)"/><path d="M760.12,446.83c-2.41-4.47-2.19-10.13-2.08-15.07a19.38,19.38,0,0,1,1.44-7.6,19.83,19.83,0,0,1,4-5.59c6.59-6.73,16.52-11.22,26-9.54a21.5,21.5,0,0,1,12.24,6.57c3.14,3.42,5.23,7.71,6.94,12,1.78,4.42,3.84,9.86,1.16,14.34a7.12,7.12,0,0,1-5.43,3.27c-2.64.42-5.34.64-8,.94-12.38,1.35-25,2.24-37.32-.22a1.51,1.51,0,0,0-1.69,2.2l.14.25a1.5,1.5,0,0,0,2.59-1.52l-.14-.24-1.7,2.2c12.19,2.44,24.64,1.77,36.92.46,3-.33,6.1-.65,9.14-1.06a10.7,10.7,0,0,0,6.77-3c3.82-4.11,3.39-10,1.73-15-3.32-9.93-8.81-19.95-19.41-23.28s-21.55.53-29.7,7.34c-4.74,4-8,8.93-8.57,15.17a61.46,61.46,0,0,0,0,10,22,22,0,0,0,2.33,9C758.45,450.05,761,448.53,760.12,446.83Z" transform="translate(-159.36 -28.09)"/><path class="cls-6" d="M776.17,437.82c-3.19.54-7-.79-8.09-3.82a10.59,10.59,0,0,1-.48-3.32c-.05-1.58,0-3.37,1.13-4.44a5.48,5.48,0,0,1,2.24-1.07,15.79,15.79,0,0,1,4.95-.81,6.21,6.21,0,0,1,4.5,1.93c1.64,1.88,1.54,4.7,1,7.13a7.61,7.61,0,0,1-1.76,3.77,3.26,3.26,0,0,1-3.84.74Z" transform="translate(-159.36 -28.09)"/><path d="M775.77,436.38a6.42,6.42,0,0,1-5.61-1.78,5.13,5.13,0,0,1-1-3.2,8.64,8.64,0,0,1,.22-3.48c.48-1.15,2.1-1.35,3.17-1.62a9.48,9.48,0,0,1,4.36-.32,4.09,4.09,0,0,1,2.73,1.73,5.74,5.74,0,0,1,.64,3.41,10.38,10.38,0,0,1-1,4.07c-.49.92-1.61,2-2.69,1.44l-.35,2.74.36-.1c1.85-.54,1.06-3.44-.8-2.89l-.36.1a1.52,1.52,0,0,0-.36,2.74,4.78,4.78,0,0,0,5.51-.83,9,9,0,0,0,2.38-5c.71-3.54.3-7.69-3.23-9.57a9.37,9.37,0,0,0-5.64-.88,22.64,22.64,0,0,0-3.25.69,8.47,8.47,0,0,0-2.68,1.14,5.87,5.87,0,0,0-2,4.88,12,12,0,0,0,.91,5.58c1.72,3.45,6,4.58,9.57,4a1.52,1.52,0,0,0,1-1.85A1.54,1.54,0,0,0,775.77,436.38Z" transform="translate(-159.36 -28.09)"/></g><g id="Droit"><path class="cls-4" d="M979,422.42l25.36-22.54c6.15-5.47,12.45-11,20-14.2,12.8-5.34,27.37-3.18,41-.46,4.21.84,8.46,1.75,12.3,3.67,7.43,3.71,12.51,10.76,17.29,17.55,1,1.4,2,2.95,1.92,4.66-.14,2.33-2.3,4-4.32,5.15-13.26,7.73-29,9.76-44.34,10.72A383.5,383.5,0,0,1,979,425Z" transform="translate(-159.36 -28.09)"/><path d="M980.07,423.48,1001,404.92c6.22-5.53,12.32-11.49,19.59-15.65,14.65-8.39,32.62-5.4,48.27-1.79a32.5,32.5,0,0,1,11.37,4.63,40,40,0,0,1,8,7.75c1.21,1.47,2.35,3,3.46,4.54a34,34,0,0,1,3.26,4.82c1.83,3.78-3.35,5.95-6,7.29-14.72,7.53-31.87,8.65-48.1,9.34a383.19,383.19,0,0,1-55-1.6c-2.29-.23-4.57-.49-6.85-.76l1.5,1.5,0-2.57a1.5,1.5,0,0,0-3,0l0,2.57a1.54,1.54,0,0,0,1.5,1.5,384.38,384.38,0,0,0,58,2.51c17.21-.56,35.33-1.48,51.22-8.77,3.24-1.48,7.51-3.24,9.42-6.45,2.25-3.8-.78-7.4-2.94-10.4-4.57-6.38-9.72-12.84-17-16.18a57.21,57.21,0,0,0-12.92-3.64c-4.3-.85-8.63-1.6-13-2.1-8.54-1-17.44-.9-25.64,2-8,2.83-14.67,8.23-21,13.79-7.27,6.42-14.49,12.88-21.74,19.32l-5.4,4.81C976.5,422.64,978.63,424.76,980.07,423.48Z" transform="translate(-159.36 -28.09)"/><path class="cls-5" d="M1003.69,425.61c.85-8.52,2.07-17.82,8.28-23.72a32.92,32.92,0,0,1,5.9-4.21,51.28,51.28,0,0,1,12.7-5.9c4.52-1.22,9.48-1.32,13.77.56,5.11,2.23,8.76,7.05,10.72,12.28s2.42,10.88,2.69,16.46c.06,1.41,0,3-1,4a4.78,4.78,0,0,1-2.82.92,344,344,0,0,1-46,1.79c-1.91-.05-4.07-.25-5.24-1.75Z" transform="translate(-159.36 -28.09)"/><path d="M1005.19,425.61c.8-7.93,1.81-17.07,8-22.81a35.09,35.09,0,0,1,6.22-4.29,67.62,67.62,0,0,1,6.4-3.41c4.44-2,9.49-3.32,14.38-2.45,9.41,1.68,13.88,11,15.26,19.55a73.86,73.86,0,0,1,.74,7.72,13.57,13.57,0,0,1,0,2.92c-.21,1.27-1.13,1.48-2.29,1.62-5.31.65-10.68,1-16,1.32q-9,.54-18.05.6-4.46,0-8.91-.06c-2.16,0-5.55.45-7.14-1.38l-.67,2.51,1-.39c1.77-.72,1-3.62-.8-2.89l-1,.39a1.52,1.52,0,0,0-.67,2.5c1.54,1.77,3.9,2.1,6.13,2.18,3,.11,6.05.14,9.08.14q9.17,0,18.31-.45t18-1.39c2.41-.25,4.84-.65,5.75-3.23.78-2.25.24-5.11.06-7.42-.78-9.76-3.83-21.17-13.55-25.69-10.3-4.8-21.55.78-30.26,6.38a24.26,24.26,0,0,0-10,12.29c-1.89,5-2.48,10.44-3,15.74C1002,427.53,1005,427.52,1005.19,425.61Z" transform="translate(-159.36 -28.09)"/><path class="cls-6" d="M1017.92,421a2.59,2.59,0,0,1-2.75-1.54,7.59,7.59,0,0,1-.51-3.35,9.73,9.73,0,0,1,.72-4.52,7.89,7.89,0,0,1,3.44-3,5.44,5.44,0,0,1,2.78-.79,4,4,0,0,1,2.94,1.83,8.73,8.73,0,0,1,1.25,3.33,9.58,9.58,0,0,1,.18,3.37,6.26,6.26,0,0,1-7.41,4.88Z" transform="translate(-159.36 -28.09)"/><path d="M1017.52,419.56a1,1,0,0,1-.6-.25,2.2,2.2,0,0,1-.66-1.32,13.78,13.78,0,0,1,0-3.74,4.53,4.53,0,0,1,1.24-2.94,8.87,8.87,0,0,1,2.8-1.79c2.39-1,3.55,1.37,4,3.36a7.61,7.61,0,0,1,.19,3.45,4.36,4.36,0,0,1-1.32,2.17,4.75,4.75,0,0,1-4.8,1.06,1.5,1.5,0,0,0-.8,2.89,8.32,8.32,0,0,0,3.54.27,7.94,7.94,0,0,0,3.85-1.81,7.38,7.38,0,0,0,2.35-3.53,10.54,10.54,0,0,0-.11-5.29,8.34,8.34,0,0,0-2.34-4.46,5.17,5.17,0,0,0-4.93-1.15,11.51,11.51,0,0,0-4.4,2.57,7.41,7.41,0,0,0-2.23,4.73,12.93,12.93,0,0,0,.38,5.87,4.19,4.19,0,0,0,4.69,2.8,1.5,1.5,0,1,0-.8-2.89Z" transform="translate(-159.36 -28.09)"/></g><g id="Sourcils"><path class="cls-2" d="M675.07,382.18c-3.38-8.37-2.26-17.94.51-26.54s7.07-16.61,10.15-25.1c1.13-3.09,2.11-6.3,4-9a29.51,29.51,0,0,1,5-5l16.44-14.08a55.61,55.61,0,0,1,7-5.36,54.72,54.72,0,0,1,6.92-3.39l12.13-5.26a66.24,66.24,0,0,1,23-6.37c7-1,14.09-1.95,21.19-2.22,5-.19,10,0,15.05.13,14.84.48,29.88,1,44,5.42a12.76,12.76,0,0,1,4.59,2.2c1.49,1.28,2.37,3.11,3.58,4.66,3,3.88,8,5.71,11.69,9,5.64,4.93,7.92,12.55,9.94,19.76,1,3.43,1.66,7.77-1.13,10-2.1,1.67-5.27,1.17-7.57-.24s-4-3.54-6.13-5.24c-6.37-5.19-15.18-5.89-23.4-6.36l-53.6-3.09a71.16,71.16,0,0,0-14.3.14c-11.22,1.63-21,8.49-32,11.19-3.37.82-6.9,1.27-10,2.89-5.54,2.91-8.58,9-13.34,13.09-2,1.71-4.3,3.05-6.36,4.69-3.5,2.78-6.26,6.36-9,9.9L675,382Z" transform="translate(-159.36 -28.09)"/><path d="M676.52,381.78c-6.45-16.38,3.58-32.92,9.5-47.78,1.47-3.72,2.46-7.78,4.68-11.14s6.09-6.07,9.23-8.75l10.46-9c3.22-2.75,6.37-5.62,10.13-7.63s8.05-3.66,12.09-5.41,8-3.62,12.19-5.12a63.56,63.56,0,0,1,12.54-3c4.39-.65,8.79-1.25,13.19-1.76a183.43,183.43,0,0,1,26.62-.72c8.6.28,17.21.58,25.75,1.68a109.11,109.11,0,0,1,12.69,2.39,52.6,52.6,0,0,1,6.13,1.83A8.64,8.64,0,0,1,845.9,291a23.53,23.53,0,0,0,3.27,4.11,31.17,31.17,0,0,0,4.33,3.25c3,2,6.06,3.81,8.34,6.68a32.52,32.52,0,0,1,4.91,9.57,49.4,49.4,0,0,1,2.8,10.16,6.43,6.43,0,0,1-.68,4.44,3.91,3.91,0,0,1-4.12,1.29c-3.72-.77-6.12-4.39-9-6.57-5.89-4.47-13.52-5.5-20.69-6-8.93-.64-17.88-1.05-26.82-1.56l-27.3-1.58a116.61,116.61,0,0,0-13.22-.35,44.76,44.76,0,0,0-11.84,2.36c-7.5,2.52-14.46,6.44-22.07,8.67-3.79,1.11-7.79,1.52-11.43,3.13a23.63,23.63,0,0,0-8,6.53c-2.28,2.65-4.39,5.48-7.13,7.69-3.14,2.53-6.53,4.53-9.33,7.49a121.71,121.71,0,0,0-7.71,9.54l-8.34,10.84-8.19,10.64a1.46,1.46,0,0,0,0,1.51l.1.16c1,1.63,3.61.13,2.59-1.52l-.1-.15v1.51l17.14-22.26a79.36,79.36,0,0,1,8.16-9.67c2.92-2.76,6.53-4.61,9.42-7.4,2.59-2.5,4.67-5.47,7.15-8.07a18.54,18.54,0,0,1,9.5-5.42,97.47,97.47,0,0,0,11.86-3.32c3.77-1.44,7.43-3.14,11.15-4.7a64.31,64.31,0,0,1,11.59-3.85,51.48,51.48,0,0,1,13.12-.67c9.31.45,18.61,1.06,27.92,1.6l28,1.62c7.39.42,15.43.79,21.8,5,3.25,2.16,5.53,5.63,9.22,7.15,3.18,1.31,7.11.94,9.12-2.14,1.85-2.84,1.19-6.65.37-9.73a81.44,81.44,0,0,0-3.47-10.52,28.89,28.89,0,0,0-6-9.29c-2.64-2.66-6-4.36-9-6.51a16.22,16.22,0,0,1-3.9-3.72,23.52,23.52,0,0,0-3.35-4.33,14.47,14.47,0,0,0-5.26-2.59c-2.08-.66-4.19-1.22-6.31-1.71a149.27,149.27,0,0,0-26.39-3.3c-8.89-.46-17.88-.93-26.79-.59a215.82,215.82,0,0,0-27.17,3.1c-8.9,1.49-16.93,5.34-25.15,8.91-4,1.72-8.14,3.26-11.84,5.55s-7.08,5.47-10.45,8.36l-10.47,9c-3.23,2.76-6.75,5.4-8.86,9.17-2,3.56-3.06,7.63-4.59,11.41-1.67,4.14-3.54,8.19-5.28,12.31-3.3,7.82-6.11,16-6.1,24.61a32.42,32.42,0,0,0,2.15,11.81C674.33,384.35,677.23,383.58,676.52,381.78Z" transform="translate(-159.36 -28.09)"/><path class="cls-2" d="M971.22,317.69a13.67,13.67,0,0,1-9.6-9.81c-1.4-5.78,1.18-11.82,4.6-16.69a25.65,25.65,0,0,1,6.2-6.52,35.1,35.1,0,0,1,9.11-4l19.86-6.61c5.21-1.73,10.42-3.47,15.74-4.78a105.09,105.09,0,0,1,52.46.57c6.36,1.73,12.72,4.15,17.62,8.55,3.72,3.34,6.41,7.63,9,11.87,3.87,6.22,7.76,12.47,10.64,19.21,6.87,16.09,7.63,34,8.29,51.53,0-7.47-3.29-14.6-7.57-20.73s-9.53-11.5-14.11-17.41c-2.52-3.25-4.86-6.68-7.88-9.48-9.74-9-24.34-9.65-37.61-9.65-26.34,0-54,1-76.68,14.42Z" transform="translate(-159.36 -28.09)"/><path d="M971.62,316.25a12.24,12.24,0,0,1-7.29-5.64,13.17,13.17,0,0,1-1-10.2,28.57,28.57,0,0,1,5.38-10.06,21.45,21.45,0,0,1,9.12-6.81c3.89-1.54,7.94-2.73,11.91-4.05l12.52-4.17c8-2.67,16.09-5.18,24.48-6.46a103.51,103.51,0,0,1,24.87-.74,91.53,91.53,0,0,1,23.64,5.06,35.06,35.06,0,0,1,9.79,5.3,36.62,36.62,0,0,1,7.4,8.54,161.7,161.7,0,0,1,12.22,21.05c6.81,14.67,8.12,31.08,8.81,47,.08,2,.16,3.93.23,5.89a1.5,1.5,0,0,0,3,0c-.07-12.57-8.23-22.71-16-31.8-2.09-2.45-4.2-4.89-6.17-7.44s-3.64-4.94-5.69-7.23a32.63,32.63,0,0,0-13.11-8.8c-10.25-3.84-21.64-3.55-32.42-3.48a252.55,252.55,0,0,0-35.63,2.23c-13,1.93-25.74,5.67-37.09,12.37l2.2.9-.12-.44a1.5,1.5,0,0,0-2.89.8l.12.44a1.5,1.5,0,0,0,2.2.89c19.87-11.73,43.46-13.78,66.05-14.14,10.54-.17,21.54-.69,31.86,1.82a33.18,33.18,0,0,1,13.4,6.31c4.51,3.74,7.63,8.87,11.33,13.35,8.22,10,18.87,20.35,19,34.22h3c-.63-16.83-1.31-34.19-7.57-50.05-3.21-8.12-7.85-15.54-12.48-22.9a54.89,54.89,0,0,0-7.13-9.54,32.73,32.73,0,0,0-9.61-6.6c-7.6-3.53-16.07-5.29-24.33-6.34a105.46,105.46,0,0,0-26.45,0,136.19,136.19,0,0,0-25.83,6.3l-13.17,4.38c-4.3,1.43-8.68,2.73-12.9,4.37a24.27,24.27,0,0,0-9.82,6.66,34.88,34.88,0,0,0-6.24,10.16,18,18,0,0,0-.8,11.59,15.43,15.43,0,0,0,5.9,8,14.85,14.85,0,0,0,4.56,2.13A1.5,1.5,0,0,0,971.62,316.25Z" transform="translate(-159.36 -28.09)"/></g></g><g id="Main"><path class="cls-7" d="M1473.19,884.58c-2.27,5.46-1.82,17.67-5.9,21.47-3.81,3.53-14.92,2.85-19.89,3.92a150.72,150.72,0,0,0-44.59,17.38c-8.21,4.83-16.15,10.66-21.26,18.7-5.34,8.42-7.14,18.56-8.43,28.45a25.92,25.92,0,0,1-1.78,7.66c-1.17,2.54-3.15,4.61-4.72,6.92-2.83,4.16-4.31,9.07-5.59,13.93a240.32,240.32,0,0,0-6.45,88.15c8,1.41,14.75-.24,22.59-1.22,6.81-.85,14.11-.26,21-.34l48-.53,300.09-3.34c8.08-.09,16.69-.33,23.37-4.89-15.19-15.48-30.59-31.23-40.87-50.32-6.94-12.91-11.83-27.67-23.15-37-6.68-5.48-15-8.5-23-11.76-23.32-9.47-45.8-22-63.48-39.89s-30.24-41.71-31.19-66.85l.08.69-7.73-40.39c-1.67-8.71-3.34-17.41-4.66-26.17-1.92-12.62-3.12-25.33-4.33-38l-1.94-20.51c-2.26-23.8-4.5-48-.08-71.48,1.72-9.12,4.42-18,7-26.94,3.35-11.83,6.42-23.78,8.13-36,1-6.94,1.37-14.55-2.48-20.4a23,23,0,0,0-7.54-6.76,40.85,40.85,0,0,0-41-.12c-10.2,6-17.19,16.27-22.81,26.71a183.54,183.54,0,0,0-15.2,37.7c-3.91,14-6.13,28.41-8.13,42.81-7,50.54-11.37,101.7-7.87,152.61.54,7.88,1.25,16-1,23.54C1477.06,876.58,1474.88,880.49,1473.19,884.58Z" transform="translate(-159.36 -28.09)"/><path d="M1471.74,884.18c-2.34,6-1.39,13-4.16,18.82-1.38,2.91-4.3,3.6-7.27,4.1-3.45.58-7,.62-10.44,1-8.62.94-17.38,4-25.43,7.16a147.4,147.4,0,0,0-24.84,12.27c-7.13,4.42-13.91,9.73-18.67,16.73-5.06,7.45-7.25,16.38-8.6,25.16-.69,4.46-.69,9.48-3.08,13.45s-5.23,7-7,11.27c-3.72,9.11-5.52,19.34-7.18,29a243.34,243.34,0,0,0-2,68,1.57,1.57,0,0,0,1.1,1.45c6,1,11.9.42,17.9-.45a125.12,125.12,0,0,1,20.38-1.1c13.73.24,27.49-.2,41.22-.35l83.76-.93,166.6-1.85,47.17-.53c7.19-.08,14.42.06,21.59-.35,6.18-.36,12.34-1.47,17.59-4.92a1.52,1.52,0,0,0,.31-2.35c-13.63-13.89-27.44-28-37.58-44.69-8.75-14.44-13.48-32.47-27.27-43.26-7.35-5.75-16.29-8.77-24.82-12.3a237.89,237.89,0,0,1-25.58-12.35c-16.4-9.22-31.62-20.82-43.46-35.55-12.92-16.07-21.65-35.83-22.54-56.58h-3l.08.69,2.94-.4c-4.27-22.3-9.09-44.58-12.46-67.05-3.35-22.29-5-44.88-7-67.33-2-22-3.12-44.38,1.74-66.11,4.7-21,13-41.42,14.66-63.06.71-8.95-1.42-17-9-22.48a40.94,40.94,0,0,0-24.72-7.26,41.65,41.65,0,0,0-24.36,8.57c-7.19,5.52-12.58,13-17.07,20.77C1500.8,629.51,1494,649.48,1490,670c-4.26,21.75-6.79,43.94-9.08,66-2.32,22.43-3.87,45-4.18,67.51-.15,11.18,0,22.37.51,33.54.48,10.54,2.61,21.9.36,32.33-1.1,5.13-3.65,9.71-5.68,14.51-.74,1.76,1.84,3.29,2.59,1.51,1.89-4.46,4.28-8.76,5.56-13.46a49.24,49.24,0,0,0,1.35-14.37c-.33-10.79-1.33-21.55-1.59-32.35-.51-21.72.26-43.45,1.91-65.1,1.68-22.19,4.27-44.31,7.39-66.33,2.94-20.82,6.88-41.42,15-60.92A147.19,147.19,0,0,1,1518,606.34c5.26-7.72,12-14.76,20.82-18.38a39.87,39.87,0,0,1,26.48-1.25,33.15,33.15,0,0,1,12.49,6.68,17.89,17.89,0,0,1,5.72,12.67c.31,4.88-.47,9.79-1.28,14.59-.89,5.26-2,10.49-3.27,15.67-2.54,10.49-5.8,20.77-8.51,31.21-5.41,20.8-5.81,41.92-4.26,63.26,1.56,21.6,3.64,43.26,6.18,64.77s7.06,43,11.15,64.33l3.11,16.25c.31,1.64,3.14,1.29,3-.4l-.08-.69c-.21-1.87-3.09-2-3,0,1.61,37.55,26.76,68.75,57.2,88.52a209.3,209.3,0,0,0,24.82,13.67c8.85,4.16,18.2,7.28,26.94,11.64a47.45,47.45,0,0,1,19.79,18.47c4.6,7.56,7.93,15.79,12.09,23.58,10.39,19.44,26,35.37,41.29,51l.3-2.36c-5.06,3.32-11,4.27-16.9,4.55-6.24.3-12.51.22-18.76.29l-41.15.46-82.8.92-164.59,1.83q-23,.26-46,.51c-7.33.07-14.68-.51-22,.4s-14.4,2.4-21.72,1.21l1.1,1.45a240.62,240.62,0,0,1,1-61.08,220.8,220.8,0,0,1,6.15-29.24,38.85,38.85,0,0,1,6.22-13,23.78,23.78,0,0,0,5-12c1.23-9,2.56-18.25,6.9-26.39,4.24-8,11.22-13.83,18.72-18.6a143,143,0,0,1,26-12.94c8-3,16.68-6.13,25.23-6.87,5.77-.5,14.91.13,18.39-5.58,3.69-6.07,2.4-13.94,4.93-20.42C1475.34,883.18,1472.44,882.4,1471.74,884.18Z" transform="translate(-159.36 -28.09)"/><path d="M1354.6,1083.24c.87-17.93,1.84-35.91,3.66-53.76a130.3,130.3,0,0,1,4.42-24.23,73.29,73.29,0,0,1,4.59-11.69c1.9-3.79,4.07-7.45,5.74-11.36,3.33-7.83,4-16.36,6.45-24.44a43.29,43.29,0,0,1,20-25.2c3.53-2,7.23-3.78,10.47-6.29s6-5.42,9.64-7.39a47,47,0,0,1,11.05-4,160.87,160.87,0,0,1,26.27-4.15q6.73-.51,13.5-.47a51.64,51.64,0,0,1,11.7,1.11,22.45,22.45,0,0,1,15,11.72c2.95,5.62,4.08,12.11,4.61,18.38.65,7.66.47,15.39.54,23.07,0,4.47.24,9,0,13.43a23.22,23.22,0,0,1-3.44,11.61,94.35,94.35,0,0,1-6.79,9c-2.29,2.83-4.66,5.6-7.17,8.24-4.82,5.06-10.19,9.76-16.52,12.84a30.91,30.91,0,0,1-9.34,2.89,27.39,27.39,0,0,1-5.12.19,25.29,25.29,0,0,0-5.36-.09c-3.86.64-5.22,4.38-6.2,7.7a34.15,34.15,0,0,0-1.28,11.15,47.17,47.17,0,0,0,6.94,21.81,64.84,64.84,0,0,0,11,14.18c2.35,2.22,4.84,4.3,7.31,6.39l1.07-2.56-11.38,0-27.32.08-33,.11-28.45.08c-4.62,0-9.28-.15-13.89,0h-.2a1.5,1.5,0,0,0,0,3l11.38,0,27.32-.08,33-.1,28.46-.09c4.61,0,9.28.16,13.89,0h.2a1.53,1.53,0,0,0,1.06-2.57c-4.68-3.93-9.44-7.87-13.12-12.79-4.36-5.84-8.11-12.38-10-19.46a37.57,37.57,0,0,1-1.24-11.7,29.37,29.37,0,0,1,.88-5.66,16.6,16.6,0,0,1,2-5.21c1.08-1.56,3-1.48,4.68-1.36a43.62,43.62,0,0,0,5.24.17,32,32,0,0,0,9.85-2.11c13.46-5.2,23.2-17.22,31.72-28.33,2.5-3.26,4.84-6.71,5.93-10.73s1-8.41,1-12.63c-.08-8.51,0-17-.31-25.56-.49-12.37-2.64-27.09-13.88-34.47-6.72-4.42-15.12-4.75-22.9-4.69a170.79,170.79,0,0,0-27.09,2.4c-8,1.37-16.68,2.88-23.83,7-3.68,2.12-6.5,5.27-9.92,7.73s-7.09,4.08-10.59,6.2a46.48,46.48,0,0,0-15.35,15.3c-4.33,7-6,14.86-7.66,22.82a65.4,65.4,0,0,1-3.58,12.35c-1.72,4-4,7.68-5.87,11.56a88.84,88.84,0,0,0-7.39,24c-1.45,8.32-2.13,16.75-2.78,25.16q-1.08,13.93-1.88,27.88-.39,6.78-.72,13.58C1351.51,1085.17,1354.51,1085.16,1354.6,1083.24Z" transform="translate(-159.36 -28.09)"/><path d="M1586.69,1083.43c3.73-5.81,8.54-10.77,13.55-15.47,4.86-4.56,9.76-9.69,15.81-12.65,6.22-3,13.37-3.62,20.14-4.44l23.14-2.78,25.61-3.08c1.89-.23,1.91-3.23,0-3l-47.27,5.68c-7.11.86-14.49,1.39-21.17,4.15s-11.65,7.77-16.77,12.5c-5.77,5.33-11.36,10.93-15.63,17.57-1,1.63,1.55,3.14,2.59,1.52Z" transform="translate(-159.36 -28.09)"/><path d="M1486.47,1082.12q8.19-21.27,17.26-42.18,4.53-10.43,9.28-20.76c2.84-6.17,5.58-12.44,8.84-18.41,2.66-4.86,5.82-9.7,10.24-13.15a19.87,19.87,0,0,1,6.89-3.53c1.68-.47,3.42-.62,5.12-1a18.62,18.62,0,0,0,4.92-1.94,48.27,48.27,0,0,1,9.36-4.22c3.41-1,6.9-1.74,10.37-2.51,6.67-1.47,13.37-2.85,20.13-3.82,14.92-2.13,30.74-2.15,44.58,4.54,1.73.83,3.26-1.75,1.52-2.59-12.65-6.11-26.81-7-40.6-5.62a204.58,204.58,0,0,0-20.86,3.4c-6.84,1.43-14,2.6-20.5,5.35-3.44,1.47-6.44,3.88-10.17,4.61-3.1.61-6,1.1-8.86,2.57-5,2.59-8.86,7-11.92,11.69-3.5,5.34-6.1,11.21-8.8,17q-4.92,10.53-9.61,21.15-10.64,24.07-20.08,48.65c-.69,1.81,2.2,2.59,2.89.8Z" transform="translate(-159.36 -28.09)"/><path d="M1485.38,907.24c4.1-6.1,10.84-9.73,17.71-11.86a106,106,0,0,1,12.07-2.77c3.94-.72,7.85-1.67,11.82-2.24a27.09,27.09,0,0,1,13.17.85,1.51,1.51,0,0,0,1.46-2.51,1.75,1.75,0,0,0-2.79.25c-.63,1.21.76,3,2,2.06a2.47,2.47,0,0,0,.69-.75l-1.7.69a204.24,204.24,0,0,1,23.53,9.29c7.54,3.71,14.54,8.37,21.51,13,1.61,1.08,3.11-1.52,1.51-2.59-7.1-4.74-14.23-9.48-21.93-13.23a215.72,215.72,0,0,0-23.82-9.39,1.53,1.53,0,0,0-1.69.69l.39-.32,2.05,2.05-1,.64-1.06-.44.18.15,1.46-2.5c-8.17-3-16.87-.49-25,1.1s-16.64,3.11-23.9,7.59a30.07,30.07,0,0,0-9.22,8.71c-1.08,1.61,1.52,3.11,2.59,1.51Z" transform="translate(-159.36 -28.09)"/></g><g id="Bouche"><g id="Lèvres"><path class="cls-8" d="M808.54,735.05c-3.53-4.76-7-9.7-8.79-15.34s-1.75-12.16,1.49-17.11c2.88-4.41,9.27-17.81,14.07-20,21.45-9.7,43.77-9,66.78-14,11.74-2.56,23.72-5.5,35.73-6,8.47-.32,16.19,0,24.67,0,14.46-.08,30.82-3.62,45.09-6,12.18-2,24.4-.56,36.58-2.55,7.06-1.15,12.88,1.82,18.72,6a21.34,21.34,0,0,1,7.65,10.21c3.51,9.37,4.24,19.74,4.5,29.75.7,27.44-4.37,54.74-11.22,81.33a94.15,94.15,0,0,1-5.57,16.76c-5.54,11.73-15.35,20.88-25.62,28.82-4.26,3.29-8.7,6.46-13.71,8.44a65.38,65.38,0,0,1-13.65,3.23c-10.92,1.78-21.87,3.56-32.93,3.9a128.24,128.24,0,0,1-73.48-20.6C863.69,812,850.78,799,839.31,785a291.24,291.24,0,0,1-33.65-51.24Z" transform="translate(-159.36 -28.09)"/><path d="M809.83,734.29c-6.16-8.33-13.86-20.2-7.51-30.59,1.9-3.11,3.65-6.31,5.5-9.46s3.95-6.91,6.86-9.41c1.61-1.39,3.91-2,5.86-2.77q4.25-1.62,8.63-2.83a152.3,152.3,0,0,1,17.3-3.63c12-1.89,24.13-3,36-5.57,12.7-2.75,25.29-5.72,38.35-6,6.29-.13,12.59.07,18.88.09A141.79,141.79,0,0,0,957.67,663c6-.74,11.88-1.72,17.79-2.76s12-2.31,18.13-2.84c6.5-.56,13-.47,19.55-.76,3.23-.15,6.46-.4,9.67-.85a22,22,0,0,1,8.29,0,25.36,25.36,0,0,1,7.08,3,29.83,29.83,0,0,1,6.62,4.92c3.79,4,5.39,9.48,6.56,14.73a101.9,101.9,0,0,1,2.06,18.11q.38,9.38-.07,18.74a271.52,271.52,0,0,1-4.75,38.22c-1.21,6.31-2.59,12.58-4.09,18.83s-2.92,12.3-4.91,18.28C1036,801.44,1029.34,810.32,1021,818a135.07,135.07,0,0,1-13.12,10.63,43.7,43.7,0,0,1-16.11,7.31c-6.21,1.36-12.57,2.22-18.86,3.13a189.29,189.29,0,0,1-19.6,1.94,127,127,0,0,1-66.48-16,139.63,139.63,0,0,1-27.77-20.75C842,788,827.55,768.7,815.52,748.47Q811,740.87,807,733l-2.05,2,2.87,1.28c1.75.78,3.27-1.8,1.51-2.59l-2.87-1.28a1.51,1.51,0,0,0-2,2,287.12,287.12,0,0,0,41.72,60.68,172.87,172.87,0,0,0,26.33,24.1A129.2,129.2,0,0,0,903.67,836a130.67,130.67,0,0,0,34.64,7.64c12.8,1,25.51-.21,38.16-2.14,6.35-1,12.87-1.72,19.07-3.44,5.87-1.64,11-4.73,15.87-8.35,9.08-6.78,17.85-14.4,24.18-23.9,7-10.45,9.55-23.05,12.38-35.1a341.75,341.75,0,0,0,7-38.76,221.88,221.88,0,0,0,1.29-38.91,90.26,90.26,0,0,0-2.72-18.35c-1.44-5.3-3.56-10.46-7.73-14.21a32.65,32.65,0,0,0-14.29-7.67,22.43,22.43,0,0,0-8.25-.08,95.11,95.11,0,0,1-10.12.92c-6.68.3-13.39.19-20,.8-6.19.57-12.31,1.84-18.43,2.91s-12.38,2.13-18.61,2.84a151.63,151.63,0,0,1-18.57.89c-6.55-.06-13.11-.25-19.66,0a130.68,130.68,0,0,0-19.59,2.48c-6.48,1.24-12.88,2.83-19.35,4.11-6.17,1.23-12.41,2.12-18.64,2.95-12.14,1.63-24.39,3.13-36.08,6.94a90.14,90.14,0,0,0-8.73,3.33,11.77,11.77,0,0,0-4.1,3,58.88,58.88,0,0,0-7.09,10.51c-1,1.71-1.94,3.44-2.93,5.15a43.63,43.63,0,0,0-2.85,5.14c-2.09,5.13-1.69,11.07.12,16.22,1.93,5.46,5.25,10.24,8.66,14.86C808.38,737.34,811,735.85,809.83,734.29Z" transform="translate(-159.36 -28.09)"/></g><g id="Fond"><path class="cls-9" d="M943.92,819.23c-23.36.32-45.63-9.58-65.95-21.1-10.66-6-21.17-12.7-29.48-21.71-7.81-8.47-13.51-18.86-22.25-26.36-6.38-5.47-14.22-9.26-19.71-15.61a30.38,30.38,0,0,1,8-46.3c9.77-5.55,21.64-5.27,32.87-5.88,29.72-1.63,58.94-10.59,88.68-9.37,10.24.42,20.54,2,30.7.69,7.18-1,14.08-3.38,21.15-5,15.67-3.53,31.94-3,48-2.35a24.92,24.92,0,0,1,7.89,1.15c4.78,1.79,8.52,4.58,8.42,9.67,0,2.66.85,1.7,1.71,4.26,1.3,3.92.49,9.35.85,11.06,2.86,13.56-8.08,26.59-13.77,39.23-7.72,17.16-11.38,36.43-22.74,51.43-8.57,11.3-20.94,19.26-34.06,24.66s-27.07,8.44-40.93,11.44" transform="translate(-159.36 -28.09)"/><path d="M943.92,817.73c-22.35.24-43.41-8.8-62.61-19.45-9.38-5.2-18.72-10.76-26.72-18s-13.53-16.16-20.38-24.25A64.27,64.27,0,0,0,823,745.65c-4.13-3-8.53-5.7-12.35-9.14a28.93,28.93,0,0,1,6.93-48.26c9.75-4.53,21-3.91,31.49-4.58,23.66-1.52,46.79-7.44,70.45-9a155.16,155.16,0,0,1,17.52-.22c6,.29,12.06.95,18.11,1.13A71,71,0,0,0,972.86,674c5.67-1.26,11.21-3,16.9-4.24,11.76-2.46,23.85-2.63,35.82-2.33,3,.07,5.91.18,8.86.29s5.79.08,8.53,1c3.61,1.2,7.61,3.62,7.76,7.85a7,7,0,0,0,.39,2.88c.32.69.9,1.19,1.22,1.9.94,2.09.89,4.67.87,6.92a29.63,29.63,0,0,0,.28,5.33,21.88,21.88,0,0,1,0,7c-1.61,10.09-8.06,18.71-12.52,27.67-9.13,18.36-12.09,39.89-25.55,56-14,16.72-35.19,24.55-55.75,29.63-5.56,1.38-11.16,2.59-16.76,3.81-1.89.4-1.09,3.3.8,2.89,22.14-4.8,45.08-10,63.34-24.17a69.64,69.64,0,0,0,19.62-24.2c4.77-9.58,7.92-19.86,11.64-29.87a124,124,0,0,1,6.2-14.42c2.5-4.78,5.3-9.4,7.64-14.26a43.16,43.16,0,0,0,4.5-14.23,30.06,30.06,0,0,0-.4-7.46c-.23-1.64,0-3.83,0-5.65-.08-2.3-.28-4.94-1.48-7a7.58,7.58,0,0,1-.94-1.42,7.75,7.75,0,0,1,0-1.6,11.07,11.07,0,0,0-.23-1.73c-.91-4.32-4.77-6.87-8.6-8.41a24.18,24.18,0,0,0-8.26-1.44c-3-.13-6.06-.23-9.08-.32-6.16-.18-12.32-.25-18.48,0a127.48,127.48,0,0,0-18.18,2c-6,1.12-11.75,3-17.65,4.36a69.64,69.64,0,0,1-18.32,1.73c-6.21-.2-12.4-.89-18.61-1.16-24.4-1-48.34,4.76-72.4,7.8-6.07.77-12.17,1.35-18.28,1.65-5.43.26-10.88.4-16.27,1.13A43.61,43.61,0,0,0,814,686.74a32.22,32.22,0,0,0-10.55,9.63,31.85,31.85,0,0,0-4.09,28.28,32.46,32.46,0,0,0,8,12.84c3.75,3.67,8.2,6.52,12.47,9.52a64.84,64.84,0,0,1,11.73,10.53c3.58,4.15,6.74,8.63,10.09,13a89.07,89.07,0,0,0,10.85,11.94,108.25,108.25,0,0,0,13.34,10.11,232.16,232.16,0,0,0,29.69,16.34,130,130,0,0,0,32,10.48,90.67,90.67,0,0,0,16.37,1.36,1.5,1.5,0,0,0,0-3Z" transform="translate(-159.36 -28.09)"/></g><g id="Langue"><path class="cls-10" d="M946.12,798.42c-16.87,5-34.83-1-51.4-6.91a40.39,40.39,0,0,1-9.58-4.39,42.8,42.8,0,0,1-5.64-5,326.11,326.11,0,0,0-32.54-28,22.52,22.52,0,0,1-4.88-4.45,15.71,15.71,0,0,1-2.61-7.8c-1.07-11.34,4.86-22,10.58-31.9a16.33,16.33,0,0,1,3.2-4.33c2.59-2.22,6.24-2.58,9.64-2.87a650.57,650.57,0,0,0,83.54-12.64c5.6-1.22,11.25-2.53,17-2.64s11.29.94,16.93.66c5.42-.28,10.7-1.79,16.09-2.45,4-.5,8.86-.15,11.07,3.26a12.18,12.18,0,0,1,1.47,5.26c1.5,12.29,3,24.89,0,36.91a101.48,101.48,0,0,1-4.6,13.3l-7.83,19.67c-2.05,5.13-4.12,10.31-7.29,14.83-2.86,4.07-6.54,7.49-10.18,10.88a24.65,24.65,0,0,1-5,3.88,24.36,24.36,0,0,1-7.36,2.07l-20.49,3.47Z" transform="translate(-159.36 -28.09)"/><path d="M945.72,797c-14.84,4.31-30.28.1-44.44-4.74-3.44-1.18-6.93-2.32-10.29-3.71a28.54,28.54,0,0,1-9.16-6.18c-5.35-5.18-10.74-10.29-16.37-15.16s-11.67-9.73-17.74-14.3c-2.79-2.1-5.14-4.2-6.13-7.66a25.15,25.15,0,0,1-.37-10.75c1.16-7.08,4.42-13.61,7.9-19.81.87-1.54,1.74-3.08,2.65-4.6a10.43,10.43,0,0,1,3.51-4c2.82-1.67,6.39-1.66,9.56-1.94q23.56-2.08,46.94-5.87,11.82-1.9,23.57-4.25,5.74-1.15,11.48-2.4c3.91-.86,7.84-1.77,11.82-2.25,7.74-.92,15.41.9,23.13.22,4-.35,7.84-1.23,11.74-1.9,3-.51,6.11-1,9.07-.26a6.35,6.35,0,0,1,3.26,1.84,8.61,8.61,0,0,1,1.58,4.57q.8,5.89,1.3,11.83c.65,7.57.83,15.29-.66,22.78s-4.8,14.83-7.67,22-5.43,14.6-8.83,21.56a42.13,42.13,0,0,1-5.86,9.07A97.51,97.51,0,0,1,978,788.8a26,26,0,0,1-4,3.22,16,16,0,0,1-5.21,1.88c-3.74.78-7.54,1.31-11.31,2l-11.71,2,1.84,1-.12-.86c-.27-1.9-3.16-1.09-2.89.8l.12.86c.12.85,1.13,1.16,1.84,1l12.45-2.1c3.93-.67,8-1.13,11.83-2.11,3.63-.92,6.38-2.94,9.08-5.45a94.85,94.85,0,0,0,8.13-8.16c5-5.93,7.77-13.06,10.61-20.18,3.06-7.69,6.26-15.34,9.15-23.09a67.64,67.64,0,0,0,4.32-23.71c0-4.06-.26-8.11-.65-12.15s-.7-7.92-1.4-11.8a8.81,8.81,0,0,0-5.51-7,17.86,17.86,0,0,0-8.89-.62c-4,.54-8,1.51-12.07,2a59.39,59.39,0,0,1-12.29,0,66.18,66.18,0,0,0-12.27-.07,112.07,112.07,0,0,0-11.93,2.15q-12.16,2.67-24.41,4.89-24.57,4.44-49.43,7c-4,.41-8,.7-12.05,1.12-3.32.35-6.71,1-9.27,3.31a17.49,17.49,0,0,0-3.18,4.31c-.94,1.61-1.87,3.22-2.77,4.85a93.36,93.36,0,0,0-5,10.26c-2.73,6.73-4.45,14.66-2.4,21.82a15.91,15.91,0,0,0,6,8.34c3.09,2.39,6.23,4.73,9.28,7.18q9.29,7.46,18,15.56c2.87,2.67,5.63,5.45,8.48,8.14a30.19,30.19,0,0,0,9.27,6,176.69,176.69,0,0,0,22.39,7.5c7.53,2,15.36,3.37,23.18,3a49.2,49.2,0,0,0,11.17-1.85A1.51,1.51,0,0,0,945.72,797Z" transform="translate(-159.36 -28.09)"/></g><g id="Dents_haut" data-name="Dents haut"><path class="cls-11" d="M817.51,690.06l2.09,5.33a24.87,24.87,0,0,0,4,7.61c1.9,2.18,4.82,3.69,7.66,3.14a3.94,3.94,0,0,0,1.66-.69,4.89,4.89,0,0,0,1.2-1.51,15.51,15.51,0,0,0,2.35-9.06c-.3-3.42-2-6.53-3.74-9.51a1.72,1.72,0,0,0-.53-.66,1.71,1.71,0,0,0-1.24-.09,71.14,71.14,0,0,0-13,3.55Z" transform="translate(-159.36 -28.09)"/><path d="M816.06,690.46c1,2.45,1.89,4.92,2.9,7.35a22,22,0,0,0,3.63,6.26c2.67,3,8.6,5.59,11.91,2a15.41,15.41,0,0,0,3.13-6.65,14.82,14.82,0,0,0-.16-7.54,32.14,32.14,0,0,0-3.11-6.77c-.57-1-1.17-1.87-2.4-2a12.35,12.35,0,0,0-3.76.54,72.12,72.12,0,0,0-8.66,2.4c-1.15.4-2.61.62-3,1.91-.18.56-.31,1.15-.47,1.72a1.51,1.51,0,0,0,2.9.8l.5-1.89-1,1a72.47,72.47,0,0,1,11.38-3.26,6.64,6.64,0,0,0,1.61-.3c.14-.08.38.13.08-.1s0,.08,0,.17a23.62,23.62,0,0,0,1.48,2.69,18.58,18.58,0,0,1,1.91,5.15,13.72,13.72,0,0,1-2.61,10.09c-1.09,1.1-3.16.75-4.43.21a9,9,0,0,1-3.78-3.15c-2.4-3.37-3.61-7.65-5.1-11.46C818.26,687.88,815.36,688.65,816.06,690.46Z" transform="translate(-159.36 -28.09)"/><path class="cls-11" d="M837.08,698.05c.33,3,1.72,5.82,3.09,8.54.79,1.58,1.72,3.29,3.37,3.93,2.06.79,4.47-.54,5.59-2.45a12.61,12.61,0,0,0,1.24-6.44,72.06,72.06,0,0,0-.82-10.88c-.24-1.58-.6-3.28-1.82-4.32a7,7,0,0,1-1.4-1.19,14.55,14.55,0,0,0-.68-1.3c-.95-1.16-2.88-.24-4.31-.72a17.25,17.25,0,0,0-1.64-.75,3.49,3.49,0,0,0-1.88.25l-4,1.29a.79.79,0,0,0-.49.31.75.75,0,0,0,0,.55l3.8,14.11Z" transform="translate(-159.36 -28.09)"/><path d="M835.58,698.05a27.34,27.34,0,0,0,3,8.68c1.07,2.15,2.29,4.5,4.74,5.29a6.24,6.24,0,0,0,6.49-2.31c1.74-2.14,2.06-5,2.08-7.66a70.58,70.58,0,0,0-.56-9.42c-.31-2.51-.51-5.46-2.52-7.26-.46-.42-1-.66-1.34-1.21a5.4,5.4,0,0,0-1-1.5,4.26,4.26,0,0,0-3.16-.82,4.46,4.46,0,0,1-1.59-.07c-.58-.19-1-.6-1.64-.75-1.37-.33-2.74.27-4,.68s-3.71.69-4.23,2.22a3.23,3.23,0,0,0,.14,1.82c.24.94.51,1.88.76,2.82l2.92,10.81a1.5,1.5,0,0,0,2.94-.39l0-.93c-.06-1.93-3.06-1.94-3,0l0,.93,2.95-.4-2-7.29-1-3.53-.5-1.88a5.65,5.65,0,0,0-.26-.94l-.12-.47-.58,1c0,.07,3.3-1.06,3.59-1.15a4.83,4.83,0,0,1,1.37-.38,4.66,4.66,0,0,1,1.47.6,5.64,5.64,0,0,0,2.38.33,3.52,3.52,0,0,1,1.33,0c.36.17.43.67.63,1,.5.86,1.34,1.22,2,1.91a5.24,5.24,0,0,1,1,2.67,55.85,55.85,0,0,1,.78,7.19c.19,3.36,1.13,10.12-3.12,11.51-2.2.72-3.36-1.66-4.18-3.28a24.52,24.52,0,0,1-2.88-7.78C838.34,696.16,835.34,696.14,835.58,698.05Z" transform="translate(-159.36 -28.09)"/><path class="cls-11" d="M850.8,704.88a33,33,0,0,0,11.05,8.19c1.38.63,3.15,1.11,4.29.12a4.11,4.11,0,0,0,1.08-2.47,40.43,40.43,0,0,0-4-25.56,6.4,6.4,0,0,0-3.06-3.29,6.77,6.77,0,0,0-3.2-.09l-10.48,1.36c-.55,1.06.37,2.24,1,3.22,1.89,2.75,2.11,6.27,2.27,9.6l.41,8.4Z" transform="translate(-159.36 -28.09)"/><path d="M849.74,705.94a34,34,0,0,0,11.36,8.42c1.76.8,3.91,1.4,5.66.22s2-3.77,2.24-5.78a41.48,41.48,0,0,0-.78-14.35,40.27,40.27,0,0,0-2.26-6.92,17.39,17.39,0,0,0-3.32-5.77c-2-1.93-4.39-1.65-6.9-1.33l-9.28,1.21a1.59,1.59,0,0,0-1.45,1.1c-.78,2.15,1,3.69,1.84,5.44a15.52,15.52,0,0,1,1.32,5.9c.17,2.27.24,4.55.35,6.82a30.6,30.6,0,0,0,.17,3.46,2.36,2.36,0,0,0,1,1.58c1.46,1.25,3.59-.86,2.12-2.12l-.61-.52.44,1.06c-.18-3.84-.22-7.72-.63-11.55a18.36,18.36,0,0,0-1-4.85,12.68,12.68,0,0,0-1.09-2.18c-.4-.61-1.29-1.49-1-2.24l-1.44,1.1,6.67-.87,3.09-.4a9,9,0,0,1,3.14-.17c1.64.41,2.46,2.5,3.13,3.87a39.23,39.23,0,0,1,3.81,17.42,34.52,34.52,0,0,1-.56,6c-.12.61-.21,1.47-.88,1.72a3.78,3.78,0,0,1-2.44-.52,31.8,31.8,0,0,1-10.56-7.87C850.58,702.38,848.46,704.51,849.74,705.94Z" transform="translate(-159.36 -28.09)"/><path class="cls-11" d="M866.47,712.85c3.95,1.6,6.71,5.4,10.71,6.86a10.63,10.63,0,0,0,13.18-6.38c1.6-4.82-.53-10-1.57-14.92-.38-1.84-.61-3.71-1-5.55a37.82,37.82,0,0,0-5-12.57,4.56,4.56,0,0,0-1.45-1.6,4.75,4.75,0,0,0-3-.26l-17.72,2.29a40.18,40.18,0,0,1,6.06,29.52Z" transform="translate(-159.36 -28.09)"/><path d="M865.71,714.14c5,2.13,8.22,7.21,14,7.59a12.23,12.23,0,0,0,11.73-7c2.65-6.1-.59-12.88-1.61-19a47.62,47.62,0,0,0-2.43-9.55c-1-2.66-2.32-5.83-4.31-7.95a4.94,4.94,0,0,0-4.36-1.32c-1.94.21-3.87.5-5.8.75l-12.3,1.59c-1,.14-2,1.21-1.29,2.26a38.84,38.84,0,0,1,6.28,17.12,39.61,39.61,0,0,1-.05,9.17c-.21,1.7-.45,3.36-.59,5.08-.15,1.92,2.85,1.91,3,0s.43-3.65.64-5.5a40.94,40.94,0,0,0-.1-9.58,41.8,41.8,0,0,0-6.59-17.8l-1.3,2.25,9.6-1.24c3-.39,6.06-1,9.08-1.15,1.5-.08,1.94.8,2.64,2a38.84,38.84,0,0,1,2,3.89,37,37,0,0,1,2.48,8c.55,2.89,1,5.76,1.75,8.61s1.47,5.57,1.18,8.42a9,9,0,0,1-8.55,8c-5.52.27-8.91-5.19-13.6-7.19a1.55,1.55,0,0,0-2.05.54A1.5,1.5,0,0,0,865.71,714.14Z" transform="translate(-159.36 -28.09)"/><path class="cls-11" d="M891.78,712a45.91,45.91,0,0,0,26,5,4.56,4.56,0,0,0,1.67-.41,4.2,4.2,0,0,0,1.73-2.7,27,27,0,0,0,.55-9.53,61.87,61.87,0,0,0-7.84-25.14,10,10,0,0,0-2.5-3.19c-2.08-1.55-4.93-1.41-7.51-1.11a113.06,113.06,0,0,0-20.34,4.29c-1.14,2.19.89,4.58,2,6.78A19.05,19.05,0,0,1,887,691l4.17,20.73Z" transform="translate(-159.36 -28.09)"/><path d="M891,713.27a47.74,47.74,0,0,0,13.4,4.62,42,42,0,0,0,14.14.44c4.77-.79,4.88-7.54,4.78-11.29a59.12,59.12,0,0,0-2.22-14.22,63.44,63.44,0,0,0-5.34-13.26c-1-1.9-2.13-3.91-4-5.1a10.27,10.27,0,0,0-6-1.27,82.29,82.29,0,0,0-14.71,2.36c-2.53.58-5.07,1.21-7.54,2-2.22.72-2.15,3.32-1.42,5.19a25.6,25.6,0,0,0,1.71,3.23,14,14,0,0,1,1.38,3.69c.66,2.8,1.16,5.66,1.72,8.49l1.79,8.91.87,4.34a2.29,2.29,0,0,0,1.77,2c1.8.7,2.58-2.2.8-2.9l-.58-.22,1,1.05-3.43-17.11a44.11,44.11,0,0,0-1.88-7.9,25.53,25.53,0,0,0-1.63-3.11c-.52-.91-1.39-2.24-.91-3.32l-.9.69a110.73,110.73,0,0,1,19.47-4.19c2.62-.31,5.86-.75,7.81,1.45a18,18,0,0,1,2.23,3.6c.76,1.44,1.47,2.9,2.11,4.39a60.05,60.05,0,0,1,4.59,17.57,28,28,0,0,1-.3,9.57,5,5,0,0,1-.68,1.79c-.46.61-1.11.63-1.83.7a40.9,40.9,0,0,1-4.82.2,44.64,44.64,0,0,1-19.94-5C890.83,709.79,889.31,712.38,891,713.27Z" transform="translate(-159.36 -28.09)"/><path class="cls-11" d="M921.37,715.62A62.21,62.21,0,0,0,945.25,717c2.28-.31,4.74-.85,6.22-2.61,1.83-2.17,1.55-5.36,1.12-8.16a237.32,237.32,0,0,0-6.49-29.57,4.12,4.12,0,0,0-1.09-2.12,3.92,3.92,0,0,0-1.85-.74c-7.12-1.5-14.47-1.27-21.74-1-2.49.08-5.3.3-6.92,2.2s-1.41,4.68-.46,6.93,2.52,4.17,3.61,6.34c1.7,3.38,2.17,7.22,2.62,11L922,714.05Z" transform="translate(-159.36 -28.09)"/><path d="M921,717.06a64.33,64.33,0,0,0,16.28,2,62.44,62.44,0,0,0,8.2-.59,12.48,12.48,0,0,0,6-2c3.89-2.93,3-8.09,2.32-12.26q-1.34-8.31-3.26-16.51-1-4.1-2.06-8.16c-.55-2-.87-4.92-2.69-6.25a7.89,7.89,0,0,0-3.37-1.13c-1.38-.25-2.76-.45-4.15-.6a81.55,81.55,0,0,0-8.28-.43c-2.77,0-5.54.07-8.31.17a14.91,14.91,0,0,0-6.27,1.16c-4.35,2.15-4.1,7.45-2.2,11.2,1.29,2.52,3.1,4.7,4,7.42a41.25,41.25,0,0,1,1.59,8.4q.59,4.83,1.15,9.64l.29,2.47a12.61,12.61,0,0,1,.33,2.11,5.79,5.79,0,0,1-.64,1.53,1.51,1.51,0,0,0,1.05,1.84,1.54,1.54,0,0,0,1.85-1c.16-.4.34-.79.49-1.19a5.73,5.73,0,0,0,0-2.76l-.91-7.65c-.56-4.69-.77-9.65-2.29-14.15a28.12,28.12,0,0,0-3-5.91c-1.08-1.73-2.22-3.58-2.26-5.69-.1-4.78,5.63-4.35,9-4.45a100.44,100.44,0,0,1,14.92.38c1.2.15,2.39.34,3.58.58s1.87.38,2.26,1.57c.77,2.4,1.36,4.87,2,7.3q1.85,7.23,3.23,14.55c.47,2.52.91,5,1.3,7.59a13.11,13.11,0,0,1,0,5.78c-.66,2.18-2.75,3-4.8,3.38a47.33,47.33,0,0,1-7.88.73,61.57,61.57,0,0,1-16.66-1.91C919.9,713.69,919.1,716.59,921,717.06Z" transform="translate(-159.36 -28.09)"/><path class="cls-11" d="M954.13,711.05c2.46,2.27,6.06,2.67,9.4,2.79a25.86,25.86,0,0,0,10.07-1.13c3.19-1.19,6.06-3.69,6.87-7,.58-2.34.08-4.8-.41-7.16L977.62,687c-.81-3.88-1.67-7.85-3.84-11.16a4.36,4.36,0,0,0-1.59-1.6,4.85,4.85,0,0,0-2-.38,125.53,125.53,0,0,0-17.75,1l-6.63.69q3.53,17,7.48,33.82Z" transform="translate(-159.36 -28.09)"/><path d="M953.07,712.11a13.57,13.57,0,0,0,7.73,3,37.74,37.74,0,0,0,9,0c5.34-.69,11.14-3.72,12.27-9.48.64-3.31-.34-6.71-1-9.94s-1.39-6.66-2.11-10a36.63,36.63,0,0,0-2.77-8.86,11.15,11.15,0,0,0-2.25-3.31,6.12,6.12,0,0,0-4.17-1.26c-8-.26-16,.89-23.89,1.71a1.54,1.54,0,0,0-1.45,1.9Q946.46,686,948.7,696q1.09,4.95,2.24,9.89a25.43,25.43,0,0,0,1.07,4.25c.24.57.55,1.12.83,1.68.86,1.73,3.44.21,2.59-1.51a14.69,14.69,0,0,1-.79-1.59,41.62,41.62,0,0,1-.92-4.11q-1.14-4.94-2.24-9.89-2.18-9.78-4.23-19.58L945.81,677c6.05-.63,12.12-1.4,18.21-1.66,1.4-.06,2.8-.09,4.2-.08s3.09-.25,4,1a19.53,19.53,0,0,1,3,7.17c.71,2.73,1.23,5.52,1.81,8.29.63,3,1.34,6,1.88,9,.44,2.51.41,5-1.15,7.15a10.91,10.91,0,0,1-5.88,3.79,28.33,28.33,0,0,1-9.18.64c-2.64-.14-5.51-.51-7.56-2.32C953.75,708.72,951.62,710.84,953.07,712.11Z" transform="translate(-159.36 -28.09)"/><path class="cls-11" d="M980.86,706.08a35.5,35.5,0,0,0,10,1.41,9.71,9.71,0,0,0,5.47-1.28c2.91-2,3.26-6.11,3.09-9.63a79.7,79.7,0,0,0-3.63-20.19,11.26,11.26,0,0,0-1.66-3.58,8.17,8.17,0,0,0-6.73-2.76,24.3,24.3,0,0,0-7.31,1.74,7.94,7.94,0,0,0-2.82,1.44c-2,1.83-1.64,5-1.11,7.67l4.67,23.78Z" transform="translate(-159.36 -28.09)"/><path d="M980.46,707.53A35.15,35.15,0,0,0,992.13,709c3.27-.21,6.25-1.53,7.69-4.63,1.33-2.86,1.26-6.1,1.06-9.17a82.63,82.63,0,0,0-1.75-12.23c-.44-2-1-4-1.57-6a16,16,0,0,0-2-4.7c-2-2.79-5.53-3.89-8.84-3.62a24.35,24.35,0,0,0-5.89,1.36,12.44,12.44,0,0,0-4.6,2.22c-2.42,2.24-2.11,5.84-1.57,8.78.85,4.57,1.79,9.13,2.69,13.7l1.38,7a21.29,21.29,0,0,1,.61,4.4,1.5,1.5,0,0,0,3,0,39.61,39.61,0,0,0-1.19-7.62l-2.1-10.68c-.62-3.19-1.61-6.51-1.77-9.77a4.8,4.8,0,0,1,.83-3.48c1-1.11,2.83-1.46,4.19-1.91,2.9-1,6.27-1.76,9.11-.19s3.29,5.29,4,8a76.56,76.56,0,0,1,2,10.39,40.72,40.72,0,0,1,.43,9.22,7.94,7.94,0,0,1-1.37,3.95,5.57,5.57,0,0,1-4,1.89,30.75,30.75,0,0,1-11.28-1.28A1.5,1.5,0,0,0,980.46,707.53Z" transform="translate(-159.36 -28.09)"/><path class="cls-11" d="M1000.32,700.24c4,3.06,9.34,5.23,14.13,3.61,5-1.7,8-7.17,8.31-12.46s-1.36-10.45-3.06-15.47l-1.27-3.74a10.87,10.87,0,0,0-1.39-3.06c-2.16-3-6.46-3-10.11-2.82l-11.09.63a2.76,2.76,0,0,0-1.48.37,2.5,2.5,0,0,0-.83,1.55,10.48,10.48,0,0,0,0,4.32,24.74,24.74,0,0,0,1.46,4.16,69.75,69.75,0,0,1,5,21.67Z" transform="translate(-159.36 -28.09)"/><path d="M999.57,701.53c5.94,4.44,14.54,6.59,20.25.57s5-14.58,2.84-21.89c-.63-2.12-1.36-4.22-2.07-6.32s-1.19-4.15-2.49-5.83c-2.1-2.7-5.66-3.31-8.89-3.33-4.28,0-8.61.42-12.89.68-2,.11-3.53.62-4.15,2.69a11.52,11.52,0,0,0,.05,6.11c.63,2.33,1.75,4.52,2.54,6.78a71.3,71.3,0,0,1,2.09,7.15,65.66,65.66,0,0,1,1.31,7.39,34.92,34.92,0,0,0,.72,5.11,1.5,1.5,0,0,0,2.89-.8,18.4,18.4,0,0,1-.48-3.16c-.2-2-.48-4-.84-5.92A69.36,69.36,0,0,0,997.58,680c-1.19-3.36-3.51-7-2.6-10.73.25-1,.89-.82,1.82-.87l2.41-.14,6.27-.36c2.83-.16,6.23-.6,8.83.82a5.38,5.38,0,0,1,2.4,3.08c.72,1.93,1.34,3.91,2,5.87,2.14,6.4,4.27,13.82.64,20.1a9.66,9.66,0,0,1-7.65,5.13c-3.9.25-7.57-1.67-10.61-3.94C999.53,697.79,998,700.39,999.57,701.53Z" transform="translate(-159.36 -28.09)"/><path class="cls-11" d="M1024,690.49c3,.41,6.44.73,8.82-1.18s2.82-5.42,2.81-8.52c0-1.49,0-3-.16-4.48-.21-3.08-.88-6.53-3.47-8.21a11,11,0,0,0-5.1-1.28l-7.24-.6c-1-.08-2.23,0-2.67.85a2.6,2.6,0,0,0,.29,2.17,66.31,66.31,0,0,1,5.3,19Z" transform="translate(-159.36 -28.09)"/><path d="M1023.59,691.93c2.54.35,5.25.7,7.74-.15a8,8,0,0,0,5-5.08,20.82,20.82,0,0,0,.77-7.7,24.66,24.66,0,0,0-1.09-7.88,8.13,8.13,0,0,0-5.08-5.15c-2.9-1-6.32-.84-9.34-1.09-2.24-.18-5.91-.64-6.22,2.54-.13,1.37.67,2.65,1.18,3.87q.94,2.3,1.73,4.65a66.83,66.83,0,0,1,2.47,10.06,8.78,8.78,0,0,0,.84,3.49l1.12,1.75c1,1.62,3.64.12,2.59-1.51l-.65-1c-.17-.27-.34-.55-.52-.82s-.16-.45-.1-.07c-.37-2.52-.77-5-1.37-7.49a69.54,69.54,0,0,0-2.23-7.33c-.41-1.11-.85-2.2-1.31-3.29a6,6,0,0,1-.68-1.6c0-.52,0-.42.6-.43,2.59,0,5.28.41,7.86.63,2.15.19,4.39.47,5.64,2.44a11.82,11.82,0,0,1,1.42,5.38,42.21,42.21,0,0,1,.08,6.93c-.18,2.06-.81,4.35-2.72,5.45s-4.7.82-6.92.52a1.54,1.54,0,0,0-1.84,1.05A1.5,1.5,0,0,0,1023.59,691.93Z" transform="translate(-159.36 -28.09)"/><path class="cls-11" d="M1035.94,682.3c3.91.25,8.25-1.24,10-4.72a7.56,7.56,0,0,0-1.82-9,9.64,9.64,0,0,0-3.52-1.76,13.45,13.45,0,0,0-7.15,0,49.57,49.57,0,0,1,1.54,14.85Z" transform="translate(-159.36 -28.09)"/><path d="M1035.94,683.8c4.38.25,9.52-1.5,11.48-5.75a9.06,9.06,0,0,0-4.53-12,14.87,14.87,0,0,0-9.8-.71,1.53,1.53,0,0,0-1,1.85,48.78,48.78,0,0,1,1.46,9.31c.08,1.56.1,3.13,0,4.7a1.86,1.86,0,0,0,.85,1.82l.78.57a1.51,1.51,0,0,0,2-.54,1.54,1.54,0,0,0-.53-2.06l-.91-.65.74,1.3a52.23,52.23,0,0,0-1.59-15.25l-1,1.85c4.6-1.21,11.4.31,11.36,6.13,0,4.77-5.29,6.65-9.31,6.42C1034,680.69,1034,683.69,1035.94,683.8Z" transform="translate(-159.36 -28.09)"/></g><g id="Pourri"><path d="M827.9,696.48l-.11-.08c-.19-.14.18.22.1.12s-.1-.22,0,0,.05.09,0,0,0,.41,0,.17v-.13s-.09.41,0,.2a.49.49,0,0,0,.05-.16c0-.11-.14.25-.08.17l.09-.15c.09-.17-.09.13-.12.15a.43.43,0,0,0,.09-.1c.13-.14-.13.11-.15.12s.26-.12,0,0,.13,0-.2,0,0,0,0,0-.36,0-.13,0-.05,0-.12,0c.23.11-.17-.18-.05-.06l.13.13c.12.1-.15-.24-.07-.09l.11.19c.11.19-.05,0,0-.1s0,.13.05.17c.08.25,0-.24,0,0a1.92,1.92,0,0,1,0,.24c0,.08,0,.16,0,.24s.06-.27,0,0-.19.7-.3,1l2.51-.66a4.09,4.09,0,0,1-.42-.41c-.07-.09,0,0,.09.13l-.1-.15c0-.08-.1-.15-.14-.23s-.09-.16-.13-.24c-.14-.29.11.32,0,0s-.11-.37-.15-.57,0,.2,0,0,0-.21,0-.31,0-.37,0-.55c0,.35,0,.22,0,.05a2,2,0,0,1,.07-.26,1.34,1.34,0,0,0,.09-.26c-.1.22-.11.26,0,.11l.08-.16-2,.54.23.14.12.08c.09.06,0,0-.12-.1,0,.07.27.25.33.31s.12.19.18.21c-.13-.17-.16-.21-.1-.12a1,1,0,0,0,.08.11c.09.14.17.29.25.44s0,0,0-.06a2,2,0,0,0,.09.26,2.68,2.68,0,0,1,.07.27c0,.06,0,.32,0,.07s0,0,0,.07,0,.18,0,.28a2.45,2.45,0,0,1,0,.27c0,.29.06-.35,0,0l2.74-.36-.11-.16c-.16-.23,0,.2,0,.06l-.06-.19s-.05-.27,0,0,0,0,0-.09v-.2a1.36,1.36,0,0,0,0-.2c0,.21,0,.26,0,.14s0-.06,0-.1c.1-.55.28-1.09.36-1.64.21-1.5,0-3.05-1.4-3.92a1.5,1.5,0,1,0-1.52,2.59c.18.11-.09-.06-.1-.09a1.14,1.14,0,0,0,.11.11s-.19-.3-.09-.12l.08.13c.1.18-.07-.09-.06-.14a.73.73,0,0,0,0,.2s0,.11,0,.16,0-.32,0-.15,0,.47,0,.7.05-.33,0-.14l0,.17a2.74,2.74,0,0,1-.09.39c-.33,1.31-.62,2.85.23,4a1.55,1.55,0,0,0,1.5.72,1.49,1.49,0,0,0,1.25-1.08,5.26,5.26,0,0,0-2.51-5.58,1.51,1.51,0,0,0-2,.54,5.3,5.3,0,0,0,1.09,6.42,1.53,1.53,0,0,0,2.51-.66,5,5,0,0,0,.17-3.53,3,3,0,0,0-2.75-2,2.68,2.68,0,0,0-2.38,1.92,2.56,2.56,0,0,0,.69,2.77,1.59,1.59,0,0,0,1.06.44,1.53,1.53,0,0,0,1.06-.44,1.52,1.52,0,0,0,0-2.12Z" transform="translate(-159.36 -28.09)"/><path d="M896.26,695.3l.41-.38.22-.18.06,0,.07-.05.23-.17.46-.3c.28-.18.56-.34.85-.49l.37-.19.28-.13a11.16,11.16,0,0,1,1.86-.59c.32-.07.64-.14,1-.18-.33,0,.23,0,.29,0l.56,0-1.45-1.1c0-.19,0-.21,0,0s0,.16,0,0c0,.12-.17.31,0,.08,0,0-.27.39-.15.25s-.2.19-.23.22-.31.24-.1.1c-.14.09-.29.19-.44.27l-.35.17c.31-.14-.12,0-.18.07a7.92,7.92,0,0,0-3.54,1.92,1.53,1.53,0,0,0-.12,2,1.51,1.51,0,0,0,1.94.39,22.54,22.54,0,0,1,2.8-1.46l.13-.06.36-.15.72-.27c.51-.18,1-.35,1.54-.5l-1.9-1.44s0,.38,0,.16,0,.14,0,.15a2,2,0,0,1-.06.23s-.12.36,0,.16-.06.14-.07.15l-.12.21c0,.08-.11.16-.16.25s.22-.24,0,0a3.5,3.5,0,0,1-.38.39c0,.05-.28.22,0,0l-.19.14a5.45,5.45,0,0,1-.53.29c.11-.06.19-.07,0,0l-.35.1,1.46,2.51a2.68,2.68,0,0,1,.28-.3s.35-.28.11-.11a5.14,5.14,0,0,1,.64-.38c.14-.07-.18.05.08,0l.39-.11c.31-.09-.21,0,.14,0h.4l-1.29-2.25-.35.48,0,0-.18.23c-.25.31-.51.62-.78.91a22.34,22.34,0,0,1-1.72,1.65,1.5,1.5,0,0,0-.24,1.82,1.53,1.53,0,0,0,1.7.69l1.33-.55-1.46-.39a.67.67,0,0,1-.2-.58.49.49,0,0,1,.1-.26c-.14.21,0,.14.26-.23a1.5,1.5,0,1,0,1.52,2.59,2.39,2.39,0,0,0,.44-3.64,1.43,1.43,0,0,0-1.45-.38l-1.34.54,1.46,2.51a21,21,0,0,0,3.54-3.93,1.52,1.52,0,0,0-1.3-2.26,5.49,5.49,0,0,0-4.16,1.83,1.5,1.5,0,0,0,1.46,2.51,5.66,5.66,0,0,0,4.17-5.16,1.51,1.51,0,0,0-1.9-1.45,26.26,26.26,0,0,0-6.27,2.73l1.82,2.36a4.08,4.08,0,0,1,.36-.36c-.25.22.15-.09.22-.13s.3-.16.46-.23h0l.24-.1a16.11,16.11,0,0,0,2.12-.84,5.27,5.27,0,0,0,1.87-1.64,3.46,3.46,0,0,0,.51-2.62,1.51,1.51,0,0,0-1.45-1.1,13.65,13.65,0,0,0-8.75,3.64,1.53,1.53,0,0,0,0,2.13,1.55,1.55,0,0,0,2.13,0Z" transform="translate(-159.36 -28.09)"/><path d="M933.65,701.6l2.4-2.31c.19-.19.38-.38.58-.56,0,0,.23-.19.13-.12s.19-.11.22-.13c-.14.08-.08,0,0,0a.87.87,0,0,1-.67-.22c-.06-.06-.19-.31-.16-.19s0-.32,0,.07c0,.19,0,.38,0,.57,0,.43,0-.16,0,.09l-.06.28a6.17,6.17,0,0,1-.19.61c-.15.41.07-.13,0,.1s-.09.17-.13.25-.22.37-.34.54c.11-.17,0,0-.08.09l-.19.21a3.94,3.94,0,0,1-.47.44c.13-.1.05,0,0,0l-.37.22,2,.54c.12.25,0,0,0-.09s-.07-.22-.09-.33-.05-.22-.07-.33,0,.34,0-.08c0-.2,0-.4,0-.61l0-.34c0,.22,0,0,0-.08a4.31,4.31,0,0,1,.16-.59s.15-.36.08-.2l.1-.19a5.65,5.65,0,0,1,.36-.58c-.09.13-.05.07,0,0l.28-.3-2.56-1.06c0-.28,0,.14-.05.2a3.45,3.45,0,0,1-.12.43s-.18.43-.07.2a3.84,3.84,0,0,1-.21.4c-.07.13-.15.25-.23.38s.07-.06-.14.17a6.35,6.35,0,0,1-.65.62l2.51.66c0-.14-.09-.28-.13-.42s0-.21,0,0a3.39,3.39,0,0,1,0-.45s0-.41,0-.24.06-.25.06-.24.13-.38.07-.24.1-.19.12-.22a3,3,0,0,1,.25-.37,1.51,1.51,0,0,0-2.36-1.82l-1.58,1.82,2.51.67a5,5,0,0,1-.17-.64c0,.15,0,0,0-.1s0-.28,0-.41a1.24,1.24,0,0,1,.05-.43,5.88,5.88,0,0,1,.23-.71,1.5,1.5,0,0,0-.69-1.69,1.58,1.58,0,0,0-1.82.23l-2.28,2,2.35.31c.11.24-.06-.2-.07-.26s-.11-.44-.08-.3,0,.07,0-.09a2.81,2.81,0,0,1,0-.29,3.23,3.23,0,0,1,0-.44c0,.29,0-.15,0-.18s.08-.28.12-.42c.08-.31-.07.07.07-.18s.19-.34.3-.5l-2.79-.76c0,.1,0,.21,0,.31s0,.4,0,.25,0,.15,0,.18a2.59,2.59,0,0,1-.11.37c.06-.15,0,0,0,.06l-.15.27s-.23.32-.15.22-.19.19-.18.19l2.35.3-.17-.27c-.08-.15,0,.17,0,0s0-.26,0,0c0-.11,0-.21,0-.32s-.08.18,0,0,.1-.26,0-.07c0-.08.09-.15.13-.22-.13.23,0,0,.09-.09a1.48,1.48,0,0,0,.39-1.46l-.27-.75a1.51,1.51,0,0,0-2.9,0l-.36,1.59a1.5,1.5,0,0,0,2.9.8l.36-1.59h-2.9l.28.75.38-1.46a3.71,3.71,0,0,0-.52,4.64,1.53,1.53,0,0,0,2.36.3,5.3,5.3,0,0,0,1.54-4,1.52,1.52,0,0,0-2.8-.75,5.81,5.81,0,0,0-.37,5.68,1.52,1.52,0,0,0,2.36.3l2.28-2-2.51-1.46a5.81,5.81,0,0,0-.09,3.88,1.52,1.52,0,0,0,2.51.67l1.57-1.82-2.35-1.82a5,5,0,0,0-.65,4.53,1.52,1.52,0,0,0,2.5.66,6.8,6.8,0,0,0,2.35-4.52,1.49,1.49,0,0,0-.92-1.37,1.53,1.53,0,0,0-1.64.31,6.55,6.55,0,0,0-1.34,7.36,1.52,1.52,0,0,0,2.06.54,6.76,6.76,0,0,0,2.68-2.85,6,6,0,0,0,.6-4.09,2.33,2.33,0,0,0-2.07-1.7,3.26,3.26,0,0,0-2.19.86c-1.16.93-2.19,2.08-3.26,3.11a1.53,1.53,0,0,0,0,2.12,1.51,1.51,0,0,0,2.12,0Z" transform="translate(-159.36 -28.09)"/><path d="M967.6,681.88a9.63,9.63,0,0,0-3.62.38l1.7,2.2a.8.8,0,0,1-.55.32c.18,0,.09,0,.07,0s-.2-.56,0,.08a3.06,3.06,0,0,1,.1.51c0,.13,0,.27,0,.4,0,.38-.14.19.05,0l.54-.54-.12.05.76-.2h-.13l.76.21.12.09.44,1.06v-.11l-2.94.4a3.33,3.33,0,0,1,.27,1.42c0,1.67,2.6,2.08,3,.4l-.06.14-.54.54c-.65.47-1-1-1.31-.65a2.74,2.74,0,0,0-.3.76,2.62,2.62,0,0,0,0,1.77,1.53,1.53,0,0,0,1.24,1.08,1.51,1.51,0,0,0,1.5-.72,2.16,2.16,0,0,1,.66-.86l-2.2-.9a2.25,2.25,0,0,1,.2,1.37c-.06.27-.15.32-.23.62a1.9,1.9,0,0,0,.19,1.32,2.63,2.63,0,0,0,3,1.34l-1.89-1.45,0,2c0,.32,0,.63,0,.94a3.38,3.38,0,0,1,0,.45.82.82,0,0,1,.53-.61h.8l.22.19q.18.2.06,0s-.05-.14-.07-.23c0,.22,0-.27,0-.32l0-.64-.13-2.55a1.52,1.52,0,0,0-2.56-1.06l-1.83,2,2.51.67q-.49-2.44-1.11-4.86a1.52,1.52,0,0,0-2.51-.66l-1.36,1.18,2.35,1.82a9.35,9.35,0,0,0,1-3.22,1.49,1.49,0,0,0-1.1-1.44,1.52,1.52,0,0,0-1.69.69l-2.15,3.49,2.75.35a3.94,3.94,0,0,1,0-2.23,1.5,1.5,0,1,0-2.89-.8,3.26,3.26,0,0,0-.12,1.78l2.75-1.16a1.89,1.89,0,0,1-.08-1c.19-1.67-2.71-2.08-2.94-.4a3.69,3.69,0,0,1-.54,1.54l2.8.76-.15-2.29c-.07-1.17-1.67-2.15-2.56-1.06a4.57,4.57,0,0,0-1,4.19,1.5,1.5,0,0,0,2.89-.79,1.46,1.46,0,0,1,.22-1.28l-2.56-1.06.15,2.29a1.51,1.51,0,0,0,2.79.75,5.75,5.75,0,0,0,.84-2.25l-3-.4a4.65,4.65,0,0,0,.49,2.51,1.48,1.48,0,0,0,1.87.62,1.53,1.53,0,0,0,.87-1.77c0,.14.39-.86.11-.18l-2.89-.8a7,7,0,0,0,0,3.83,1.52,1.52,0,0,0,2.74.36l2.15-3.49-2.8-.76a5.17,5.17,0,0,1-.54,1.71,1.51,1.51,0,0,0,2.36,1.81l1.36-1.18-2.5-.66c.41,1.61.78,3.23,1.1,4.85a1.51,1.51,0,0,0,2.51.66l1.83-2-2.56-1.06c.06,1.19.08,2.38.18,3.57a3.06,3.06,0,0,0,1.68,2.75,2.06,2.06,0,0,0,2.74-1.82,28,28,0,0,0,0-3.78,1.52,1.52,0,0,0-1.9-1.44.45.45,0,0,1,.45.23l-.15,1.16a4.9,4.9,0,0,0,.18-3.95,1.52,1.52,0,0,0-2.2-.89,5.16,5.16,0,0,0-1.74,1.94l2.74.35c0-.09,0-.2.07-.35a4.24,4.24,0,0,0,.35-1.2,2.2,2.2,0,0,0-.68-1.9,2,2,0,0,0-3.31.89l2.94.4a5.62,5.62,0,0,0-.38-2.22,1.51,1.51,0,0,0-2.95.4,1.77,1.77,0,0,0,3,1.27c.82-.82.67-2.25.42-3.28-.56-2.32-3.51-3.46-5-1.32a1.52,1.52,0,0,0,1.69,2.21,7.26,7.26,0,0,1,2.82-.27,1.5,1.5,0,0,0,1.5-1.5,1.54,1.54,0,0,0-1.5-1.5Z" transform="translate(-159.36 -28.09)"/><path d="M1007.64,680a1.78,1.78,0,0,1,1-2l-1.9-1.45a4.71,4.71,0,0,1-.74,2.61l2.74.36a1.36,1.36,0,0,1,.09-1h-2.89a6.06,6.06,0,0,1,0,3l3,.4-.74.72-1.3-.74a3.87,3.87,0,0,1-.16,3.49l2.36-.31c.05.12,0,.1,0-.06a.25.25,0,0,1,.06.16v-.06a.24.24,0,0,1-.07.13l-2.56-1.06,0,3.83a1.5,1.5,0,0,0,3,0,3.36,3.36,0,0,1,.54-1.63l-2.79-.76,0,2.77a1.5,1.5,0,0,0,2.94.4,2.93,2.93,0,0,1,.64-1l-2.56-1.06v2.45a1.51,1.51,0,0,0,3,.4,20.61,20.61,0,0,1,1.44-5.23h-2.9a2.11,2.11,0,0,1-.32,1.7l2.74.36a17.77,17.77,0,0,1-.09-4.25,1.52,1.52,0,0,0-1.9-1.45,2.46,2.46,0,0,0-1.77,1.83l3,.4-.06-2.67a1.5,1.5,0,0,0-3,0c0,.12-.12.18-.33.29l2.25,1.3,0-3.07a1.49,1.49,0,0,0-1.3-1.47,1.53,1.53,0,0,0-1.64,1.07l-.45,1.13,2.5-.66v-.2a1.51,1.51,0,0,0-.87-1.77,1.49,1.49,0,0,0-1.87.62l-.64,1.37a1.53,1.53,0,0,0,.54,2.05,1.51,1.51,0,0,0,2-.54l.64-1.37-2.74-1.15a3.58,3.58,0,0,0,.77,3.11c.77,1,2.14.25,2.51-.66l.45-1.13-3-.4,0,3.07a1.52,1.52,0,0,0,2.26,1.29,3.36,3.36,0,0,0,1.82-2.88h-3l.06,2.67c0,1.63,2.59,2.11,2.94.4.09-.42-.18.22-.32.26l-1.9-1.44a21.35,21.35,0,0,0,.19,5,1.48,1.48,0,0,0,1.25,1.07,1.53,1.53,0,0,0,1.5-.71,5.25,5.25,0,0,0,.63-4,1.52,1.52,0,0,0-1.45-1.1,1.58,1.58,0,0,0-1.45,1.1,21.13,21.13,0,0,0-1.43,5.23l2.94.4v-2.45a1.51,1.51,0,0,0-2.56-1.06,6.38,6.38,0,0,0-1.41,2.36l3,.4,0-2.77a1.52,1.52,0,0,0-2.8-.76,6.48,6.48,0,0,0-1,3.15h3l0-3.83a1.51,1.51,0,0,0-2.56-1.06,2.93,2.93,0,0,0,.06,4.08,1.51,1.51,0,0,0,2.35-.31,7.06,7.06,0,0,0,.16-6.51,1.45,1.45,0,0,0-1.29-.75,2.36,2.36,0,0,0-2.26,2.28c-.15,1.7,2.54,2,2.95.4a9.46,9.46,0,0,0,0-4.61,1.52,1.52,0,0,0-1.44-1.11,1.57,1.57,0,0,0-1.45,1.11,4.14,4.14,0,0,0-.1,2.58,1.53,1.53,0,0,0,2.75.36,7.71,7.71,0,0,0,1.15-4.13,1.5,1.5,0,0,0-1.9-1.44,4.71,4.71,0,0,0-3.18,4.88,1.56,1.56,0,0,0,1.5,1.5c.73,0,1.61-.69,1.5-1.5Z" transform="translate(-159.36 -28.09)"/><path d="M878.39,716.46a17.83,17.83,0,0,0,6.52-4l-2.12-2.12L879.07,714l2.12,2.12a15,15,0,0,1,4.21-3.42,1.51,1.51,0,0,0-.76-2.79,13.89,13.89,0,0,0-8.26,3.31h2.12c-.23-.17-.21-.2,0,0,0,.17,0,.19,0,.08a1.34,1.34,0,0,1,0-.2c0,.44.09-.3,0-.08s0,.07,0-.07c-.1.11-.09.1,0,0s.14-.13,0,0l.16-.09a5.05,5.05,0,0,1,.5-.16,5.77,5.77,0,0,1,1-.09c1.85-.08,3.61-.34,4.76-2a1.5,1.5,0,0,0-.12-1.67,1.54,1.54,0,0,0-1.58-.53,15.09,15.09,0,0,0-3.8,1.29,12.46,12.46,0,0,0-1.66,1c-.26.17-.52.36-.77.56l-.43.33c.11.1.69-.2.91-.06a.68.68,0,0,1,.18.2c-.17-.22,0,.16,0-.11,0,.1,0,.19,0,.29s-.2.16,0,.08c-.14,0,0,0,.07,0,.44-.16-.26,0,.21-.08.23-.06.46-.12.69-.16a4.71,4.71,0,0,0,3.41-1.8,1.51,1.51,0,0,0-1.3-2.25,8.92,8.92,0,0,0-3.38.69,7.42,7.42,0,0,0-2.85,1.92l-.13.13,1.49,0a.7.7,0,0,1,.14.27c.08.3-.24.61-.28.82s-.25,0-.07,0c0,0,.31-.07.16,0s.27,0,.26,0l.75,0,4,.12a1.5,1.5,0,0,0,.39-2.94,9.1,9.1,0,0,0-8.13,2,1.52,1.52,0,0,0,1.06,2.56,14.39,14.39,0,0,1,5.37,1.13l.36-2.74a16.86,16.86,0,0,1-4.59.31v3a11.9,11.9,0,0,1,3,0h.07l.37.09c.11,0,.61.2.43.12a3.06,3.06,0,0,1,.63.37c-.2-.16.34.39.2.21l1.3-2.26a7.54,7.54,0,0,1-3.75-.48,7.4,7.4,0,0,1-3-2.28l-.89,2.2c.06,0,.43-.1.17-.07a1.62,1.62,0,0,1,.44,0c-.29,0,.11,0,.17.07l.05,0,.2.11a1.59,1.59,0,0,1,.39.35c-.12-.17.19.38.1.17s.1.49.06.13l2.25-1.29a6.44,6.44,0,0,1-2.92-3.12l-1.45,1.9a14,14,0,0,1,5.57,1.08l-.36-2.74c.14-.06,0,0-.09,0l-.3.09c-.07,0-.24,0-.08,0l-.31,0c-.09,0-.58,0-.4,0-.21,0-.41-.1-.62-.15-.05,0-.24-.08-.09,0l-.29-.14-.27-.16s-.2-.14-.08-.05c-.15-.12-.29-.36-.46-.45.31.16-.28,1.1-.53,1-.06,0,.16,0,.22,0l.41,0,.81,0a11.42,11.42,0,0,1,1.4.25,12.93,12.93,0,0,1,3,1.07V708.4c.14-.06-.34.1-.41.11s-.47.06-.24,0h-.49l-.32,0c.1,0,.1,0,0,0a2.79,2.79,0,0,1-1.53-.77l-.66,2.5a4.63,4.63,0,0,1,3.35.24l.76-2.79a10.53,10.53,0,0,1-3.92-1.32l-.36,2.74a7.44,7.44,0,0,1,4.31.65l.76-2.8a8.34,8.34,0,0,1-3.55-.26l-.4,2.95a10.36,10.36,0,0,1,3.88.3l.4-2.94a11,11,0,0,1-2.43-.18,10.19,10.19,0,0,1-1.11-.34,1.88,1.88,0,0,0-1.52.19,1.66,1.66,0,0,0,.09,2.82,1.54,1.54,0,1,0,.87-2.84,1.51,1.51,0,0,0-1.5,1.5v.06l.44-1.06,0,0,1.45-.39.85.83v.74l-.68.9-.15.08h-.8c-.07-.07-.07-.07,0,0a4,4,0,0,0,.43.19,2.72,2.72,0,0,0,.38.11,10.53,10.53,0,0,0,1.27.23,14.56,14.56,0,0,0,2.38.15,1.51,1.51,0,0,0,.4-2.95,12.75,12.75,0,0,0-4.68-.41,1.5,1.5,0,0,0-.4,2.94,10.51,10.51,0,0,0,4.35.37,1.56,1.56,0,0,0,1.45-1.1,1.52,1.52,0,0,0-.69-1.69,11,11,0,0,0-6.63-1c-1.32.2-1.4,2.14-.36,2.74a14.11,14.11,0,0,0,5.44,1.73c1.48.17,2-2.16.75-2.8a7.77,7.77,0,0,0-5.66-.54,1.52,1.52,0,0,0-.66,2.51,6,6,0,0,0,6.63,1.1,1.5,1.5,0,0,0,0-2.59,15.49,15.49,0,0,0-4.77-1.58c-1.69-.27-4.5-.71-4.91,1.61-.3,1.74,1.38,3.12,2.81,3.71a5.75,5.75,0,0,0,4.6-.12,1.47,1.47,0,0,0,.71-1.49,1.55,1.55,0,0,0-1.07-1.25,16.13,16.13,0,0,0-6.37-1.19,1.5,1.5,0,0,0-1.44,1.9,9.52,9.52,0,0,0,4.3,4.91c.9.48,2.4-.1,2.26-1.3a4.26,4.26,0,0,0-1.91-3.16,4.1,4.1,0,0,0-3.47-.51,1.51,1.51,0,0,0-.9,2.2,10.42,10.42,0,0,0,9.37,4.25,1.58,1.58,0,0,0,1.29-.74,1.48,1.48,0,0,0,0-1.52c-1.76-2.34-4.63-2.52-7.33-2.23a1.5,1.5,0,0,0,0,3,19.48,19.48,0,0,0,5.38-.42,1.51,1.51,0,0,0,.36-2.74,18.1,18.1,0,0,0-6.88-1.54l1.06,2.56a6,6,0,0,1,5.22-1.21l.4-2.95c-1.64-.05-3.34-.24-5-.13a3.26,3.26,0,0,0-2.2.87,2.19,2.19,0,0,0-.34,2.6,2.12,2.12,0,0,0,2.06,1.16c.8-.08,1.25-.74,1.77-1.15a5.86,5.86,0,0,1,3.6-1.25l-1.29-2.26c.11-.17-.2.11,0,0-.25.14,0,0-.23.12a7.39,7.39,0,0,1-1.06.23,6.09,6.09,0,0,0-2,.63,2.7,2.7,0,0,0-.68,4.32,2.2,2.2,0,0,0,2.54.46c.62-.32,1.16-.85,1.76-1.22a12.76,12.76,0,0,1,4.26-1.63l-1.69-2.2c.09-.13,0,0-.07.05l-.06,0a2.34,2.34,0,0,1-.27.15c.15-.07,0,0-.08,0-.21.05-.42.11-.63.14h-.08l-.32,0a9.32,9.32,0,0,0-3.32.53c-1.87.82-3.11,3.75-1.21,5.24a1.55,1.55,0,0,0,2.12,0,10.58,10.58,0,0,1,6.14-2.43l-.75-2.8a17.45,17.45,0,0,0-4.82,3.89,1.54,1.54,0,0,0,0,2.12,1.52,1.52,0,0,0,2.12,0l3.72-3.62c1.39-1.35-.72-3.45-2.12-2.12a14.37,14.37,0,0,1-5.19,3.18,1.52,1.52,0,0,0-1.05,1.84,1.5,1.5,0,0,0,1.84,1.05Z" transform="translate(-159.36 -28.09)"/><path d="M1025.71,675.24l-.16,4.73,2.94-.4c-.76-2.69-1.5-5.55-.47-8.27h-2.89a13.81,13.81,0,0,1,.31,7.16l2.74-.36a3.36,3.36,0,0,1-.32-1.11,3.49,3.49,0,0,0,0-.65c0-.08,0-.05,0,0l-.66.39c-.35.13-.56-.3-.3.18.13.25.21.56.36.8s0,.09.07.1a1.5,1.5,0,0,1,.3-.1c.07,0,.8.37.66.55.1-.13,0-.81,0-1V676.1c0-.8,0-1.61,0-2.4,0,0,0-.26,0-.22.07-.18,0-.15-.19.11a.35.35,0,0,1-.5.17c-.45,0-.24-.07-.08.15a3,3,0,0,1,.39,1.46,8.77,8.77,0,0,1-.65,4.11h2.89a6,6,0,0,1-.33-3.66H1027a8.72,8.72,0,0,1,.53,4.14,3.63,3.63,0,0,1-.16.71c0,.1-.18.26-.19.34s-.19-.06.07,0c.06,0,.15-.06.22,0a.68.68,0,0,1,.14.75l-2.36.31a3.21,3.21,0,0,1,1.16,3c-.17,1.33,1.73,1.94,2.56,1.06a3.1,3.1,0,0,0,.78-3.08,1.5,1.5,0,0,0-2.94.4l-.13,2.16,2.79-.76a5.91,5.91,0,0,1-1.09-2.89,1.5,1.5,0,0,0-3,0,.75.75,0,0,1,.44-.62s.28.05.25.07,0-.41,0-.52a11.46,11.46,0,0,0,0-3.15l-2.5,1.46s.11-.33,0,.17h2.89a11.75,11.75,0,0,1-.17-4.46h-2.89a5.81,5.81,0,0,1,.18,2.31l3,.4.2-5.33h-3l.19,3.06a6.07,6.07,0,0,0,.49,2.74c.42.7,1.19,1,1.69,1.59a2.77,2.77,0,0,1,.63,1.71,1.52,1.52,0,0,0,1.1,1.45,1.5,1.5,0,0,0,1.69-.69,3.68,3.68,0,0,0-.2-3.63,1.55,1.55,0,0,0-2.06-.54,1.51,1.51,0,0,0-.53,2.05c.1.15.29.41.2.61l2.8.75a5.84,5.84,0,0,0-2.36-4.58c-.17-.12-.48-.53-.36-.15a6.27,6.27,0,0,1-.09-1.31l-.19-3.06a1.5,1.5,0,0,0-3,0l-.2,5.33c-.07,1.65,2.7,2.09,2.94.4a9.37,9.37,0,0,0-.18-3.91c-.36-1.34-2.65-1.52-2.89,0a15.65,15.65,0,0,0,.17,6.06c.34,1.52,2.46,1.34,2.89,0a3.11,3.11,0,0,0-.72-3.09,1.51,1.51,0,0,0-2.51,1.46c.24.86-.13,1.79-.07,2.68a3.37,3.37,0,0,0,1.36,2.69,2.53,2.53,0,0,0,3.95-2h-3a8.85,8.85,0,0,0,1.5,4.4,1.52,1.52,0,0,0,2.8-.75l.13-2.16-3,.4c0,.19,0,.12,0,.16l2.56,1.06a6,6,0,0,0-2-5.17,1.53,1.53,0,0,0-2.36.3,2.42,2.42,0,0,0,1,3.36,2.72,2.72,0,0,0,3.45-.62,5.63,5.63,0,0,0,1.14-3.6,11.59,11.59,0,0,0-.67-4.37c-.47-1.3-2.54-1.55-2.9,0a8.92,8.92,0,0,0,.34,5.26,1.51,1.51,0,0,0,2.89,0,10.91,10.91,0,0,0,.79-4,7.72,7.72,0,0,0-.73-3.73,2.9,2.9,0,0,0-3-1.67c-1.38.33-1.85,1.64-1.88,2.91s-.11,2.82,0,4.22.83,2.67,2.35,2.65a2.77,2.77,0,0,0,2.58-2.15,4.83,4.83,0,0,0-1.26-3.92,2.23,2.23,0,0,0-3.78.33c-.7,1.44-.23,3.33.43,4.69a1.52,1.52,0,0,0,2.74-.36,16.91,16.91,0,0,0-.31-8.76,1.51,1.51,0,0,0-2.89,0c-1.21,3.21-.42,6.69.47,9.87a1.51,1.51,0,0,0,3-.4l.16-4.73c.07-1.93-2.93-1.93-3,0Z" transform="translate(-159.36 -28.09)"/><path d="M929.5,691.35l-1.3,4.32,2.94.4a8.26,8.26,0,0,1,.72-4.75,1.5,1.5,0,0,0-2.59-1.52l-1.82,2.58,2.74.36a9.16,9.16,0,0,1,.22-5.21c.61-1.87-2.19-2.53-2.89-.79l-1.22,3h2.89a1.65,1.65,0,0,1,.15-1.86L927,686l-1.23,1.8,2.79.76a10.26,10.26,0,0,1,.17-3.54,1.53,1.53,0,0,0-2.21-1.7l-.91.57,2.2.9a9.12,9.12,0,0,1-.38-1.54l-1,1.85,2.54-1-1.84-1a8.48,8.48,0,0,1,.54,5.21h2.9a2.56,2.56,0,0,1,.42-2.47l-2.56-1.06a41.54,41.54,0,0,1,.16,6.11h3a7.3,7.3,0,0,1,.69-3.68l-2.74-.35a9.37,9.37,0,0,1,0,3.91l2.94.39a7.35,7.35,0,0,1,1.44-3.34l-2.74-.36a6,6,0,0,1-.38,4l2.79.76a11.43,11.43,0,0,1,2-5.61l-2.8-.75a19.25,19.25,0,0,1-1.65,7.91l2.8.76a9.57,9.57,0,0,1,2.51-7l-2.56-1.06a19.19,19.19,0,0,1-1.66,9.74l2.8.75a8.58,8.58,0,0,1,1.62-5l-2.79-.75a25.4,25.4,0,0,1-.44,7.78l2.95.4a13.12,13.12,0,0,1,2.05-6.12l-2.75-.36a9.55,9.55,0,0,1,0,4.72,1.5,1.5,0,0,0,2.89.8l1.09-3.87-2.94-.4A46.38,46.38,0,0,1,935.17,707l3,.39a6.5,6.5,0,0,1,.36-2.22c.06-.16.49-.78.45-.94-.87-.6-1.26-.64-1.16-.1,0,.22,0,.44,0,.66a30.49,30.49,0,0,1-.23,5.23h3a27.1,27.1,0,0,1,.71-6.09H938.4a3,3,0,0,1-.12,2.13l2.8.76a13.22,13.22,0,0,1,2.82-7.47l-2.8-.75a7.58,7.58,0,0,1-.91,4.52l2.8.75a53.4,53.4,0,0,1-.06-9.63c.15-1.82-2.37-1.84-2.95-.4l-1.61,4.05,2.94.39a26.63,26.63,0,0,1,.22-8l-2.95-.4a18,18,0,0,1-1,6h2.89a4.42,4.42,0,0,1,.07-3l-2.94-.4a25.78,25.78,0,0,1-1.63,9.44h2.9a4,4,0,0,1,.4-3.75l-2.74-.36c.17.79.8.92,1.88.4,0-.32,0-.64,0-1,0-.63-.05-1.26-.07-1.89,0-1.27-.07-2.53-.07-3.79a1.52,1.52,0,0,0-2.56-1.06,6.83,6.83,0,0,0-2.19,3.6l2.95.4a5.82,5.82,0,0,1,1.9-4.11l-2.5-1.46a5,5,0,0,1-1,2l2.51.66a2.7,2.7,0,0,1,.44-2.66l-2.51-1.46a3.86,3.86,0,0,1-1.63,2.35l2.26,1.3a7.06,7.06,0,0,1,1.66-5l-2.35-1.81L934,687h2.59a1.79,1.79,0,0,1,0-1.5,1.51,1.51,0,0,0-2.51-1.46,7.07,7.07,0,0,0-1.57,2.65h2.89a1.9,1.9,0,0,1,.07-1.35c.52-1.46-1.5-2.45-2.51-1.46l-.14.14,1.06-.44,1,1.16a1.52,1.52,0,0,0-2.06-2l-.83.5a1.53,1.53,0,0,0-.69,1.7q3.51,8.46,6.8,17l2.9-.8-1.15-2.87c-.71-1.77-3.61-1-2.89.8l1.14,2.87c.71,1.76,3.6,1,2.9-.8q-3.3-8.55-6.81-17l-.69,1.69.84-.5-2.05-2a2.19,2.19,0,0,0,.25,2.93A1.85,1.85,0,0,0,935,686l-2.51-1.46a4.59,4.59,0,0,0-.06,2.93,1.51,1.51,0,0,0,2.89,0,3.66,3.66,0,0,1,.8-1.32l-2.51-1.46a4.87,4.87,0,0,0,.35,3.81,1.5,1.5,0,0,0,2.59,0l1.17-2.67c.62-1.42-1.15-3.23-2.36-1.82a10.17,10.17,0,0,0-2.54,7.12,1.51,1.51,0,0,0,2.26,1.29,7.14,7.14,0,0,0,3-4.14c.36-1.36-1.51-2.65-2.51-1.46a5.8,5.8,0,0,0-1.22,5.58,1.52,1.52,0,0,0,2.51.66,8.23,8.23,0,0,0,1.81-3.35,1.52,1.52,0,0,0-2.51-1.46,9,9,0,0,0-2.78,6.24,1.5,1.5,0,0,0,2.94.4,4.14,4.14,0,0,1,1.42-2.28l-2.56-1.06q0,2.25.09,4.5c.05,1.1-.13,2.68.51,3.65a2.07,2.07,0,0,0,2.8.63,2.63,2.63,0,0,0,.8-3.35,1.52,1.52,0,0,0-2.74-.36,6.8,6.8,0,0,0-.71,6.07,1.52,1.52,0,0,0,2.9,0,28.13,28.13,0,0,0,1.73-10.24,1.51,1.51,0,0,0-3-.39,7.14,7.14,0,0,0-.07,4.59,1.51,1.51,0,0,0,2.89,0,20.46,20.46,0,0,0,1.12-6.85c0-1.63-2.62-2.1-2.94-.39a28.94,28.94,0,0,0-.33,8.81,1.51,1.51,0,0,0,3,.4l1.61-4-2.94-.4a53.41,53.41,0,0,0,.06,9.63c.13,1.39,2,2.17,2.79.76a10.26,10.26,0,0,0,1.32-6,1.51,1.51,0,0,0-2.79-.76,15.87,15.87,0,0,0-3.23,9c-.07,1.43,2.17,2.11,2.79.75a6.18,6.18,0,0,0,.42-4.43,1.51,1.51,0,0,0-2.89,0,30.1,30.1,0,0,0-.82,6.88c0,2,2.76,1.86,3,0a30.49,30.49,0,0,0,.23-5.23c-.06-1.24-.17-2.79-1.44-3.41-3.07-1.5-4.24,4.06-4.25,6a1.51,1.51,0,0,0,3,.4,49.33,49.33,0,0,0,1.52-13.58,1.51,1.51,0,0,0-3-.4l-1.09,3.87,2.89.8a12.88,12.88,0,0,0,0-6.32,1.52,1.52,0,0,0-2.74-.36,16.49,16.49,0,0,0-2.46,7.64c-.12,1.68,2.59,2.05,3,.4a28.12,28.12,0,0,0,.54-8.58,1.52,1.52,0,0,0-2.8-.76,11.49,11.49,0,0,0-2,6.49c0,1.41,2.15,2.15,2.79.76a22.05,22.05,0,0,0,2.07-11.25,1.52,1.52,0,0,0-2.56-1.06,12.62,12.62,0,0,0-3.39,9.11c0,1.36,2.14,2.2,2.79.76a22.75,22.75,0,0,0,2.06-9.43,1.51,1.51,0,0,0-2.79-.76,14.5,14.5,0,0,0-2.36,7.12,1.51,1.51,0,0,0,2.8.76,9.32,9.32,0,0,0,.68-6.34,1.52,1.52,0,0,0-2.74-.36,10.34,10.34,0,0,0-1.85,4.86c-.22,1.68,2.61,2,2.95.4a12.91,12.91,0,0,0,0-5.5,1.51,1.51,0,0,0-2.74-.36,10.37,10.37,0,0,0-1.1,5.19,1.5,1.5,0,0,0,3,0,41.54,41.54,0,0,0-.16-6.11c-.11-1.15-1.64-2.16-2.56-1.06a5.66,5.66,0,0,0-1.2,5.39c.41,1.35,2.57,1.5,2.9,0a11.26,11.26,0,0,0-.55-6.81c-.28-.68-1-1.38-1.84-1l-2.55,1a1.57,1.57,0,0,0-1.05,1.85,8,8,0,0,0,.38,1.53,1.51,1.51,0,0,0,2.2.9L928,686l-2.21-1.69a12.68,12.68,0,0,0-.27,4.34,1.52,1.52,0,0,0,2.8.75l1.23-1.8c1-1.39-1.23-3.1-2.35-1.81a4.53,4.53,0,0,0-.92,4.78,1.51,1.51,0,0,0,2.89,0l1.22-3-2.89-.79a12.07,12.07,0,0,0-.22,6.79,1.52,1.52,0,0,0,2.74.36l1.82-2.57-2.59-1.52a11.16,11.16,0,0,0-1.13,6.27,1.51,1.51,0,0,0,3,.4l1.3-4.32c.55-1.86-2.34-2.65-2.89-.8Z" transform="translate(-159.36 -28.09)"/></g></g><g id="Nez"><g id="V2"><path d="M944.46,391.75q10.63,29.7,23,58.73t26.59,57.31c4.57,9.1,9.79,18,13.34,27.61,3.23,8.7,5.07,18.6,1.08,27.39-6.43,14.17-23.39,19.31-37.41,22.14a392.75,392.75,0,0,1-63.78,7.25q-4.05.14-8.09.21c-1.93,0-1.94,3,0,3a419.29,419.29,0,0,0,66-6.33c15.1-2.67,32.76-6.44,42.59-19.38,12.61-16.6,2.22-37.26-6-53.21q-14.75-28.61-27.7-58.1t-24.06-59.8c-.93-2.53-1.85-5.08-2.76-7.62-.64-1.8-3.54-1-2.89.8Z" transform="translate(-159.36 -28.09)"/></g></g><g id="Téléphone"><path class="cls-12" d="M548.89,534.08l5.17,31.16c.92,5.54,1.85,11.09,3.14,16.56,1.06,4.5,2.38,9,2.85,13.56s.06,9.29.59,13.9c.77,6.66,3.48,13.44,1.59,19.87-1.15,3.92-3.89,7.16-5.74,10.81-3.72,7.3-4.2,16.69-10.54,21.88a2.67,2.67,0,0,1-1.42.73c-1.35.15-2.22-1.36-2.71-2.63L529,626.65l-18.17-47a23.34,23.34,0,0,1-2-7.94c-.1-7.39,6.48-12.91,12.45-17.26l25.9-18.89Z" transform="translate(-159.36 -28.09)"/><path d="M547.44,534.47l5,29.95c.81,4.92,1.61,9.85,2.65,14.72s2.46,9.44,3.22,14.25.31,10,.75,14.92c.42,4.69,1.88,9.22,2.26,13.91a17.71,17.71,0,0,1-.64,6.91,26.27,26.27,0,0,1-2.89,5.66,50.87,50.87,0,0,0-5.17,10.87c-1.18,3.55-2.14,7.23-4,10.51a15.81,15.81,0,0,1-3.19,4.12c-.69.63-1.09,1.05-1.67.19a14.39,14.39,0,0,1-1.31-3q-5.49-14.21-11-28.42l-11.06-28.57-5.49-14.18c-.92-2.4-1.85-4.79-2.78-7.19a22.64,22.64,0,0,1-1.88-6.87c-.43-8,7.59-13.44,13.28-17.59l12.35-9c4.07-3,8.33-5.79,12.26-9,.61-.49,1.2-1,1.8-1.52,1.48-1.25-.65-3.36-2.12-2.13C545,535.4,542,537.5,539,539.68l-13,9.45c-6.56,4.78-14.94,9.65-17.91,17.67-1.65,4.45-.49,8.82,1.15,13.08q2.91,7.54,5.84,15.09l11.6,30,11.54,29.81a63.27,63.27,0,0,0,2.7,6.8c.9,1.7,2.59,3,4.57,2.26,1.76-.64,3.21-2.48,4.3-3.93a23.42,23.42,0,0,0,2.73-4.95c1.56-3.67,2.53-7.55,4-11.28,1.55-4.09,4.33-7.47,6.15-11.43,2.08-4.52,2-9.22,1.13-14-.43-2.51-1-5-1.42-7.52a54.28,54.28,0,0,1-.52-7.64,69.3,69.3,0,0,0-1.58-15.13c-1.18-5.07-2.46-10.1-3.39-15.23-1.88-10.38-3.49-20.81-5.22-31.21l-1.29-7.79C550,531.78,547.13,532.58,547.44,534.47Z" transform="translate(-159.36 -28.09)"/><path class="cls-13" d="M769.64,950.27a223.47,223.47,0,0,0-28.39-55c-7.91-11.19-16.84-21.64-24.7-32.87-6-8.6-11.41-17.63-16.79-26.65l0,.65c-4-5.43-8.28-11-14.23-14.19-5.75-3.11-12.5-3.72-19-3.95a202.05,202.05,0,0,0-51.2,4.72q-57.9-120.69-106-245.73c-1.13-2.92-2.26-6.14-1.3-9.12.76-2.34,2.67-4.08,4.52-5.69a378.86,378.86,0,0,1,35.88-27.63,385.28,385.28,0,0,1-23.54-79c-.63-3.46-1.29-7.08-3.47-9.84-2.54-3.2-6.64-4.64-10.52-5.93-22.08-7.32-46.54-14.59-68-5.53-3.75,1.58-7.46,3.79-9.55,7.29-2.67,4.48-2.19,10.09-1.56,15.27,13,107.27,51.6,209.53,89.88,310.58,8.9,23.51,17.83,47.06,28.64,69.78,11.07,23.29,24.6,44.66,39,66,4.88,7.22,9.76,14.45,14.91,21.48a304.1,304.1,0,0,0,27.13,32.28c5.32,5.46,10.86,10.71,15.91,16.42,2.9,3.29,5.64,6.72,8.33,10.18q10.92,14,21,28.64l-1.09-.44a126.12,126.12,0,0,0,33.32-14.42,250.31,250.31,0,0,0,22.35-16.13l4-3.14L768.79,952" transform="translate(-159.36 -28.09)"/><path d="M771.08,949.87a227.28,227.28,0,0,0-30.42-58c-6.79-9.33-14.18-18.22-20.94-27.58S707,844.91,701.06,835a1.51,1.51,0,0,0-2.8.75l0,.65,2.8-.75c-4-5.35-8.14-10.84-14-14.28-6.37-3.75-13.93-4.39-21.16-4.63a206,206,0,0,0-51,4.79l1.69.69Q589,764.62,563.53,706,538,647.14,514.7,587.27l-3.24-8.36c-1-2.63-2.36-5.41-2.4-8.28,0-3.36,2.53-5.5,4.84-7.52s4.37-3.74,6.59-5.58q13.77-11.4,28.58-21.46a1.53,1.53,0,0,0,.69-1.69,392.84,392.84,0,0,1-23.54-79c-1-5.43-2.48-10.46-7.4-13.57s-11.08-4.42-16.52-6.11c-12.25-3.81-25-7.06-37.92-6.94a59.75,59.75,0,0,0-18.15,2.84c-4.86,1.6-10.06,3.83-13.27,8-3.46,4.47-3.52,10.23-3,15.61.67,6.54,1.64,13.08,2.59,19.59a819.57,819.57,0,0,0,16.31,80.8c13.54,53.69,31.62,106.11,50.8,158,9.66,26.15,19.43,52.28,29.56,78.26,10,25.59,20.82,50.79,34.68,74.54,6.7,11.49,13.9,22.68,21.3,33.73,7.52,11.23,15.08,22.44,23.37,33.12A331,331,0,0,0,636,964a286.13,286.13,0,0,1,27,32q6.28,8.46,12.28,17.15l1.69-2.21-1.09-.44v2.9c17.71-4.87,33.45-13.52,48-24.55,15.49-11.7,30.67-23.83,46-35.76,1.52-1.18-.62-3.29-2.12-2.12-15.11,11.77-30.1,23.74-45.38,35.29-14.4,10.88-29.85,19.44-47.33,24.24a1.52,1.52,0,0,0,0,2.9l1.09.43c1.2.49,2.41-1.17,1.7-2.2-7.64-11-15.58-21.89-24-32.38s-18.13-19.28-27.1-29.07c-18-19.69-33-42-47.42-64.46a462,462,0,0,1-36.91-69.29c-10.64-24.95-19.92-50.48-29.47-75.85C494,690.28,475.6,639.73,460.76,588.05c-7.34-25.55-13.79-51.37-18.95-77.45q-3.93-19.83-6.8-39.84c-.91-6.36-2.12-12.86-2.29-19.29-.18-6.9,2.67-11.69,8.85-14.77,11.54-5.75,25.2-5.76,37.64-3.67a157.37,157.37,0,0,1,18.29,4.36c6,1.77,12.67,3.31,18.29,6.17,6.33,3.22,6.93,9.54,8.14,15.83s2.64,12.77,4.2,19.1A381,381,0,0,0,539.77,517q3.32,9.21,7.1,18.22l.68-1.69q-13.08,8.91-25.43,18.86c-4,3.22-8,6.45-11.78,9.93-3.22,3-4.85,6.37-4,10.81,1,5.11,3.59,10.15,5.47,15q3,7.83,6.13,15.64,6.06,15.38,12.28,30.68,24.82,61.14,52,121.29,15.48,34.19,31.7,68a1.52,1.52,0,0,0,1.7.69,202.43,202.43,0,0,1,46.88-4.76c7.12.11,14.8.2,21.34,3.4,6.21,3,10.54,8.67,14.56,14.1a1.51,1.51,0,0,0,2.79-.76l0-.65-2.79.76c5.93,9.95,11.88,19.9,18.66,29.3,6.55,9.07,13.69,17.68,20.3,26.7a225.24,225.24,0,0,1,30.76,58.19c.64,1.81,3.54,1,2.89-.8Z" transform="translate(-159.36 -28.09)"/><path class="cls-12" d="M789.86,1006.45c-4.1,13.56-11.64,25.81-19.72,37.44-6,8.6-12.36,17.06-20.45,23.71s-18.1,11.4-28.57,11.55c-4.83.07-9.85-.92-13.68-3.87-4.08-3.14-6.31-8-8.38-12.76l-22.32-50.68c24-3.47,43.54-20.36,61.6-36.53l29.56-26.47,19.83,58.08Z" transform="translate(-159.36 -28.09)"/><path d="M788.41,1006.05c-3.58,11.76-9.74,22.48-16.54,32.65-6.63,9.9-13.67,19.88-22.9,27.56-8.58,7.13-19.8,12.35-31.18,11.26a19.37,19.37,0,0,1-8.06-2.49,17.23,17.23,0,0,1-5.63-5.79c-3.18-5.08-5.26-10.92-7.67-16.38L678,1011.09l-.9,2.2c13.66-2,26.14-8.42,37.3-16.34,11.91-8.44,22.6-18.47,33.46-28.19L769,949.9l-2.51-.66,19.84,58.07a1.53,1.53,0,0,0,1.84,1.05l2.13-.46c1.88-.41,1.08-3.31-.8-2.89l-2.12.46,1.84,1-19.84-58.08a1.52,1.52,0,0,0-2.51-.66c-11.9,10.66-23.72,21.42-35.73,32-10.24,9-21,17.67-33.22,23.76a72.07,72.07,0,0,1-21.54,6.91c-1.06.15-1.23,1.43-.89,2.2l17.09,38.81,4.22,9.58c1.22,2.77,2.38,5.58,3.85,8.22,2.83,5.12,7,9,12.69,10.53,11.46,3.1,24.1-1.49,33.46-8,10.18-7.12,17.8-17.12,24.8-27.22,8.09-11.67,15.58-24,19.74-37.62C791.87,1005,789,1004.21,788.41,1006.05Z" transform="translate(-159.36 -28.09)"/></g><g id="Main_Gauche" data-name="Main Gauche"><path class="cls-3" d="M671.64,1081.33c30.54-53.06,61.51-107.19,74.53-167,2.15-9.88,3.79-20.22,1.39-30s-9.76-19.07-19.72-20.82c-15-2.62-27.18,11.41-35.26,24.26-19.36,30.76-35.06,63.91-57.17,92.75-18.25,23.8-41,45-52.13,72.85,1.72-8.47,6.31-16,10.79-23.44Q651,936,704,839.84c8.32-15.09,16.74-30.79,18.19-48s-5.94-36.33-21.7-43.31c-6.8-3-14.41-3.51-21.83-3.78-3-.11-6.25-.15-8.9,1.33s-4.27,4.15-5.8,6.72l-30.89,51.88c-7.85,13.18-15.73,26.41-25.43,38.29-6.43,7.87-13.66,15.13-19.3,23.59-7.71,11.55-12.31,25.09-21,35.93-10.16,12.67-25.4,21-33.77,34.9-9.07,15.1-8.64,34.55-18.11,49.4a316.37,316.37,0,0,1,46.46-97.09c14.83-20.88,32.19-39.93,46-61.5,16.23-25.36,28-54.71,51.51-73.54,9.76-7.82,22.79-17.22,19.54-29.29-1.05-3.87-3.71-7-6.36-10.06-4.88-5.54-10.62-11.29-18-12-8.13-.8-15.34,4.73-21.89,9.6-26.39,19.65-56.92,33.29-82.74,53.68-17.34,13.69-32.23,30.16-47,46.56-14.34,15.88-28.78,31.88-39.89,50.17s-18.84,39.2-18.43,60.6c15.5-72.25,66.63-132.15,124.73-177.82,10.88-8.55,22.65-17.51,27.14-30.6s-2.88-31-16.71-31.59c-7.72-.31-14.53,4.68-20.56,9.51a762.85,762.85,0,0,0-67,60.49c-12.25,12.47-24.08,25.35-35.22,38.83q-9.51,11.52-18.33,23.58c-7.11,9.73-14,19.92-17.53,31.43-2.94,9.53-3.51,19.6-4.06,29.56q-3.35,60.92-6.71,121.83c-1.57,28.6-2.86,58.68,9.84,84.35" transform="translate(-159.36 -28.09)"/><path d="M672.94,1082.08c17-29.63,34.12-59.34,48.28-90.5a432.85,432.85,0,0,0,18.4-47.17c2.6-8.16,4.91-16.4,6.87-24.74s3.88-17,3.75-25.68c-.2-13.42-7.15-29.14-21.72-31.92-14.11-2.69-25.53,8.43-33.16,18.86-4.71,6.45-8.71,13.45-12.76,20.32-4.31,7.32-8.5,14.7-12.71,22.08-8.52,14.93-17.11,29.85-26.84,44-9.09,13.26-19.54,25.39-29.86,37.7-9.87,11.78-19.56,23.93-26.67,37.63-1.73,3.33-3.28,6.74-4.68,10.22l2.89.8c2.38-11.18,9.29-20.84,15.1-30.47q9.54-15.76,18.95-31.6,18.65-31.35,36.86-62.93t36-63.43c5.81-10.42,11.68-20.82,17.31-31.33,5.2-9.7,10.09-19.73,12.8-30.45,4.3-16.94,2.22-36.89-10.86-49.66-7.2-7-16.61-9.55-26.42-10.27-4.75-.34-10.41-1.18-14.85.95s-6.6,7-9,11c-12.53,21-24.74,42.31-37.69,63.08a222.37,222.37,0,0,1-20.11,27.81c-7.28,8.45-14.57,16.67-20,26.46-5.09,9.14-9.2,18.9-15.5,27.31-6,8-14,14.12-21.38,20.8s-13.46,13.82-17.23,22.95-5.41,19.08-8.42,28.52a59.7,59.7,0,0,1-6.1,13.65l2.74,1.15a316,316,0,0,1,25.47-63.1c10.88-20.31,24.24-38.8,38.49-56.86,7.25-9.18,14.54-18.34,21.31-27.88,6.13-8.64,11.62-17.67,16.87-26.86,10.08-17.65,19.74-36.06,34.36-50.47,10.59-10.42,36.33-23.95,24.63-42.2a57.41,57.41,0,0,0-10-11.41c-3.51-3.14-7.62-5.79-12.36-6.49-10.54-1.56-19.22,6.55-27.12,12.21-18.64,13.34-39,24-58.27,36.34a251.62,251.62,0,0,0-27,19.7,317.74,317.74,0,0,0-25.41,24.51c-8.06,8.55-15.92,17.3-23.74,26.07-7.53,8.45-14.91,17.05-21.69,26.12-13.49,18.09-24.67,38.67-28.15,61.23a95,95,0,0,0-1.11,15.8c0,1.64,2.58,2.1,2.94.4a240.68,240.68,0,0,1,25.14-65.87,320.74,320.74,0,0,1,41.63-57.78A445.08,445.08,0,0,1,565,751.54c15.49-12.5,38.89-27.67,33.6-50.95-1.86-8.23-7.64-16.47-16.46-17.92-12.31-2-22.86,8.76-31.51,15.87a764.21,764.21,0,0,0-62,57.05c-19.64,20.18-38.23,41.55-54.44,64.61-7.7,10.95-14.08,22.57-16.44,35.88a173.69,173.69,0,0,0-2,20.5l-1.2,21.85-4.91,89.19c-1.44,26.23-4,53.43,2.85,79.14a96.59,96.59,0,0,0,6.55,17.51c.85,1.74,3.44.22,2.59-1.51-11.39-23.27-11.28-49.89-10.07-75.19,1.38-28.56,3.13-57.1,4.7-85.65l2.39-43.4c.75-13.72,1.75-27.26,7.83-39.83,5.81-12,14.23-22.74,22.37-33.21q12.75-16.41,26.79-31.73a735.08,735.08,0,0,1,58.79-57.5q7.77-6.82,15.74-13.43c5.06-4.2,10.09-8.62,15.54-12.33,4.79-3.26,10.61-6.08,16.56-4.76a16.35,16.35,0,0,1,9.88,7.16c5.41,8.11,5.39,18.43.95,26.93-5.25,10-14.53,17.23-23.26,24.09a473.39,473.39,0,0,0-51.89,46.88,342.55,342.55,0,0,0-42.38,54.47,254.82,254.82,0,0,0-28.17,62q-2.37,8-4.14,16.24l3,.4C445.47,877.36,479.74,841,509,808.76c15.35-16.91,31.16-33.5,49.79-46.86,18-12.95,37.7-23.34,56.44-35.2,4.63-2.93,9.2-6,13.68-9.11,4.3-3.05,8.4-6.44,12.94-9.15s9.59-4.56,14.81-3.24c4.76,1.21,8.63,4.54,12,8,3.53,3.64,7.72,7.83,9,12.89,1.07,4.25-.28,8.38-2.64,11.94-5,7.62-13.24,12.52-20,18.48-14.73,13-24.77,30.33-34.38,47.25-4.9,8.62-9.75,17.28-15.18,25.59-6.39,9.79-13.5,19.08-20.71,28.27-13.7,17.44-27.4,34.76-38.68,53.91a319,319,0,0,0-27.19,59.39q-2.61,7.7-4.81,15.52a1.51,1.51,0,0,0,2.74,1.16c10.49-16.74,9.05-38.38,21.4-54.2,5.92-7.57,13.64-13.46,20.7-19.89A87.27,87.27,0,0,0,577,890.43c5-9.21,9.3-18.79,15.64-27.21,6.66-8.85,14.52-16.7,21.13-25.6a337.47,337.47,0,0,0,18.38-28.31q9.18-15.39,18.33-30.79l9.14-15.36,4.47-7.51c1.35-2.26,2.6-4.75,4.46-6.65,3.82-3.91,10.27-2.79,15.21-2.47,5.53.37,11.18,1.15,16.28,3.45,16.11,7.26,22.35,26.86,20.58,43.32-1.18,10.92-5.27,21.32-10.09,31.11-5.09,10.35-10.9,20.37-16.5,30.46Q676.65,886.06,658.91,917T623,978.67q-9,15.18-18.07,30.31c-5.95,9.91-12.44,19.64-17.79,29.89a55.76,55.76,0,0,0-5.3,14.05,1.5,1.5,0,0,0,2.89.8c11.35-28.22,34.3-49.3,52.41-73.07,20-26.26,34.76-55.95,51.78-84.13,3.88-6.42,7.74-12.91,12.63-18.63,4.36-5.09,9.66-10,16.14-12.15,14.08-4.69,25.88,7,28.67,20,1.85,8.69.54,17.71-1.24,26.29-1.68,8.06-3.74,16-6.06,23.94a397.75,397.75,0,0,1-17,46.44c-13.12,30.15-29.17,58.91-45.51,87.41l-6.15,10.71a1.5,1.5,0,0,0,2.59,1.51Z" transform="translate(-159.36 -28.09)"/><path class="cls-3" d="M567.13,743.75c9.46-.32,16.68-8.31,22.16-16,3.35-4.72,6.59-9.82,7.2-15.58.75-7.06-2.58-13.85-5.82-20.17a13.79,13.79,0,0,0-3.5-4.89,10.44,10.44,0,0,0-5.55-1.83c-11.17-.89-21,6.86-29.46,14.16l-11.82,10.16c-4.17,3.58-8.68,7.87-8.71,13.36l-.13-.25a29,29,0,0,0,2.37,14.86,10.33,10.33,0,0,0,2.72,3.93,11.28,11.28,0,0,0,3.82,1.8,54.33,54.33,0,0,0,27.38,1.22" transform="translate(-159.36 -28.09)"/><path d="M567.13,745.25c9.46-.42,16.5-7.48,21.87-14.6,3-4,5.92-8.19,7.67-12.89a23.56,23.56,0,0,0,.2-15.29,54,54,0,0,0-3.06-7.57,44.19,44.19,0,0,0-3.69-6.84c-3-4.11-8.17-4.75-12.92-4.21-9.85,1.13-18,7.62-25.32,13.84-4.75,4.06-9.57,8-14.21,12.24-3.8,3.44-7.41,7.62-7.54,13l2.79-.76-.12-.25c-.74-1.44-2.66-.59-2.8.76a30.41,30.41,0,0,0,1.74,13.6,17.17,17.17,0,0,0,2.93,5.42,11.61,11.61,0,0,0,5.56,3.08,56.26,56.26,0,0,0,28,1.16c1.89-.4,1.09-3.3-.8-2.9a53,53,0,0,1-25-.76c-1.84-.51-3.92-1-5.3-2.41a13.48,13.48,0,0,1-2.65-5A28.4,28.4,0,0,1,533,722.69l-2.79.76.12.24a1.51,1.51,0,0,0,2.8-.75c.11-4.26,3.12-7.61,6.08-10.36,3.63-3.36,7.49-6.49,11.24-9.72,6.77-5.81,13.79-12.36,22.49-15.06,3.78-1.18,9-2,12.65,0,1.93,1.1,2.92,3.2,3.89,5.1,1.16,2.26,2.31,4.54,3.27,6.9,1.8,4.43,3,9.27,2,14-1,4.57-3.56,8.6-6.21,12.38-5,7.18-11.85,15.57-21.36,16-1.92.08-1.93,3.08,0,3Z" transform="translate(-159.36 -28.09)"/><path class="cls-3" d="M609.31,734.65c5.19-9.8,14.91-16.24,24.24-22.25,4.72-3,9.55-6.14,15-7.56s11.7-.9,16,2.71a42.67,42.67,0,0,1,4,4.21c4.67,5.14,11.3,9.78,11.53,16.72.14,3.94-2,7.7-5,10.32a33,33,0,0,1-10.31,5.68,117.92,117.92,0,0,1-20.2,5.77l-.15.6c-7.06-.53-14.31.27-21.1-1.73S610.13,741,611,734" transform="translate(-159.36 -28.09)"/><path d="M610.6,735.41c4-7.51,10.71-13,17.63-17.71,3.71-2.54,7.49-5,11.37-7.31s8-4.27,12.55-4.69c4-.37,8.19.33,11.33,2.91a55.58,55.58,0,0,1,4.7,5c1.31,1.39,2.7,2.71,4.05,4.07,2.56,2.58,5.26,5.45,6.09,9.11.93,4.18-1.26,8.23-4.31,11-3.78,3.37-8.89,5.12-13.6,6.74a120.07,120.07,0,0,1-16.25,4.32,1.45,1.45,0,0,0-1,1.05l-.15.6,1.45-1.1c-7.34-.52-15.24.55-22.24-2.21-5.32-2.09-10.32-7-9.69-13.13.19-1.92-2.81-1.91-3,0-.71,6.88,4.61,12.76,10.52,15.45,7.62,3.46,16.3,2.31,24.41,2.89a1.53,1.53,0,0,0,1.45-1.1l.14-.6-1,1a118.42,118.42,0,0,0,15.82-4.17c4.6-1.56,9.44-3.24,13.41-6.11,3.76-2.72,6.78-6.64,7.29-11.37.44-4.17-1.46-7.94-4-11.1-2.77-3.42-6.18-6.27-9.07-9.58a19.81,19.81,0,0,0-5.27-4.6,17.68,17.68,0,0,0-6.12-2c-10-1.34-18.65,4.66-26.56,9.82-8.66,5.65-17.41,12-22.42,21.26-.91,1.71,1.68,3.22,2.59,1.52Z" transform="translate(-159.36 -28.09)"/><path class="cls-3" d="M646.68,792.69c-3.51-4.31-.66-10.68,2.24-15.42l11.69-19.11a29.31,29.31,0,0,1,5.42-7.11c4.66-4,11.27-4.71,17.43-5.06,4.29-.23,8.65-.4,12.86.52a25.45,25.45,0,0,1,7.18,47c-4.24,2.42-7.61,3.95-12,6.14l-.9.44a50.39,50.39,0,0,1-42.87-7.75" transform="translate(-159.36 -28.09)"/><path d="M648,791.93c-4-5.21,1.3-12.37,4-16.88l6.24-10.19c1.88-3.07,3.66-6.24,5.71-9.2a16.24,16.24,0,0,1,7.43-6.1,31.94,31.94,0,0,1,8.88-1.85c6.59-.57,13.78-1.11,20,1.66,10.43,4.66,16.62,16.29,13.81,27.49a24.79,24.79,0,0,1-9.2,13.93,58.76,58.76,0,0,1-8.46,4.72c-2.44,1.21-4.93,2.79-7.55,3.45a49.09,49.09,0,0,1-40.36-8c-1.56-1.13-3.06,1.47-1.51,2.59a52.14,52.14,0,0,0,39.12,9,26.59,26.59,0,0,0,5.08-1.18c1.1-.44,2.14-1.06,3.19-1.58,3.37-1.66,6.77-3.28,10-5.17a27.49,27.49,0,0,0,11.7-14.24,26.06,26.06,0,0,0,.11-18.11,28.31,28.31,0,0,0-11.47-14c-6.27-3.9-13.38-4.29-20.58-3.91-6.66.35-13.93,1-19.2,5.53-2.8,2.43-4.65,5.77-6.56,8.89l-6.63,10.83c-2,3.31-4.25,6.57-6,10.06-1.41,2.87-2.58,6.11-2.18,9.36a8.79,8.79,0,0,0,1.75,4.32,1.56,1.56,0,0,0,2.05.54,1.52,1.52,0,0,0,.54-2.06Z" transform="translate(-159.36 -28.09)"/><path class="cls-3" d="M684.06,914.27c-2.93-2.17-2.29-6.69-1.09-10.13a71.8,71.8,0,0,1,30.56-37.55,16,16,0,0,1,6.52-2.57,17.62,17.62,0,0,1,5.2.55c5.29,1.09,10.9,2.37,14.71,6.19,4.9,4.92,4.57,15.43.06,20.71l.05.17-11.2,21c-3.83,7.2-8.66,15.16-16.66,16.72-8.17,1.6-15.75-4.23-22-9.68a37.93,37.93,0,0,1-6.16-6.25" transform="translate(-159.36 -28.09)"/><path d="M685.12,913.21c-2.52-2-1.69-5.71-.81-8.36a63.69,63.69,0,0,1,4.33-9.91,71.45,71.45,0,0,1,12.91-17.2,69.54,69.54,0,0,1,8.34-7c3-2.11,6.63-5,10.4-5.24a21.49,21.49,0,0,1,6.11.83,50.18,50.18,0,0,1,5.42,1.42c3.16,1,6.52,2.73,8.32,5.65a15.16,15.16,0,0,1,1.75,9.71,16.11,16.11,0,0,1-1.35,4.76,13,13,0,0,1-1.17,2c-.5.69-1,1.21-.74,2.14l.15-1.15-8.64,16.21c-2.35,4.41-4.57,9-7.52,13-2.49,3.41-5.75,6.55-9.94,7.64-4.86,1.27-9.69-.62-13.77-3.2a61.27,61.27,0,0,1-7.06-5.36,41.39,41.39,0,0,1-6.55-6.48c-1.13-1.54-3.73-.05-2.59,1.51a40.46,40.46,0,0,0,6.4,6.55c2.11,1.82,4.25,3.6,6.53,5.2,4.45,3.13,9.79,5.69,15.37,5.11,10.86-1.14,16.24-12.18,20.79-20.71l5.37-10.08,2.56-4.82c.47-.88.95-1.75,1.4-2.63a2.09,2.09,0,0,0,.34-1.76l-.39,1.46c4.31-5.17,5.14-13.19,2.37-19.27-3.31-7.3-12.75-9.44-19.92-10.54a13,13,0,0,0-6.85.6,31.41,31.41,0,0,0-5.56,3,72.76,72.76,0,0,0-9.56,7.3,73.63,73.63,0,0,0-14.85,18.61,65.88,65.88,0,0,0-5.4,12.14c-1.12,3.58-1.59,8.35,1.69,11,1.5,1.19,3.64-.92,2.12-2.12Z" transform="translate(-159.36 -28.09)"/></g></svg>