<svg id="Desk" xmlns="http://www.w3.org/2000/svg" viewBox="0 0 1920 1080" preserveAspectRatio="xMinYMin meet"><defs><style>.cls-1{fill:#b2b2b2;}.cls-2,.cls-3{fill:#fff;}.cls-2{stroke:#000;stroke-miterlimit:10;}</style></defs><g id="Keyboard"><g id="Base"><path class="cls-1" d="M660.85,1005.59a93.81,93.81,0,0,1-14.45-.21c-1.73-.16-3.6-.48-4.28-1.88-.56-1.14-.17-2.7.22-4.14C655.58,950.44,668,906,683.18,865.7a3,3,0,0,1,.88-1.41,3.78,3.78,0,0,1,2.36-.55c33.86.11,68.2-.84,102.19-1.08l81-.58a124.79,124.79,0,0,1,14,.42l.15.27L962,862.4l79.39-.39a177.42,177.42,0,0,1,21.71.8l.43-.54h97.16c4.25,0,8.49,0,12.78.19,3.32.14,6.67.39,10,.64l11.22.85a4.33,4.33,0,0,1,1.79.41,3.68,3.68,0,0,1,1.43,1.78,42.19,42.19,0,0,1,4.08,14.81l-.15-.48,33.53,115.4c.84,2.89.32,3.61-1.18,5.63s-3.61,2.62-6.32,2.69l-51.47,1.28-.19-.7c-5.67.86-11.8.12-17.81-.38-12.35-1-24.53-1-36.69-.9l-94,.42"/><path d="M660.85,1004.09c-2.8.16-5.61.22-8.42.15-2.16-.06-7.71.43-8.81-1.62-1-1.89,1.15-6.48,1.69-8.49l2.43-8.92q4.59-16.82,9.35-33.59c5.95-20.9,12.21-41.72,19.22-62.28q2.54-7.43,5.2-14.81a51.41,51.41,0,0,1,2.41-6.56,5.71,5.71,0,0,1,2.5-2.73,9.62,9.62,0,0,1,2.34,0h4.67c12.13,0,24.26-.14,36.39-.31,24.1-.33,48.19-.71,72.29-.88l40.51-.29c13.55-.1,27.46-1.08,41,.23l-1.29-.74.15.27a1.47,1.47,0,0,0,1.29.74l130.45-.63c10.79,0,21.58-.17,32.38-.14,2.47,0,5,0,7.42.13,2.82.1,5.77.66,8.59.61a8,8,0,0,0,1.48-.25c.22,0,.35-.27.53-.31a11,11,0,0,1,1.36.09c2.76.1,5.53,0,8.29,0H1140c12.07,0,24.22-.37,36.28.33,5.72.33,11.68.42,17.34,1.27,1.89.28,2.7.74,3.49,2.5a41.09,41.09,0,0,1,1.73,4.56,40.59,40.59,0,0,1,1.7,8.52l3-.39-.15-.49c-.56-1.85-3.43-1.07-2.89.79l19,65.37,10.12,34.84,2.44,8.4c.71,2.44,2.81,6.61,2.21,9.13-1.37,5.77-10.77,4.2-15.06,4.31l-42.7,1.06,1.44,1.1-.18-.69a1.53,1.53,0,0,0-1.45-1.11c-5.94.8-11.87.11-17.81-.38-6.13-.5-12.27-.74-18.41-.85-12.35-.22-24.72,0-37.07,0l-75.18.34a1.5,1.5,0,0,0,0,3l75.18-.34c12.35-.06,24.72-.25,37.07,0,6.14.11,12.28.35,18.41.85,5.94.49,11.87,1.18,17.81.38l-1.45-1.1.19.7a1.52,1.52,0,0,0,1.45,1.1l41-1c3.31-.08,6.63-.13,9.94-.25a11.54,11.54,0,0,0,6.3-1.59c3.66-2.47,4-5.89,2.9-9.78-7.15-25-14.53-50-21.79-75l-11.41-39.27-2.89.79.14.49c.47,1.55,3.11,1.36,3-.4a44.65,44.65,0,0,0-3.34-13.44c-.65-1.56-1.27-3.36-2.76-4.33-1.65-1.06-4.19-.84-6.07-1-10.82-.82-21.56-1.43-32.42-1.43h-93.6a15.1,15.1,0,0,0-2.54.2c-.15,0-.29.35-.41.37a11.66,11.66,0,0,1-1.55-.28c-5.22-.78-10.74-.57-16-.56-5.68,0-11.36,0-17,.08l-68.11.33-76,.36,1.3.74c-.75-1.36-2.38-1.11-3.76-1.21-3.49-.25-7-.25-10.49-.23l-19.95.14-39.32.28q-39.68.28-79.34.92c-12.91.18-25.82.33-38.74.34-2.74,0-5.94-.5-8.63.15-2.06.49-2.72,2-3.42,3.84-2,5.31-3.93,10.68-5.81,16-7.77,22.24-14.6,44.81-21.07,67.47-3.93,13.75-7.72,27.54-11.47,41.33a98,98,0,0,0-2.54,9.62c-.34,2,0,4,1.9,5.16,2,1.24,5,1.13,7.28,1.25a99.27,99.27,0,0,0,11.18,0c1.92-.1,1.93-3.1,0-3Z"/></g><path class="cls-2" d="M970.66,971.69l-19.75-1.11a119.88,119.88,0,0,1-.52-15.37,4.25,4.25,0,0,1,.54-2.38,1.45,1.45,0,0,1,1-.45,61.1,61.1,0,0,1,16.43.21,2.46,2.46,0,0,1,2.19,1.48,6.43,6.43,0,0,1,.33,2c.27,5.15.33,10.38.16,15.63Z"/><path class="cls-3" d="M943.62,973.57l-19.76-1.11a120.43,120.43,0,0,1-.09-15.43,4.37,4.37,0,0,1,.6-2.39,1.44,1.44,0,0,1,1-.45,60.41,60.41,0,0,1,16.45.21,2.39,2.39,0,0,1,2.16,1.48,6.54,6.54,0,0,1,.27,2.06c.13,5.17,0,10.42-.27,15.7Z"/><path d="M943.62,972.07,923.86,971l1.5,1.5q-.37-5.38-.27-10.78c0-1.71,0-3.45.22-5.15,0-.21,0-.66.17-.82s.3-.06.53-.09c.94-.11,1.87-.19,2.81-.25a60,60,0,0,1,10.64.22c.87.09,2.9-.05,3.21,1a8.14,8.14,0,0,1,.14,2.15c0,.93,0,1.86,0,2.79,0,4-.1,8.08-.33,12.11l1.9-1.45-.4-.06c-1.89-.31-2.71,2.58-.8,2.89l.4.06a1.53,1.53,0,0,0,1.9-1.44q.36-6.25.32-12.51c0-1.85.24-4.07-.45-5.82a4.05,4.05,0,0,0-3.53-2.42,61.56,61.56,0,0,0-12.43-.56c-1,0-2,.14-3,.24a5.51,5.51,0,0,0-2.71.68c-1.52,1.08-1.42,3.34-1.5,5a120.47,120.47,0,0,0,.16,14.22,1.55,1.55,0,0,0,1.5,1.5l19.76,1.11C945.55,975.18,945.54,972.18,943.62,972.07Z"/><path class="cls-3" d="M686.93,867.06l29.49.53a55.47,55.47,0,0,1-2.14,12.64,3.26,3.26,0,0,1-1.31,2,3.85,3.85,0,0,1-1.69.4,171.41,171.41,0,0,1-25.62.14c-1.24-.09-2.63-.28-3-1.22a3,3,0,0,1,0-1.74,93.13,93.13,0,0,1,3.7-12.84Z"/><path d="M686.93,868.56l29.49.53-1.5-1.5a52.59,52.59,0,0,1-.93,7.51c-.23,1.11-.48,2.22-.77,3.31-.23.87-.34,2.33-1.3,2.68a13.76,13.76,0,0,1-3.58.3c-1.14.07-2.29.13-3.43.18q-3.76.16-7.53.16t-7.44-.16c-1.11-.05-2.22-.11-3.33-.19-.45,0-2.32.08-2.62-.4-.12-.2.16-1,.2-1.19.13-.61.27-1.23.42-1.84.25-1.08.53-2.16.83-3.23.68-2.46,1.47-4.9,2.35-7.3l-1.45,1.1.59,0c1.92.14,1.91-2.86,0-3l-.59,0a1.54,1.54,0,0,0-1.45,1.1,79.54,79.54,0,0,0-3.77,13.2c-.84,4.79,4.59,4.54,7.86,4.7,4.66.24,9.32.27,14,.12,2.37-.07,4.73-.19,7.1-.36,1.91-.14,3.85-.21,5-2a10.71,10.71,0,0,0,1.07-3.06c.33-1.25.62-2.51.86-3.78a57.47,57.47,0,0,0,.95-7.84,1.52,1.52,0,0,0-1.5-1.5l-29.49-.53A1.5,1.5,0,0,0,686.93,868.56Z"/><path d="M1026.91,1002.85q-42.95.33-85.89.3t-85.86-.4q-24.2-.21-48.38-.53a1.5,1.5,0,0,0,0,3q42.9.57,85.81.79t85.88.1q24.22-.08,48.44-.26a1.5,1.5,0,0,0,0-3Z"/><path d="M661.79,1006.74l57.18-.47q28.42-.21,56.84-.32,16.05,0,32.11,0a1.5,1.5,0,0,0,0-3q-28.51-.06-57,.12t-56.86.43l-32.24.26a1.5,1.5,0,0,0,0,3Z"/><path class="cls-3" d="M718.91,903.54l-18.1-1a104.05,104.05,0,0,1,3.2-13.3,4.55,4.55,0,0,1,1.07-2.07,1.78,1.78,0,0,1,1.06-.39,60.52,60.52,0,0,1,15.24.18c.73.11,1.54.32,1.69,1.28a5.11,5.11,0,0,1-.19,1.78c-1,4.46-2.2,9-3.62,13.54Z"/><path d="M718.91,902l-18.1-1,1.45,1.9a103.93,103.93,0,0,1,2.82-12.06c.19-.66.35-2,.89-2.47s1.72-.29,2.35-.33c2-.16,4-.22,6-.18a54.38,54.38,0,0,1,5.84.4c.36,0,1.33.1,1.44.27s-.19,1.19-.25,1.46-.19.81-.28,1.22q-1.41,6-3.25,11.91l1.84-1.05-.36-.06a1.55,1.55,0,0,0-1.84,1,1.52,1.52,0,0,0,1,1.85l.35,0a1.54,1.54,0,0,0,1.85-1c1.14-3.66,2.17-7.36,3.06-11.09.37-1.57,1.15-3.54.71-5.16s-1.71-2-3.1-2.24a60,60,0,0,0-11.12-.51c-1.64.08-3.77,0-5.32.59s-2.11,2.4-2.57,3.92a105.73,105.73,0,0,0-3,12.68,1.53,1.53,0,0,0,1.45,1.9l18.1,1C720.83,905.14,720.83,902.14,718.91,902Z"/><path class="cls-3" d="M745,903.54l-18.12-1a100.62,100.62,0,0,1,2.81-13.3,4.38,4.38,0,0,1,1-2.07,1.76,1.76,0,0,1,1.05-.39A60.62,60.62,0,0,1,747,887c.73.11,1.55.32,1.73,1.28a5.26,5.26,0,0,1-.14,1.78c-.86,4.46-1.94,9-3.23,13.54Z"/><path d="M745,902l-18.12-1,1.44,1.9a104.78,104.78,0,0,1,2.47-12.06c.16-.59.33-2,.82-2.47s1.69-.29,2.25-.33q3-.24,6-.18a55.13,55.13,0,0,1,5.89.4c.35,0,.71.08,1,.15.16,0,.46.19.41.12.29.47-.35,2.21-.44,2.68-.82,4-1.8,8-2.91,11.91l1.85-1.05-.36-.06a1.56,1.56,0,0,0-1.85,1,1.52,1.52,0,0,0,1,1.85l.36,0a1.53,1.53,0,0,0,1.84-1q1.56-5.49,2.74-11.09c.33-1.58,1-3.55.59-5.16s-1.73-2-3.13-2.24a59.9,59.9,0,0,0-11-.51,20.22,20.22,0,0,0-5.27.54c-1.61.54-2.15,2.28-2.56,3.76a101.06,101.06,0,0,0-2.7,12.89,1.53,1.53,0,0,0,1.45,1.9L745,905C746.89,905.14,746.88,902.14,745,902Z"/><path class="cls-3" d="M769.22,903.54l-18.15-1a99.21,99.21,0,0,1,2.45-13.3,4.33,4.33,0,0,1,1-2.07,1.71,1.71,0,0,1,1-.39,60.65,60.65,0,0,1,15.25.18c.74.11,1.56.32,1.76,1.28a4.94,4.94,0,0,1-.09,1.78c-.74,4.46-1.7,9-2.86,13.54Z"/><path d="M769.22,902l-18.15-1,1.5,1.5a98.52,98.52,0,0,1,2.1-11.7c.14-.56.27-2,.73-2.43s1.67-.29,2.23-.33c2-.16,4-.22,6-.18a55.5,55.5,0,0,1,5.91.4c.33,0,1.36.09,1.51.27.3.39-.29,2.27-.36,2.68q-1.07,6-2.59,11.91l1.84-1.05-.36-.06a1.55,1.55,0,0,0-1.84,1,1.52,1.52,0,0,0,1.05,1.85l.36,0a1.53,1.53,0,0,0,1.84-1q1.44-5.6,2.48-11.29c.29-1.57.92-3.54.39-5.11s-2-2-3.52-2.14a59.9,59.9,0,0,0-11.28-.43q-1.37.08-2.73.21a6,6,0,0,0-2.38.5c-1.5.86-1.83,2.82-2.2,4.35a103.81,103.81,0,0,0-2.21,12.5c-.1.83.76,1.46,1.5,1.5l18.15,1C771.14,905.14,771.14,902.14,769.22,902Z"/><path class="cls-3" d="M793.47,903.54l-18.17-1a98,98,0,0,1,2.1-13.3,4.09,4.09,0,0,1,.9-2.07,1.63,1.63,0,0,1,1-.39,60.83,60.83,0,0,1,15.27.18c.73.11,1.56.32,1.79,1.28a5.36,5.36,0,0,1,0,1.78c-.62,4.46-1.46,9-2.51,13.54Z"/><path d="M793.47,902l-18.17-1,1.5,1.5a96.87,96.87,0,0,1,1.86-12.1c.11-.49.17-1.74.61-2.1.17-.15.66-.12.87-.14.55-.06,1.09-.11,1.64-.15q2.93-.21,5.87-.15a55.36,55.36,0,0,1,5.76.41,8.69,8.69,0,0,1,1.23.18c.36.1.2,0,.29.15.29.56-.18,2-.27,2.56-.6,4-1.37,8-2.27,12l1.84-1.05-.36-.06a1.55,1.55,0,0,0-1.84,1,1.51,1.51,0,0,0,1,1.85l.36,0a1.53,1.53,0,0,0,1.85-1q1.28-5.54,2.15-11.16c.26-1.66.92-3.77.23-5.39-.58-1.39-1.9-1.78-3.27-2a60.56,60.56,0,0,0-11.18-.47c-1,0-1.91.11-2.86.21a6.36,6.36,0,0,0-2.56.51c-1.38.8-1.71,2.53-2,3.95a103.8,103.8,0,0,0-2,12.9,1.52,1.52,0,0,0,1.5,1.5l18.17,1C795.4,905.14,795.4,902.14,793.47,902Z"/><path class="cls-3" d="M816.83,903.54l-18.2-1a97.11,97.11,0,0,1,1.76-13.3,4,4,0,0,1,.84-2.07,1.63,1.63,0,0,1,1-.39,60.85,60.85,0,0,1,15.27.18c.74.11,1.57.32,1.82,1.28a5.05,5.05,0,0,1,0,1.78c-.51,4.46-1.23,9-2.16,13.54Z"/><path d="M816.83,902l-18.2-1,1.5,1.5a96.44,96.44,0,0,1,1.54-12.1c.1-.49.14-1.74.54-2.1.16-.15.64-.12.86-.14.54-.06,1.09-.11,1.63-.15q2.92-.21,5.87-.15t5.77.41c.34,0,1.35,0,1.56.33.32.47-.13,2-.19,2.56-.49,4-1.16,8-2,12l1.84-1.05-.36-.06a1.57,1.57,0,0,0-1.85,1,1.52,1.52,0,0,0,1,1.85l.36,0a1.53,1.53,0,0,0,1.85-1q1.13-5.55,1.87-11.16c.22-1.67.81-3.78.11-5.39-.6-1.39-1.92-1.78-3.3-2a59.88,59.88,0,0,0-11.2-.47q-1.43.06-2.85.21a6.35,6.35,0,0,0-2.55.51c-1.38.8-1.66,2.53-1.94,3.95a103.64,103.64,0,0,0-1.65,12.9,1.52,1.52,0,0,0,1.5,1.5l18.2,1C818.76,905.14,818.75,902.14,816.83,902Z"/><path class="cls-3" d="M840.19,903.54l-18.23-1a96.35,96.35,0,0,1,1.42-13.3,3.92,3.92,0,0,1,.79-2.07,1.59,1.59,0,0,1,1-.39,60.87,60.87,0,0,1,15.27.18,2,2,0,0,1,1.86,1.28,5.26,5.26,0,0,1,.05,1.78c-.39,4.46-1,9-1.81,13.54Z"/><path d="M840.19,902l-18.23-1,1.5,1.5a96.42,96.42,0,0,1,1.16-11.74c.09-.54.1-2.05.54-2.46s1.51-.21,2-.25a59.29,59.29,0,0,1,6.11-.19,56.69,56.69,0,0,1,5.83.39c.37,0,1.49,0,1.76.33s-.05,1.91-.09,2.39q-.59,6.11-1.66,12.15l1.84-1.05-.36-.06a1.56,1.56,0,0,0-1.85,1,1.52,1.52,0,0,0,1,1.85l.36,0a1.52,1.52,0,0,0,1.85-1c.67-3.76,1.21-7.56,1.61-11.36.17-1.65.73-3.83-.11-5.37-.72-1.33-2.06-1.63-3.44-1.81a60.25,60.25,0,0,0-11.31-.43c-.93.05-1.86.12-2.78.22a5.75,5.75,0,0,0-2.32.49c-1.42.84-1.64,2.65-1.89,4.12a102.44,102.44,0,0,0-1.3,12.73,1.53,1.53,0,0,0,1.5,1.5l18.23,1C842.12,905.14,842.11,902.14,840.19,902Z"/><path class="cls-3" d="M865.34,903.54l-18.25-1a97.29,97.29,0,0,1,1-13.3,3.89,3.89,0,0,1,.74-2.07,1.54,1.54,0,0,1,1-.39,60.89,60.89,0,0,1,15.27.18,2,2,0,0,1,1.9,1.28,5.49,5.49,0,0,1,.1,1.78c-.27,4.46-.75,9-1.43,13.54Z"/><path d="M865.34,902l-18.25-1,1.5,1.5a94.77,94.77,0,0,1,.88-12.13c.06-.42.07-1.73.4-2.07s1.84-.24,2.37-.28q3-.23,5.91-.16c2,0,3.9.18,5.83.41.39,0,1.31,0,1.61.33s0,2.09,0,2.53q-.4,6-1.3,12l1.85-1.05-.37-.06a1.55,1.55,0,0,0-1.84,1,1.5,1.5,0,0,0,1,1.85l.37,0c.72.11,1.71-.17,1.84-1,.56-3.73,1-7.48,1.3-11.24.13-1.62.54-3.58-.07-5.13s-2-2-3.42-2.14a60.56,60.56,0,0,0-11.34-.47q-1.38.07-2.76.21a6.09,6.09,0,0,0-2.51.51c-1.37.81-1.58,2.51-1.78,3.93a101.45,101.45,0,0,0-1,12.92,1.53,1.53,0,0,0,1.5,1.5l18.25,1C867.27,905.14,867.27,902.14,865.34,902Z"/><path class="cls-3" d="M890.5,903.54l-18.28-1a95.35,95.35,0,0,1,.67-13.3,3.78,3.78,0,0,1,.68-2.07,1.49,1.49,0,0,1,1-.39,61.07,61.07,0,0,1,15.29.18,2.08,2.08,0,0,1,1.93,1.28,5.2,5.2,0,0,1,.15,1.78c-.15,4.46-.5,9-1.06,13.54Z"/><path d="M890.5,902l-18.28-1,1.5,1.5a97,97,0,0,1,.54-12.17c0-.43,0-1.81.37-2.14,0,0,.82,0,.7,0l1.54-.14c2-.15,4.09-.21,6.13-.16a58.8,58.8,0,0,1,6.08.46c.39.05,1,0,1.28.37s0,1.91,0,2.44c-.16,4.14-.51,8.27-1,12.39l1.9-1.45-.36-.06a1.56,1.56,0,0,0-1.85,1A1.52,1.52,0,0,0,890.1,905l.37,0a1.53,1.53,0,0,0,1.89-1.44q.69-5.61,1-11.24c.08-1.6.44-3.63-.37-5.1s-2.24-1.65-3.68-1.83a60.12,60.12,0,0,0-11.06-.41c-.9,0-1.8.11-2.69.2a6.15,6.15,0,0,0-2.48.51c-1.47.87-1.57,2.8-1.74,4.3a97.47,97.47,0,0,0-.58,12.55,1.53,1.53,0,0,0,1.5,1.5l18.28,1C892.43,905.14,892.42,902.14,890.5,902Z"/><path class="cls-3" d="M913.85,903.54l-18.3-1a95.19,95.19,0,0,1,.33-13.3,3.61,3.61,0,0,1,.63-2.07,1.45,1.45,0,0,1,1-.39,61.09,61.09,0,0,1,15.29.18,2.15,2.15,0,0,1,2,1.28,5.19,5.19,0,0,1,.2,1.78c0,4.46-.27,9-.71,13.54Z"/><path d="M913.85,902l-18.3-1,1.5,1.5a96.91,96.91,0,0,1,.23-12.17c0-.41,0-1.86.29-2.14a6.63,6.63,0,0,1,1-.07c.49,0,1-.09,1.49-.12a59.82,59.82,0,0,1,6-.13,56.32,56.32,0,0,1,5.94.45c.51.07,1.13,0,1.34.55a8.08,8.08,0,0,1,0,2.6q-.1,6-.69,12.05l1.9-1.45-.37-.06a1.54,1.54,0,0,0-1.84,1,1.51,1.51,0,0,0,1.05,1.85l.37,0a1.52,1.52,0,0,0,1.89-1.44c.36-3.7.59-7.4.67-11.12,0-1.6.34-3.6-.42-5.09s-2.12-1.75-3.57-1.94a60.44,60.44,0,0,0-11.17-.44c-.88,0-1.75.11-2.62.19a6.48,6.48,0,0,0-2.51.48c-1.51.83-1.64,2.63-1.77,4.16a96.75,96.75,0,0,0-.28,12.74,1.54,1.54,0,0,0,1.5,1.5l18.3,1C915.78,905.14,915.78,902.14,913.85,902Z"/><path class="cls-3" d="M938.11,903.54l-18.33-1a95.23,95.23,0,0,1,0-13.3,3.67,3.67,0,0,1,.57-2.07,1.43,1.43,0,0,1,1-.39,61.11,61.11,0,0,1,15.29.18,2.23,2.23,0,0,1,2,1.28,5.18,5.18,0,0,1,.24,1.78c.09,4.46,0,9-.34,13.54Z"/><path d="M938.11,902l-18.33-1,1.5,1.5q-.33-4.71-.21-9.44a36.83,36.83,0,0,1,.22-4.33c0-.17.05-.52.19-.65-.24.22.49.09.56.08.8-.08,1.61-.15,2.43-.2a61.62,61.62,0,0,1,9.51.16c.73.07,1.47.14,2.2.25.31,0,.74.06,1,.3s.18,1.12.18,1.5c0,.81,0,1.61,0,2.42,0,3.65-.12,7.29-.37,10.93l1.9-1.45-.37-.06a1.56,1.56,0,0,0-1.85,1,1.53,1.53,0,0,0,1.05,1.85l.37,0a1.53,1.53,0,0,0,1.9-1.44c.26-3.76.39-7.53.37-11.3,0-1.59.23-3.59-.59-5s-2.14-1.64-3.55-1.83A60.58,60.58,0,0,0,925,885c-.88,0-1.75.11-2.62.19a6.3,6.3,0,0,0-2.62.53c-1.45.9-1.49,2.77-1.58,4.28a97.63,97.63,0,0,0,.07,12.57,1.54,1.54,0,0,0,1.5,1.5l18.33,1C940,905.14,940,902.14,938.11,902Z"/><path class="cls-3" d="M962.37,903.54l-18.36-1a95.47,95.47,0,0,1-.38-13.3,3.5,3.5,0,0,1,.51-2.07,1.39,1.39,0,0,1,1-.39,61.13,61.13,0,0,1,15.29.18,2.31,2.31,0,0,1,2,1.28,5.45,5.45,0,0,1,.29,1.78c.21,4.46.22,9,0,13.54Z"/><path d="M962.37,902l-18.36-1,1.5,1.5c-.3-3.14-.46-6.29-.46-9.44a34.65,34.65,0,0,1,.11-4.44c0-.15,0-.43.14-.54-.23.24.44.09.54.08.81-.08,1.62-.15,2.43-.2a61.77,61.77,0,0,1,9.52.16c.73.07,1.47.14,2.2.25a1.72,1.72,0,0,1,1,.3c.31.32.23,1.1.25,1.5,0,.81.07,1.61.1,2.42.1,3.64.07,7.29-.08,10.93l1.9-1.45-.37-.06a1.55,1.55,0,0,0-1.85,1A1.52,1.52,0,0,0,962,905l.37,0a1.52,1.52,0,0,0,1.9-1.44c.16-3.77.19-7.54.06-11.3,0-1.59.14-3.59-.7-5s-2.16-1.64-3.58-1.83a61.58,61.58,0,0,0-11.19-.44c-.88,0-1.75.11-2.62.19a6.25,6.25,0,0,0-2.61.53c-1.45.91-1.45,2.77-1.5,4.28a97.67,97.67,0,0,0,.41,12.57,1.56,1.56,0,0,0,1.5,1.5l18.36,1C964.3,905.14,964.29,902.14,962.37,902Z"/><path class="cls-3" d="M986.62,903.54l-18.38-1a97.49,97.49,0,0,1-.74-13.3,3.43,3.43,0,0,1,.46-2.07,1.34,1.34,0,0,1,.94-.39,61.22,61.22,0,0,1,15.3.18,2.35,2.35,0,0,1,2.07,1.28,5.47,5.47,0,0,1,.34,1.78c.33,4.46.46,9,.39,13.54Z"/><path d="M986.62,902l-18.38-1,1.5,1.5a97.1,97.1,0,0,1-.75-12.17c0-.38-.21-2,.13-2.25-.29.24.81.05.93,0l1.52-.13c2-.13,3.95-.18,5.93-.12a58.9,58.9,0,0,1,5.94.45c.53.07,1.2.05,1.49.55a6.66,6.66,0,0,1,.28,2.6q.39,6,.29,12.05l1.9-1.45-.38-.06a1.55,1.55,0,0,0-1.84,1,1.51,1.51,0,0,0,1.05,1.85l.37,0a1.53,1.53,0,0,0,1.9-1.44c0-3.71,0-7.42-.23-11.12-.09-1.57,0-3.51-.7-5s-2.21-1.88-3.75-2.08a61.5,61.5,0,0,0-11.1-.45c-.89,0-1.78.12-2.67.2a6.23,6.23,0,0,0-2.64.53c-1.39.87-1.4,2.66-1.42,4.11a98.67,98.67,0,0,0,.75,12.74,1.56,1.56,0,0,0,1.5,1.5l18.38,1C988.55,905.14,988.55,902.14,986.62,902Z"/><path class="cls-3" d="M759.45,883l-17.72-.92a94.61,94.61,0,0,1,2.53-12.71,4.1,4.1,0,0,1,1-2,1.63,1.63,0,0,1,1-.37,60.32,60.32,0,0,1,14.91.17c.72.1,1.52.3,1.71,1.22a4.78,4.78,0,0,1-.11,1.7c-.77,4.27-1.76,8.59-3,12.93Z"/><path d="M759.45,881.48l-17.72-.92,1.5,1.5a91.34,91.34,0,0,1,2.16-11.12c.16-.59.26-1.92.75-2.35s1.6-.23,2.16-.28c2-.15,3.94-.21,5.91-.17s3.72.15,5.57.36c.4,0,.81.08,1.21.16.09,0,.53.23.42.08.23.32-.28,1.92-.37,2.36-.74,3.88-1.65,7.72-2.68,11.53l1.84-1-.35-.06a1.55,1.55,0,0,0-1.84,1.05,1.51,1.51,0,0,0,1,1.85l.35.05a1.54,1.54,0,0,0,1.85-1.05c1-3.61,1.85-7.25,2.57-10.93.3-1.52.95-3.45.32-5s-2-1.73-3.38-1.91a59.32,59.32,0,0,0-10.82-.42c-.89,0-1.78.11-2.67.19a6.82,6.82,0,0,0-2.38.43c-1.49.74-1.9,2.43-2.29,3.91a99.54,99.54,0,0,0-2.37,12.32c-.11.83.77,1.46,1.5,1.5l17.72.92C761.38,884.58,761.38,881.58,759.45,881.48Z"/><path class="cls-3" d="M726.41,925l-18.53-1a109.67,109.67,0,0,1,3.17-13.93,4.69,4.69,0,0,1,1.08-2.16,1.74,1.74,0,0,1,1.08-.41,59.71,59.71,0,0,1,15.6.19c.75.11,1.58.33,1.74,1.34a5.34,5.34,0,0,1-.18,1.86c-1,4.67-2.17,9.41-3.59,14.18Z"/><path d="M726.41,923.52l-18.53-1,1.45,1.9A111.43,111.43,0,0,1,712,912.16a13.75,13.75,0,0,1,.83-2.69c.39-.73,1.39-.58,2.15-.64a58.87,58.87,0,0,1,6.37-.23,55.64,55.64,0,0,1,6.19.43c.43.05,1.35.06,1.53.35s-.1.85-.15,1.12c-.12.57-.24,1.14-.37,1.7-.92,4.2-2,8.36-3.23,12.48l1.85-1-.37-.06c-1.89-.3-2.7,2.6-.79,2.9l.36.06a1.55,1.55,0,0,0,1.85-1c1.13-3.84,2.15-7.72,3-11.63.37-1.63,1.14-3.69.7-5.36s-1.74-2.1-3.17-2.3a59.92,59.92,0,0,0-11.59-.52c-1,.05-1.92.13-2.88.22a6.92,6.92,0,0,0-2.55.48c-1.53.8-2,2.61-2.41,4.15a110.44,110.44,0,0,0-2.92,13.09,1.52,1.52,0,0,0,1.44,1.9l18.53,1C728.34,926.63,728.34,923.63,726.41,923.52Z"/><path class="cls-3" d="M750.45,924.87l-18.56-1a108.08,108.08,0,0,1,2.81-13.93,4.53,4.53,0,0,1,1-2.16,1.72,1.72,0,0,1,1.07-.41,60.25,60.25,0,0,1,15.61.19c.75.11,1.58.33,1.77,1.34a5.48,5.48,0,0,1-.13,1.86c-.85,4.67-1.93,9.41-3.22,14.17Z"/><path d="M750.45,923.37l-18.56-1,1.45,1.9A110.32,110.32,0,0,1,735.7,912c.15-.57.29-1.13.44-1.68a3.28,3.28,0,0,1,.48-1.31c.48-.46,1.68-.32,2.33-.37a60.76,60.76,0,0,1,6.18-.2,58,58,0,0,1,6,.43c.39,0,1.33,0,1.54.35s-.14,1.24-.19,1.53c-.09.48-.18,1-.28,1.45-.8,4.14-1.77,8.24-2.87,12.32l1.85-1-.37-.06a1.55,1.55,0,0,0-1.85,1.05,1.51,1.51,0,0,0,1,1.84l.37.06a1.52,1.52,0,0,0,1.84-1q1.54-5.7,2.71-11.49c.33-1.63,1-3.67.65-5.34s-1.74-2.24-3.23-2.45a60.67,60.67,0,0,0-11.51-.52c-.93.05-1.86.11-2.79.2a8,8,0,0,0-2.59.44c-1.63.75-2.06,2.63-2.47,4.21a108.15,108.15,0,0,0-2.58,13.09,1.53,1.53,0,0,0,1.44,1.9l18.56,1C752.38,926.47,752.37,923.47,750.45,923.37Z"/><path class="cls-3" d="M775.12,925.35l-18.59-1A106.48,106.48,0,0,1,759,910.4a4.62,4.62,0,0,1,1-2.17,1.73,1.73,0,0,1,1.06-.41,60.35,60.35,0,0,1,15.62.19c.75.11,1.59.34,1.81,1.35a5.4,5.4,0,0,1-.08,1.86c-.73,4.67-1.68,9.42-2.85,14.19Z"/><path d="M775.12,923.85l-18.59-1,1.5,1.5A104.58,104.58,0,0,1,760.12,912a9,9,0,0,1,.62-2.35c.42-.68,1.66-.5,2.41-.56a60.66,60.66,0,0,1,6.18-.19,55.74,55.74,0,0,1,6,.43c.5.06,1.44.08,1.59.4.29.61-.24,2.09-.34,2.72-.7,4.21-1.57,8.39-2.58,12.54l1.84-1-.37-.06a1.55,1.55,0,0,0-1.84,1.05,1.51,1.51,0,0,0,1.05,1.85l.37.05a1.53,1.53,0,0,0,1.84-1q1.41-5.82,2.44-11.71c.29-1.72,1-3.91.33-5.6-.58-1.43-1.92-1.83-3.32-2a60.64,60.64,0,0,0-11.74-.47c-1,.06-2,.14-3,.24a4.72,4.72,0,0,0-2.47.69c-1.32,1-1.6,2.79-1.94,4.28a111.88,111.88,0,0,0-2.2,13.12,1.52,1.52,0,0,0,1.5,1.5l18.59,1C777.05,927,777.05,924,775.12,923.85Z"/><path class="cls-3" d="M800,925.1l-18.62-1a105.33,105.33,0,0,1,2.06-13.94,4.26,4.26,0,0,1,.91-2.16,1.63,1.63,0,0,1,1-.41,59.94,59.94,0,0,1,15.62.19c.75.11,1.6.33,1.84,1.34a5.57,5.57,0,0,1,0,1.86c-.6,4.67-1.42,9.42-2.46,14.18Z"/><path d="M800,923.6l-18.62-1,1.5,1.5a104.37,104.37,0,0,1,1.75-12.32c.13-.62.19-2.13.68-2.6s1.62-.25,2.18-.3a59.86,59.86,0,0,1,6.42-.19,56.5,56.5,0,0,1,6.1.45c.47.06,1.24.08,1.4.38s0,1.11-.08,1.46-.12.94-.19,1.41c-.58,4.15-1.33,8.28-2.22,12.37l1.85-1-.37-.06a1.54,1.54,0,0,0-1.85,1.05,1.51,1.51,0,0,0,1,1.84l.37.06a1.54,1.54,0,0,0,1.85-1.05c.82-3.83,1.53-7.69,2.1-11.57.25-1.71.88-3.86.3-5.55-.5-1.44-1.82-2-3.21-2.17a61,61,0,0,0-11.85-.5c-1,.05-2,.13-2.93.23a5.77,5.77,0,0,0-2.39.51c-1.46.85-1.75,2.76-2.06,4.27a110.36,110.36,0,0,0-1.9,13.32,1.53,1.53,0,0,0,1.5,1.5l18.62,1C802,926.71,802,923.71,800,923.6Z"/><path class="cls-3" d="M823.84,926l-18.66-1a104.87,104.87,0,0,1,1.7-14,4.21,4.21,0,0,1,.85-2.16,1.58,1.58,0,0,1,1-.41,60.1,60.1,0,0,1,15.64.19,1.93,1.93,0,0,1,1.88,1.34,5.31,5.31,0,0,1,0,1.87c-.48,4.68-1.19,9.43-2.1,14.2Z"/><path d="M823.84,924.46l-18.66-1,1.5,1.5a104.8,104.8,0,0,1,1.49-12.75c.09-.49.15-1.81.54-2.2s1.92-.28,2.5-.33q3-.23,6.06-.17a59.51,59.51,0,0,1,6,.44c.44,0,1.35,0,1.61.4s-.1,2.17-.16,2.67c-.47,4.23-1.12,8.43-1.92,12.61l1.85-1-.37-.06a1.55,1.55,0,0,0-1.85,1,1.51,1.51,0,0,0,1.05,1.84l.37.06a1.53,1.53,0,0,0,1.85-1.05q1.11-5.86,1.83-11.79c.2-1.67.74-3.73.15-5.36s-1.95-2-3.42-2.19a60.67,60.67,0,0,0-11.59-.49c-1,0-1.89.12-2.84.22a6.1,6.1,0,0,0-2.57.53c-1.4.83-1.67,2.61-1.94,4.07a110.06,110.06,0,0,0-1.6,13.55,1.53,1.53,0,0,0,1.5,1.5l18.66,1C825.77,927.56,825.76,924.56,823.84,924.46Z"/><path class="cls-3" d="M849.62,926l-18.69-1a104.12,104.12,0,0,1,1.31-14,4.17,4.17,0,0,1,.79-2.16,1.56,1.56,0,0,1,1-.41,60.12,60.12,0,0,1,15.64.19,2,2,0,0,1,1.92,1.34,5.5,5.5,0,0,1,.07,1.87c-.35,4.68-.92,9.43-1.7,14.2Z"/><path d="M849.62,924.46l-18.69-1,1.5,1.5a100.71,100.71,0,0,1,1.07-12.38c.09-.6.08-2.09.52-2.57s1.55-.25,2.07-.3a62.24,62.24,0,0,1,6.26-.2,58,58,0,0,1,6.17.44c.4,0,1.32,0,1.64.35s0,2.2-.06,2.72c-.35,4.22-.88,8.43-1.56,12.61l1.85-1-.38-.06a1.55,1.55,0,0,0-1.84,1,1.5,1.5,0,0,0,1.05,1.84l.37.06a1.54,1.54,0,0,0,1.85-1.05c.63-3.91,1.15-7.84,1.52-11.79.16-1.72.67-3.89-.07-5.54-.67-1.49-2.1-1.84-3.58-2a60.76,60.76,0,0,0-11.6-.45c-1,0-1.89.13-2.84.23a5.13,5.13,0,0,0-2.5.63c-1.39.92-1.54,2.83-1.76,4.32A107.73,107.73,0,0,0,829.43,925a1.54,1.54,0,0,0,1.5,1.5l18.69,1C851.54,927.56,851.54,924.56,849.62,924.46Z"/><path class="cls-3" d="M876.31,926l-18.71-1a102,102,0,0,1,.91-14,3.9,3.9,0,0,1,.73-2.16,1.49,1.49,0,0,1,1-.41,60.22,60.22,0,0,1,15.65.19,2.08,2.08,0,0,1,2,1.34,5.45,5.45,0,0,1,.13,1.87c-.22,4.68-.65,9.43-1.3,14.2Z"/><path d="M876.31,924.46l-18.71-1,1.5,1.5a103,103,0,0,1,.76-12.78c.06-.48,0-1.94.44-2.29a4.18,4.18,0,0,1,1.14-.1c.52,0,1-.1,1.58-.13,2-.15,4.06-.19,6.09-.14a57.68,57.68,0,0,1,6,.48c.57.08,1.19,0,1.36.63a9.77,9.77,0,0,1-.09,2.75c-.23,4.23-.65,8.45-1.21,12.64l1.9-1.44-.38-.06a1.55,1.55,0,0,0-1.84,1,1.5,1.5,0,0,0,1,1.84l.37.06a1.54,1.54,0,0,0,1.9-1.45q.78-5.81,1.16-11.66c.1-1.61.46-3.55-.16-5.09s-2.11-2-3.67-2.22a62.08,62.08,0,0,0-11.32-.47q-1.38.07-2.76.21a6.46,6.46,0,0,0-2.72.55c-1.45.88-1.6,2.73-1.79,4.25A103,103,0,0,0,856.1,925a1.54,1.54,0,0,0,1.5,1.5l18.71,1C878.24,927.56,878.24,924.56,876.31,924.46Z"/><path class="cls-3" d="M901.12,926.17l-18.75-1a101.81,101.81,0,0,1,.54-14,3.93,3.93,0,0,1,.67-2.17,1.52,1.52,0,0,1,1-.41,60.76,60.76,0,0,1,15.66.19,2.17,2.17,0,0,1,2,1.35,5.68,5.68,0,0,1,.17,1.87c-.09,4.68-.4,9.43-.91,14.21Z"/><path d="M901.12,924.67l-18.75-1,1.5,1.5a107.29,107.29,0,0,1,.38-12.42c.06-.56,0-2.19.39-2.63a3,3,0,0,1,.73-.08l1.58-.15a59.85,59.85,0,0,1,6.28-.16,56.6,56.6,0,0,1,6.24.48c.57.08,1.2,0,1.4.63a9.06,9.06,0,0,1,0,2.75c-.12,4.23-.42,8.45-.87,12.65l1.9-1.45-.38,0a1.55,1.55,0,0,0-1.85,1,1.52,1.52,0,0,0,1.05,1.85l.38.06a1.54,1.54,0,0,0,1.9-1.45c.41-3.88.7-7.77.84-11.67.06-1.68.4-3.75-.37-5.31s-2.13-1.8-3.61-2a61.37,61.37,0,0,0-11.73-.45c-.92.06-1.84.13-2.76.23a5.12,5.12,0,0,0-2.47.62c-1.41,1-1.44,3-1.59,4.51a104.47,104.47,0,0,0-.44,13,1.53,1.53,0,0,0,1.5,1.5l18.75,1C903.05,927.78,903,924.78,901.12,924.67Z"/><path class="cls-3" d="M926,926.17l-18.77-1a101.73,101.73,0,0,1,.16-14A3.91,3.91,0,0,1,908,909a1.48,1.48,0,0,1,1-.41,60.79,60.79,0,0,1,15.66.19,2.23,2.23,0,0,1,2,1.35,5.4,5.4,0,0,1,.22,1.87c0,4.68-.14,9.43-.53,14.21Z"/><path d="M926,924.67l-18.77-1,1.5,1.5c-.18-3.3-.22-6.61-.08-9.91a36.77,36.77,0,0,1,.29-4.57,2.86,2.86,0,0,1,.2-.64l.82,0c.82-.08,1.66-.15,2.49-.2a60.92,60.92,0,0,1,9.74.19c.73.08,1.46.14,2.18.27.34.06.72.07.91.38a4.34,4.34,0,0,1,.14,1.94c0,.82,0,1.65,0,2.47,0,3.73-.23,7.46-.53,11.17l1.9-1.45-.38,0a1.54,1.54,0,0,0-1.84,1,1.5,1.5,0,0,0,1,1.85l.38.06a1.54,1.54,0,0,0,1.9-1.45q.46-5.76.53-11.55c0-1.71.31-3.83-.48-5.42a4.08,4.08,0,0,0-3.45-2,61,61,0,0,0-11.46-.5c-1,.05-1.92.12-2.87.21a6.47,6.47,0,0,0-2.55.49c-1.6.88-1.65,2.87-1.77,4.48a103.83,103.83,0,0,0-.1,13.2,1.53,1.53,0,0,0,1.5,1.5l18.77,1C927.91,927.78,927.91,924.78,926,924.67Z"/><path class="cls-3" d="M950.85,926.17l-18.8-1a103.49,103.49,0,0,1-.22-14,3.75,3.75,0,0,1,.56-2.17,1.43,1.43,0,0,1,1-.41,60.88,60.88,0,0,1,15.67.19,2.29,2.29,0,0,1,2.06,1.35,5.64,5.64,0,0,1,.28,1.87c.16,4.68.11,9.43-.15,14.21Z"/><path d="M950.85,924.67l-18.8-1,1.5,1.5q-.4-4.81-.36-9.64a47.62,47.62,0,0,1,.17-4.78c0-.18,0-.56.15-.7s0,.08,0,.06a1.58,1.58,0,0,1,.43-.05c.89-.1,1.79-.17,2.68-.23a61,61,0,0,1,9.75.16c.76.08,1.52.15,2.27.27.37.06.81.07,1.05.4a3.67,3.67,0,0,1,.2,1.75c0,.82.05,1.65.06,2.47.06,3.79,0,7.58-.22,11.36l1.9-1.45-.38,0a1.55,1.55,0,0,0-1.85,1,1.52,1.52,0,0,0,1.05,1.85l.38.06a1.53,1.53,0,0,0,1.9-1.45q.32-5.87.21-11.74c0-1.66.19-3.7-.6-5.23s-2.19-1.81-3.68-2a61.94,61.94,0,0,0-11.47-.46c-1,.05-1.91.12-2.87.22a5.38,5.38,0,0,0-2.62.64c-1.4,1-1.35,3-1.41,4.48a103,103,0,0,0,.26,13,1.53,1.53,0,0,0,1.5,1.5l18.8,1C952.78,927.78,952.77,924.78,950.85,924.67Z"/><path class="cls-3" d="M975.68,925.32l-18.81-1a101.87,101.87,0,0,1-.59-13.94,3.72,3.72,0,0,1,.49-2.17,1.43,1.43,0,0,1,1-.41,61.35,61.35,0,0,1,15.67.19,2.39,2.39,0,0,1,2.1,1.35,5.85,5.85,0,0,1,.32,1.86c.28,4.68.36,9.42.23,14.19Z"/><path d="M975.68,923.82l-18.81-1,1.5,1.5q-.54-4.92-.62-9.89a38.14,38.14,0,0,1,.06-4.66c0-.18.13-.57.1-.54a6.06,6.06,0,0,0,.79,0c.82-.08,1.65-.15,2.48-.2a60.92,60.92,0,0,1,9.74.19c.73.08,1.47.14,2.19.27a1.4,1.4,0,0,1,1,.38c.35.45.25,1.39.28,1.93,0,.82.09,1.65.12,2.47.16,3.72.18,7.43.08,11.15l1.9-1.45-.38-.06a1.56,1.56,0,0,0-1.85,1,1.52,1.52,0,0,0,1,1.85l.38.05a1.52,1.52,0,0,0,1.9-1.44c.1-3.84.08-7.69-.09-11.53-.08-1.72.1-3.85-.73-5.41a4.22,4.22,0,0,0-3.52-2,61.11,61.11,0,0,0-11.47-.5c-1,0-1.91.12-2.86.21a6.37,6.37,0,0,0-2.53.49c-1.59.89-1.57,2.88-1.6,4.48a103.42,103.42,0,0,0,.61,13.17,1.54,1.54,0,0,0,1.5,1.5l18.81,1C977.61,926.92,977.6,923.92,975.68,923.82Z"/><path class="cls-3" d="M1000.5,926.88l-18.86-1a103.24,103.24,0,0,1-1-14,3.68,3.68,0,0,1,.44-2.18,1.35,1.35,0,0,1,1-.41,61.07,61.07,0,0,1,15.69.19,2.45,2.45,0,0,1,2.14,1.35,5.92,5.92,0,0,1,.38,1.87c.41,4.69.61,9.45.61,14.24Z"/><path d="M1000.5,925.38l-18.86-1,1.44,1.1a101.46,101.46,0,0,1-.9-12.44c0-.5-.26-1.95.09-2.37-.18.21.82,0,1,0l1.57-.14a59.59,59.59,0,0,1,6.27-.12,48.94,48.94,0,0,1,6.28.52c.51.08,1,.11,1.21.58a8,8,0,0,1,.34,2.76q.48,6.32.48,12.67l1.9-1.45-.39-.06a1.55,1.55,0,0,0-1.84,1.05,1.52,1.52,0,0,0,1.05,1.85l.38,0a1.52,1.52,0,0,0,1.9-1.44q0-6-.42-11.89c-.13-1.67,0-3.74-.91-5.23s-2.23-1.7-3.69-1.89a61.86,61.86,0,0,0-11.78-.45c-.92.06-1.83.13-2.74.23a4.45,4.45,0,0,0-2.59.74c-1.28,1.09-1.1,3.07-1.08,4.58a108.64,108.64,0,0,0,1,13.24,1.51,1.51,0,0,0,1.45,1.1l18.86,1C1002.43,928.48,1002.43,925.48,1000.5,925.38Z"/><path class="cls-3" d="M1026.31,926.88l-18.9-1a104.11,104.11,0,0,1-1.35-14,3.62,3.62,0,0,1,.38-2.18,1.31,1.31,0,0,1,.95-.41,61.09,61.09,0,0,1,15.69.19,2.54,2.54,0,0,1,2.18,1.35,6,6,0,0,1,.43,1.87c.54,4.69.88,9.45,1,14.24Z"/><path d="M1026.31,925.38l-18.9-1,1.45,1.1a103.35,103.35,0,0,1-1.26-12.4c0-.64-.31-2,.06-2.54-.3.49.61.17.92.13l1.6-.13c2-.14,4-.19,6-.13s4,.22,6.06.48c.6.07,1.33.07,1.66.63a7.54,7.54,0,0,1,.43,2.8q.67,6.3.83,12.63l1.9-1.45-.38-.06a1.56,1.56,0,0,0-1.85,1.05,1.52,1.52,0,0,0,1.05,1.85l.39,0a1.51,1.51,0,0,0,1.89-1.44q-.17-5.93-.74-11.82c-.17-1.7-.11-3.83-1-5.33s-2.39-1.69-3.92-1.89a61.86,61.86,0,0,0-11.7-.41c-.93.06-1.86.14-2.8.24a4.14,4.14,0,0,0-2.4.72c-1.28,1.12-1,3.1-1,4.62a108.36,108.36,0,0,0,1.37,13.2,1.51,1.51,0,0,0,1.44,1.1l18.9,1C1028.24,928.48,1028.23,925.48,1026.31,925.38Z"/><path class="cls-3" d="M728.24,949.67l-19-1.06a117.32,117.32,0,0,1,3.23-14.69,5,5,0,0,1,1.1-2.27,1.79,1.79,0,0,1,1.11-.43,59.83,59.83,0,0,1,16,.2c.77.11,1.62.35,1.79,1.41a6.2,6.2,0,0,1-.18,2c-1,4.92-2.21,9.92-3.66,14.94Z"/><path d="M728.24,948.17l-19-1.06,1.44,1.9a122,122,0,0,1,2.75-13,19,19,0,0,1,.79-2.67c.37-.84,1-.72,1.83-.8a63.76,63.76,0,0,1,6.77-.29,57.88,57.88,0,0,1,6.58.46c.52.07,1.38,0,1.61.45s-.39,2.33-.52,2.94c-.94,4.44-2.05,8.84-3.29,13.2l1.84-1.05-.38-.06c-1.88-.31-2.7,2.58-.79,2.89l.37.07a1.54,1.54,0,0,0,1.85-1c1.14-4,2.17-8,3.06-12.11.38-1.74,1.21-4,.73-5.75s-1.9-2.18-3.44-2.39a61.31,61.31,0,0,0-12.11-.49c-1.68.11-4.1-.07-5.52,1s-1.68,2.77-2.09,4.25a119,119,0,0,0-2.93,13.61,1.53,1.53,0,0,0,1.45,1.9l19,1.06C730.16,951.28,730.16,948.28,728.24,948.17Z"/><path class="cls-3" d="M752.79,949.67l-19.06-1.06a115.71,115.71,0,0,1,2.85-14.69,4.92,4.92,0,0,1,1-2.27,1.76,1.76,0,0,1,1.1-.43,59.93,59.93,0,0,1,16,.2c.77.11,1.62.35,1.82,1.41a5.82,5.82,0,0,1-.13,2c-.86,4.92-1.95,9.92-3.27,14.94Z"/><path d="M752.79,948.17l-19.06-1.06,1.5,1.5a114.57,114.57,0,0,1,2.47-13,11.91,11.91,0,0,1,.71-2.48c.38-.77,1.77-.57,2.53-.63a61,61,0,0,1,6.34-.21,56,56,0,0,1,6.2.45,4.3,4.3,0,0,1,1.38.23c.29.16.24.12.24.6a17.37,17.37,0,0,1-.5,2.94c-.81,4.3-1.78,8.58-2.88,12.82l1.84-1.05-.38-.06c-1.88-.3-2.7,2.59-.79,2.89l.37.07a1.55,1.55,0,0,0,1.85-1c1-4,1.95-8,2.72-12,.35-1.8,1.13-4.06.63-5.88-.45-1.66-1.92-2.18-3.45-2.39a60.51,60.51,0,0,0-12-.49c-1,.06-2.06.14-3.09.25a4.88,4.88,0,0,0-2.52.71c-1.37,1-1.68,2.93-2.07,4.46a121.88,121.88,0,0,0-2.57,13.8c-.11.83.78,1.46,1.5,1.5l19.06,1.06C754.71,951.28,754.71,948.28,752.79,948.17Z"/><path class="cls-3" d="M777.34,949.67l-19.09-1.06a116.09,116.09,0,0,1,2.47-14.69,4.78,4.78,0,0,1,1-2.27,1.69,1.69,0,0,1,1.08-.43,60,60,0,0,1,16,.2c.77.11,1.63.35,1.86,1.41a6,6,0,0,1-.08,2c-.74,4.92-1.7,9.92-2.89,14.94Z"/><path d="M777.34,948.17l-19.09-1.06,1.5,1.5a116.57,116.57,0,0,1,2.12-13c.16-.69.24-2.22.78-2.75s1.75-.31,2.36-.36a59.72,59.72,0,0,1,6.55-.2,55.5,55.5,0,0,1,6.44.5c.45.07,1,.08,1.22.39s-.08,1.27-.13,1.62c-.08.57-.18,1.13-.27,1.7-.69,4.3-1.56,8.58-2.55,12.82l1.84-1.05-.38-.06c-1.88-.3-2.7,2.59-.79,2.89l.38.07a1.53,1.53,0,0,0,1.84-1q1.43-6.06,2.45-12.19c.29-1.75,1-3.91.47-5.66-.44-1.56-1.81-2.16-3.29-2.37a60.43,60.43,0,0,0-12-.54c-1,.06-2.06.14-3.09.25a5.67,5.67,0,0,0-2.6.63c-1.41.91-1.71,2.84-2.05,4.35a120.61,120.61,0,0,0-2.28,14,1.53,1.53,0,0,0,1.5,1.5l19.09,1.06C779.26,951.28,779.26,948.28,777.34,948.17Z"/><path class="cls-3" d="M803.77,949.67l-19.11-1.06a114.84,114.84,0,0,1,2.06-14.69,4.62,4.62,0,0,1,.92-2.27,1.67,1.67,0,0,1,1.08-.43,60,60,0,0,1,16,.2,2,2,0,0,1,1.9,1.41,5.9,5.9,0,0,1,0,2c-.6,4.92-1.42,9.92-2.46,14.94Z"/><path d="M803.77,948.17l-19.11-1.06,1.5,1.5a110.09,110.09,0,0,1,1.76-13,8.58,8.58,0,0,1,.58-2.51c.22-.36.19-.33.65-.39s1.14-.12,1.72-.17a61.72,61.72,0,0,1,6.38-.21,57.12,57.12,0,0,1,6.26.46c.53.06,1.44,0,1.69.48s-.16,2.23-.24,2.83c-.57,4.45-1.34,8.88-2.25,13.27l1.84-1.05-.38-.06c-1.89-.3-2.7,2.59-.79,2.89l.38.07a1.53,1.53,0,0,0,1.84-1q1.27-6.17,2.14-12.4c.24-1.74.85-3.88.26-5.59s-2-2-3.47-2.26a61.82,61.82,0,0,0-12.16-.49c-1,.06-2,.15-3,.25a4.71,4.71,0,0,0-2.47.71c-1.35,1-1.57,2.89-1.87,4.43a119,119,0,0,0-1.86,13.83,1.53,1.53,0,0,0,1.5,1.5l19.11,1.06C805.7,951.28,805.7,948.28,803.77,948.17Z"/><path class="cls-3" d="M829.27,949.67l-19.14-1.06a113.87,113.87,0,0,1,1.66-14.69,4.5,4.5,0,0,1,.87-2.27,1.59,1.59,0,0,1,1.06-.43,60.07,60.07,0,0,1,16,.2,2,2,0,0,1,1.94,1.41,6.08,6.08,0,0,1,0,2c-.47,4.92-1.16,9.92-2.07,14.94Z"/><path d="M829.27,948.17l-19.14-1.06,1.5,1.5a109.84,109.84,0,0,1,1.39-13c.11-.66.12-2.18.61-2.71s2-.34,2.59-.39a59.72,59.72,0,0,1,6.41-.17,58.08,58.08,0,0,1,6.32.5c.59.09,1.21,0,1.33.64a10.94,10.94,0,0,1-.2,2.79q-.69,6.59-1.88,13.1l1.85-1.05-.38-.06a1.55,1.55,0,0,0-1.85,1,1.51,1.51,0,0,0,1,1.84l.38.07a1.54,1.54,0,0,0,1.85-1q1.1-6.09,1.8-12.25c.19-1.7.69-3.76.23-5.45s-1.84-2.3-3.38-2.52a61.92,61.92,0,0,0-11.86-.55c-1,0-1.95.13-2.92.22a6.78,6.78,0,0,0-2.82.57c-1.49.91-1.72,2.85-2,4.42a117.93,117.93,0,0,0-1.53,14,1.53,1.53,0,0,0,1.5,1.5l19.14,1.06C831.2,951.28,831.19,948.28,829.27,948.17Z"/><path class="cls-3" d="M855.71,949.67l-19.17-1.06a111.41,111.41,0,0,1,1.25-14.69,4.46,4.46,0,0,1,.8-2.27,1.58,1.58,0,0,1,1-.43,60.16,60.16,0,0,1,16,.2,2.07,2.07,0,0,1,2,1.41,5.75,5.75,0,0,1,.08,2c-.33,4.92-.88,9.92-1.65,14.94Z"/><path d="M855.71,948.17l-19.17-1.06,1.5,1.5a109.94,109.94,0,0,1,1-13.07c.09-.66.06-2.15.52-2.68s1.59-.31,2.14-.36a63.64,63.64,0,0,1,6.62-.2,54.88,54.88,0,0,1,6.54.5c.41.06,1.09,0,1.33.43.37.6,0,2.13-.05,2.79q-.51,6.69-1.51,13.31l1.84-1.05-.38-.06a1.55,1.55,0,0,0-1.85,1,1.51,1.51,0,0,0,1,1.84l.38.07c.73.11,1.72-.18,1.85-1,.62-4.07,1.12-8.15,1.47-12.25.15-1.76.61-3.89,0-5.6a3.74,3.74,0,0,0-3.37-2.37,60.89,60.89,0,0,0-12.29-.52c-1,.05-1.95.13-2.91.23a5.34,5.34,0,0,0-2.55.65c-1.47,1-1.57,3.09-1.79,4.67a115.88,115.88,0,0,0-1.1,13.67,1.53,1.53,0,0,0,1.5,1.5l19.17,1.06C857.64,951.28,857.63,948.28,855.71,948.17Z"/><path class="cls-3" d="M881.2,949.67,862,948.61a111,111,0,0,1,.87-14.69,4.25,4.25,0,0,1,.73-2.27,1.54,1.54,0,0,1,1-.43,60.27,60.27,0,0,1,16.05.2,2.14,2.14,0,0,1,2,1.41,6,6,0,0,1,.14,2c-.2,4.92-.62,9.92-1.25,14.94Z"/><path d="M881.2,948.17,862,947.11l1.5,1.5q0-5.11.4-10.22a41.76,41.76,0,0,1,.54-4.86c.14-.72.12-.81.81-.88.87-.1,1.75-.18,2.63-.23a60.26,60.26,0,0,1,10.23.17c.76.08,1.54.15,2.3.29.51.1.79.11.92.65a7.9,7.9,0,0,1,0,2.06c0,.87-.08,1.74-.13,2.6q-.36,5.79-1.08,11.54l1.9-1.45-.39-.06a1.54,1.54,0,0,0-1.84,1,1.49,1.49,0,0,0,1,1.84l.39.07a1.54,1.54,0,0,0,1.9-1.45c.5-4,.88-8.08,1.11-12.14.1-1.72.49-3.81-.17-5.45s-2-2-3.54-2.25a61.82,61.82,0,0,0-12-.51c-.94,0-1.88.13-2.83.23a6.07,6.07,0,0,0-2.56.54c-1.54.93-1.64,3-1.82,4.58a111,111,0,0,0-.77,13.88,1.54,1.54,0,0,0,1.5,1.5l19.2,1.06C883.13,951.28,883.12,948.27,881.2,948.17Z"/><path class="cls-3" d="M906.7,949.67l-19.23-1.06a110.74,110.74,0,0,1,.47-14.69,4.15,4.15,0,0,1,.67-2.27,1.52,1.52,0,0,1,1-.43,60.28,60.28,0,0,1,16.05.2,2.21,2.21,0,0,1,2,1.41,5.92,5.92,0,0,1,.19,2c-.06,4.92-.35,9.92-.85,14.94Z"/><path d="M906.7,948.17l-19.23-1.06,1.5,1.5c-.11-3.38-.08-6.76.11-10.14.1-1.61.15-3.26.39-4.86,0-.2.07-.77.24-.92a2.85,2.85,0,0,1,.54,0c.87-.1,1.74-.18,2.62-.23a61.3,61.3,0,0,1,10.23.17c.77.08,1.54.16,2.3.29.3,0,.71.08.9.35.34.49.13,1.59.12,2.16,0,.87,0,1.74-.06,2.6q-.2,5.88-.78,11.74l1.9-1.45-.39-.06a1.55,1.55,0,0,0-1.84,1,1.51,1.51,0,0,0,1,1.84l.38.07a1.53,1.53,0,0,0,1.9-1.45q.6-6.06.79-12.14c.06-1.77.41-4-.37-5.61-.68-1.45-2-1.89-3.51-2.09a61.85,61.85,0,0,0-12-.51c-1,.06-2,.14-3,.25a5.07,5.07,0,0,0-2.51.64c-1.49,1-1.47,3.22-1.61,4.84a110.57,110.57,0,0,0-.36,13.5,1.54,1.54,0,0,0,1.5,1.5l19.23,1.06C908.62,951.28,908.62,948.27,906.7,948.17Z"/><path class="cls-3" d="M933.13,949.67l-19.25-1.06a109.09,109.09,0,0,1,.06-14.69,4.13,4.13,0,0,1,.61-2.27,1.46,1.46,0,0,1,1-.43,60.3,60.3,0,0,1,16,.2,2.29,2.29,0,0,1,2.09,1.41,5.89,5.89,0,0,1,.25,2c.07,4.92-.08,9.92-.44,14.94Z"/><path d="M933.13,948.17l-19.25-1.06,1.5,1.5c-.21-3.44-.27-6.89-.16-10.34a40.13,40.13,0,0,1,.27-4.9c0-.18,0-.63.2-.76-.11.09.61,0,.66,0,.92-.1,1.83-.18,2.75-.23a60.6,60.6,0,0,1,10,.2c.78.08,1.58.15,2.35.3.42.08.7.12.89.52a6,6,0,0,1,.14,2.15c0,.84,0,1.69,0,2.53q0,5.82-.45,11.63l1.9-1.45-.39-.06a1.55,1.55,0,0,0-1.84,1,1.5,1.5,0,0,0,1,1.84l.38.07a1.54,1.54,0,0,0,1.9-1.45q.43-6,.45-12c0-1.77.29-4-.46-5.64a4,4,0,0,0-3.38-2.16,63.17,63.17,0,0,0-12.14-.54c-.91,0-1.83.13-2.75.22a6.45,6.45,0,0,0-2.71.56c-1.53.93-1.54,3-1.64,4.56a111.15,111.15,0,0,0,0,13.9,1.54,1.54,0,0,0,1.5,1.5l19.25,1.06C935.06,951.27,935.06,948.27,933.13,948.17Z"/><path class="cls-3" d="M958.61,948.77l-19.27-1.06a112.11,112.11,0,0,1-.33-14.65,4,4,0,0,1,.55-2.27,1.39,1.39,0,0,1,1-.43,60.74,60.74,0,0,1,16.05.19,2.39,2.39,0,0,1,2.13,1.42,5.86,5.86,0,0,1,.29,1.95c.21,4.92.2,9.9,0,14.91Z"/><path d="M958.61,947.27l-19.27-1.06,1.5,1.5q-.44-5-.44-10c0-1.64,0-3.29.13-4.93a2.2,2.2,0,0,1,.12-.84c.1-.16.14-.07.5-.11.85-.1,1.7-.17,2.55-.23a60.72,60.72,0,0,1,10.18.16c.81.08,1.63.16,2.44.3.45.08.82.11,1,.54a5.27,5.27,0,0,1,.21,1.94c0,.91.06,1.82.08,2.73q.12,5.81-.14,11.6l1.9-1.44-.39-.06a1.55,1.55,0,0,0-1.85,1,1.52,1.52,0,0,0,1.05,1.85l.39.06a1.53,1.53,0,0,0,1.9-1.45c.18-4.06.23-8.12.12-12.19,0-1.73.16-3.83-.59-5.43s-2.08-2-3.61-2.18a62.37,62.37,0,0,0-12.14-.51c-1,.06-2,.14-2.93.25a4.59,4.59,0,0,0-2.62.75c-1.31,1.12-1.21,3.13-1.26,4.69a110.63,110.63,0,0,0,.37,13.5,1.54,1.54,0,0,0,1.5,1.5l19.27,1.06C960.54,950.38,960.53,947.38,958.61,947.27Z"/><path class="cls-3" d="M984.12,949.67l-19.31-1.06a111.54,111.54,0,0,1-.73-14.69,4,4,0,0,1,.49-2.27,1.39,1.39,0,0,1,1-.43,60.49,60.49,0,0,1,16.07.2,2.45,2.45,0,0,1,2.17,1.41,6.44,6.44,0,0,1,.35,2c.33,4.92.46,9.92.37,14.94Z"/><path d="M984.12,948.17l-19.31-1.06,1.5,1.5q-.59-5.05-.71-10.14c0-1.62-.07-3.24,0-4.86,0-.19,0-.75.12-.92l.45,0c.87-.1,1.74-.18,2.61-.23a61.57,61.57,0,0,1,10.25.17c.77.08,1.55.16,2.32.29a1.44,1.44,0,0,1,1,.44,4.37,4.37,0,0,1,.32,2.07l.15,2.6c.19,3.91.24,7.83.18,11.74l1.89-1.45-.39-.06a1.55,1.55,0,0,0-1.84,1,1.5,1.5,0,0,0,1,1.84l.4.07a1.53,1.53,0,0,0,1.9-1.45c.06-4.05,0-8.1-.21-12.14-.09-1.79.08-4-.78-5.65a4.33,4.33,0,0,0-3.6-2.05,62.37,62.37,0,0,0-12.06-.51c-1,.06-2,.14-3,.25a4.92,4.92,0,0,0-2.47.64c-1.48,1.05-1.31,3.24-1.32,4.84a112.77,112.77,0,0,0,.74,13.5,1.55,1.55,0,0,0,1.5,1.5l19.31,1.06C986.05,951.27,986.05,948.27,984.12,948.17Z"/><path class="cls-3" d="M733.56,973.57l-19.51-1.11A126.35,126.35,0,0,1,717.28,957a5.42,5.42,0,0,1,1.12-2.39,1.76,1.76,0,0,1,1.13-.45,59.94,59.94,0,0,1,16.41.21c.79.12,1.66.37,1.84,1.48a6.47,6.47,0,0,1-.17,2.06c-1,5.17-2.21,10.42-3.66,15.7Z"/><path d="M733.56,972.07,714.05,971l1.45,1.89a126.8,126.8,0,0,1,2.75-13.62,13.56,13.56,0,0,1,.91-3.07c.4-.77,1.42-.59,2.2-.66a60.57,60.57,0,0,1,6.73-.26,53.66,53.66,0,0,1,6.59.48c.61.08,1.38,0,1.63.54s-.16,1.33-.23,1.73c-.12.59-.23,1.18-.36,1.77-.91,4.53-2,9-3.22,13.48l1.85-1-.39-.06c-1.89-.32-2.7,2.57-.8,2.89l.39.06a1.52,1.52,0,0,0,1.84-1.05c1.14-4.16,2.17-8.35,3-12.58.38-1.83,1.2-4.1.8-6-.36-1.68-1.75-2.36-3.32-2.59a60.15,60.15,0,0,0-12.29-.56c-1.06.06-2.12.14-3.17.26a6.26,6.26,0,0,0-2.53.55c-1.51.86-1.92,2.85-2.33,4.39a128.19,128.19,0,0,0-3,14.53,1.54,1.54,0,0,0,1.45,1.9l19.51,1.11C735.49,975.18,735.48,972.18,733.56,972.07Z"/><path class="cls-3" d="M761.63,973.57l-19.54-1.11A122.78,122.78,0,0,1,744.88,957a5.14,5.14,0,0,1,1-2.39,1.71,1.71,0,0,1,1.12-.45,60,60,0,0,1,16.41.21c.79.12,1.67.37,1.88,1.48a6.09,6.09,0,0,1-.11,2.06c-.84,5.17-1.91,10.42-3.21,15.7Z"/><path d="M761.63,972.07,742.09,971l1.5,1.5A122.7,122.7,0,0,1,746,958.74a13.45,13.45,0,0,1,.69-2.58c.4-.84,1.8-.63,2.62-.7a60.27,60.27,0,0,1,6.72-.21,53.87,53.87,0,0,1,6.59.53c.83.12,1.26,0,1.25.88a18.45,18.45,0,0,1-.46,3c-.79,4.54-1.75,9.06-2.84,13.54l1.84-1-.39-.06c-1.89-.32-2.7,2.57-.79,2.89l.38.06a1.53,1.53,0,0,0,1.85-1.05q1.54-6.28,2.69-12.67c.32-1.8,1.05-4.05.63-5.88a3.46,3.46,0,0,0-3.15-2.56,59,59,0,0,0-12.74-.58c-1.06.07-2.12.16-3.17.27a4.78,4.78,0,0,0-2.56.74c-1.39,1-1.68,3-2.06,4.6a129.44,129.44,0,0,0-2.52,14.51c-.1.83.77,1.45,1.5,1.5l19.54,1.11C763.56,975.18,763.56,972.18,761.63,972.07Z"/><path class="cls-3" d="M787.77,973.57l-19.57-1.11A121.4,121.4,0,0,1,770.57,957a5.08,5.08,0,0,1,1-2.39,1.71,1.71,0,0,1,1.11-.45,60.06,60.06,0,0,1,16.42.21c.8.12,1.68.37,1.92,1.48a6.54,6.54,0,0,1,0,2.06c-.7,5.17-1.63,10.42-2.79,15.7Z"/><path d="M787.77,972.07,768.2,971l1.5,1.5a119.73,119.73,0,0,1,2-13.72c.16-.74.22-2.28.77-2.87s1.72-.35,2.37-.41a60.81,60.81,0,0,1,6.75-.21,54.52,54.52,0,0,1,6.64.53c.54.08,1,0,1.3.5s-.07,1.3-.12,1.69l-.24,1.73c-.67,4.54-1.51,9-2.49,13.54l1.85-1-.39-.06c-1.89-.32-2.7,2.57-.8,2.89l.39.06a1.53,1.53,0,0,0,1.85-1.05q1.36-6.28,2.35-12.67c.28-1.86,1-4.17.44-6-.44-1.59-1.83-2.22-3.34-2.44a60.9,60.9,0,0,0-12.44-.56c-1,.06-2,.15-3.08.26a5.58,5.58,0,0,0-2.63.66c-1.48,1-1.74,3.1-2.07,4.7a128.78,128.78,0,0,0-2.14,14.51,1.52,1.52,0,0,0,1.5,1.5l19.57,1.11C789.7,975.18,789.69,972.18,787.77,972.07Z"/><path class="cls-3" d="M813.91,973.57l-19.61-1.11a122.12,122.12,0,0,1,2-15.43,4.94,4.94,0,0,1,.92-2.39,1.63,1.63,0,0,1,1.1-.45,60.08,60.08,0,0,1,16.42.21,2,2,0,0,1,2,1.48,6.19,6.19,0,0,1,0,2.06c-.56,5.17-1.35,10.42-2.36,15.7Z"/><path d="M813.91,972.07,794.3,971l1.5,1.5a119.73,119.73,0,0,1,1.67-13.75c.13-.73.15-2.25.67-2.84s1.7-.35,2.34-.41a62.17,62.17,0,0,1,7-.21,46.26,46.26,0,0,1,6.86.6c.6.1.87.06,1,.68a13.42,13.42,0,0,1-.28,3.09c-.53,4.56-1.26,9.1-2.12,13.62l1.85-1-.4-.06c-1.88-.32-2.7,2.57-.79,2.89l.39.06a1.51,1.51,0,0,0,1.84-1.05q1.2-6.22,2-12.51c.39-3.08,1.62-7.83-2.64-8.57a57.16,57.16,0,0,0-12.87-.62c-1,.06-2.05.15-3.07.26a5.48,5.48,0,0,0-2.62.66c-1.53,1-1.71,3.23-2,4.87a127.84,127.84,0,0,0-1.74,14.34,1.53,1.53,0,0,0,1.5,1.5l19.61,1.11C815.83,975.18,815.83,972.18,813.91,972.07Z"/><path class="cls-3" d="M839.07,973.57l-19.63-1.11A121.29,121.29,0,0,1,821,957a4.81,4.81,0,0,1,.86-2.39,1.58,1.58,0,0,1,1.08-.45,60.17,60.17,0,0,1,16.43.21,2.08,2.08,0,0,1,2,1.48,6.12,6.12,0,0,1,.06,2.06c-.43,5.17-1.08,10.42-2,15.7Z"/><path d="M839.07,972.07,819.44,971l1.5,1.5a117.15,117.15,0,0,1,1.3-13.75c.11-.72.1-2.25.59-2.84s2-.39,2.68-.44a60,60,0,0,1,6.57-.18,56.23,56.23,0,0,1,6.48.53c.64.1,1.29,0,1.41.75a12.36,12.36,0,0,1-.19,3.09q-.63,6.84-1.76,13.62l1.85-1-.4-.06c-1.89-.31-2.7,2.58-.8,2.89l.4.06a1.51,1.51,0,0,0,1.84-1.05c.7-4.22,1.28-8.46,1.71-12.72.18-1.83.69-4,.2-5.83a3.65,3.65,0,0,0-3.25-2.56,60.8,60.8,0,0,0-12.57-.59c-1,.06-2,.14-3,.24a6.35,6.35,0,0,0-2.65.57c-1.59,1-1.76,3.13-2,4.77a124.39,124.39,0,0,0-1.41,14.55,1.53,1.53,0,0,0,1.5,1.5l19.63,1.11C841,975.18,841,972.18,839.07,972.07Z"/><path class="cls-3" d="M865.21,973.57l-19.66-1.11A118.89,118.89,0,0,1,846.69,957a4.59,4.59,0,0,1,.8-2.39,1.54,1.54,0,0,1,1.07-.45,60.27,60.27,0,0,1,16.44.21,2.16,2.16,0,0,1,2,1.48,6.64,6.64,0,0,1,.1,2.06c-.28,5.17-.8,10.42-1.54,15.7Z"/><path d="M865.21,972.07,845.55,971l1.5,1.5c0-3.49.22-7,.55-10.44.17-1.7.32-3.41.62-5.09a3.77,3.77,0,0,1,.21-.94c.15-.31.1-.23.4-.33a11.13,11.13,0,0,1,2.71-.26,60.31,60.31,0,0,1,10.75.15c.81.09,1.63.17,2.43.32.51.09.81.12.93.66a8.79,8.79,0,0,1,0,2.23l-.18,2.66q-.45,5.93-1.26,11.82l1.84-1-.39-.06c-1.89-.31-2.7,2.58-.8,2.89l.4.06c.71.12,1.72-.18,1.84-1.05.57-4.12,1-8.25,1.35-12.4.14-1.9.58-4.12.12-6a3.7,3.7,0,0,0-3.33-2.72,61,61,0,0,0-12.59-.59c-1.06.06-2.13.15-3.19.26a5.35,5.35,0,0,0-2.58.66c-1.55,1.07-1.59,3.35-1.8,5a120.23,120.23,0,0,0-1,14.19,1.53,1.53,0,0,0,1.5,1.5l19.66,1.11C867.14,975.18,867.13,972.18,865.21,972.07Z"/><path class="cls-3" d="M892.31,973.57l-19.69-1.11a118.55,118.55,0,0,1,.72-15.43,4.56,4.56,0,0,1,.72-2.39,1.52,1.52,0,0,1,1.06-.45,60.37,60.37,0,0,1,16.45.21,2.24,2.24,0,0,1,2.08,1.48,6.59,6.59,0,0,1,.16,2.06c-.14,5.17-.51,10.42-1.1,15.7Z"/><path d="M892.31,972.07,872.62,971l1.5,1.5q-.09-5.34.28-10.65a50.19,50.19,0,0,1,.5-5.21c0-.23.07-.72.25-.89s.38-.07.6-.09c1-.11,1.93-.2,2.89-.26a60.24,60.24,0,0,1,10.49.22c.89.1,2.93-.06,3.15,1a9.84,9.84,0,0,1,0,2.17c0,.89-.07,1.77-.11,2.66q-.28,6.12-1,12.22l1.9-1.45-.4-.06a1.53,1.53,0,0,0-1.84,1,1.51,1.51,0,0,0,1,1.85l.4.06a1.53,1.53,0,0,0,1.9-1.44c.46-4.2.8-8.41,1-12.63.08-1.78.45-3.94-.16-5.67a3.91,3.91,0,0,0-3.48-2.45,62.47,62.47,0,0,0-12.3-.57c-1,.06-2.07.14-3.1.25a5.7,5.7,0,0,0-2.76.68c-1.49,1-1.51,3.2-1.68,4.82a121.25,121.25,0,0,0-.6,14.39,1.54,1.54,0,0,0,1.5,1.5l19.69,1.11C894.24,975.18,894.24,972.18,892.31,972.07Z"/><path class="cls-3" d="M918.45,973.57l-19.73-1.11A118.47,118.47,0,0,1,899,957a4.46,4.46,0,0,1,.66-2.39,1.48,1.48,0,0,1,1-.45,60.39,60.39,0,0,1,16.45.21,2.31,2.31,0,0,1,2.12,1.48,6.56,6.56,0,0,1,.22,2.06c0,5.17-.23,10.42-.68,15.7Z"/><path d="M918.45,972.07,898.72,971l1.5,1.5c-.15-3.59-.16-7.19,0-10.78.07-1.69.11-3.43.35-5.12,0-.21,0-.69.21-.85s.33-.07.55-.09c.94-.11,1.88-.19,2.83-.25a59.92,59.92,0,0,1,10.63.22c.86.09,2.89-.06,3.15,1a9.09,9.09,0,0,1,.08,2.15c0,.93,0,1.86,0,2.79q-.12,6.06-.64,12.11l1.9-1.45-.4-.06a1.54,1.54,0,0,0-1.85,1,1.52,1.52,0,0,0,1,1.85l.4.06a1.53,1.53,0,0,0,1.9-1.44q.52-6.24.65-12.51c0-1.83.35-4-.3-5.79a4,4,0,0,0-3.51-2.45,61.43,61.43,0,0,0-12.42-.56c-1,.06-2,.14-3,.24a5.52,5.52,0,0,0-2.72.68c-1.53,1.07-1.48,3.34-1.6,5a122.66,122.66,0,0,0-.21,14.22,1.54,1.54,0,0,0,1.5,1.5l19.73,1.11C920.38,975.18,920.37,972.18,918.45,972.07Z"/><path class="cls-3" d="M735.48,883.3l-17.71-.91a97.51,97.51,0,0,1,2.88-12.72,4.29,4.29,0,0,1,1-2,1.83,1.83,0,0,1,1-.37,60.38,60.38,0,0,1,14.92.17c.71.1,1.5.31,1.67,1.23a4.85,4.85,0,0,1-.15,1.7q-1.33,6.41-3.3,12.94Z"/><path d="M735.48,881.8l-17.71-.91,1.45,1.89a96.75,96.75,0,0,1,2.53-11.53c.17-.6.31-1.93.82-2.34s1.63-.24,2.19-.28c1.9-.15,3.81-.21,5.71-.18a54.61,54.61,0,0,1,5.57.35,6.61,6.61,0,0,1,1.83.27,7.8,7.8,0,0,0-.19.95c-.08.4-.17.8-.26,1.2-.85,3.95-1.88,7.87-3,11.74l1.85-1.05-.35,0a1.55,1.55,0,0,0-1.85,1,1.51,1.51,0,0,0,1.05,1.84l.35,0a1.53,1.53,0,0,0,1.84-1q1.63-5.41,2.87-10.94c.34-1.53,1.05-3.43.43-5s-2-1.74-3.35-1.92a59.75,59.75,0,0,0-10.61-.43c-1.58.08-3.61,0-5.09.56s-2.06,2.31-2.49,3.79A98.39,98.39,0,0,0,716.32,882a1.53,1.53,0,0,0,1.45,1.9l17.71.91C737.41,884.9,737.4,881.9,735.48,881.8Z"/><path class="cls-3" d="M694.52,903.88l-18.08-1A104.55,104.55,0,0,1,680,889.6a4.67,4.67,0,0,1,1.12-2.06,1.79,1.79,0,0,1,1.07-.39,59.66,59.66,0,0,1,15.25.18c.73.1,1.53.32,1.66,1.28a5.54,5.54,0,0,1-.24,1.78c-1.11,4.46-2.44,9-4,13.54Z"/><path d="M694.52,902.38l-18.08-1,1.45,1.89a106.5,106.5,0,0,1,3-11.65,10.75,10.75,0,0,1,.93-2.6c.45-.68,1.34-.52,2.11-.58a59.15,59.15,0,0,1,6.24-.22,56.68,56.68,0,0,1,5.83.38,7.55,7.55,0,0,1,1.61.24c.26.34-.48,2.18-.58,2.58-1,4.07-2.27,8.09-3.61,12.07l1.84-1-.36-.06a1.55,1.55,0,0,0-1.84,1.05,1.51,1.51,0,0,0,1,1.84l.35.06a1.56,1.56,0,0,0,1.85-1c1.25-3.71,2.39-7.45,3.39-11.23.41-1.56,1.25-3.57.77-5.18s-1.86-1.93-3.25-2.12a59.88,59.88,0,0,0-11.12-.47c-.94,0-1.88.12-2.82.2a7.35,7.35,0,0,0-2.47.45c-1.48.73-2,2.39-2.48,3.84a108.84,108.84,0,0,0-3.35,12.7,1.54,1.54,0,0,0,1.45,1.9l18.08,1C696.44,905.48,696.44,902.48,694.52,902.38Z"/><path class="cls-3" d="M782.66,883.24l-17.75-.92a93.26,93.26,0,0,1,2.2-12.72,4,4,0,0,1,.91-2,1.65,1.65,0,0,1,1-.38,60.49,60.49,0,0,1,14.93.18c.72.1,1.52.3,1.74,1.22a4.7,4.7,0,0,1-.07,1.7c-.66,4.27-1.53,8.6-2.6,12.94Z"/><path d="M782.66,881.74l-17.75-.92,1.5,1.5a90.14,90.14,0,0,1,2-11.53c.08-.34.26-1.78.54-2s1-.13,1.32-.16l1.2-.09c1.91-.14,3.83-.19,5.74-.15s3.76.17,5.63.39c.34,0,1.33.1,1.44.27.27.45-.24,2-.31,2.46q-1,5.73-2.36,11.38l1.85-1-.36-.05a1.55,1.55,0,0,0-1.84,1.05,1.5,1.5,0,0,0,1,1.84l.35.06a1.54,1.54,0,0,0,1.84-1q1.32-5.36,2.26-10.8c.26-1.52.85-3.41.32-4.92s-2-1.91-3.47-2.09a59.42,59.42,0,0,0-10.75-.43c-1.54.08-3.51,0-5,.56-1.62.66-2,2.44-2.38,4a97,97,0,0,0-2.07,12.33c-.09.83.76,1.46,1.5,1.5l17.75.92C784.59,884.84,784.59,881.84,782.66,881.74Z"/><path class="cls-3" d="M806.38,883.24l-17.78-.92a90.73,90.73,0,0,1,1.86-12.72,3.82,3.82,0,0,1,.85-2,1.63,1.63,0,0,1,1-.38,60.43,60.43,0,0,1,14.92.18c.73.1,1.54.3,1.78,1.22a4.64,4.64,0,0,1,0,1.7c-.55,4.27-1.3,8.6-2.26,12.94Z"/><path d="M806.38,881.74l-17.78-.92,1.5,1.5a87.75,87.75,0,0,1,1.56-11.17c.09-.45.2-2.13.65-2.4a3.68,3.68,0,0,1,.8-.08c.53,0,1.06-.1,1.6-.13q2.87-.21,5.73-.15t5.64.39c.29,0,1.29,0,1.51.28s-.17,1.84-.23,2.25c-.53,3.89-1.24,7.75-2.08,11.58l1.85-1-.36-.05a1.55,1.55,0,0,0-1.84,1.05,1.51,1.51,0,0,0,1.05,1.84l.35.06a1.54,1.54,0,0,0,1.85-1c.79-3.64,1.47-7.31,2-11,.22-1.55.82-3.57,0-5.05a3.75,3.75,0,0,0-3.16-1.74,60.72,60.72,0,0,0-10.95-.45c-.87,0-1.73.11-2.59.18a6.88,6.88,0,0,0-2.59.48c-1.5.78-1.8,2.54-2.11,4a95.9,95.9,0,0,0-1.71,12.16,1.52,1.52,0,0,0,1.5,1.5l17.78.92C808.31,884.84,808.3,881.84,806.38,881.74Z"/><path class="cls-3" d="M829.21,883.24l-17.8-.92a89.92,89.92,0,0,1,1.53-12.72,3.7,3.7,0,0,1,.8-2,1.58,1.58,0,0,1,1-.38,60.54,60.54,0,0,1,14.93.18c.73.1,1.54.3,1.8,1.22a4.82,4.82,0,0,1,0,1.7c-.44,4.27-1.08,8.6-1.93,12.94Z"/><path d="M829.21,881.74l-17.8-.92,1.5,1.5a87.84,87.84,0,0,1,1.33-11.55c.09-.48.13-1.66.49-2a5.43,5.43,0,0,1,.78-.08l1.55-.13q2.88-.21,5.78-.15t5.69.39c.3,0,1.27,0,1.5.28s-.11,2-.16,2.42c-.42,3.83-1,7.63-1.75,11.41l1.84-1-.35-.05a1.55,1.55,0,0,0-1.85,1.05,1.51,1.51,0,0,0,1,1.84l.36.06a1.53,1.53,0,0,0,1.84-1q1.05-5.41,1.71-10.88c.18-1.56.69-3.5,0-5s-2-1.76-3.46-1.94a58.54,58.54,0,0,0-10.67-.43c-.91,0-1.81.1-2.72.19a6.71,6.71,0,0,0-2.55.47c-1.37.73-1.7,2.26-2,3.67a94.26,94.26,0,0,0-1.47,12.54,1.52,1.52,0,0,0,1.5,1.5l17.8.92C831.14,884.84,831.13,881.84,829.21,881.74Z"/><path class="cls-3" d="M853.8,883.24,836,882.32a90.74,90.74,0,0,1,1.18-12.72,3.66,3.66,0,0,1,.74-2,1.55,1.55,0,0,1,1-.38,60.64,60.64,0,0,1,14.94.18,1.93,1.93,0,0,1,1.84,1.22,4.78,4.78,0,0,1,.07,1.7c-.32,4.27-.84,8.6-1.56,12.94Z"/><path d="M853.8,881.74,836,880.82l1.5,1.5a89.26,89.26,0,0,1,1-11.55c.06-.38.1-1.77.41-2a5,5,0,0,1,.77-.08l1.55-.13c1.92-.14,3.85-.19,5.77-.15s3.82.17,5.71.39c.3,0,1.28,0,1.52.28s0,1.94-.07,2.42q-.46,5.74-1.42,11.41l1.84-1-.35-.05a1.55,1.55,0,0,0-1.85,1.05,1.51,1.51,0,0,0,1,1.84l.36.06a1.52,1.52,0,0,0,1.84-1q.9-5.41,1.42-10.88c.14-1.57.58-3.51-.1-5s-2-1.76-3.49-1.94a58.76,58.76,0,0,0-10.69-.43c-.9,0-1.8.1-2.7.19a6.46,6.46,0,0,0-2.55.47c-1.37.73-1.66,2.26-1.88,3.67a94.11,94.11,0,0,0-1.14,12.54,1.52,1.52,0,0,0,1.5,1.5l17.83.92C855.73,884.84,855.72,881.84,853.8,881.74Z"/><path class="cls-3" d="M878.39,883.24l-17.86-.92a88.81,88.81,0,0,1,.83-12.72,3.55,3.55,0,0,1,.69-2,1.51,1.51,0,0,1,1-.38,60.66,60.66,0,0,1,14.94.18,2,2,0,0,1,1.87,1.22,4.75,4.75,0,0,1,.12,1.7c-.2,4.27-.6,8.6-1.2,12.94Z"/><path d="M878.39,881.74l-17.86-.92,1.5,1.5a93.67,93.67,0,0,1,.68-11.6c0-.42,0-1.6.35-1.94s1.75-.2,2.22-.23c1.87-.14,3.75-.2,5.63-.17s3.72.16,5.57.36c.36,0,1.61,0,1.89.32s.07,1.57,0,2.05q-.31,5.91-1.12,11.78l1.85-1-.36-.05a1.55,1.55,0,0,0-1.85,1.05,1.51,1.51,0,0,0,1,1.84l.36.06c.71.1,1.72-.17,1.84-1,.51-3.68.91-7.37,1.14-11.07.1-1.56.48-3.54-.31-5s-2.21-1.61-3.61-1.79a61.07,61.07,0,0,0-10.81-.39c-.88,0-1.76.11-2.64.2a6,6,0,0,0-2.44.5c-1.34.79-1.53,2.42-1.71,3.81a91.13,91.13,0,0,0-.78,12.35,1.54,1.54,0,0,0,1.5,1.5l17.86.92C880.32,884.84,880.31,881.84,878.39,881.74Z"/><path class="cls-3" d="M901.22,883.24l-17.88-.92a88.56,88.56,0,0,1,.5-12.72,3.45,3.45,0,0,1,.64-2,1.46,1.46,0,0,1,1-.38,60.67,60.67,0,0,1,14.94.18,2.06,2.06,0,0,1,1.91,1.22,4.74,4.74,0,0,1,.16,1.7c-.09,4.27-.38,8.6-.87,12.94Z"/><path d="M901.22,881.74l-17.88-.92,1.5,1.5a89.83,89.83,0,0,1,.38-11.6c0-.46,0-1.65.32-2-.22.12-.12.12.27,0l.76-.07,1.5-.12q2.89-.19,5.81-.12t5.76.43c.47.06,1.08,0,1.28.48a6.7,6.7,0,0,1,0,2.32q-.18,5.85-.84,11.66l1.9-1.45-.36-.05a1.54,1.54,0,0,0-1.84,1.05,1.5,1.5,0,0,0,1,1.84l.36.06a1.54,1.54,0,0,0,1.9-1.45c.4-3.57.68-7.15.81-10.74.06-1.52.36-3.37-.37-4.78s-2.08-1.71-3.51-1.89a60.08,60.08,0,0,0-10.81-.43c-.88,0-1.76.11-2.63.19a6.47,6.47,0,0,0-2.51.47c-1.42.77-1.6,2.41-1.76,3.86a91,91,0,0,0-.46,12.35,1.54,1.54,0,0,0,1.5,1.5l17.88.92C903.15,884.84,903.15,881.84,901.22,881.74Z"/><path class="cls-3" d="M926,883.12l-17.9-.92a88.37,88.37,0,0,1,.14-12.71,3.49,3.49,0,0,1,.58-2,1.5,1.5,0,0,1,.95-.37,60.77,60.77,0,0,1,15,.17,2.13,2.13,0,0,1,1.94,1.23,4.7,4.7,0,0,1,.21,1.7c0,4.26-.13,8.59-.5,12.93Z"/><path d="M926,881.62l-17.9-.92,1.5,1.5a90.27,90.27,0,0,1,.06-11.63c0-.38,0-1.82.23-2a9.49,9.49,0,0,1,1,0l1.46-.12c1.89-.13,3.78-.18,5.67-.13s3.76.18,5.64.4c.41,0,1.3,0,1.6.36s.14,1.78.14,2.3q0,5.92-.51,11.83l1.89-1.44-.36-.06a1.55,1.55,0,0,0-1.84,1.05,1.51,1.51,0,0,0,1,1.85l.37,0a1.54,1.54,0,0,0,1.9-1.45c.3-3.63.48-7.27.5-10.92,0-1.5.25-3.37-.54-4.72s-2.36-1.63-3.83-1.81a61.18,61.18,0,0,0-10.57-.38c-.85,0-1.71.11-2.56.19a6.1,6.1,0,0,0-2.58.51c-1.38.85-1.48,2.55-1.59,4a89.88,89.88,0,0,0-.1,12.17,1.54,1.54,0,0,0,1.5,1.5l17.9.92C927.93,884.72,927.93,881.72,926,881.62Z"/><path class="cls-3" d="M950.59,883.12l-17.93-.92a90,90,0,0,1-.21-12.71,3.33,3.33,0,0,1,.53-2,1.41,1.41,0,0,1,.93-.37,60.88,60.88,0,0,1,15,.17,2.2,2.2,0,0,1,2,1.23,4.93,4.93,0,0,1,.26,1.7c.15,4.26.1,8.59-.15,12.93Z"/><path d="M950.59,881.62l-17.93-.92,1.5,1.5a90.29,90.29,0,0,1-.26-11.63c0-.36-.13-1.86.23-2.12-.35.25.8.09.88.08.49,0,1-.09,1.46-.12,1.94-.14,3.9-.18,5.84-.13a56.74,56.74,0,0,1,5.83.44c.37,0,1,0,1.29.34.38.46.19,1.73.21,2.28q.15,5.91-.19,11.83l1.9-1.44-.36-.06a1.57,1.57,0,0,0-1.85,1.05,1.52,1.52,0,0,0,1.05,1.85l.36,0a1.53,1.53,0,0,0,1.9-1.45c.21-3.63.28-7.28.21-10.92,0-1.54.16-3.44-.71-4.8s-2.1-1.51-3.44-1.68a60.64,60.64,0,0,0-10.94-.43c-.86,0-1.71.11-2.56.19a6.22,6.22,0,0,0-2.46.46c-1.47.81-1.56,2.55-1.63,4a89.89,89.89,0,0,0,.24,12.17,1.54,1.54,0,0,0,1.5,1.5l17.93.92C952.52,884.72,952.51,881.72,950.59,881.62Z"/><path class="cls-3" d="M974.3,883.12l-17.95-.92a88.77,88.77,0,0,1-.56-12.71,3.25,3.25,0,0,1,.48-2,1.38,1.38,0,0,1,.92-.37,60.89,60.89,0,0,1,15,.17,2.28,2.28,0,0,1,2,1.23,4.93,4.93,0,0,1,.3,1.7c.27,4.26.34,8.59.2,12.93Z"/><path d="M974.3,881.62l-17.95-.92,1.5,1.5a90.33,90.33,0,0,1-.58-11.63c0-.39-.19-1.82.16-2.12-.34.3.74.09.86.08.48,0,1-.09,1.45-.12,1.89-.13,3.77-.18,5.66-.13s3.78.18,5.66.4c.41,0,1.36,0,1.67.36s.27,1.72.3,2.3q.32,5.91.13,11.83l1.9-1.44-.36-.06a1.57,1.57,0,0,0-1.85,1.05,1.52,1.52,0,0,0,1,1.85l.36,0a1.53,1.53,0,0,0,1.9-1.45c.11-3.64.09-7.28-.09-10.92-.07-1.5.07-3.39-.75-4.72s-2.4-1.63-3.9-1.81a61.33,61.33,0,0,0-10.58-.38c-.85,0-1.7.11-2.55.19a6.06,6.06,0,0,0-2.57.51c-1.37.85-1.41,2.56-1.44,4a89.93,89.93,0,0,0,.57,12.17,1.54,1.54,0,0,0,1.5,1.5l17.95.92C976.23,884.72,976.22,881.72,974.3,881.62Z"/><path class="cls-3" d="M998,883.12l-18-.92a90.75,90.75,0,0,1-.9-12.71,3.17,3.17,0,0,1,.43-2,1.34,1.34,0,0,1,.91-.37,61,61,0,0,1,15,.17,2.34,2.34,0,0,1,2,1.23,5.2,5.2,0,0,1,.36,1.7c.38,4.26.56,8.59.54,12.93Z"/><path d="M998,881.62l-18-.92,1.45,1.1a86.11,86.11,0,0,1-.84-11.57,11.09,11.09,0,0,1,0-1.29,1.07,1.07,0,0,1,.05-.4c0-.15,0-.12-.07.08a19.91,19.91,0,0,1,2.45-.22q2.89-.2,5.8-.12c1.94.06,3.88.2,5.81.44.35,0,1.06,0,1.35.32.44.47.34,1.75.38,2.33.32,3.93.46,7.86.45,11.8l1.9-1.44-.36-.06a1.56,1.56,0,0,0-1.85,1.05,1.52,1.52,0,0,0,1.05,1.85l.36,0a1.53,1.53,0,0,0,1.9-1.45c0-3.68-.11-7.37-.39-11-.11-1.53,0-3.38-.94-4.7s-2.37-1.52-3.85-1.7a60.64,60.64,0,0,0-10.86-.36c-.87,0-1.74.12-2.61.2a4.85,4.85,0,0,0-2.37.6c-1.29.9-1.22,2.67-1.21,4.07a94.84,94.84,0,0,0,.94,12.37,1.52,1.52,0,0,0,1.45,1.1l18,.92C999.94,884.72,999.93,881.72,998,881.62Z"/><path class="cls-3" d="M1021.71,883.12l-18-.92a89.91,89.91,0,0,1-1.23-12.71,3.18,3.18,0,0,1,.37-2,1.3,1.3,0,0,1,.9-.37,61,61,0,0,1,15,.17,2.42,2.42,0,0,1,2.07,1.23,5.23,5.23,0,0,1,.4,1.7c.49,4.26.79,8.59.89,12.93Z"/><path d="M1021.71,881.62l-18-.92,1.45,1.1a89.29,89.29,0,0,1-1.15-11.2c0-.47,0-1,0-1.43,0-.17,0-.35,0-.52.11-.37.09-.37-.08,0a23.17,23.17,0,0,1,2.51-.22q3-.2,5.94-.11c1.93.06,3.87.2,5.78.45.51.06,1.09.06,1.36.56a6.84,6.84,0,0,1,.34,2.26q.6,5.79.74,11.61l1.9-1.44-.37-.06a1.55,1.55,0,0,0-1.84,1.05,1.52,1.52,0,0,0,1.05,1.85l.36,0a1.52,1.52,0,0,0,1.9-1.45c-.09-3.62-.3-7.25-.67-10.86-.15-1.54-.11-3.43-1-4.78s-2.2-1.59-3.6-1.77a62.15,62.15,0,0,0-11.16-.41q-1.33.07-2.67.21a5.28,5.28,0,0,0-2.22.48c-1.49.9-1.34,2.89-1.28,4.38a92.27,92.27,0,0,0,1.26,12.18,1.51,1.51,0,0,0,1.44,1.1l18,.92C1023.64,884.72,1023.64,881.72,1021.71,881.62Z"/><path class="cls-3" d="M1049.81,883.12l-18-.92a91,91,0,0,1-1.64-12.71,3.12,3.12,0,0,1,.31-2,1.26,1.26,0,0,1,.89-.37,61.11,61.11,0,0,1,15,.17,2.53,2.53,0,0,1,2.11,1.23,5.53,5.53,0,0,1,.45,1.7c.63,4.26,1.06,8.59,1.3,12.93Z"/><path d="M1049.81,881.62l-18-.92,1.45,1.1a89.5,89.5,0,0,1-1.54-11.55c0-.46-.08-.93-.07-1.39,0-.74.11-.23-.12-.24.94,0,1.94-.19,2.88-.24,1.85-.12,3.71-.15,5.56-.09s3.74.19,5.6.43c.55.06,1.29,0,1.59.58a6.28,6.28,0,0,1,.41,2.11c.56,3.9.92,7.83,1.14,11.76l1.9-1.44-.37-.06a1.55,1.55,0,0,0-1.84,1.05,1.52,1.52,0,0,0,1,1.85l.37,0a1.52,1.52,0,0,0,1.9-1.45q-.3-5.5-1-11c-.21-1.58-.22-3.47-1.2-4.8s-2.29-1.46-3.71-1.64a61.69,61.69,0,0,0-10.78-.4c-.89,0-1.78.12-2.67.2a5.85,5.85,0,0,0-2.41.5c-1.44.88-1.29,2.77-1.19,4.21a94.91,94.91,0,0,0,1.65,12.35,1.52,1.52,0,0,0,1.44,1.1l18,.92C1051.74,884.72,1051.74,881.72,1049.81,881.62Z"/><path class="cls-3" d="M1074.34,883.17l-18-.91a92.54,92.54,0,0,1-2-12.72,3.09,3.09,0,0,1,.25-2,1.23,1.23,0,0,1,.89-.38,61.14,61.14,0,0,1,15,.18,2.59,2.59,0,0,1,2.14,1.22,5.32,5.32,0,0,1,.5,1.7q1.13,6.4,1.66,12.94Z"/><path d="M1074.34,881.67l-18-.91,1.44,1.1a91.88,91.88,0,0,1-1.83-11.17c-.05-.49-.11-1-.13-1.46a4.42,4.42,0,0,1,0-.63c.06-.27,0-.25-.18.07a14.87,14.87,0,0,0,2.57-.22c1.9-.13,3.8-.16,5.7-.11s3.85.19,5.76.43c.47.05,1.17,0,1.53.41.52.53.51,1.8.63,2.48q1,5.75,1.44,11.57l1.9-1.45-.37,0a1.54,1.54,0,0,0-1.84,1,1.5,1.5,0,0,0,1,1.85l.37,0c.88.13,2-.36,1.9-1.44q-.46-5.54-1.32-11c-.26-1.63-.33-3.62-1.44-4.94-.94-1.12-2.27-1.32-3.64-1.49a62.06,62.06,0,0,0-11.07-.38c-.85.05-1.69.12-2.54.2a4.68,4.68,0,0,0-2.38.6c-1.35,1-1.08,2.85-.94,4.29a95.78,95.78,0,0,0,2,12.15,1.54,1.54,0,0,0,1.45,1.11l18,.91C1076.27,884.77,1076.27,881.77,1074.34,881.67Z"/><path class="cls-3" d="M1098.93,883.17l-18.08-.91a92.41,92.41,0,0,1-2.35-12.72,3,3,0,0,1,.2-2,1.15,1.15,0,0,1,.87-.38,61.24,61.24,0,0,1,15,.18,2.67,2.67,0,0,1,2.17,1.22,5.38,5.38,0,0,1,.55,1.7q1.31,6.4,2,12.94Z"/><path d="M1098.93,881.67l-18.08-.91,1.44,1.1a94.13,94.13,0,0,1-2.2-11.53c0-.37-.09-.73-.12-1.1q0-.32,0-.63c0-.28,0-.25-.21.07a14.68,14.68,0,0,0,2.63-.23c1.88-.12,3.77-.15,5.65-.1s3.82.19,5.72.42a2.86,2.86,0,0,1,1.58.42c.52.5.55,1.63.68,2.31q1.15,5.84,1.81,11.74l1.9-1.45-.37,0a1.56,1.56,0,0,0-1.85,1,1.51,1.51,0,0,0,1,1.85l.37,0c.85.12,2-.36,1.9-1.44-.41-3.73-1-7.45-1.64-11.13-.3-1.6-.43-3.54-1.54-4.82a5.26,5.26,0,0,0-3.68-1.49,61.44,61.44,0,0,0-11.18-.37c-.86.05-1.73.12-2.59.21a4.28,4.28,0,0,0-2.2.58c-1.31,1-1,2.73-.88,4.12a98.66,98.66,0,0,0,2.31,12.32,1.54,1.54,0,0,0,1.45,1.11l18.08.91C1100.86,884.77,1100.86,881.77,1098.93,881.67Z"/><path class="cls-3" d="M1052.43,904.62l-18.48-1a98.62,98.62,0,0,1-1.71-13.33,3.37,3.37,0,0,1,.31-2.07,1.23,1.23,0,0,1,.92-.39,60.58,60.58,0,0,1,15.33.18,2.55,2.55,0,0,1,2.16,1.28,5.5,5.5,0,0,1,.47,1.78q1,6.72,1.37,13.57Z"/><path d="M1052.43,903.12l-18.48-1,1.45,1.1a97.11,97.11,0,0,1-1.58-11.76c0-.5-.08-1-.09-1.5q0-.33,0-.66c.08-.28,0-.28-.11,0,.88-.09,1.76-.18,2.64-.24a58,58,0,0,1,6-.11,51.54,51.54,0,0,1,6.09.49c.52.08,1,.11,1.28.6a7.89,7.89,0,0,1,.48,2.61c.55,4,.92,8,1.15,12l1.9-1.45-.37-.05a1.55,1.55,0,0,0-1.85,1.05,1.51,1.51,0,0,0,1,1.84l.38.06a1.52,1.52,0,0,0,1.89-1.45q-.32-5.71-1.07-11.39c-.2-1.57-.22-3.45-1-4.85s-2.28-1.75-3.79-2a62.18,62.18,0,0,0-11.33-.43c-.93.05-1.87.12-2.8.22a4.62,4.62,0,0,0-2.42.62c-1.38,1-1.14,2.93-1,4.4a103.44,103.44,0,0,0,1.71,12.76,1.51,1.51,0,0,0,1.44,1.1l18.48,1C1054.36,906.22,1054.35,903.22,1052.43,903.12Z"/><path class="cls-3" d="M1077.61,904.62l-18.5-1a99.9,99.9,0,0,1-2.08-13.33,3.25,3.25,0,0,1,.25-2.07,1.19,1.19,0,0,1,.91-.39,60.6,60.6,0,0,1,15.33.18,2.65,2.65,0,0,1,2.2,1.28,5.82,5.82,0,0,1,.52,1.78q1.17,6.72,1.75,13.57Z"/><path d="M1077.61,903.12l-18.5-1,1.45,1.1a97.58,97.58,0,0,1-2-12.13c0-.49-.11-1-.11-1.46a2,2,0,0,1,0-.43c0-.19,0-.15-.16.11a17,17,0,0,1,3-.27q2.93-.18,5.84-.07a50.46,50.46,0,0,1,5.9.48c.63.1,1.14.16,1.4.8a10.3,10.3,0,0,1,.48,2.41c.67,4,1.16,8,1.5,12l1.9-1.45-.38-.05a1.54,1.54,0,0,0-1.84,1.05,1.5,1.5,0,0,0,1,1.84l.38.06c.87.12,2-.37,1.9-1.45q-.48-5.62-1.35-11.2c-.25-1.63-.32-3.6-1.21-5a4.51,4.51,0,0,0-3.61-1.92,62.41,62.41,0,0,0-11.35-.47q-1.4.08-2.79.21a5.72,5.72,0,0,0-2.46.52c-1.49.91-1.26,2.88-1.12,4.35a102.66,102.66,0,0,0,2.07,12.93,1.52,1.52,0,0,0,1.44,1.1l18.5,1C1079.54,906.22,1079.54,903.22,1077.61,903.12Z"/><path class="cls-3" d="M1102.8,904.62l-18.53-1a99.8,99.8,0,0,1-2.45-13.33,3.21,3.21,0,0,1,.19-2.07,1.15,1.15,0,0,1,.89-.39,60.77,60.77,0,0,1,15.35.18,2.74,2.74,0,0,1,2.23,1.28,6.18,6.18,0,0,1,.57,1.78c.9,4.48,1.62,9,2.13,13.57Z"/><path d="M1102.8,903.12l-18.53-1,1.45,1.1a99.49,99.49,0,0,1-2.26-11.73,9.71,9.71,0,0,1-.21-2.4c-.28.22-.26.28.06.19l.81-.08c.55-.06,1.09-.1,1.64-.14,1.92-.13,3.85-.16,5.78-.11s3.92.21,5.86.45c.58.07,1.32.07,1.72.55a6.75,6.75,0,0,1,.72,2.74q1.15,5.94,1.84,11.95l1.9-1.45-.38-.05a1.55,1.55,0,0,0-1.85,1.05,1.51,1.51,0,0,0,1.05,1.84l.38.06c.85.12,2-.37,1.9-1.45Q1104,899,1103,893.36c-.32-1.7-.44-3.78-1.53-5.2-1-1.27-2.38-1.51-3.87-1.7a61.59,61.59,0,0,0-11.44-.38c-.89,0-1.77.12-2.66.22a3.94,3.94,0,0,0-2.37.71c-1.22,1.09-.88,2.9-.7,4.32a105.68,105.68,0,0,0,2.38,12.73,1.54,1.54,0,0,0,1.45,1.1l18.53,1C1104.73,906.22,1104.72,903.22,1102.8,903.12Z"/><path class="cls-3" d="M1055.23,927.14l-18.93-1a103.92,103.92,0,0,1-1.79-14,3.55,3.55,0,0,1,.31-2.17,1.24,1.24,0,0,1,.94-.41,60.75,60.75,0,0,1,15.7.19,2.61,2.61,0,0,1,2.22,1.35,5.92,5.92,0,0,1,.49,1.87c.68,4.69,1.17,9.45,1.45,14.24Z"/><path d="M1055.23,925.64l-18.93-1,1.44,1.1a105.67,105.67,0,0,1-1.66-12.41c0-.51-.35-2,0-2.46-.21.19-.17.24.13.14l.82-.09,1.64-.13a60.7,60.7,0,0,1,6.18-.12,54.47,54.47,0,0,1,6.26.52c.68.11,1.16.19,1.41.89a13.09,13.09,0,0,1,.42,2.49c.58,4.2,1,8.42,1.23,12.64l1.9-1.45-.39,0a1.53,1.53,0,0,0-1.84,1,1.5,1.5,0,0,0,1,1.85l.39.06a1.53,1.53,0,0,0,1.9-1.45c-.24-4-.6-7.9-1.12-11.82-.21-1.63-.22-3.58-1-5a4.48,4.48,0,0,0-3.74-2.12,62.63,62.63,0,0,0-12-.47c-1,0-1.91.13-2.86.24a4,4,0,0,0-2.41.73c-1.28,1.12-1,3.1-.88,4.61a110.59,110.59,0,0,0,1.77,13.21,1.51,1.51,0,0,0,1.45,1.1l18.93,1C1057.16,928.75,1057.16,925.74,1055.23,925.64Z"/><path class="cls-3" d="M1081,927.14l-19-1a108.68,108.68,0,0,1-2.18-14,3.5,3.5,0,0,1,.25-2.17,1.22,1.22,0,0,1,.93-.41,60.85,60.85,0,0,1,15.71.19,2.71,2.71,0,0,1,2.26,1.35,6,6,0,0,1,.53,1.87c.82,4.69,1.44,9.45,1.85,14.24Z"/><path d="M1081,925.64l-19-1,1.45,1.1a103.48,103.48,0,0,1-2-12.37c-.06-.52-.12-1.05-.15-1.58,0-.23,0-.46,0-.69s0-.31-.14-.06a11.69,11.69,0,0,1,2.71-.25,60.84,60.84,0,0,1,6.19-.12,54.83,54.83,0,0,1,6.27.52c.55.09,1.07.14,1.36.66a8.57,8.57,0,0,1,.6,2.76q1,6.27,1.58,12.6l1.9-1.45-.39,0a1.53,1.53,0,0,0-1.84,1,1.5,1.5,0,0,0,1,1.85l.39.06c.87.13,2-.38,1.9-1.45q-.53-6-1.45-11.94c-.26-1.64-.33-3.62-1.23-5.07s-2.32-1.81-3.88-2a62.69,62.69,0,0,0-11.62-.45c-1,0-1.91.13-2.86.23a4.71,4.71,0,0,0-2.45.63c-1.41,1-1.09,3-.94,4.56a111.87,111.87,0,0,0,2.13,13.38,1.53,1.53,0,0,0,1.45,1.1l19,1C1083,928.75,1083,925.74,1081,925.64Z"/><path class="cls-3" d="M1106.85,927.14l-19-1a110.38,110.38,0,0,1-2.57-14,3.53,3.53,0,0,1,.19-2.17,1.18,1.18,0,0,1,.92-.41,60.94,60.94,0,0,1,15.72.19,2.8,2.8,0,0,1,2.29,1.35A6,6,0,0,1,1105,913c1,4.69,1.7,9.45,2.25,14.24Z"/><path d="M1106.85,925.64l-19-1,1.45,1.1a108,108,0,0,1-2.37-12.37,7.31,7.31,0,0,1-.21-2.5c-.27.19-.24.23.09.14l.83-.09,1.67-.14c2-.14,4.09-.17,6.14-.11a54.66,54.66,0,0,1,6.26.52c.68.11,1.2.21,1.51.89a12.05,12.05,0,0,1,.57,2.53c.81,4.17,1.46,8.38,2,12.6l1.89-1.45-.39,0a1.55,1.55,0,0,0-1.84,1,1.52,1.52,0,0,0,1,1.85l.39.06c.84.12,2-.37,1.9-1.45-.46-3.93-1-7.84-1.74-11.73-.32-1.71-.44-3.78-1.39-5.28a4.74,4.74,0,0,0-3.74-2,62.59,62.59,0,0,0-11.93-.48c-1,.06-2,.14-2.93.25a3.92,3.92,0,0,0-2.4.73c-1.29,1.15-.87,3.15-.68,4.65a113.16,113.16,0,0,0,2.48,13.17,1.52,1.52,0,0,0,1.44,1.1l19,1C1108.78,928.74,1108.78,925.74,1106.85,925.64Z"/><path class="cls-3" d="M1123.52,883.17l-18.11-.91a95.56,95.56,0,0,1-2.7-12.72,3,3,0,0,1,.14-2,1.15,1.15,0,0,1,.86-.38,61.26,61.26,0,0,1,15,.18,2.78,2.78,0,0,1,2.22,1.22,6,6,0,0,1,.59,1.7q1.47,6.4,2.38,12.94Z"/><path d="M1123.52,881.67l-18.11-.91,1.45,1.1a96.75,96.75,0,0,1-2.53-11.53c-.07-.42-.14-.84-.18-1.26a3.71,3.71,0,0,1,0-.47c.06-.43,0-.41-.25.07,0,.05,2.37-.21,2.63-.23,1.94-.13,3.9-.16,5.85-.1a56.15,56.15,0,0,1,5.94.47,1.84,1.84,0,0,1,1.33.54,6.93,6.93,0,0,1,.71,2.54q1.31,5.82,2.12,11.74l1.84-1.85-.37,0a1.56,1.56,0,0,0-1.85,1,1.51,1.51,0,0,0,1,1.85l.37,0a1.53,1.53,0,0,0,1.85-1.84q-.77-5.51-1.94-10.93c-.34-1.59-.54-3.49-1.7-4.73-1-1.09-2.42-1.24-3.82-1.41a62,62,0,0,0-11-.34c-.87.05-1.73.12-2.59.21a4.25,4.25,0,0,0-2.19.58c-1.31,1-1,2.74-.8,4.12a95.41,95.41,0,0,0,2.64,12.32,1.55,1.55,0,0,0,1.45,1.11l18.11.91C1125.45,884.77,1125.44,881.77,1123.52,881.67Z"/><path class="cls-3" d="M1148.11,883.17l-18.14-.91a97.4,97.4,0,0,1-3-12.72,3,3,0,0,1,.08-2,1.13,1.13,0,0,1,.86-.38,61.28,61.28,0,0,1,15,.18,2.88,2.88,0,0,1,2.25,1.22,5.8,5.8,0,0,1,.64,1.7q1.65,6.4,2.74,12.94Z"/><path d="M1148.11,881.67l-18.14-.91,1.45,1.1a101.3,101.3,0,0,1-2.78-11.14c0-.15-.38-2.42-.34-2.42-.39.33-.41.45,0,.35l.82-.08,1.22-.1a57.22,57.22,0,0,1,6-.13c2,.06,4,.2,5.91.45.65.08,1.31.11,1.68.72a9.85,9.85,0,0,1,.76,2.58q1.41,5.71,2.39,11.54l1.84-1.85-.37,0a1.55,1.55,0,0,0-1.85,1,1.51,1.51,0,0,0,1,1.85l.37,0a1.53,1.53,0,0,0,1.85-1.84c-.61-3.6-1.33-7.18-2.19-10.73-.39-1.61-.64-3.58-1.79-4.85s-2.64-1.34-4.16-1.51a61.25,61.25,0,0,0-11.08-.3c-1.4.09-3.6-.1-4.68,1s-.69,2.77-.46,4.11a96.9,96.9,0,0,0,3,12.12,1.55,1.55,0,0,0,1.44,1.11l18.14.91C1150,884.77,1150,881.77,1148.11,881.67Z"/><path class="cls-3" d="M1172.69,883.17l-18.15-.91a99.59,99.59,0,0,1-3.42-12.72,3,3,0,0,1,0-2,1.06,1.06,0,0,1,.84-.38,61.37,61.37,0,0,1,15,.18,3,3,0,0,1,2.28,1.22,6.2,6.2,0,0,1,.69,1.7q1.83,6.4,3.1,12.94Z"/><path d="M1172.69,881.67l-18.15-.91,1.44,1.1a101.73,101.73,0,0,1-3.16-11.49c-.09-.41-.18-.82-.25-1.23a3.26,3.26,0,0,1-.09-.69c-.38.18-.44.26-.2.21.22.12,1.08-.11,1.34-.13l1.23-.09a56.08,56.08,0,0,1,5.8-.09c1.91.06,3.81.2,5.71.44a2.39,2.39,0,0,1,1.62.56,6.83,6.83,0,0,1,.89,2.58q1.61,5.79,2.75,11.7l1.85-1.85-.38,0a1.54,1.54,0,0,0-1.84,1,1.5,1.5,0,0,0,1,1.85l.37,0a1.53,1.53,0,0,0,1.85-1.84c-.72-3.65-1.55-7.28-2.53-10.87-.42-1.56-.72-3.47-1.87-4.71s-2.51-1.32-4-1.49a61.81,61.81,0,0,0-10.88-.35c-.89.05-1.77.13-2.65.22a4.13,4.13,0,0,0-2.19.58c-1.36,1-.91,2.92-.62,4.34a101,101,0,0,0,3.29,12.1,1.56,1.56,0,0,0,1.45,1.11l18.15.91C1174.62,884.77,1174.62,881.77,1172.69,881.67Z"/><path class="cls-3" d="M1195.53,883.17l-18.19-.91a101.69,101.69,0,0,1-3.74-12.72,2.93,2.93,0,0,1,0-2,1,1,0,0,1,.83-.38,61.39,61.39,0,0,1,15,.18,3,3,0,0,1,2.31,1.22,6.31,6.31,0,0,1,.74,1.7q2,6.4,3.43,12.94Z"/><path d="M1195.53,881.67l-18.19-.91,1.45,1.1a101.89,101.89,0,0,1-3.36-11.09c-.13-.54-.27-1.08-.38-1.63a4.51,4.51,0,0,1-.1-.53c0-.3-.14-.27-.45.08a16.45,16.45,0,0,1,2.84-.26q2.88-.18,5.75-.08a52.71,52.71,0,0,1,5.89.46,1.91,1.91,0,0,1,1.65.85,11.3,11.3,0,0,1,.83,2.48c1.15,3.79,2.14,7.62,3,11.49l1.84-1.85-.38,0a1.54,1.54,0,0,0-1.84,1,1.51,1.51,0,0,0,1.05,1.85l.38,0a1.52,1.52,0,0,0,1.84-1.84q-1.18-5.39-2.75-10.66c-.46-1.59-.81-3.49-1.92-4.78s-2.43-1.43-3.92-1.61a62.21,62.21,0,0,0-11-.37c-.84,0-1.67.11-2.51.19a4.37,4.37,0,0,0-2.5.69c-1.25,1.06-.77,2.88-.45,4.26a101.86,101.86,0,0,0,3.6,12.1,1.56,1.56,0,0,0,1.44,1.11l18.19.91C1197.46,884.77,1197.45,881.77,1195.53,881.67Z"/><path class="cls-3" d="M1128,904.62l-18.55-1a103.23,103.23,0,0,1-2.83-13.33,3.24,3.24,0,0,1,.14-2.07,1.11,1.11,0,0,1,.88-.39,60.79,60.79,0,0,1,15.35.18,2.83,2.83,0,0,1,2.27,1.28,6.26,6.26,0,0,1,.62,1.78q1.55,6.72,2.5,13.57Z"/><path d="M1128,903.12l-18.55-1,1.45,1.1a104.75,104.75,0,0,1-2.59-11.72c-.08-.52-.17-1-.23-1.54a4.89,4.89,0,0,1,0-.66c.07-.43,0-.43-.23,0a15.39,15.39,0,0,0,2.69-.25q3-.2,6-.1a53.94,53.94,0,0,1,6.09.49,1.87,1.87,0,0,1,1.4.6,8.32,8.32,0,0,1,.78,2.85c.89,4,1.61,8.07,2.19,12.14l1.84-1.85-.38-.05a1.54,1.54,0,0,0-1.84,1.05,1.5,1.5,0,0,0,1,1.84l.39.06a1.53,1.53,0,0,0,1.84-1.85c-.54-3.8-1.2-7.57-2-11.32-.35-1.65-.55-3.64-1.68-5s-2.51-1.38-4-1.56a62.49,62.49,0,0,0-11.44-.35c-1.42.09-3.69-.09-4.82.92s-.81,3.06-.59,4.52a105.1,105.1,0,0,0,2.71,12.53,1.54,1.54,0,0,0,1.45,1.1l18.55,1C1129.91,906.22,1129.91,903.22,1128,903.12Z"/><path class="cls-3" d="M1153.17,904.62l-18.58-1a103.54,103.54,0,0,1-3.2-13.33,3.22,3.22,0,0,1,.08-2.07,1.08,1.08,0,0,1,.87-.39,60.8,60.8,0,0,1,15.35.18,2.94,2.94,0,0,1,2.31,1.28,6.35,6.35,0,0,1,.67,1.78c1.15,4.48,2.12,9,2.88,13.57Z"/><path d="M1153.17,903.12l-18.58-1,1.44,1.1a106.36,106.36,0,0,1-2.9-11.67c-.16-.86-.26-1.71-.36-2.56-.38.29-.38.39,0,.29l.83-.09,1.25-.1A60.12,60.12,0,0,1,1141,889c2,.06,4,.21,6,.47.7.09,1.37.14,1.76.79a10.58,10.58,0,0,1,.79,2.73q1.48,6,2.51,12.1l1.85-1.85-.38-.05a1.55,1.55,0,0,0-1.85,1.05,1.51,1.51,0,0,0,1,1.84l.38.06a1.53,1.53,0,0,0,1.85-1.85q-1-5.67-2.31-11.25c-.4-1.67-.66-3.73-1.85-5s-2.68-1.39-4.24-1.57a62.27,62.27,0,0,0-11.34-.31c-1.43.09-3.67-.1-4.76,1s-.69,2.87-.45,4.24a106.5,106.5,0,0,0,3.09,12.71,1.54,1.54,0,0,0,1.45,1.1l18.58,1C1155.1,906.22,1155.09,903.22,1153.17,903.12Z"/><path class="cls-3" d="M1178.35,904.62l-18.6-1a105.76,105.76,0,0,1-3.57-13.33,3.2,3.2,0,0,1,0-2.07,1.06,1.06,0,0,1,.86-.39,60.9,60.9,0,0,1,15.36.18,3,3,0,0,1,2.34,1.28,6.14,6.14,0,0,1,.71,1.78c1.28,4.48,2.38,9,3.27,13.57Z"/><path d="M1178.35,903.12l-18.6-1,1.44,1.1a109.51,109.51,0,0,1-3.22-11.67c-.18-.83-.22-1.77-.45-2.56-.41.29-.42.39,0,.29l.83-.09,1.25-.1a60.12,60.12,0,0,1,6.15-.14c2,.06,4,.21,6.06.47.71.09,1.39.14,1.8.79a10.38,10.38,0,0,1,.88,2.73q1.65,6,2.85,12.1l1.85-1.85-.39-.05a1.56,1.56,0,0,0-1.85,1.05,1.51,1.51,0,0,0,1,1.84l.39.06a1.53,1.53,0,0,0,1.84-1.85q-1.11-5.67-2.62-11.25c-.45-1.67-.76-3.73-2-5s-2.71-1.39-4.28-1.57a62.38,62.38,0,0,0-11.35-.31c-1.42.09-3.66-.1-4.75,1s-.64,2.88-.36,4.24a106,106,0,0,0,3.44,12.71,1.56,1.56,0,0,0,1.45,1.1l18.6,1C1180.28,906.22,1180.28,903.22,1178.35,903.12Z"/><path class="cls-3" d="M1201.74,904.62l-18.63-1a108.08,108.08,0,0,1-3.92-13.33,3.18,3.18,0,0,1,0-2.07,1,1,0,0,1,.85-.39,60.91,60.91,0,0,1,15.36.18,3.12,3.12,0,0,1,2.38,1.28,6.55,6.55,0,0,1,.76,1.78q2.1,6.72,3.61,13.57Z"/><path d="M1201.74,903.12l-18.63-1,1.44,1.1a112.79,112.79,0,0,1-3.53-11.67c0-.17-.45-2.65-.52-2.67-.55.41-.57.54-.06.4l.85-.09,1.28-.11a56.45,56.45,0,0,1,6.1-.12,54.44,54.44,0,0,1,6.25.49,2,2,0,0,1,1.73.93,13.27,13.27,0,0,1,.93,2.77q1.77,5.89,3.1,11.89l1.84-1.85-.38-.05a1.55,1.55,0,0,0-1.85,1.05,1.51,1.51,0,0,0,1,1.84l.39.06a1.53,1.53,0,0,0,1.84-1.85c-.83-3.71-1.77-7.4-2.85-11-.48-1.64-.83-3.59-1.91-5a5.31,5.31,0,0,0-3.89-1.78,62.14,62.14,0,0,0-11.49-.42c-.93,0-1.86.13-2.78.22a3.79,3.79,0,0,0-2.43.79c-1.23,1.22-.58,3.22-.24,4.68a112.13,112.13,0,0,0,3.68,12.3,1.57,1.57,0,0,0,1.45,1.1l18.63,1C1203.67,906.22,1203.66,903.22,1201.74,903.12Z"/><path class="cls-3" d="M1132.67,927.14l-19-1a108.85,108.85,0,0,1-3-14,3.43,3.43,0,0,1,.13-2.17,1.14,1.14,0,0,1,.9-.41,61,61,0,0,1,15.72.19,2.9,2.9,0,0,1,2.34,1.35,6.36,6.36,0,0,1,.64,1.87c1.08,4.69,2,9.45,2.64,14.24Z"/><path d="M1132.67,925.64l-19-1,1.44,1.1a113.23,113.23,0,0,1-2.77-12.73c-.06-.41-.13-.81-.18-1.22a5.34,5.34,0,0,1-.05-.69c.07-.42,0-.44-.22-.06a12.7,12.7,0,0,1,2.77-.26,58.32,58.32,0,0,1,6.34-.1,44.42,44.42,0,0,1,6.31.55c1.63.31,1.66,2,2,3.42q1.42,6.43,2.35,13l1.85-1.85-.39,0a1.55,1.55,0,0,0-1.85,1,1.52,1.52,0,0,0,1,1.85l.39.06a1.54,1.54,0,0,0,1.85-1.85q-.85-6-2.12-11.89c-.36-1.66-.56-3.63-1.63-5s-2.43-1.55-4-1.75a62.14,62.14,0,0,0-11.73-.41c-.91.06-1.81.14-2.72.24a3.94,3.94,0,0,0-2.4.73c-1.24,1.12-.82,3-.61,4.45a113.21,113.21,0,0,0,2.87,13.37,1.56,1.56,0,0,0,1.45,1.1l19,1C1134.6,928.74,1134.59,925.74,1132.67,925.64Z"/><path class="cls-3" d="M1158.48,927.14l-19-1a112.76,112.76,0,0,1-3.35-14,3.47,3.47,0,0,1,.07-2.17,1.11,1.11,0,0,1,.89-.41,61,61,0,0,1,15.73.19,3,3,0,0,1,2.37,1.35,6.16,6.16,0,0,1,.69,1.87c1.21,4.69,2.23,9.45,3,14.24Z"/><path d="M1158.48,925.64l-19-1,1.45,1.1a113.45,113.45,0,0,1-3.05-12.31,15.93,15.93,0,0,1-.38-2.66c-.36.26-.35.34,0,.24l.85-.09c.57-.06,1.14-.11,1.71-.14,2-.14,4.06-.17,6.09-.11a54.49,54.49,0,0,1,6.25.52,1.86,1.86,0,0,1,1.57.83,12.28,12.28,0,0,1,.88,3q1.53,6.23,2.61,12.54l1.84-1.85-.39,0a1.55,1.55,0,0,0-1.85,1,1.52,1.52,0,0,0,1,1.85l.39.06a1.53,1.53,0,0,0,1.85-1.85q-1-6-2.45-11.89c-.42-1.71-.67-3.79-1.87-5.17-1-1.18-2.42-1.4-3.9-1.59a61.64,61.64,0,0,0-12.07-.38c-1.46.1-3.74-.1-4.85,1s-.66,3.13-.4,4.57a116.28,116.28,0,0,0,3.2,13.16,1.57,1.57,0,0,0,1.45,1.1l19,1C1160.41,928.74,1160.4,925.74,1158.48,925.64Z"/><path class="cls-3" d="M1184.52,928l-19.1-1a115,115,0,0,1-3.74-14,3.41,3.41,0,0,1,0-2.18,1.1,1.1,0,0,1,.88-.41,61.59,61.59,0,0,1,15.74.19,3.11,3.11,0,0,1,2.41,1.35,6.72,6.72,0,0,1,.75,1.88c1.34,4.7,2.5,9.47,3.44,14.27Z"/><path d="M1184.52,926.5l-19.1-1,1.45,1.1a116.51,116.51,0,0,1-3.4-12.33c-.19-.88-.3-1.78-.47-2.66-.39.25-.39.33,0,.23l.85-.09,1.28-.11a60.22,60.22,0,0,1,6.3-.14,53.25,53.25,0,0,1,6.44.52,2,2,0,0,1,1.77,1,14.38,14.38,0,0,1,.87,2.89q1.71,6.23,3,12.55l1.85-1.84-.4-.06a1.55,1.55,0,0,0-1.84,1.05,1.51,1.51,0,0,0,1,1.84l.39.06a1.53,1.53,0,0,0,1.85-1.84q-1.17-5.89-2.73-11.7c-.47-1.74-.79-3.84-2-5.27s-2.63-1.55-4.25-1.75a62.79,62.79,0,0,0-11.87-.35c-1.44.1-3.74-.09-4.84,1s-.61,3.13-.31,4.57a117.66,117.66,0,0,0,3.58,13.18,1.54,1.54,0,0,0,1.44,1.1l19.1,1C1186.44,929.6,1186.44,926.6,1184.52,926.5Z"/><path class="cls-3" d="M1208.51,928l-19.12-1a115.74,115.74,0,0,1-4.11-14,3.47,3.47,0,0,1,0-2.18,1.07,1.07,0,0,1,.87-.41,61.68,61.68,0,0,1,15.75.19,3.22,3.22,0,0,1,2.45,1.35,7.13,7.13,0,0,1,.79,1.88c1.47,4.7,2.74,9.47,3.81,14.27Z"/><path d="M1208.51,926.5l-19.12-1,1.44,1.1a121.36,121.36,0,0,1-3.7-12.28c0-.14-.55-2.84-.56-2.85-.54.4-.55.52,0,.37l.87-.09,1.31-.12a62.08,62.08,0,0,1,6.25-.13,57.47,57.47,0,0,1,6.42.52,2.11,2.11,0,0,1,1.82,1,15.15,15.15,0,0,1,1,2.94c1.24,4.13,2.32,8.3,3.27,12.5l1.84-1.84-.4-.06a1.55,1.55,0,0,0-1.84,1.05,1.51,1.51,0,0,0,1,1.84l.39.06a1.52,1.52,0,0,0,1.85-1.84q-1.32-5.86-3-11.62c-.5-1.71-.87-3.75-2-5.19a5.38,5.38,0,0,0-4-1.85,62.68,62.68,0,0,0-11.78-.44c-1,.05-1.91.13-2.86.24a3.72,3.72,0,0,0-2.46.8c-1.26,1.26-.56,3.35-.21,4.85a119.2,119.2,0,0,0,3.86,12.93,1.55,1.55,0,0,0,1.45,1.1l19.12,1C1210.43,929.6,1210.43,926.6,1208.51,926.5Z"/><path class="cls-3" d="M1137.59,950.81l-19.51-1.07A117.89,117.89,0,0,1,1115,935a3.69,3.69,0,0,1,.12-2.28,1.17,1.17,0,0,1,.93-.44,61.76,61.76,0,0,1,16.11.2,3,3,0,0,1,2.4,1.42,7.16,7.16,0,0,1,.67,2c1.13,4.93,2.06,9.94,2.78,15Z"/><path d="M1137.59,949.31l-19.51-1.07,1.45,1.11a120.48,120.48,0,0,1-2.84-13c-.09-.56-.2-1.12-.26-1.69q0-.36-.06-.72c.09-.41,0-.46-.2-.14a13.48,13.48,0,0,1,2.84-.28,61.49,61.49,0,0,1,6.51-.1,42.4,42.4,0,0,1,6.47.58c1.83.35,1.83,2.51,2.16,4q1.44,6.57,2.4,13.23l1.84-1.85-.4-.06a1.57,1.57,0,0,0-1.85,1,1.52,1.52,0,0,0,1,1.85l.4.06a1.54,1.54,0,0,0,1.85-1.85q-.9-6.21-2.2-12.35c-.37-1.72-.57-3.77-1.6-5.24s-2.38-1.72-3.94-1.93a62.82,62.82,0,0,0-12.26-.45c-1,.06-2,.15-3,.26a3.82,3.82,0,0,0-2.22.72c-1.32,1.19-.8,3.29-.57,4.81a119,119,0,0,0,3,13.85,1.52,1.52,0,0,0,1.44,1.1l19.51,1.07C1139.52,952.41,1139.51,949.41,1137.59,949.31Z"/><path class="cls-3" d="M1164.06,950.81l-19.54-1.07A120.16,120.16,0,0,1,1141,935a3.75,3.75,0,0,1,.06-2.28,1.13,1.13,0,0,1,.91-.44,61.85,61.85,0,0,1,16.12.2,3.11,3.11,0,0,1,2.44,1.42,6.93,6.93,0,0,1,.72,2c1.27,4.93,2.34,9.94,3.21,15Z"/><path d="M1164.06,949.31l-19.54-1.07,1.45,1.11a121.44,121.44,0,0,1-3.2-13,17.32,17.32,0,0,1-.4-2.76c-.35.22-.33.27.05.17l.87-.09c.58-.06,1.17-.11,1.75-.15a60.69,60.69,0,0,1,6.47-.1,43.68,43.68,0,0,1,6.45.58c1.83.35,1.92,2.5,2.3,4,1.08,4.37,2,8.79,2.76,13.23l1.84-1.85-.4-.06a1.57,1.57,0,0,0-1.85,1,1.52,1.52,0,0,0,1.05,1.85l.41.06a1.53,1.53,0,0,0,1.84-1.85c-.71-4.14-1.56-8.27-2.55-12.35-.41-1.72-.67-3.78-1.73-5.24a5.09,5.09,0,0,0-3.79-1.9,63.73,63.73,0,0,0-12.58-.48c-1.52.1-4-.1-5.16,1.08s-.62,3.4-.35,4.92a122.7,122.7,0,0,0,3.33,13.64,1.53,1.53,0,0,0,1.44,1.1l19.54,1.07C1166,952.41,1166,949.41,1164.06,949.31Z"/><path class="cls-3" d="M1190.53,950.81,1171,949.74A122.72,122.72,0,0,1,1167,935a3.66,3.66,0,0,1,0-2.28,1.1,1.1,0,0,1,.9-.44,61.87,61.87,0,0,1,16.12.2,3.2,3.2,0,0,1,2.48,1.42,7.71,7.71,0,0,1,.78,2c1.41,4.93,2.62,9.94,3.62,15Z"/><path d="M1190.53,949.31,1171,948.24l1.45,1.11a123.34,123.34,0,0,1-3.55-13c-.13-.59-.26-1.18-.37-1.77q-.08-.35-.12-.69c.08-.42,0-.46-.29-.14a13.48,13.48,0,0,1,2.91-.28,60.55,60.55,0,0,1,6.46-.1,43.82,43.82,0,0,1,6.47.58c1.83.35,2,2.32,2.39,3.87,1.22,4.42,2.28,8.9,3.18,13.4l1.85-1.85-.41-.06c-1.89-.28-2.7,2.61-.8,2.9l.41.06a1.53,1.53,0,0,0,1.84-1.85q-1.26-6.3-2.93-12.5c-.45-1.68-.77-3.67-1.83-5.09a5.36,5.36,0,0,0-4-1.93,63.34,63.34,0,0,0-12.39-.45c-1.47.1-3.88-.09-5.06,1s-.69,3.34-.37,4.83a122.19,122.19,0,0,0,3.74,13.83,1.54,1.54,0,0,0,1.44,1.1l19.57,1.07C1192.46,952.41,1192.45,949.41,1190.53,949.31Z"/><path class="cls-3" d="M1215.11,950.81l-19.6-1.07a125.36,125.36,0,0,1-4.3-14.71,3.65,3.65,0,0,1-.06-2.28,1.07,1.07,0,0,1,.89-.44,62,62,0,0,1,16.13.2,3.33,3.33,0,0,1,2.52,1.42,7.8,7.8,0,0,1,.82,2c1.54,4.93,2.88,9.94,4,15Z"/><path d="M1215.11,949.31l-19.6-1.07,1.45,1.11a130.21,130.21,0,0,1-3.89-13l-.36-1.55a5.43,5.43,0,0,0-.22-1.26c.06-.38-.07-.31-.39.23.27-.05.55-.08.83-.11l1.34-.13a60.91,60.91,0,0,1,6.62-.18,54.54,54.54,0,0,1,6.88.56,2.16,2.16,0,0,1,1.83,1.09,15.31,15.31,0,0,1,1,3q2,6.52,3.45,13.18l1.85-1.85-.41-.06c-1.89-.28-2.7,2.61-.8,2.9l.41.06a1.52,1.52,0,0,0,1.84-1.85q-1.37-6.08-3.12-12.05c-.54-1.83-.92-4-2.11-5.57s-2.59-1.72-4.27-1.93a62.34,62.34,0,0,0-12.29-.41c-1.54.11-4.19-.11-5.2,1.33s-.29,3.24,0,4.69a128.85,128.85,0,0,0,4,13.61,1.54,1.54,0,0,0,1.44,1.1l19.6,1.07C1217,952.41,1217,949.41,1215.11,949.31Z"/><path class="cls-3" d="M1142.38,973.83l-20-1.12a128.49,128.49,0,0,1-3.24-15.43,4,4,0,0,1,.11-2.39,1.21,1.21,0,0,1,1-.46,61.74,61.74,0,0,1,16.5.21,3.07,3.07,0,0,1,2.46,1.49,7.35,7.35,0,0,1,.69,2.06c1.19,5.17,2.17,10.42,2.93,15.7Z"/><path d="M1142.38,972.33l-20-1.12,1.45,1.1a130.21,130.21,0,0,1-3-13.68c-.11-.68-.58-2.17-.33-2.86-.28.17-.25.21.11.11l.87-.1,1.75-.15a59.21,59.21,0,0,1,6.66-.11,43.25,43.25,0,0,1,6.64.61c1.88.37,1.91,2.67,2.25,4.23,1,4.61,1.85,9.26,2.54,13.93l1.84-1.85-.41-.06c-1.89-.29-2.7,2.6-.8,2.89l.41.07a1.53,1.53,0,0,0,1.85-1.85c-.63-4.29-1.39-8.57-2.29-12.81-.38-1.78-.58-3.9-1.59-5.46s-2.48-1.92-4.16-2.15a63.72,63.72,0,0,0-12.5-.47c-1,.07-2,.16-3.06.28a3.59,3.59,0,0,0-2.34.84c-1.27,1.3-.68,3.48-.43,5a127.49,127.49,0,0,0,3.08,14.34,1.54,1.54,0,0,0,1.44,1.1l20,1.12C1144.31,975.43,1144.3,972.43,1142.38,972.33Z"/><path class="cls-3" d="M1169.49,973.83l-20-1.12a129.12,129.12,0,0,1-3.67-15.43,4,4,0,0,1,0-2.39,1.15,1.15,0,0,1,.93-.46,61.76,61.76,0,0,1,16.5.21,3.18,3.18,0,0,1,2.51,1.49,7.45,7.45,0,0,1,.75,2.06c1.33,5.17,2.45,10.42,3.36,15.7Z"/><path d="M1169.49,972.33l-20-1.12,1.45,1.1a132.81,132.81,0,0,1-3.35-13.63,11.9,11.9,0,0,1-.43-2.91c-.33.17-.3.21.08.11l.9-.1,1.79-.16a63.54,63.54,0,0,1,6.62-.1,44.39,44.39,0,0,1,6.61.61c1.92.38,2,2.69,2.41,4.29q1.7,6.87,2.91,13.87l1.84-1.85-.41-.06c-1.89-.29-2.7,2.6-.8,2.89l.42.07a1.53,1.53,0,0,0,1.84-1.85c-.75-4.34-1.64-8.67-2.68-13-.43-1.78-.7-3.94-1.8-5.47a5.21,5.21,0,0,0-3.86-2,63.65,63.65,0,0,0-12.87-.49c-1.55.1-4.09-.1-5.26,1.11s-.61,3.52-.33,5.08a129.72,129.72,0,0,0,3.48,14.31,1.55,1.55,0,0,0,1.44,1.1l20,1.12C1171.42,975.43,1171.41,972.43,1169.49,972.33Z"/><path class="cls-3" d="M1196.85,974.77l-20.07-1.12a134,134,0,0,1-4.11-15.46,4,4,0,0,1,0-2.4,1.15,1.15,0,0,1,.92-.45,61.17,61.17,0,0,1,16.53.21,3.26,3.26,0,0,1,2.55,1.49,8.27,8.27,0,0,1,.81,2.06c1.47,5.18,2.75,10.45,3.81,15.73Z"/><path d="M1196.85,973.27l-20.07-1.12,1.45,1.1a133.65,133.65,0,0,1-3.74-13.65c-.13-.6-.26-1.2-.37-1.81a9.89,9.89,0,0,0-.15-1.11c.08-.38,0-.33-.26.15l.78-.1c.61-.07,1.22-.12,1.84-.17a59.32,59.32,0,0,1,6.8-.14,43.47,43.47,0,0,1,6.83.62c2,.38,2.11,2.66,2.56,4.29q1.89,6.9,3.3,13.9l1.85-1.84-.42-.07c-1.89-.29-2.7,2.6-.8,2.9l.42.06a1.52,1.52,0,0,0,1.84-1.84q-1.29-6.42-3-12.76c-.49-1.81-.82-4-1.9-5.55a5.24,5.24,0,0,0-4-2.12,63.69,63.69,0,0,0-13-.49c-1.52.11-4.12-.1-5.2,1.21s-.46,3.45-.13,5a133.49,133.49,0,0,0,3.88,14.33,1.54,1.54,0,0,0,1.44,1.1l20.07,1.12C1198.78,976.38,1198.77,973.38,1196.85,973.27Z"/><path class="cls-3" d="M1203.5,1000l-20.6-1.18a141.65,141.65,0,0,1-4.31-16.26,4.25,4.25,0,0,1,0-2.52,1.13,1.13,0,0,1,.94-.48,61.86,61.86,0,0,1,17,.22,3.35,3.35,0,0,1,2.62,1.57,8.6,8.6,0,0,1,.85,2.17c1.54,5.45,2.89,11,4,16.55Z"/><path d="M1203.5,998.47l-20.6-1.18,1.45,1.1a143.32,143.32,0,0,1-3.93-14.41c-.12-.54-.23-1.08-.34-1.62a6.13,6.13,0,0,0-.21-1.41c.08-.4,0-.38-.25.07l.78-.1c.61-.07,1.22-.13,1.84-.18a60.71,60.71,0,0,1,7-.15,45.21,45.21,0,0,1,7.06.65c2,.41,2.21,2.83,2.67,4.52q2,7.28,3.5,14.68l1.84-1.85-.43-.07c-1.88-.3-2.7,2.59-.79,2.9l.42.06a1.52,1.52,0,0,0,1.85-1.84q-1.36-6.67-3.11-13.27c-.52-2-.87-4.27-2-6a5.37,5.37,0,0,0-4.13-2.19,63.87,63.87,0,0,0-13.18-.52c-1.59.11-4.32-.11-5.44,1.26s-.41,3.74-.06,5.36a144.62,144.62,0,0,0,4,14.88,1.54,1.54,0,0,0,1.44,1.1l20.6,1.18C1205.42,1001.58,1205.42,998.58,1203.5,998.47Z"/><path class="cls-3" d="M1124.3,979.54l45.91.67a65.83,65.83,0,0,1,5.52,16.17c.19,1,.3,2-.59,2.62a5.07,5.07,0,0,1-2.33.52,316,316,0,0,1-39.55.17c-2-.11-4.27-.36-5.57-1.57a4.51,4.51,0,0,1-1.16-2.22,91,91,0,0,1-3.16-16.42Z"/><path d="M1124.3,981l45.91.67-1.3-.74a65,65,0,0,1,5.24,15.14c.06.28.4,1.24.21,1.56s-.85.29-1.12.32c-1.41.16-2.86.19-4.28.26-2.74.16-5.48.27-8.23.35q-8.43.24-16.88,0c-2.87-.07-5.75-.18-8.62-.33-1.9-.1-5,.17-6.47-1.24-.9-.83-1.08-2.57-1.37-3.69-.39-1.48-.75-3-1.06-4.48a85.57,85.57,0,0,1-1.46-9.41l-1.5,1.5.93.06c1.93.11,1.92-2.89,0-3l-.93-.06a1.5,1.5,0,0,0-1.5,1.5c.31,3.11.76,6.2,1.37,9.27.58,2.91,1.08,6.19,2.32,8.9,1.12,2.43,3.72,3.14,6.17,3.42,3.11.35,6.29.38,9.42.48q9.78.32,19.58.05c3.23-.09,6.46-.24,9.68-.43,2.33-.14,6.16.16,6.85-2.79a9.55,9.55,0,0,0-.46-4.17c-.37-1.64-.82-3.26-1.32-4.86a71.06,71.06,0,0,0-4-9.9,1.48,1.48,0,0,0-1.29-.74L1124.3,978C1122.37,978,1122.37,981,1124.3,981Z"/><path class="cls-3" d="M1217.22,956.19l11,40.22a59.7,59.7,0,0,1-16.07,1.57,3.82,3.82,0,0,1-2.92-1.09,6.13,6.13,0,0,1-1.11-2.19,271.13,271.13,0,0,1-9.44-34.2c-.33-1.64-.6-3.5.32-4.38a3.19,3.19,0,0,1,2-.62,100,100,0,0,1,16.06-.09Z"/><path d="M1215.78,956.59l11,40.22,1-1.85a58.73,58.73,0,0,1-14.71,1.55c-.87,0-2,.09-2.67-.54-.89-.81-1.15-2.46-1.52-3.55-.81-2.42-1.6-4.84-2.35-7.28q-2.23-7.23-4.07-14.58-.9-3.64-1.7-7.3c-.26-1.18-.53-2.36-.75-3.54-.11-.6-.48-2,0-2.51.27-.3,1.32-.24,1.66-.27.71-.06,1.43-.11,2.15-.15,1.44-.08,2.89-.13,4.34-.15,3,0,5.91.06,8.85.27l-1.45-1.1.18.78c.41,1.89,3.3,1.09,2.89-.79l-.17-.79a1.55,1.55,0,0,0-1.45-1.1c-3-.21-6.06-.31-9.09-.27-1.45,0-2.9.08-4.34.16a20.88,20.88,0,0,0-4.1.41c-2.47.67-2.8,3.14-2.5,5.33.39,2.74,1.1,5.46,1.73,8.15q2,8.5,4.52,16.85,1.32,4.37,2.78,8.67c.78,2.33,1.44,5.08,4,5.95a13.27,13.27,0,0,0,4.22.36c1.64,0,3.28-.06,4.92-.19a62.3,62.3,0,0,0,9.4-1.47,1.52,1.52,0,0,0,1-1.85l-11-40.21A1.5,1.5,0,0,0,1215.78,956.59Z"/><path class="cls-3" d="M1087.92,973.51,1068,972.4a126,126,0,0,1-2.38-15.42,4.15,4.15,0,0,1,.25-2.4,1.31,1.31,0,0,1,1-.45,61.55,61.55,0,0,1,16.48.21,2.84,2.84,0,0,1,2.38,1.49,6.84,6.84,0,0,1,.58,2c.9,5.17,1.58,10.42,2,15.7Z"/><path d="M1087.92,972,1068,970.9l1.45,1.1a120,120,0,0,1-2.16-13.32c-.06-.57-.12-1.14-.17-1.7,0-.35-.21-1.13,0-1.44-.2.11-.15.13.18,0l.85-.09q.86-.09,1.71-.15a61.12,61.12,0,0,1,6.49-.13,50.55,50.55,0,0,1,6.61.58c.79.13,1.29.28,1.59,1.08a15.84,15.84,0,0,1,.6,3.14c.74,4.5,1.3,9,1.71,13.57l1.9-1.45-.41-.06c-1.89-.3-2.7,2.59-.8,2.89l.41.06c.87.14,2-.37,1.9-1.44q-.57-6.35-1.54-12.64c-.29-1.88-.36-4.16-1.29-5.87-.84-1.54-2.31-2-3.94-2.27a63.78,63.78,0,0,0-12.58-.51q-1.5.09-3,.27a4.16,4.16,0,0,0-2.46.75c-1.44,1.3-.91,3.69-.73,5.37a127.3,127.3,0,0,0,2.27,14.12,1.53,1.53,0,0,0,1.44,1.1l19.92,1.11C1089.85,975.12,1089.84,972.12,1087.92,972Z"/><path class="cls-3" d="M1063.82,997.66l-20.38-1.18a130.81,130.81,0,0,1-2-16.18,4.3,4.3,0,0,1,.32-2.51,1.3,1.3,0,0,1,1-.48,61.26,61.26,0,0,1,16.88.22,2.84,2.84,0,0,1,2.4,1.56,7.44,7.44,0,0,1,.54,2.16c.78,5.42,1.35,10.93,1.7,16.47Z"/><path d="M1063.82,996.16,1043.44,995l1.45,1.11A127.91,127.91,0,0,1,1043,982a9.18,9.18,0,0,1-.13-3.13c.09-.25.08-.29,0-.1l.75-.09c.58-.07,1.17-.13,1.75-.17a60,60,0,0,1,7.09-.17,44.22,44.22,0,0,1,7,.65,1.48,1.48,0,0,1,1.37,1.14,17,17,0,0,1,.54,3.25c.64,4.75,1.1,9.53,1.4,14.31l1.9-1.44-.42-.07c-1.89-.31-2.7,2.58-.8,2.89l.42.07a1.52,1.52,0,0,0,1.9-1.45c-.29-4.47-.71-8.94-1.28-13.38-.25-1.92-.25-4.26-1.17-6a4.6,4.6,0,0,0-3.74-2.31,63.14,63.14,0,0,0-13.32-.55c-1,.07-2,.17-3.07.29a3.52,3.52,0,0,0-2.5,1c-1.21,1.37-.77,3.66-.64,5.3a137.14,137.14,0,0,0,2,14.85,1.52,1.52,0,0,0,1.45,1.1l20.38,1.18C1065.75,999.27,1065.74,996.27,1063.82,996.16Z"/><path class="cls-3" d="M1091.6,997.66l-20.42-1.18a132.59,132.59,0,0,1-2.49-16.18,4.34,4.34,0,0,1,.25-2.51,1.26,1.26,0,0,1,1-.48,61.28,61.28,0,0,1,16.88.22,3,3,0,0,1,2.45,1.56,7.48,7.48,0,0,1,.59,2.16c.94,5.42,1.66,10.93,2.17,16.47Z"/><path d="M1091.6,996.16,1071.18,995l1.45,1.11a131.25,131.25,0,0,1-2.31-14.45c-.06-.62-.52-2.4-.15-3-.17.26.38.06.63,0,.58-.07,1.17-.13,1.75-.17a59.78,59.78,0,0,1,7.08-.17,43.58,43.58,0,0,1,7,.65c1.9.39,1.78,2.83,2,4.39q1.17,7.13,1.82,14.31l1.89-1.44-.42-.07c-1.88-.31-2.7,2.59-.79,2.89l.42.07c.86.14,2-.38,1.9-1.45q-.62-6.59-1.61-13.12c-.3-2-.39-4.28-1.29-6.1a4.64,4.64,0,0,0-3.86-2.48,63.24,63.24,0,0,0-13.33-.55c-1,.07-2,.16-3.07.29a3.66,3.66,0,0,0-2.38.86c-1.3,1.32-.81,3.6-.64,5.24a141,141,0,0,0,2.39,15,1.53,1.53,0,0,0,1.45,1.1l20.42,1.18C1093.52,999.27,1093.52,996.27,1091.6,996.16Z"/><path class="cls-3" d="M1119.37,997.66l-20.45-1.18A134.67,134.67,0,0,1,1096,980.3a4.23,4.23,0,0,1,.18-2.51,1.23,1.23,0,0,1,1-.48,61.38,61.38,0,0,1,16.89.22,3,3,0,0,1,2.48,1.56,7.55,7.55,0,0,1,.66,2.16c1.09,5.42,2,10.93,2.62,16.47Z"/><path d="M1119.37,996.16,1098.92,995l1.45,1.11a136.16,136.16,0,0,1-2.66-14c-.08-.59-.16-1.19-.23-1.78,0-.33-.27-1.3-.08-1.58-.19.09-.18.11,0,.06l.61-.07,1.79-.18a61.46,61.46,0,0,1,7-.16,43.43,43.43,0,0,1,7,.65c1.93.39,1.88,2.83,2.19,4.44q1.35,7.1,2.21,14.26l1.9-1.44-.42-.07c-1.89-.3-2.7,2.59-.8,2.89l.42.07c.85.13,2-.38,1.9-1.45-.53-4.43-1.18-8.85-2-13.24-.35-2-.52-4.19-1.42-6A4.78,4.78,0,0,0,1114,976a63.67,63.67,0,0,0-13.23-.56q-1.57.1-3.15.3a3.59,3.59,0,0,0-2.38.86c-1.34,1.37-.71,3.79-.49,5.46a137.71,137.71,0,0,0,2.77,14.8,1.51,1.51,0,0,0,1.44,1.1l20.45,1.18C1121.3,999.27,1121.29,996.27,1119.37,996.16Z"/><path class="cls-3" d="M675.6,907.43l30.85.58a63.26,63.26,0,0,1-2.39,13.86,3.63,3.63,0,0,1-1.39,2.24,4,4,0,0,1-1.78.45,171.9,171.9,0,0,1-26.83.15c-1.3-.1-2.76-.31-3.17-1.35a3.34,3.34,0,0,1,0-1.9A107.11,107.11,0,0,1,675,907.38Z"/><path d="M675.6,908.93l30.85.58L705,908a61.31,61.31,0,0,1-1.89,11.82,9.82,9.82,0,0,1-.77,2.52c-.46.77-1.34.7-2.14.77-2.14.16-4.29.29-6.43.38q-6.22.27-12.46.08c-2.08-.06-4.17-.16-6.25-.3a7.79,7.79,0,0,1-2.31-.29c-.77-.31-.32-1.13-.17-1.82a107.88,107.88,0,0,1,3.9-13.39l-1.45,1.1.62,0c1.92.15,1.91-2.85,0-3l-.62,0a1.53,1.53,0,0,0-1.44,1.11,97,97,0,0,0-4,14.07c-.38,1.88-.2,3.69,1.74,4.57s4.38.7,6.42.8c5,.27,10.06.3,15.08.11q3.84-.13,7.67-.44c2-.16,3.7-.61,4.63-2.54a29.87,29.87,0,0,0,1.91-7.36,64.28,64.28,0,0,0,1-8.19,1.51,1.51,0,0,0-1.5-1.5l-30.85-.58A1.5,1.5,0,0,0,675.6,908.93Z"/><path class="cls-3" d="M668.91,931l37.17.61a57.64,57.64,0,0,1-2.26,14.6,3.53,3.53,0,0,1-1.58,2.36,5.28,5.28,0,0,1-2.11.47,235.67,235.67,0,0,1-32.31.15c-1.57-.1-3.33-.32-3.88-1.41a3.13,3.13,0,0,1,0-2,98.43,98.43,0,0,1,4.25-14.82Z"/><path d="M668.91,932.45l37.17.61-1.5-1.5a56.86,56.86,0,0,1-2.07,13.72c-.19.69-.34,1.56-1,1.94a8.07,8.07,0,0,1-3.1.39q-3.58.23-7.18.36c-4.73.17-9.48.2-14.22.08-2.34,0-4.67-.15-7-.28-1,0-2.05-.07-3.06-.2-.76-.1-1.69-.13-1.64-1a22.28,22.28,0,0,1,.8-3.69c.3-1.24.62-2.48,1-3.71.74-2.65,1.61-5.26,2.56-7.84l-1.45,1.1.75.05c1.92.13,1.91-2.87,0-3l-.75-.05a1.54,1.54,0,0,0-1.44,1.1q-1.44,3.87-2.57,7.84a55.42,55.42,0,0,0-1.82,7.82c-.29,2.29,1.1,3.77,3.27,4.22a48.3,48.3,0,0,0,7.51.55q8.31.33,16.62.09,4.34-.13,8.66-.41c2.2-.15,4.65-.09,6-2.13a10.46,10.46,0,0,0,1.24-3.36c.38-1.49.72-3,1-4.51a59.71,59.71,0,0,0,.93-9.05,1.52,1.52,0,0,0-1.5-1.5l-37.17-.61A1.5,1.5,0,0,0,668.91,932.45Z"/><path class="cls-3" d="M662.55,953.91l49.66.64a47.1,47.1,0,0,1-1.78,15.33,3.42,3.42,0,0,1-1.9,2.48,8,8,0,0,1-2.78.49,398.35,398.35,0,0,1-43.14.17c-2.11-.11-4.47-.34-5.3-1.49a2.69,2.69,0,0,1-.2-2.11,80.45,80.45,0,0,1,4.45-15.56Z"/><path d="M662.55,955.41l49.66.64-1.5-1.5a44.94,44.94,0,0,1-.33,8.36c-.18,1.26-.41,2.51-.68,3.75a11.75,11.75,0,0,1-1.06,3.7c-.62.93-1.88.93-2.89,1-1.49.1-3,.17-4.46.23q-4.32.21-8.65.31-8.7.23-17.42.07c-2.83-.06-5.67-.14-8.5-.25-1.37-.06-2.74-.11-4.11-.19a11.32,11.32,0,0,1-3.42-.49c-.52-.2-.71-.3-.68-.87a12.48,12.48,0,0,1,.4-2.18c.31-1.55.67-3.08,1.08-4.61a83.71,83.71,0,0,1,3-9.11l-1.44,1.1,1,0c1.93.1,1.92-2.9,0-3l-1,0a1.53,1.53,0,0,0-1.45,1.1,83.07,83.07,0,0,0-3.07,9.35c-.39,1.44-.73,2.9-1,4.37s-.76,2.9-.37,4.26c.72,2.56,4,2.87,6.17,3,3.16.23,6.35.31,9.52.4q9.79.27,19.59.06,4.94-.09,9.88-.32c1.65-.08,3.3-.15,5-.26a8.58,8.58,0,0,0,3.89-.87,5.29,5.29,0,0,0,2.24-3.2,45.48,45.48,0,0,0,1.17-5.17,47.89,47.89,0,0,0,.66-10.56,1.52,1.52,0,0,0-1.5-1.5l-49.66-.64A1.5,1.5,0,0,0,662.55,955.41Z"/><path class="cls-3" d="M655.05,978l33.25.67a78.76,78.76,0,0,1-2.89,16.12,4.29,4.29,0,0,1-1.55,2.61,3.93,3.93,0,0,1-1.92.52,171.15,171.15,0,0,1-29,.18c-1.4-.11-3-.36-3.39-1.57a4.24,4.24,0,0,1,.1-2.22A133.37,133.37,0,0,1,654.39,978Z"/><path d="M655.05,979.53l33.25.67-1.5-1.5a77.77,77.77,0,0,1-2.2,13.39,28,28,0,0,1-.83,3c-.44,1.16-1.17,1.32-2.32,1.43-2.37.21-4.74.36-7.11.47-4.67.21-9.35.25-14,.08-2.29-.08-4.59-.2-6.88-.38-.57,0-1.93,0-2.34-.49s.19-2.18.34-2.81a135.51,135.51,0,0,1,4.4-15l-1.45,1.11.66,0c1.93.16,1.92-2.84,0-3l-.66,0a1.52,1.52,0,0,0-1.44,1.1,133.27,133.27,0,0,0-4.56,15.68c-.46,2-.83,4.38,1.33,5.59,2,1.11,4.83.91,7,1,5.45.31,10.92.35,16.37.13q4.17-.16,8.33-.52c2.4-.21,4.17-.93,5.09-3.31a47.42,47.42,0,0,0,2.08-8.41,83.81,83.81,0,0,0,1.18-9.08,1.52,1.52,0,0,0-1.5-1.5l-33.25-.67C653.12,976.49,653.12,979.49,655.05,979.53Z"/><path class="cls-3" d="M693.73,978l26.31.67a99.22,99.22,0,0,1-2.62,16.12,4.78,4.78,0,0,1-1.28,2.61,2.71,2.71,0,0,1-1.54.52,107.45,107.45,0,0,1-22.94.18c-1.11-.11-2.34-.36-2.65-1.57a5.31,5.31,0,0,1,.12-2.22A162.91,162.91,0,0,1,693.21,978Z"/><path d="M693.73,979.53l26.31.67-1.5-1.5a95.11,95.11,0,0,1-1.75,12.12c-.21,1-.45,2.09-.7,3.12-.17.72-.3,1.86-.93,2.31s-2,.36-2.75.43c-1.13.1-2.27.19-3.4.26a108,108,0,0,1-12.2.08,31.5,31.5,0,0,1-5.66-.48c-.79-.18-.77-.54-.66-1.33.15-1,.4-2.05.62-3.06q1.47-7,3.55-13.78l-1.45,1.11.52,0c1.92.21,1.9-2.8,0-3l-.52,0a1.51,1.51,0,0,0-1.45,1.1q-2.16,7.15-3.69,14.48c-.4,1.91-1.28,4.44.13,6.13,1.22,1.47,3.35,1.44,5.09,1.59A106.79,106.79,0,0,0,708,1000a51.6,51.6,0,0,0,7.35-.65c2.11-.43,3-2.22,3.48-4.13a97.08,97.08,0,0,0,2.67-16.52,1.52,1.52,0,0,0-1.5-1.5l-26.31-.67C691.8,976.48,691.8,979.48,693.73,979.53Z"/><path class="cls-3" d="M728,978l33.29.67a77.41,77.41,0,0,1-1.68,16.12,4,4,0,0,1-1.36,2.61,3.73,3.73,0,0,1-1.88.52,171,171,0,0,1-29,.18c-1.41-.11-3-.36-3.51-1.57a4.36,4.36,0,0,1-.06-2.22A124.72,124.72,0,0,1,727.32,978Z"/><path d="M728,979.53l33.29.67-1.5-1.5a75.13,75.13,0,0,1-1.2,13.56,23.06,23.06,0,0,1-.63,3c-.36,1.1-1,1.17-2.09,1.27-2.31.21-4.63.35-6.94.46q-7.12.35-14.25.09-3.4-.12-6.79-.38c-.66-.06-1.88,0-2.4-.49s-.13-1.94,0-2.62a127.76,127.76,0,0,1,3.32-15.19l-1.45,1.11.67,0c1.92.16,1.91-2.84,0-3l-.67,0a1.51,1.51,0,0,0-1.45,1.1,128.79,128.79,0,0,0-3.42,15.89c-.3,2.06-.44,4.24,1.66,5.38s4.73.9,6.91,1q8.21.47,16.41.15,4.23-.16,8.43-.53c2.37-.21,4.13-.91,4.94-3.31a42.39,42.39,0,0,0,1.44-8.31,76.14,76.14,0,0,0,.54-9.18,1.53,1.53,0,0,0-1.5-1.5L728,976.53C726.05,976.49,726.05,979.49,728,979.53Z"/><path class="cls-3" d="M1034.27,999l-34.17-.69a78.43,78.43,0,0,1-2.23-16.24,3,3,0,0,1,.72-2.53,3.25,3.25,0,0,1,1.73-.5,170.87,170.87,0,0,1,28.35-.17c1.42.11,3,.35,3.92,1.51a4.77,4.77,0,0,1,.74,2.16,121.31,121.31,0,0,1,1.64,16.52Z"/><path d="M1034.27,997.53l-34.17-.69,1.44,1.1a78.61,78.61,0,0,1-2.06-13.46,21.2,21.2,0,0,1-.11-3.08c.09-1,1.08-.84,1.92-.91q3.39-.29,6.8-.44,6.85-.28,13.71,0c2.29.09,4.59.2,6.87.39a4.89,4.89,0,0,1,2.38.6c.74.53.78,1.62.92,2.45a120.5,120.5,0,0,1,1.5,15.64l1.5-1.5-.7-.06c-1.92-.16-1.91,2.85,0,3l.7.06a1.51,1.51,0,0,0,1.5-1.5,127.51,127.51,0,0,0-1.53-16c-.37-2.31-1-4.29-3.37-5.19-2.09-.8-4.62-.68-6.83-.79-5.46-.3-10.94-.34-16.4-.11-2.68.12-5.36.26-8,.53-2.26.23-3.75,1.27-3.93,3.65a41.94,41.94,0,0,0,.6,8.51,83.3,83.3,0,0,0,1.66,9,1.54,1.54,0,0,0,1.45,1.11l34.17.69C1036.2,1000.57,1036.2,997.57,1034.27,997.53Z"/><path class="cls-3" d="M994.76,999l-27-.69a98.18,98.18,0,0,1-1.43-16.24,3.61,3.61,0,0,1,.62-2.53,2.22,2.22,0,0,1,1.37-.5,107.37,107.37,0,0,1,22.46-.17,3.63,3.63,0,0,1,3.07,1.51,5.74,5.74,0,0,1,.55,2.16,153.27,153.27,0,0,1,1,16.52Z"/><path d="M994.76,997.53l-27-.69,1.45,1.1a97.25,97.25,0,0,1-1.3-12.27c0-.95-.07-1.91-.08-2.86,0-.43-.21-1.82.16-2.16s2.18-.27,2.76-.33c1-.09,2.11-.17,3.16-.23a107.9,107.9,0,0,1,12.46,0c1.68.1,3.82-.06,5.41.54s1.24,3.08,1.37,4.37q.69,7,.71,14.12l1.5-1.5-.55-.06c-1.91-.2-1.9,2.8,0,3l.55.06a1.5,1.5,0,0,0,1.5-1.5c0-5-.28-9.91-.78-14.84-.2-1.91-.19-4.16-1.71-5.55s-3.68-1.32-5.55-1.47a107.07,107.07,0,0,0-14.66-.16c-1.22.07-2.44.16-3.65.28a14.61,14.61,0,0,0-3.49.48c-1.94.68-2.2,2.71-2.19,4.51a99,99,0,0,0,1.49,16.39,1.51,1.51,0,0,0,1.44,1.11l27,.69C996.69,1000.58,996.69,997.58,994.76,997.53Z"/><path class="cls-3" d="M959.77,999l-34.12-.69a76.56,76.56,0,0,1-1-16.24,3.24,3.24,0,0,1,.9-2.53,3.47,3.47,0,0,1,1.77-.5,171.17,171.17,0,0,1,28.37-.17c1.4.11,3,.35,3.8,1.51a4.59,4.59,0,0,1,.58,2.16,121.06,121.06,0,0,1,.41,16.52Z"/><path d="M959.77,997.53l-34.12-.69,1.45,1.1a75.87,75.87,0,0,1-1-13.46,17.11,17.11,0,0,1,.12-3c.21-1,1.2-.88,2.09-1q3.42-.29,6.84-.44,6.86-.28,13.71,0c2.28.09,4.57.2,6.85.39a4.31,4.31,0,0,1,2.31.6c.68.56.59,1.73.66,2.53a124.32,124.32,0,0,1,.32,15.56l1.5-1.5-.7-.06c-1.92-.16-1.91,2.84,0,3l.7.06a1.52,1.52,0,0,0,1.5-1.5,122.66,122.66,0,0,0-.36-16c-.21-2.27-.76-4.22-3.07-5.11-2.07-.8-4.59-.68-6.77-.79-5.46-.3-10.94-.33-16.4-.11-2.69.12-5.39.26-8.06.53-2.27.23-3.79,1.26-4.09,3.63a47.64,47.64,0,0,0,0,8.53,84.86,84.86,0,0,0,1,9,1.53,1.53,0,0,0,1.45,1.11l34.12.69C961.7,1000.57,961.7,997.57,959.77,997.53Z"/><path class="cls-3" d="M770,978.81l145.94.67c4.17,5.26,5.89,10.68,5.11,16.15-.14,1-.62,2-3.92,2.61a54.22,54.22,0,0,1-7.82.52c-42,.88-84.4.94-126.35.18-6.24-.11-13.34-.36-16.52-1.57-1.72-.65-1.9-1.45-2-2.22a28.83,28.83,0,0,1,2.63-16.4Z"/><path d="M770,980.31l57,.26,56.79.26,32.13.15-1.06-.44a23.55,23.55,0,0,1,4.14,7.72,16.91,16.91,0,0,1,.69,3.86,9.73,9.73,0,0,1-.18,3.45c-.09.27-.35.5-.89.73a13,13,0,0,1-4.11.75c-3.21.26-6.45.24-9.67.3q-19.83.39-39.66.53-39.76.29-79.52-.39c-3.36-.06-6.71-.11-10.06-.29a36,36,0,0,1-8-1c-1-.27-1.64-.47-1.8-1.49a24.41,24.41,0,0,1-.17-4.91,28.93,28.93,0,0,1,2.65-10.28l-1.29.74,2.94.06c1.94,0,1.94-3,0-3l-2.94-.06a1.5,1.5,0,0,0-1.3.75,31.24,31.24,0,0,0-3,16c.2,2.07.61,3.63,2.66,4.55a19.46,19.46,0,0,0,5.59,1.25,158.35,158.35,0,0,0,15.86.68q8.9.15,17.8.25,36,.4,71.9,0c11.82-.13,23.66-.15,35.46-.59,3.16-.12,9.43.07,10.39-4,1.07-4.49-.39-9.6-2.56-13.53a29.46,29.46,0,0,0-2.08-3.22c-.36-.49-.72-1.13-1.3-1.37A7.59,7.59,0,0,0,914,978l-9,0L887,977.85l-35.86-.17L779,977.35l-9,0A1.5,1.5,0,0,0,770,980.31Z"/><path class="cls-3" d="M992.83,887.06l30.37.55a59.19,59.19,0,0,1,2.38,13.24,2.35,2.35,0,0,1-.6,2.14,2.94,2.94,0,0,1-1.58.42,170.54,170.54,0,0,1-26.17.15c-1.3-.09-2.79-.3-3.56-1.29a3.71,3.71,0,0,1-.6-1.82,88.56,88.56,0,0,1-.85-13.44Z"/><path d="M992.83,888.56l30.37.55-1.45-1.1a60.09,60.09,0,0,1,1.73,7.51c.21,1.29.38,2.59.49,3.89,0,.5.41,2.05,0,2.41s-1.28.15-1.59.17l-2,.14q-2,.14-3.93.21c-2.47.11-4.94.15-7.41.15s-5-.06-7.43-.17c-1.32-.06-2.64-.14-4-.23-.81-.05-2.14,0-2.77-.63s-.54-2.1-.64-2.94c-.15-1.28-.27-2.57-.37-3.86-.19-2.54-.26-5.1-.23-7.65l-1.5,1.5.61,0c1.93.14,1.92-2.86,0-3l-.61,0a1.52,1.52,0,0,0-1.5,1.5,86.59,86.59,0,0,0,.9,13.84c.73,4.77,6.12,4.28,9.83,4.46,4.77.22,9.56.24,14.34.06,2.38-.09,4.75-.22,7.12-.42,1.87-.15,3.69-.57,4.1-2.68a12.06,12.06,0,0,0-.08-3.34c-.12-1.25-.29-2.49-.48-3.74a60.59,60.59,0,0,0-1.81-8,1.53,1.53,0,0,0-1.44-1.1l-30.37-.55C990.9,885.52,990.9,888.52,992.83,888.56Z"/><path class="cls-3" d="M990,930.56l37,.61a58.41,58.41,0,0,1,2.76,14.58,2.46,2.46,0,0,1-.75,2.36,4.05,4.05,0,0,1-1.93.47,232.1,232.1,0,0,1-32,.16c-1.59-.11-3.41-.33-4.33-1.42a3.82,3.82,0,0,1-.71-2,88.24,88.24,0,0,1-.86-14.81Z"/><path d="M990,932.06l37,.61-1.44-1.1a58.8,58.8,0,0,1,2.66,13.46c0,.77.37,1.76-.52,2a20.33,20.33,0,0,1-3.31.26q-3.56.22-7.11.34-6.89.21-13.79,0c-2.38-.06-4.77-.17-7.15-.31-1.36-.08-4.18.14-4.67-1.52a19.87,19.87,0,0,1-.5-3.6q-.21-1.92-.33-3.84c-.16-2.61-.2-5.22-.14-7.84l-1.5,1.5.75,0c1.93.13,1.92-2.87,0-3l-.75,0a1.52,1.52,0,0,0-1.5,1.5,72.05,72.05,0,0,0,1,15.73c.44,2.2,2.2,3.39,4.32,3.76a57,57,0,0,0,7.51.52q8.25.33,16.51.09,4.05-.14,8.08-.4c2.13-.14,5.09,0,5.93-2.46a9.06,9.06,0,0,0,.09-3.67c-.13-1.48-.32-3-.56-4.43a61.06,61.06,0,0,0-2.13-8.88,1.54,1.54,0,0,0-1.45-1.1l-37-.61C988.11,929,988.11,932,990,932.06Z"/><path class="cls-3" d="M1031.29,973.62l-52.74-1.49a46.6,46.6,0,0,1-2.28-15.43,2.36,2.36,0,0,1,1.3-2.38,7.38,7.38,0,0,1,2.69-.43,427.76,427.76,0,0,1,43.84.51c2.18.14,4.68.4,5.94,1.53a3.32,3.32,0,0,1,1,2.06,71.29,71.29,0,0,1,1.32,15.7Z"/><path d="M1031.29,972.12l-52.74-1.49,1.45,1.1a47,47,0,0,1-1.91-8.51c-.16-1.32-.26-2.64-.31-4,0-.87-.37-2.6.16-3.36s2.55-.51,3.3-.54c1.48-.06,3-.1,4.42-.14q4.43-.12,8.85-.15,8.75,0,17.5.25,4.32.15,8.63.39c2.43.13,5.31-.05,7.61.88,1.25.51,1.3,1.54,1.52,2.75.29,1.59.53,3.2.71,4.81a72.5,72.5,0,0,1,.38,9.55l1.5-1.5-1.07-.07c-1.93-.13-1.92,2.87,0,3l1.07.07a1.51,1.51,0,0,0,1.5-1.5,72.74,72.74,0,0,0-.41-9.79c-.17-1.48-.37-3-.62-4.42a9,9,0,0,0-1.23-4c-1.5-2-4.41-2.3-6.72-2.49-3.21-.25-6.44-.38-9.66-.52q-10.11-.42-20.22-.37c-3.28,0-6.56.07-9.83.16-1.64,0-3.27.09-4.91.17a7.62,7.62,0,0,0-3.79.82,4,4,0,0,0-1.69,3.34,35.66,35.66,0,0,0,.16,5.27,50.89,50.89,0,0,0,2.17,10.71,1.54,1.54,0,0,0,1.44,1.1l52.74,1.49C1033.22,975.17,1033.22,972.17,1031.29,972.12Z"/></g></svg>