<svg id="Calque_1" data-name="Calque 1" xmlns="http://www.w3.org/2000/svg" width="367.34" height="273.44" viewBox="0 0 367.34 273.44"><defs><style>.cls-1,.cls-4{fill:#303030;}.cls-2{fill:#969696;}.cls-3{fill:#b2b2b2;}.cls-4{stroke:#000;stroke-miterlimit:10;}.cls-5{fill:#dbdabf;}.cls-6{fill:#3fff00;}</style></defs><path class="cls-1" d="M339.48,24.4a12.21,12.21,0,0,0-.94-5.57c-2.05-3.92-7.36-4.42-11.79-4.4q-124.75.4-249.5,2.46l3,.24L52.93,18.64c-2,.11-4.23.32-5.6,1.79S45.9,24.05,45.89,26q-.18,90.07.24,180.16c61.69,4.53,123.5,8.62,185.36,7.93q49.61-.54,99.06-5.19c3.2-.3,6.79-.83,8.65-3.44,1.34-1.88,1.4-4.35,1.41-6.66C340.81,140.68,340.15,82.54,339.48,24.4ZM292.85,192.24v-.1q-119.38.95-238.78.57Q52.76,111.14,53,29.54l1-.39a460.35,460.35,0,0,0,48.29-.77l-.29-.23c28,2,56,1.62,84,1.25l145.88-1.91.57,164.18Z" transform="translate(-6.54 -12.88)"/><path d="M341,24.4c0-3.52-.57-6.92-3.62-9.1-2.46-1.77-5.66-2.21-8.61-2.34-4.19-.18-8.4,0-12.59,0l-13.54,0q-27.36.13-54.72.33-54.74.4-109.46,1.13-30.6.4-61.19.91a1.5,1.5,0,0,0,0,3l3,.24v-3L58.15,16.85c-3,.17-6.57-.09-9.48,1-2.67,1-3.91,3.31-4.19,6a100.06,100.06,0,0,0-.1,10.1q0,5.6,0,11.19,0,11,0,22.08,0,44.46.1,88.91.08,25,.19,50a1.52,1.52,0,0,0,1.5,1.5c31.53,2.31,63.08,4.51,94.67,6S204,216,235.57,215.57q47-.67,93.82-5c2.85-.26,5.9-.46,8.45-1.9s3.84-4.08,4.15-7a107.17,107.17,0,0,0,.14-11q0-6,0-12.08,0-23.73-.14-47.44-.27-47.44-.88-94.87c-.05-3.93-.09-7.86-.14-11.79a1.5,1.5,0,0,0-3,0q.54,46.85.94,93.7.16,23.42.21,46.84,0,11.64,0,23.28c0,3.84,0,7.69,0,11.54-.07,3.27-1,5.9-4.32,6.94-3.2,1-6.74,1-10,1.27q-5.81.51-11.63,1-11.36.9-22.71,1.59-23.31,1.4-46.65,1.89c-31.1.67-62.2.06-93.27-1.27s-62-3.39-92.93-5.63l-11.42-.83,1.5,1.5q-.21-43.12-.27-86.25t0-86q0-3.09,0-6.18A19.12,19.12,0,0,1,47.64,23c.92-3.48,5.68-2.89,8.48-3.05l24.1-1.33a1.5,1.5,0,0,0,0-3l-3-.24v3q53.25-.87,106.5-1.45t106.52-.86l30-.13c4,0,8.2-.44,12.09.45a7.63,7.63,0,0,1,4.26,2.24C338,20.24,338,22.43,338,24.4S341,26.34,341,24.4Z" transform="translate(-6.54 -12.88)"/><path d="M294.3,191.84v-.1a1.52,1.52,0,0,0-1.45-1.1q-46.59.38-93.17.54t-93.17.13q-26.22,0-52.44-.1l1.5,1.5q-.51-31.85-.78-63.7t-.3-63.7q0-17.89,0-35.77L53.41,31c1.36-.53,2.76-.27,4.22-.22,2.13.06,4.25.1,6.38.13q6.39.11,12.78,0,12.76-.17,25.52-1c1.14-.08,2.17-1.69,1.06-2.57l-.29-.22L102,29.65c29.83,2.11,59.76,1.57,89.63,1.18l89.71-1.18L331.94,29l-1.5-1.5q.12,32,.23,63.94t.22,64.22l.12,36,1.5-1.5-39.66.57c-1.92,0-1.93,3,0,3l39.66-.57a1.52,1.52,0,0,0,1.5-1.5q-.11-32-.22-63.94t-.22-64.22l-.13-36a1.52,1.52,0,0,0-1.5-1.5l-90,1.18c-29.86.39-59.73,1-89.59,1-16.79,0-33.59-.36-50.35-1.54-1.22-.08-2.08,1.76-1.06,2.56l.29.23,1.06-2.56q-13,.89-26.08,1-6.39.07-12.77,0-3.33-.06-6.67-.16a9.9,9.9,0,0,0-4.17.35,1.58,1.58,0,0,0-1.11,1.45q-.09,31.86,0,63.71t.51,63.7q.21,17.88.5,35.76a1.52,1.52,0,0,0,1.5,1.5q46.59.15,93.17.09T240.4,194q26.22-.13,52.44-.35l-1.45-1.1,0,.1C291.7,194.54,294.59,193.73,294.3,191.84Z" transform="translate(-6.54 -12.88)"/><path class="cls-2" d="M14.9,274.36l-.15,4.73c7.94,3.67,17,3.79,25.75,3.84l316.9,1.84c6.22,0,14.43-1.62,15-7.81.29-3.35-2.12-6.35-4.8-8.37-5.78-4.35-13.12-5.91-20.2-7.35l-31-6.34Z" transform="translate(-6.54 -12.88)"/><path d="M13.4,274.36l-.15,4.73a1.48,1.48,0,0,0,.75,1.3c9.24,4.16,19.42,4,29.36,4.06l33.54.19,66.38.39L276,285.8l66.37.38c5.42,0,10.88.25,16.29.07a24.46,24.46,0,0,0,9.84-2.1,8.86,8.86,0,0,0,5.28-6.78c.5-4.17-2.34-7.71-5.5-10.07-7.79-5.84-18.19-7-27.45-8.92L325,255.15c-2.64-.54-5.28-1.14-7.93-1.62a5.66,5.66,0,0,0-.81-.12,57,57,0,0,0-5.69.36L276.18,256l-55.52,3.59-65.56,4.23-63.42,4.1-50.16,3.24L16,272.79l-1.12.07c-1.92.13-1.93,3.13,0,3l17.23-1.11,44.29-2.86L136.34,268l65.19-4.2,58.79-3.8,42-2.71,11.12-.72c.82,0,1.66-.16,2.48-.16.13,0,.27,0,.4,0a40,40,0,0,1,5.13,1.08l8.28,1.68,15.86,3.24A96.07,96.07,0,0,1,359,265.76c4.12,1.48,9.15,3.9,11.22,8,1.79,3.54-.26,6.56-3.55,8s-7.09,1.54-10.67,1.52l-16.42-.1L306.73,283l-131.33-.76-130.62-.75c-9.77-.06-20.15.44-29.27-3.66l.74,1.29.15-4.73C16.46,272.43,13.46,272.44,13.4,274.36Z" transform="translate(-6.54 -12.88)"/><path class="cls-3" d="M77.46,204.68c-11.09,2.25-24.5-3.6-32.94,3.95-2.8,2.5-4.38,6.06-5.89,9.51L16,270.1c-.79,1.82-1.38,4.39.31,5.44a4.22,4.22,0,0,0,2.26.42l158.32-.19,32.67,0,155.1-.19c1.89,0,4-.12,5.25-1.58,1.52-1.82.65-4.56-.29-6.74Q358.09,240.46,345.86,214c-1.66-3.58-3.53-7.39-7-9.3-2.67-1.49-5.87-1.59-8.93-1.61q-10.63-.06-21.26.58Z" transform="translate(-6.54 -12.88)"/><path d="M77.06,203.23c-8,1.53-16.09-.92-24.1.18a17.62,17.62,0,0,0-9.5,4.16c-3.28,2.94-5,7.15-6.68,11.1L24.2,247.53l-6.43,14.75c-1,2.36-2.07,4.7-3.07,7.06a8.36,8.36,0,0,0-.88,5c1,4.37,7.16,3.12,10.39,3.11l16.26,0,31.8,0,64.32-.07,127.6-.16,63.8-.08,32.08,0c3.41,0,8.74.88,11.13-2.32,2.57-3.45-.23-8.13-1.67-11.44q-6.19-14.32-12.59-28.56-3.27-7.28-6.6-14.52c-1.9-4.14-3.54-8.67-6.16-12.42a13.44,13.44,0,0,0-9.92-5.94c-5-.6-10.25-.24-15.28-.1-3.64.11-7.28.42-10.92.46-9,.1-18.07.08-27.1.12l-53.86.23-63.26.26-55.47.24-29.55.12H77.46a1.5,1.5,0,0,0,0,3l19.87-.08,48.73-.21,61.3-.26,57.58-.24,37.54-.16c2.06,0,4.12,0,6.17,0,8.09-.24,16.29-1.09,24.38-.48a11.07,11.07,0,0,1,6.52,2.29,16.36,16.36,0,0,1,3.71,5.08c2.27,4.36,4.18,8.94,6.22,13.41q6.33,13.88,12.47,27.85,3.07,7,6.09,14c.67,1.54,2,4.17.67,5.68s-4.42,1-6.17,1l-62.4.07-124,.16-125.1.15-31.1,0c-1,0-3,.41-3.25-.93a4.56,4.56,0,0,1,.4-2.21c.84-2.45,2.07-4.82,3.1-7.2l6.29-14.43,12.3-28.23c1.71-3.91,3.23-8.34,6.36-11.39,2.74-2.66,6.45-3.67,10.18-3.89,7.52-.45,15,1.38,22.51-.05C79.75,205.76,79,202.87,77.06,203.23Z" transform="translate(-6.54 -12.88)"/><path class="cls-4" d="M289.88,242.42l-15.15-.31a12.91,12.91,0,0,1-.82-4.32.64.64,0,0,1,.35-.67A2.09,2.09,0,0,1,275,237c4.2-.19,8.45-.17,12.68.06a3.19,3.19,0,0,1,1.73.42.92.92,0,0,1,.29.58,18.59,18.59,0,0,1,.44,4.39Z" transform="translate(-6.54 -12.88)"/><path class="cls-1" d="M269.22,243l-15.15-.31a12.73,12.73,0,0,1-.62-4.33.68.68,0,0,1,.38-.68,2.41,2.41,0,0,1,.78-.13c4.22-.19,8.47-.17,12.7.06A3.2,3.2,0,0,1,269,238a.94.94,0,0,1,.27.58,19.15,19.15,0,0,1,.24,4.41Z" transform="translate(-6.54 -12.88)"/><path d="M269.22,241.45l-15.15-.31,1.44,1.1a12.74,12.74,0,0,1-.5-2.2c0-.38-.06-.77-.07-1.16,0-.19,0-.38,0-.57-.63.5-.74.73-.34.69.25.13,1,0,1.27-.05l.95,0c.85,0,1.69,0,2.54,0,1.59,0,3.18,0,4.76.05.85,0,1.7.06,2.55.1.34,0,1.22-.06,1.43.2l-.39-.67A11.27,11.27,0,0,1,268,243l1.5-1.5-.31,0c-1.93-.11-1.92,2.89,0,3l.31,0A1.52,1.52,0,0,0,271,243a21.66,21.66,0,0,0-.2-4.18,2.7,2.7,0,0,0-1.94-2.52,16.68,16.68,0,0,0-3.8-.31c-1.33-.05-2.65-.08-4-.08s-2.65,0-4,0-2.78-.15-3.9.35-1.34,1.73-1.3,2.91a15,15,0,0,0,.67,3.87,1.56,1.56,0,0,0,1.45,1.1l15.15.31C271.15,244.49,271.15,241.49,269.22,241.45Z" transform="translate(-6.54 -12.88)"/><path class="cls-1" d="M84.29,212.07A6.2,6.2,0,0,1,84,215.9a1,1,0,0,1-.82.62,7.35,7.35,0,0,1-1.29.12c-6.83.2-13.65.22-20.35,0a6.81,6.81,0,0,1-2.57-.37.46.46,0,0,1-.19-.52,11.46,11.46,0,0,1,1.42-3.9l.47,0,23.66.16" transform="translate(-6.54 -12.88)"/><path d="M82.84,212.47c.12.58.23,2.25-.1,2.6s-1.35.08-1.64.09l-1.75,0q-3.36.09-6.73.1t-6.69,0l-3.45-.07c-.54,0-2.36.21-2.68-.2l.44,1.06a8.08,8.08,0,0,1,1.21-3.41l-1.29.74c8,.23,16.09.12,24.13.18a1.5,1.5,0,0,0,0-3c-8-.06-16.1.05-24.13-.18a1.52,1.52,0,0,0-1.3.75,10.93,10.93,0,0,0-1.62,4.78c0,1.56,1.49,2,2.77,2.17a101.07,101.07,0,0,0,10.87.21c3.66,0,7.32,0,11-.16,1.33-.06,2.7-.2,3.41-1.48a7.59,7.59,0,0,0,.48-5c-.38-1.89-3.28-1.09-2.9.8Z" transform="translate(-6.54 -12.88)"/><path class="cls-1" d="M75.76,222.57a11.94,11.94,0,0,1,1-4,1,1,0,0,1,.62-.61" transform="translate(-6.54 -12.88)"/><path d="M77.26,222.57c0-.19,0-.38.06-.58l-.06.4a12.46,12.46,0,0,1,.85-3l-.16.36a3.06,3.06,0,0,1,.3-.6l-.23.3a1.29,1.29,0,0,1,.16-.17l-.3.23a1.28,1.28,0,0,1,.23-.14l-.36.15.07,0a1.63,1.63,0,0,0,.9-.69,1.59,1.59,0,0,0,.15-1.15,1.53,1.53,0,0,0-.69-.9,1.48,1.48,0,0,0-1.16-.15,2.79,2.79,0,0,0-1,.62,2.6,2.6,0,0,0-.46.64,13.7,13.7,0,0,0-.66,1.64,12.77,12.77,0,0,0-.61,3.12,1.47,1.47,0,0,0,.44,1.06,1.5,1.5,0,0,0,1.06.44,1.54,1.54,0,0,0,1.5-1.5Z" transform="translate(-6.54 -12.88)"/><path class="cls-1" d="M110.64,222.85l-14.37-.28a11.57,11.57,0,0,1,.86-4,1,1,0,0,1,.59-.61,2.56,2.56,0,0,1,.79-.12c4.09-.18,8.15-.16,12.12.05.59,0,1.25.1,1.49.39a.61.61,0,0,1,.06.53,19.16,19.16,0,0,1-1.25,4Z" transform="translate(-6.54 -12.88)"/><path d="M110.64,221.35l-14.37-.28,1.5,1.5a9.64,9.64,0,0,1,.33-2.14,8.34,8.34,0,0,1,.26-.85c.29-.84,0,0-.12-.18a5.08,5.08,0,0,0,1.21-.06l.94,0,2.35,0c1.5,0,3,0,4.51,0l2.15.07,1.23.06.36,0q.53.17-.09-.21l-.2-.76a7.79,7.79,0,0,1-.42,1.83c-.23.74-.5,1.45-.79,2.16l1.44-1.1-.29,0c-1.92-.11-1.92,2.89,0,3l.29,0a1.55,1.55,0,0,0,1.45-1.1,20.59,20.59,0,0,0,1.16-3.59c.26-1.22.15-2.39-1.14-2.93a10.67,10.67,0,0,0-3.61-.4c-1.24,0-2.47-.08-3.71-.09s-2.5,0-3.75,0a20.52,20.52,0,0,0-3.76.19c-1.22.27-1.72,1.21-2.1,2.3a12.89,12.89,0,0,0-.7,3.79,1.52,1.52,0,0,0,1.5,1.5l14.37.28C112.58,224.39,112.58,221.39,110.64,221.35Z" transform="translate(-6.54 -12.88)"/><path class="cls-1" d="M129.75,222.85l-14.38-.28a11.27,11.27,0,0,1,.68-4,.9.9,0,0,1,.56-.61,2.56,2.56,0,0,1,.79-.12c4.08-.18,8.14-.16,12.12.05.59,0,1.26.1,1.51.39a.62.62,0,0,1,.08.53,18.44,18.44,0,0,1-1.07,4Z" transform="translate(-6.54 -12.88)"/><path d="M129.75,221.35l-14.38-.28,1.5,1.5a9,9,0,0,1,.21-2.14c.07-.29.14-.57.23-.85l.18-.57a.56.56,0,0,1-.36.39,16.79,16.79,0,0,0,2.15-.09l2.35,0q2.25,0,4.5,0l2.16.07,1.23.06.36,0q.52.17-.06-.21l-.21-.76a5.51,5.51,0,0,1-.32,1.83,22.62,22.62,0,0,1-.69,2.16l1.44-1.1-.29,0c-1.92-.11-1.92,2.89,0,3l.29,0a1.54,1.54,0,0,0,1.45-1.1,19.52,19.52,0,0,0,1-3.59c.21-1.23.11-2.39-1.19-2.93a10.73,10.73,0,0,0-3.62-.4q-1.86-.07-3.72-.09c-1.24,0-2.49,0-3.74,0a20.52,20.52,0,0,0-3.76.19,2.89,2.89,0,0,0-2,2.3,12.77,12.77,0,0,0-.54,3.79,1.52,1.52,0,0,0,1.5,1.5l14.38.28C131.69,224.39,131.69,221.39,129.75,221.35Z" transform="translate(-6.54 -12.88)"/><path class="cls-1" d="M148.86,222.85l-14.4-.28a11.28,11.28,0,0,1,.51-4,.84.84,0,0,1,.54-.61,2.45,2.45,0,0,1,.78-.12c4.07-.18,8.13-.16,12.12.05a2.59,2.59,0,0,1,1.53.39.67.67,0,0,1,.11.53,18.43,18.43,0,0,1-.9,4Z" transform="translate(-6.54 -12.88)"/><path d="M148.86,221.35l-14.4-.28,1.5,1.5a10.39,10.39,0,0,1,.16-2.43c0-.23.11-.47.17-.7l.08-.29c.06-.16.06-.18,0-.05l-.36.3.27,0a3.25,3.25,0,0,0,.76,0q2.82-.1,5.64-.09c1.8,0,3.61.07,5.42.16,0,0,1,.12,1,.1l-.55-.67,0,.28a3.1,3.1,0,0,0-.09.61,19.54,19.54,0,0,1-.71,2.73l1.44-1.1-.29,0c-1.92-.11-1.92,2.9,0,3l.29,0a1.53,1.53,0,0,0,1.45-1.1,20.27,20.27,0,0,0,.88-3.85,2.27,2.27,0,0,0-1.41-2.73,11.47,11.47,0,0,0-3.31-.33c-1.26-.05-2.51-.08-3.77-.09s-2.43,0-3.65,0a21.27,21.27,0,0,0-4,.2,2.76,2.76,0,0,0-2,2.3,13.08,13.08,0,0,0-.4,3.79,1.54,1.54,0,0,0,1.5,1.5l14.4.28C150.8,224.39,150.8,221.39,148.86,221.35Z" transform="translate(-6.54 -12.88)"/><path class="cls-1" d="M167.27,222.85l-14.42-.28a10.9,10.9,0,0,1,.34-4,.8.8,0,0,1,.51-.61,2.45,2.45,0,0,1,.78-.12c4.07-.18,8.13-.16,12.12.05a2.68,2.68,0,0,1,1.55.39.68.68,0,0,1,.13.53,17.9,17.9,0,0,1-.72,4Z" transform="translate(-6.54 -12.88)"/><path d="M167.27,221.35l-14.42-.28,1.5,1.5a10.4,10.4,0,0,1,0-2.43c0-.23.09-.47.14-.7s.05-.19.07-.29.05-.18,0-.05l-.38.3.27,0a3.25,3.25,0,0,0,.76,0c1.88-.07,3.75-.1,5.63-.09s3.62.07,5.43.16c0,0,1,.11,1,.1l-.52-.67,0,.28a2.46,2.46,0,0,0-.06.66,18.84,18.84,0,0,1-.59,2.68l1.45-1.1-.29,0c-1.93-.1-1.93,2.9,0,3l.29,0a1.5,1.5,0,0,0,1.44-1.1,20.13,20.13,0,0,0,.73-3.85,2.33,2.33,0,0,0-1.46-2.73,11.53,11.53,0,0,0-3.32-.33q-1.89-.08-3.78-.09c-1.21,0-2.43,0-3.64,0a21.12,21.12,0,0,0-4,.2,2.63,2.63,0,0,0-1.94,2.3,12.37,12.37,0,0,0-.26,3.79,1.54,1.54,0,0,0,1.5,1.5l14.42.28C169.2,224.39,169.2,221.39,167.27,221.35Z" transform="translate(-6.54 -12.88)"/><path class="cls-1" d="M185.67,222.85l-14.43-.28a10.8,10.8,0,0,1,.17-4,.79.79,0,0,1,.49-.61,2.35,2.35,0,0,1,.77-.12c4.06-.18,8.12-.16,12.13.05a2.7,2.7,0,0,1,1.55.39.66.66,0,0,1,.16.53,17.51,17.51,0,0,1-.55,4Z" transform="translate(-6.54 -12.88)"/><path d="M185.67,221.35l-14.43-.28,1.5,1.5a8.75,8.75,0,0,1,.16-3.69l-.5.52.27,0a2.44,2.44,0,0,0,.76,0c1.87-.07,3.75-.1,5.63-.09s3.62.07,5.43.16l1,.1-.48-.67v.28a3.48,3.48,0,0,0,0,.72,15.43,15.43,0,0,1-.45,2.62l1.45-1.1-.29,0c-1.93-.1-1.92,2.9,0,3l.29,0a1.52,1.52,0,0,0,1.45-1.1,20.82,20.82,0,0,0,.58-3.85,2.41,2.41,0,0,0-1.52-2.73,11.6,11.6,0,0,0-3.33-.33q-1.89-.08-3.78-.09c-1.22,0-2.43,0-3.65,0a21.06,21.06,0,0,0-4,.2,2.54,2.54,0,0,0-1.89,2.3,12.68,12.68,0,0,0-.11,3.79,1.54,1.54,0,0,0,1.5,1.5l14.43.28C187.6,224.39,187.6,221.39,185.67,221.35Z" transform="translate(-6.54 -12.88)"/><path class="cls-1" d="M205.49,222.85l-14.44-.28a10.76,10.76,0,0,1,0-4,.72.72,0,0,1,.45-.61,2.35,2.35,0,0,1,.77-.12c4.05-.18,8.11-.16,12.13.05a2.78,2.78,0,0,1,1.57.39.68.68,0,0,1,.18.53,17.19,17.19,0,0,1-.36,4Z" transform="translate(-6.54 -12.88)"/><path d="M205.49,221.35l-14.44-.28,1.44,1.1a10.25,10.25,0,0,1-.12-2.14,6,6,0,0,0,.11-1c.11-.36,0-.23-.49.39a5.25,5.25,0,0,1,.56,0c1.48-.07,3-.1,4.45-.11s3,0,4.44.05l2.36.09c.44,0,1.08,0,1.41.21l-.54-.54c0-.32,0-.3,0,.06v.58c0,.28,0,.57,0,.86a15.27,15.27,0,0,1-.28,1.9l1.45-1.1-.29,0c-1.93-.1-1.93,2.9,0,3l.29,0a1.51,1.51,0,0,0,1.44-1.1,19.24,19.24,0,0,0,.43-3.85c0-1.27-.35-2.34-1.67-2.76a13.44,13.44,0,0,0-3.36-.31q-1.92-.07-3.84-.09c-1.23,0-2.47,0-3.7,0a19.53,19.53,0,0,0-3.75.19c-1.38.31-1.73,1.47-1.88,2.7a12.69,12.69,0,0,0,.15,3.79,1.51,1.51,0,0,0,1.45,1.1l14.44.28C207.42,224.39,207.42,221.39,205.49,221.35Z" transform="translate(-6.54 -12.88)"/><path class="cls-1" d="M225.3,222.85l-14.45-.28a10.79,10.79,0,0,1-.19-4,.68.68,0,0,1,.43-.61,2.24,2.24,0,0,1,.76-.12c4-.18,8.1-.16,12.13.05a2.89,2.89,0,0,1,1.59.39.75.75,0,0,1,.21.53,17,17,0,0,1-.18,4Z" transform="translate(-6.54 -12.88)"/><path d="M225.3,221.35l-14.45-.28,1.45,1.1a9.62,9.62,0,0,1-.24-2.14,5,5,0,0,0,.06-1.13c.08-.27-.1-.1-.54.5a5.25,5.25,0,0,1,.56,0c1.48-.07,3-.1,4.45-.11s3,0,4.44.05l2.36.09a3,3,0,0,1,1.43.21l-.54-.54c0-.32,0-.3,0,.06,0,.2,0,.39,0,.58s0,.57,0,.86a15.24,15.24,0,0,1-.17,1.9l1.45-1.1-.3,0c-1.93-.1-1.92,2.9,0,3l.3,0a1.49,1.49,0,0,0,1.44-1.1,19.9,19.9,0,0,0,.27-3.85c-.05-1.28-.4-2.34-1.73-2.76a13.57,13.57,0,0,0-3.37-.31c-1.28,0-2.56-.08-3.85-.09s-2.47,0-3.7,0a19.42,19.42,0,0,0-3.74.19c-2.62.6-1.93,4.6-1.51,6.49a1.51,1.51,0,0,0,1.44,1.1l14.45.28C227.23,224.39,227.23,221.39,225.3,221.35Z" transform="translate(-6.54 -12.88)"/><path class="cls-1" d="M243.71,222.85l-14.47-.28a11.09,11.09,0,0,1-.36-4,.64.64,0,0,1,.4-.61,2.24,2.24,0,0,1,.76-.12c4-.18,8.1-.16,12.13.05a3,3,0,0,1,1.61.39.73.73,0,0,1,.23.53,16.9,16.9,0,0,1,0,4Z" transform="translate(-6.54 -12.88)"/><path d="M243.71,221.35l-14.47-.28,1.45,1.1a9.76,9.76,0,0,1-.35-2.14,5.42,5.42,0,0,0,0-1.13c-.13-.25-.33-.08-.59.5a5.25,5.25,0,0,1,.56,0c1.48-.07,3-.1,4.44-.11s3,0,4.45.05l2.36.09c.3,0,1.15,0,1.27.14l-.38-.66a5.63,5.63,0,0,1,.15,1.83,17.38,17.38,0,0,1-.12,2.16l1.5-1.5-.29,0c-1.93-.1-1.93,2.9,0,3l.29,0a1.54,1.54,0,0,0,1.5-1.5,17.32,17.32,0,0,0,0-3.74,2.54,2.54,0,0,0-1.85-2.5,15.93,15.93,0,0,0-3.59-.29c-1.23,0-2.46-.07-3.7-.08s-2.47,0-3.7,0a15.75,15.75,0,0,0-3.7.23c-2.52.7-1.69,4.62-1.2,6.45a1.52,1.52,0,0,0,1.44,1.1l14.47.28C245.64,224.39,245.64,221.39,243.71,221.35Z" transform="translate(-6.54 -12.88)"/><path class="cls-1" d="M262.82,222.85l-14.48-.28a11.25,11.25,0,0,1-.54-4" transform="translate(-6.54 -12.88)"/><path d="M262.82,221.35l-14.48-.28,1.45,1.1a10.47,10.47,0,0,1-.49-3.56c.08-1.93-2.92-1.92-3,0a13.39,13.39,0,0,0,.59,4.36,1.54,1.54,0,0,0,1.45,1.1l14.48.28c1.93,0,1.93-3,0-3Z" transform="translate(-6.54 -12.88)"/><path class="cls-1" d="M281.93,222.85l-14.49-.28a11.23,11.23,0,0,1-.71-4" transform="translate(-6.54 -12.88)"/><path d="M281.93,221.35l-14.49-.28,1.44,1.1a10.53,10.53,0,0,1-.65-3.56,1.5,1.5,0,0,0-3,0A13.46,13.46,0,0,0,266,223a1.55,1.55,0,0,0,1.45,1.1l14.49.28c1.93,0,1.93-3,0-3Z" transform="translate(-6.54 -12.88)"/><path class="cls-1" d="M301,222.85l-14.51-.28a11.5,11.5,0,0,1-.88-4A.55.55,0,0,1,286,218a2.07,2.07,0,0,1,.73-.12c4-.18,8.09-.16,12.15.05a3.29,3.29,0,0,1,1.66.39.88.88,0,0,1,.3.53,17.18,17.18,0,0,1,.52,4Z" transform="translate(-6.54 -12.88)"/><path d="M301,221.35l-14.51-.28,1.45,1.1a12.33,12.33,0,0,1-.63-2c-.05-.24-.1-.48-.14-.73s0-.37,0-.56c0-.37,0-.38-.08,0l-.54.53c-.19,0-.13,0,.16,0l.62,0,1.24,0,2.18,0c1.55,0,3.11,0,4.67,0,.37,0,4.16.27,4.18.22s0-.15-.23-.27l.07.28a6.69,6.69,0,0,0,.23,1.15,16,16,0,0,1,.17,2.19l1.5-1.5-.29,0c-1.93-.1-1.93,2.9,0,3l.29,0a1.51,1.51,0,0,0,1.5-1.5,20.16,20.16,0,0,0-.41-3.71,2.85,2.85,0,0,0-1.94-2.5,13.74,13.74,0,0,0-3.51-.31c-1.24,0-2.49-.08-3.74-.09s-2.49,0-3.74,0a18.26,18.26,0,0,0-3.7.19c-2.78.64-1.4,4.74-.7,6.49a1.56,1.56,0,0,0,1.44,1.1l14.51.28C303,224.39,303,221.39,301,221.35Z" transform="translate(-6.54 -12.88)"/><path class="cls-1" d="M120.16,216.73,106,216.45a10.89,10.89,0,0,1,.76-3.84.92.92,0,0,1,.57-.6,2.45,2.45,0,0,1,.78-.12c4-.17,8-.15,12,.05a2.4,2.4,0,0,1,1.48.38.61.61,0,0,1,.07.51,18.21,18.21,0,0,1-1.14,3.91Z" transform="translate(-6.54 -12.88)"/><path d="M120.16,215.23,106,215l1.5,1.5a9.55,9.55,0,0,1,.27-2.07c.07-.28.15-.55.24-.83.24-.75-.19-.07-.17-.14a33.06,33.06,0,0,1,4.44-.13c1.48,0,3,0,4.44,0,.71,0,1.42,0,2.13.07l1.21.05.35,0c.35.11.32,0-.09-.22l-.2-.76a5.71,5.71,0,0,1-.37,1.76,18.59,18.59,0,0,1-.73,2.1l1.45-1.1h-.29c-1.93-.11-1.92,2.89,0,3h.29a1.53,1.53,0,0,0,1.44-1.1,19.28,19.28,0,0,0,1.07-3.49c.24-1.21.12-2.37-1.16-2.89a10.72,10.72,0,0,0-3.58-.4c-1.22,0-2.44-.07-3.66-.08s-2.46,0-3.69,0a19.94,19.94,0,0,0-3.71.19,2.89,2.89,0,0,0-2.06,2.27,12.47,12.47,0,0,0-.62,3.69A1.53,1.53,0,0,0,106,218l14.18.28C122.09,218.26,122.09,215.26,120.16,215.23Z" transform="translate(-6.54 -12.88)"/><path class="cls-1" d="M98.22,229.14l-14.58-.29a12.12,12.12,0,0,1,1-4.07,1,1,0,0,1,.62-.64,3,3,0,0,1,.8-.12c4.16-.18,8.28-.16,12.29.06.6,0,1.28.1,1.51.39a.66.66,0,0,1,.05.55,20.79,20.79,0,0,1-1.39,4.14Z" transform="translate(-6.54 -12.88)"/><path d="M98.22,227.64l-14.58-.29,1.5,1.5a11.14,11.14,0,0,1,.41-2.22c.09-.29.19-.58.29-.87.28-.72.13-.14-.06-.22a4.28,4.28,0,0,0,1.23,0l1,0,2.38,0c1.53,0,3.05,0,4.57,0l2.19.08,1.23.06.38,0c.35.11.32,0-.09-.2l-.21-.75a6.61,6.61,0,0,1-.45,1.76,17.66,17.66,0,0,1-.75,2l1.29-.74-.29,0c-1.93-.11-1.92,2.89,0,3l.29,0a1.47,1.47,0,0,0,1.3-.74,24.13,24.13,0,0,0,1.33-3.68c.31-1.15.52-2.43-.66-3.17-1-.62-2.42-.51-3.53-.56-1.3,0-2.61-.09-3.91-.1s-2.53,0-3.8,0a21.87,21.87,0,0,0-4.13.21c-1.25.27-1.75,1.24-2.16,2.33a14,14,0,0,0-.81,3.89,1.52,1.52,0,0,0,1.5,1.5l14.58.29C100.15,230.68,100.15,227.68,98.22,227.64Z" transform="translate(-6.54 -12.88)"/><path class="cls-1" d="M117,229.1l-14.59-.29a11.76,11.76,0,0,1,.82-4.07,1,1,0,0,1,.59-.64,2.63,2.63,0,0,1,.8-.12c4.15-.18,8.26-.16,12.29.06.6,0,1.28.09,1.52.39a.66.66,0,0,1,.07.55,19.72,19.72,0,0,1-1.21,4.13Z" transform="translate(-6.54 -12.88)"/><path d="M117,227.6l-14.59-.29,1.5,1.5a9.73,9.73,0,0,1,.3-2.22c.08-.3.16-.59.26-.88.24-.77.08-.08-.13-.21.19.12,1-.05,1.23-.06l1,0,2.38,0c1.52,0,3.05,0,4.57,0l2.19.07,1.24.07.37,0c.35.11.33,0-.06-.2l-.21-.76a6.19,6.19,0,0,1-.39,1.89c-.22.76-.48,1.5-.77,2.23l1.44-1.11H117c-1.93-.11-1.92,2.89,0,3h.29a1.52,1.52,0,0,0,1.45-1.1,20.66,20.66,0,0,0,1.12-3.69c.25-1.24.15-2.42-1.16-3a10.45,10.45,0,0,0-3.66-.41c-1.25,0-2.5-.08-3.76-.09s-2.53,0-3.8,0a20.2,20.2,0,0,0-3.81.19c-1.23.27-1.73,1.24-2.1,2.34a13.85,13.85,0,0,0-.66,3.89,1.53,1.53,0,0,0,1.5,1.5l14.59.29C118.9,230.64,118.9,227.64,117,227.6Z" transform="translate(-6.54 -12.88)"/><path class="cls-1" d="M136.28,229.24,121.67,229a11.6,11.6,0,0,1,.64-4.08.92.92,0,0,1,.56-.63,2.29,2.29,0,0,1,.79-.12c4.15-.18,8.26-.16,12.3,0a2.44,2.44,0,0,1,1.54.4.65.65,0,0,1,.1.54,19.37,19.37,0,0,1-1,4.15Z" transform="translate(-6.54 -12.88)"/><path d="M136.28,227.74l-14.61-.29,1.5,1.5a9.7,9.7,0,0,1,.19-2.22c.07-.35.15-.69.25-1l.14-.44a.47.47,0,0,1-.36.36s4.23-.13,4.61-.13c1.54,0,3.08,0,4.61,0l2.14.07,1.21.06.38,0c.34.12.33.05,0-.19l-.21-.76a5.83,5.83,0,0,1-.29,1.89,19.12,19.12,0,0,1-.68,2.23l1.45-1.1-.29,0c-1.93-.11-1.92,2.89,0,3l.29,0a1.56,1.56,0,0,0,1.45-1.11,20.32,20.32,0,0,0,1-3.7c.2-1.33,0-2.53-1.39-3a12.08,12.08,0,0,0-3.45-.33c-1.27-.05-2.55-.08-3.83-.09s-2.57,0-3.85,0a18.66,18.66,0,0,0-3.74.19,2.85,2.85,0,0,0-2,2.34,13.41,13.41,0,0,0-.51,3.89,1.53,1.53,0,0,0,1.5,1.5l14.61.29C138.21,230.78,138.21,227.78,136.28,227.74Z" transform="translate(-6.54 -12.88)"/><path class="cls-1" d="M156,229.18h-.29l-14.62-.3" transform="translate(-6.54 -12.88)"/><path d="M156,227.68c-2.38-.13-4.78-.1-7.16-.15l-7.75-.16c-1.93,0-1.93,3,0,3l7.75.16c2.38.05,4.78,0,7.16.15,1.93.11,1.93-2.89,0-3Z" transform="translate(-6.54 -12.88)"/><path class="cls-1" d="M174.35,229.41l-14.64-.29a11.21,11.21,0,0,1,.28-4.07.82.82,0,0,1,.51-.64,2.45,2.45,0,0,1,.78-.12c4.13-.18,8.25-.16,12.31.05a2.65,2.65,0,0,1,1.57.4.7.7,0,0,1,.15.55,18.23,18.23,0,0,1-.67,4.14Z" transform="translate(-6.54 -12.88)"/><path d="M174.35,227.91l-14.64-.29,1.5,1.5a10.44,10.44,0,0,1,0-2.62c0-.21.07-.41.12-.62l.06-.29c.06-.17,0-.19,0-.07l-.38.28h.27a3.42,3.42,0,0,0,.78,0c1.9-.07,3.8-.1,5.71-.09s3.68.06,5.52.16l1,.11-.49-.65,0,.29a3,3,0,0,0-.06.74,15.67,15.67,0,0,1-.54,2.71l1.45-1.1-.29,0c-1.93-.11-1.93,2.89,0,3l.29,0a1.52,1.52,0,0,0,1.45-1.1,21.2,21.2,0,0,0,.68-4,2.39,2.39,0,0,0-1.49-2.77,11.5,11.5,0,0,0-3.37-.34c-1.27-.06-2.55-.09-3.83-.1s-2.47,0-3.7,0a21.76,21.76,0,0,0-4,.2,2.62,2.62,0,0,0-1.93,2.34,13,13,0,0,0-.2,3.89,1.54,1.54,0,0,0,1.5,1.5l14.64.29C176.28,231,176.28,228,174.35,227.91Z" transform="translate(-6.54 -12.88)"/><path class="cls-1" d="M194.46,229.41l-14.65-.29a11.37,11.37,0,0,1,.1-4.07.77.77,0,0,1,.47-.64,2.52,2.52,0,0,1,.79-.12c4.12-.18,8.24-.16,12.31.05a2.79,2.79,0,0,1,1.59.4.75.75,0,0,1,.17.55,18.41,18.41,0,0,1-.48,4.14Z" transform="translate(-6.54 -12.88)"/><path d="M194.46,227.91l-14.65-.29,1.45,1.1a10,10,0,0,1,0-2.51c0-.2.09-.42.1-.62a1.7,1.7,0,0,1,0-.22c.09-.29-.07-.15-.48.43a5,5,0,0,0,1.33-.05c1.86-.07,3.71-.09,5.57-.08s3.59.07,5.39.16l1,.11-.46-.65v.29a3.64,3.64,0,0,0,0,.74,15.55,15.55,0,0,1-.4,2.71l1.45-1.1-.3,0c-1.92-.11-1.92,2.89,0,3l.3,0a1.51,1.51,0,0,0,1.45-1.1,21.06,21.06,0,0,0,.52-4c0-1.29-.31-2.37-1.64-2.8a13,13,0,0,0-3.4-.32q-2-.07-3.9-.09c-1.25,0-2.51,0-3.76,0a19.26,19.26,0,0,0-3.8.19c-1.34.3-1.74,1.42-1.91,2.63a13.41,13.41,0,0,0,.05,4,1.49,1.49,0,0,0,1.44,1.1l14.65.29C196.4,231,196.4,228,194.46,227.91Z" transform="translate(-6.54 -12.88)"/><path class="cls-1" d="M215.6,229.43l-.3,0-14.66-.29" transform="translate(-6.54 -12.88)"/><path d="M215.6,227.93c-2.39-.14-4.8-.11-7.19-.15l-7.77-.16c-1.93,0-1.93,3,0,3l7.77.16c2.39,0,4.8,0,7.19.15,1.93.11,1.92-2.89,0-3Z" transform="translate(-6.54 -12.88)"/><path class="cls-1" d="M234.84,224.8a.76.76,0,0,1,.22.55,17.94,17.94,0,0,1-.09,4.14" transform="translate(-6.54 -12.88)"/><path d="M233.78,225.86l.06.06-.24-.31a.67.67,0,0,1,.11.18l-.16-.36a.67.67,0,0,1,0,.19l0-.4a16.24,16.24,0,0,1-.07,4.18l.05-.4v.09a1.67,1.67,0,0,0,.15,1.16,1.52,1.52,0,0,0,.9.69,1.49,1.49,0,0,0,1.15-.15,1.42,1.42,0,0,0,.69-.9,19.84,19.84,0,0,0,.23-3c0-.43,0-.86,0-1.29a6.13,6.13,0,0,0-.11-.86,2.18,2.18,0,0,0-.58-1,1.51,1.51,0,0,0-2.12,0,1.53,1.53,0,0,0,0,2.12Z" transform="translate(-6.54 -12.88)"/><path class="cls-1" d="M254.37,229.49h-.3l-14.69-.3a11.35,11.35,0,0,1-.46-4.07.66.66,0,0,1,.39-.64,2.29,2.29,0,0,1,.76-.12c4.1-.18,8.23-.16,12.33.06a3,3,0,0,1,1.64.39.78.78,0,0,1,.24.55,16.87,16.87,0,0,1,.09,4.14" transform="translate(-6.54 -12.88)"/><path d="M254.37,228c-2.39-.13-4.79-.1-7.19-.15l-7.8-.16,1.45,1.11a10.7,10.7,0,0,1-.42-2.23,9,9,0,0,0,0-1.16c.09-.6-.11-.44-.6.47a5.44,5.44,0,0,1,.57,0c1.5-.07,3-.1,4.51-.11s3,0,4.51.05l2.41.1c.3,0,1.15,0,1.32.15l-.39-.66a10.2,10.2,0,0,1,.14,4.12,1.51,1.51,0,0,0,1.5,1.5,1.53,1.53,0,0,0,1.5-1.5,19.07,19.07,0,0,0-.05-3.85,2.59,2.59,0,0,0-1.89-2.53,15.8,15.8,0,0,0-3.64-.3c-1.25,0-2.5-.07-3.76-.08s-2.5,0-3.75,0A15.64,15.64,0,0,0,239,223c-2.57.72-1.61,4.76-1.1,6.59a1.54,1.54,0,0,0,1.45,1.1l7.8.16c2.4,0,4.8,0,7.19.15,1.93.11,1.92-2.89,0-3Z" transform="translate(-6.54 -12.88)"/><path class="cls-1" d="M273.24,224.8a.86.86,0,0,1,.26.55,16.94,16.94,0,0,1,.27,4.14" transform="translate(-6.54 -12.88)"/><path d="M272.18,225.86l.1.11-.23-.3.07.12-.15-.36a5,5,0,0,1,.23,1.21l-.05-.39a17.54,17.54,0,0,1,.12,3.24,1.5,1.5,0,0,0,3,0,17.66,17.66,0,0,0,0-2.62q-.08-.78-.21-1.56a2.64,2.64,0,0,0-.71-1.57,1.5,1.5,0,0,0-2.12,2.12Z" transform="translate(-6.54 -12.88)"/><path class="cls-1" d="M293.14,229.25l-.3,0-14.71-.29a11.82,11.82,0,0,1-.82-4.08.58.58,0,0,1,.33-.63,2.19,2.19,0,0,1,.75-.12c4.08-.18,8.21-.16,12.32,0a3.21,3.21,0,0,1,1.68.4.86.86,0,0,1,.29.55,17.58,17.58,0,0,1,.46,4.14" transform="translate(-6.54 -12.88)"/><path d="M293.14,227.75c-5-.28-10-.21-15-.31l1.44,1.1a14.42,14.42,0,0,1-.59-2,6.66,6.66,0,0,1-.12-.76,5.85,5.85,0,0,1,0-.59c0-.37,0-.38-.07,0l-.54.54c.18-.12.58-.06.8-.07l1.22,0c.72,0,1.43,0,2.15,0,1.59,0,3.19,0,4.78,0l2.32.07,1.23.06a2.4,2.4,0,0,0,.65.07.11.11,0,0,0,.12,0c-.26-.35-.32-.33-.18.05a7.14,7.14,0,0,0,.21,1.18,17.18,17.18,0,0,1,.13,2.27,1.5,1.5,0,0,0,3,0,21.19,21.19,0,0,0-.36-3.81,2.81,2.81,0,0,0-2-2.57,14.84,14.84,0,0,0-3.4-.29c-1.29-.05-2.57-.08-3.86-.09s-2.57,0-3.85,0a17.38,17.38,0,0,0-3.68.19c-2.77.69-1.46,4.82-.79,6.63a1.58,1.58,0,0,0,1.45,1.1c5,.1,10,0,15,.31,1.93.11,1.92-2.9,0-3Z" transform="translate(-6.54 -12.88)"/><path class="cls-1" d="M312.24,229.68l-14.74-.29a12.26,12.26,0,0,1-1-4.08.56.56,0,0,1,.3-.64,2.15,2.15,0,0,1,.75-.12c4.07-.18,8.2-.16,12.33.06a3.22,3.22,0,0,1,1.7.39.91.91,0,0,1,.32.55,18.47,18.47,0,0,1,.64,4.15Z" transform="translate(-6.54 -12.88)"/><path d="M312.24,228.18l-14.74-.29,1.44,1.1a14.36,14.36,0,0,1-.68-2,8.57,8.57,0,0,1-.18-.88,3.55,3.55,0,0,1-.06-.47c0-.37,0-.39-.1,0l-.54.54c.17-.12.58-.06.8-.07l1.25,0c.74,0,1.48,0,2.21,0,1.58,0,3.17,0,4.75,0l2.22.07,2,.16c.14,0,.07-.1-.19-.25l.08.29a8,8,0,0,0,.26,1.18,17.47,17.47,0,0,1,.25,2.28l1.5-1.5-.3,0c-1.93-.11-1.93,2.89,0,3l.3,0a1.52,1.52,0,0,0,1.5-1.5,21.28,21.28,0,0,0-.51-3.81,3,3,0,0,0-2-2.55A13.69,13.69,0,0,0,308,223q-1.91-.08-3.81-.09c-1.26,0-2.53,0-3.79,0a16.74,16.74,0,0,0-3.75.19c-2.83.73-1.33,4.84-.58,6.64a1.59,1.59,0,0,0,1.45,1.1l14.74.29C314.17,231.22,314.17,228.22,312.24,228.18Z" transform="translate(-6.54 -12.88)"/><path class="cls-1" d="M332.37,229.68l-14.75-.29a12.45,12.45,0,0,1-1.19-4.08" transform="translate(-6.54 -12.88)"/><path d="M332.37,228.18l-14.75-.29,1.29.74a11,11,0,0,1-1-3.32,1.54,1.54,0,0,0-1.5-1.5,1.5,1.5,0,0,0-1.5,1.5,15.8,15.8,0,0,0,1.39,4.84,1.49,1.49,0,0,0,1.3.74l14.75.29c1.93,0,1.93-3,0-3Z" transform="translate(-6.54 -12.88)"/><path class="cls-1" d="M89.68,230.94c4.22-.19,8.4-.17,12.49.05.61,0,1.29.1,1.53.41a.67.67,0,0,1,0,.57,21.15,21.15,0,0,1-1.37,4.27l-.29,0-14.82-.3a12.74,12.74,0,0,1,1-4.2,1.07,1.07,0,0,1,.62-.66,2.47,2.47,0,0,1,.82-.12" transform="translate(-6.54 -12.88)"/><path d="M89.68,232.44c2.31-.1,4.62-.15,6.94-.12,1.11,0,2.22,0,3.34.07l1.58.07c.29,0,.6,0,.89,0h.12c.35.11.33,0-.07-.18l-.2-.76a7.59,7.59,0,0,1-.44,1.83,21.27,21.27,0,0,1-.75,2.07l1.29-.74c-5-.3-10.08-.22-15.11-.32l1.5,1.5a10.45,10.45,0,0,1,.4-2.3,10,10,0,0,0,.4-1.21q.08-.12,0-.06c-.26.12-.22.15.11.09,1.92-.12,1.93-3.12,0-3a3,3,0,0,0-3,2.18,14.34,14.34,0,0,0-.9,4.3,1.52,1.52,0,0,0,1.5,1.5c5,.1,10.09,0,15.11.32a1.47,1.47,0,0,0,1.3-.74c.37-.87.72-1.75,1-2.65a10,10,0,0,0,.59-2.58c.06-2.21-2.48-2.25-4.06-2.32-3.84-.19-7.69-.18-11.54,0-1.92.08-1.93,3.08,0,3Z" transform="translate(-6.54 -12.88)"/><path class="cls-1" d="M122.54,232a20.34,20.34,0,0,1-1.18,4.27l-.3,0-14.83-.3a12.43,12.43,0,0,1,.79-4.2,1,1,0,0,1,.59-.66,2.47,2.47,0,0,1,.82-.12c4.21-.19,8.39-.17,12.49.05.61,0,1.3.1,1.54.41a.67.67,0,0,1,.08.57" transform="translate(-6.54 -12.88)"/><path d="M121.1,231.57a22,22,0,0,1-1.19,4.27l1.45-1.1c-5-.3-10.1-.22-15.13-.32l1.5,1.5a11.13,11.13,0,0,1,.28-2.3c.07-.31.16-.61.25-.91a5.89,5.89,0,0,1,.21-.59.48.48,0,0,1-.32.33c0,.06,2-.08,2.22-.09l2.42,0c1.55,0,3.09,0,4.64,0l2.22.08,1.27.06.39,0c.34.11.32,0,0-.18l-.21-.76a1,1,0,0,1,0,.39,1.51,1.51,0,0,0,1.5,1.5A1.54,1.54,0,0,0,124,232c.31-2.59-3-2.48-4.7-2.55-2.18-.09-4.37-.13-6.55-.1-1.08,0-2.15,0-3.23.07s-2.35,0-3.2.71a4.7,4.7,0,0,0-1.17,2.42,14.43,14.43,0,0,0-.46,3.4,1.52,1.52,0,0,0,1.5,1.5c5,.1,10.1,0,15.13.32a1.54,1.54,0,0,0,1.44-1.1,21.92,21.92,0,0,0,1.19-4.28,1.55,1.55,0,0,0-1-1.84,1.5,1.5,0,0,0-1.84,1Z" transform="translate(-6.54 -12.88)"/><path class="cls-1" d="M140,236.22l-14.84-.3a12,12,0,0,1,.61-4.2,1,1,0,0,1,.56-.66,2.45,2.45,0,0,1,.81-.12c4.21-.19,8.39-.17,12.5.05.61,0,1.3.1,1.56.41a.68.68,0,0,1,.1.57,19.69,19.69,0,0,1-1,4.27Z" transform="translate(-6.54 -12.88)"/><path d="M140,234.72l-14.84-.3,1.5,1.5a10.44,10.44,0,0,1,.16-2.3c.08-.41.19-.81.3-1.21s.13-.39.07-.23l-.33.27s4.44-.13,4.84-.14c1.57,0,3.13,0,4.69.05.77,0,1.55,0,2.32.09a11.27,11.27,0,0,1,1.16.06.65.65,0,0,1,.28,0c.33.11.28,0-.15-.2l-.2-.76a6.31,6.31,0,0,1-.29,2,20,20,0,0,1-.66,2.29l1.45-1.1-.3,0c-1.93-.11-1.92,2.89,0,3l.3,0a1.52,1.52,0,0,0,1.44-1.1,20.56,20.56,0,0,0,.93-3.71c.18-1.17.23-2.37-1-3a8.58,8.58,0,0,0-3.6-.5c-1.29,0-2.59-.09-3.88-.1s-2.61,0-3.92,0a24.15,24.15,0,0,0-3.9.18,2.82,2.82,0,0,0-2.25,2.4,14.19,14.19,0,0,0-.48,4,1.53,1.53,0,0,0,1.5,1.5l14.84.3C142,237.76,142,234.76,140,234.72Z" transform="translate(-6.54 -12.88)"/><path class="cls-1" d="M160.46,236.22l-14.85-.3a11.77,11.77,0,0,1,.41-4.2.91.91,0,0,1,.54-.66,2.35,2.35,0,0,1,.8-.12c4.2-.19,8.38-.17,12.5.05a2.61,2.61,0,0,1,1.58.41.73.73,0,0,1,.13.57,19.12,19.12,0,0,1-.81,4.27Z" transform="translate(-6.54 -12.88)"/><path d="M160.46,234.72l-14.85-.3,1.5,1.5a10.21,10.21,0,0,1,.12-2.76c0-.25.1-.5.16-.75l.08-.29,0,.06-.35.27.44,0,.63,0q3-.1,6-.09c1.91,0,3.84.06,5.75.18.15,0,.31,0,.46,0s.48.33,0-.25-.26-.12-.3.25c0,.15,0,.3-.06.46a18.93,18.93,0,0,1-.65,2.85l1.45-1.1-.3,0c-1.93-.11-1.92,2.89,0,3l.3,0a1.53,1.53,0,0,0,1.45-1.1,22.71,22.71,0,0,0,.78-3.82c.13-1.16.09-2.3-1.07-2.9a8.77,8.77,0,0,0-3.61-.5c-1.29,0-2.59-.09-3.89-.1s-2.61,0-3.91,0a24.15,24.15,0,0,0-3.9.18,2.68,2.68,0,0,0-2.18,2.4,13.46,13.46,0,0,0-.32,4,1.53,1.53,0,0,0,1.5,1.5l14.85.3C162.39,237.76,162.39,234.76,160.46,234.72Z" transform="translate(-6.54 -12.88)"/><path class="cls-1" d="M180.16,236.22l-14.87-.3a11.9,11.9,0,0,1,.24-4.2.83.83,0,0,1,.5-.66,2.28,2.28,0,0,1,.8-.12c4.19-.19,8.37-.17,12.5.05a2.7,2.7,0,0,1,1.6.41.71.71,0,0,1,.15.57,18.66,18.66,0,0,1-.62,4.27Z" transform="translate(-6.54 -12.88)"/><path d="M180.16,234.72l-14.87-.3,1.5,1.5a11.92,11.92,0,0,1,0-2.8A10.11,10.11,0,0,1,167,232l-.46.48.44,0,.62,0q3-.1,6-.09c1.92,0,3.84.06,5.76.18.15,0,.31,0,.47,0s.45.32,0-.25-.24-.1-.26.25c0,.19,0,.38-.05.57a18.07,18.07,0,0,1-.49,2.74l1.44-1.1-.3,0c-1.93-.11-1.92,2.89,0,3l.3,0a1.52,1.52,0,0,0,1.45-1.1,22.55,22.55,0,0,0,.63-3.82c.08-1.16,0-2.3-1.14-2.9a8.84,8.84,0,0,0-3.62-.5c-1.3,0-2.6-.09-3.9-.1s-2.61,0-3.91,0a24.08,24.08,0,0,0-3.89.18,2.59,2.59,0,0,0-2.13,2.4,13.77,13.77,0,0,0-.16,4,1.55,1.55,0,0,0,1.5,1.5l14.87.3C182.09,237.76,182.09,234.76,180.16,234.72Z" transform="translate(-6.54 -12.88)"/><path class="cls-1" d="M200.59,236.22l-14.88-.3a11.85,11.85,0,0,1,0-4.2.8.8,0,0,1,.48-.66,2.19,2.19,0,0,1,.79-.12c4.18-.19,8.36-.17,12.5.05a2.79,2.79,0,0,1,1.62.41.81.81,0,0,1,.18.57,18.87,18.87,0,0,1-.43,4.27Z" transform="translate(-6.54 -12.88)"/><path d="M200.59,234.72l-14.88-.3,1.45,1.1a10.13,10.13,0,0,1-.06-2.75,4.12,4.12,0,0,0,.1-.65l0-.15-.49.48,1.35-.06c1.93-.07,3.87-.09,5.81-.07s3.75.06,5.62.17a3.73,3.73,0,0,0,.47,0c.26,0,.44.32,0-.25s-.22-.07-.22.25,0,.38,0,.57a16.84,16.84,0,0,1-.35,2.74l1.44-1.1-.3,0c-1.93-.11-1.92,2.89,0,3l.3,0a1.52,1.52,0,0,0,1.45-1.1,21.44,21.44,0,0,0,.47-3.82c0-1.34-.16-2.55-1.57-3a11.69,11.69,0,0,0-3.54-.36c-1.27,0-2.54-.08-3.8-.09s-2.55,0-3.82,0a19.87,19.87,0,0,0-4,.2c-1.41.33-1.76,1.51-1.92,2.78a13.76,13.76,0,0,0,.12,4,1.5,1.5,0,0,0,1.44,1.1l14.88.3C202.52,237.76,202.52,234.76,200.59,234.72Z" transform="translate(-6.54 -12.88)"/><path class="cls-1" d="M220.3,236.22l-14.9-.3a11.88,11.88,0,0,1-.15-4.2.76.76,0,0,1,.45-.66,2.17,2.17,0,0,1,.78-.12c4.18-.19,8.36-.17,12.51.05a2.88,2.88,0,0,1,1.64.41.79.79,0,0,1,.2.57,18.62,18.62,0,0,1-.23,4.27Z" transform="translate(-6.54 -12.88)"/><path d="M220.3,234.72l-14.9-.3,1.45,1.1a10.43,10.43,0,0,1-.22-2.3c0-.18.18-1.09.08-1.2.09-.27-.08-.13-.5.43l.58,0c1.53-.07,3.05-.1,4.58-.11s3,0,4.58.06q1.22,0,2.43.09a2.69,2.69,0,0,1,1.49.24l-.54-.54c0-.3,0-.26,0,.11,0,.2,0,.4,0,.61s0,.61,0,.91a15.64,15.64,0,0,1-.2,2.05l1.45-1.1-.3,0c-1.93-.11-1.93,2.89,0,3l.3,0a1.51,1.51,0,0,0,1.44-1.1,21.35,21.35,0,0,0,.32-4.07c0-1.3-.38-2.4-1.73-2.84a13,13,0,0,0-3.46-.32c-1.32,0-2.64-.09-4-.1s-2.54,0-3.81,0a20.58,20.58,0,0,0-3.85.2c-1.4.32-1.74,1.52-1.86,2.78a14.15,14.15,0,0,0,.27,4,1.52,1.52,0,0,0,1.45,1.1l14.9.3C222.23,237.76,222.23,234.76,220.3,234.72Z" transform="translate(-6.54 -12.88)"/><path class="cls-1" d="M225.17,231.06a2.17,2.17,0,0,1,.78-.12c4.17-.19,8.35-.17,12.51.05" transform="translate(-6.54 -12.88)"/><path d="M225.57,232.51a4.63,4.63,0,0,1,1.29-.11l1.7-.05c1.08,0,2.17,0,3.26,0,2.21,0,4.43.07,6.64.18A1.51,1.51,0,0,0,240,231a1.54,1.54,0,0,0-1.5-1.5q-3.45-.18-6.9-.18c-1.13,0-2.26,0-3.39.05a12.44,12.44,0,0,0-3.4.25,1.5,1.5,0,0,0,.8,2.9Z" transform="translate(-6.54 -12.88)"/><path class="cls-1" d="M260.43,236.22l-14.92-.3a11.93,11.93,0,0,1-.53-4.2.67.67,0,0,1,.39-.66,2.08,2.08,0,0,1,.77-.12c4.16-.19,8.34-.17,12.51.05a3.09,3.09,0,0,1,1.68.41.89.89,0,0,1,.25.57,17.94,17.94,0,0,1,.15,4.27Z" transform="translate(-6.54 -12.88)"/><path d="M260.43,234.72l-14.92-.3,1.44,1.1a11.74,11.74,0,0,1-.44-2.12,10.61,10.61,0,0,1,0-1.12c0-.19,0-.38,0-.56-.63.51-.75.75-.34.72a4.08,4.08,0,0,0,1.25-.05l.94,0c.83,0,1.66,0,2.5-.05,1.56,0,3.13,0,4.69.05l2.51.1c.32,0,1.19-.05,1.38.18L259,232a10.7,10.7,0,0,1,.21,4.26l1.5-1.5-.3,0c-1.93-.11-1.92,2.89,0,3l.3,0a1.53,1.53,0,0,0,1.5-1.5,19.51,19.51,0,0,0-.11-4,2.67,2.67,0,0,0-1.91-2.57,16.82,16.82,0,0,0-3.75-.31c-1.3,0-2.61-.07-3.91-.08s-2.61,0-3.91,0a10.79,10.79,0,0,0-3.85.34c-1.2.53-1.35,1.69-1.33,2.87a14.13,14.13,0,0,0,.6,3.76,1.54,1.54,0,0,0,1.45,1.1l14.92.3C262.36,237.76,262.36,234.76,260.43,234.72Z" transform="translate(-6.54 -12.88)"/><path class="cls-1" d="M280.09,236l-14.92-.31a12.06,12.06,0,0,1-.71-4.19.63.63,0,0,1,.35-.66,2.3,2.3,0,0,1,.77-.12c4.15-.19,8.33-.17,12.51.05a3.25,3.25,0,0,1,1.69.41.94.94,0,0,1,.28.57,18.52,18.52,0,0,1,.34,4.26Z" transform="translate(-6.54 -12.88)"/><path d="M280.09,234.47l-14.92-.31,1.44,1.11a13,13,0,0,1-.54-2.1,6.44,6.44,0,0,1-.09-.86,5.33,5.33,0,0,1,0-.56c0-.36,0-.38,0-.05l-.54.54c.19-.14.59-.07.82-.08l1.25,0,2.18-.05c1.62,0,3.24,0,4.85,0l2.35.08,1.26.06a3,3,0,0,0,.65.08.2.2,0,0,0,.13,0c-.27-.33-.34-.31-.2.08a6.39,6.39,0,0,0,.15,1.12,19.9,19.9,0,0,1,.08,2.44l1.5-1.5h-.31c-1.93-.11-1.92,2.89,0,3h.31a1.52,1.52,0,0,0,1.5-1.5,21.29,21.29,0,0,0-.29-4.06,2.73,2.73,0,0,0-2-2.47,15.5,15.5,0,0,0-3.6-.3c-1.3-.05-2.61-.08-3.91-.09s-2.5,0-3.75,0a14.67,14.67,0,0,0-4,.27c-1.33.45-1.51,1.73-1.43,2.95a14.09,14.09,0,0,0,.74,3.75,1.55,1.55,0,0,0,1.45,1.1l14.92.31C282,237.51,282,234.51,280.09,234.47Z" transform="translate(-6.54 -12.88)"/><path class="cls-1" d="M299.83,236.22l-14.95-.3a12.72,12.72,0,0,1-.9-4.2.63.63,0,0,1,.33-.66,2.08,2.08,0,0,1,.77-.12c4.14-.19,8.33-.17,12.51.05a3.25,3.25,0,0,1,1.71.41,1,1,0,0,1,.31.57,18.75,18.75,0,0,1,.52,4.27Z" transform="translate(-6.54 -12.88)"/><path d="M299.83,234.72l-14.95-.3,1.45,1.1a14.12,14.12,0,0,1-.64-2.1c-.06-.29-.11-.57-.15-.86s0-.38,0-.56c0-.36,0-.38-.08-.05l-.53.54c.18-.14.59-.07.82-.08l1.28,0,2.24,0c1.61,0,3.21,0,4.82,0,.37,0,4.31.26,4.31.24s.07-.07-.2-.23l.07.31a8.59,8.59,0,0,0,.23,1.21,16.92,16.92,0,0,1,.17,2.36l1.5-1.5-.3,0c-1.93-.11-1.92,2.89,0,3l.3,0a1.51,1.51,0,0,0,1.5-1.5,21.35,21.35,0,0,0-.41-3.91,2.91,2.91,0,0,0-2.06-2.63,15.77,15.77,0,0,0-3.5-.3q-2-.08-4-.09c-1.34,0-2.68,0-4,0a13.59,13.59,0,0,0-3.72.26c-1.33.45-1.49,1.73-1.37,2.95a14.82,14.82,0,0,0,.89,3.76,1.58,1.58,0,0,0,1.45,1.1l14.95.3C301.76,237.76,301.76,234.76,299.83,234.72Z" transform="translate(-6.54 -12.88)"/><path class="cls-1" d="M108.49,243l-15-.31a13,13,0,0,1,.93-4.33,1,1,0,0,1,.62-.68,2.83,2.83,0,0,1,.83-.13c4.28-.19,8.52-.17,12.67.06.62,0,1.32.11,1.56.42a.69.69,0,0,1,.06.58,22.13,22.13,0,0,1-1.32,4.41Z" transform="translate(-6.54 -12.88)"/><path d="M108.49,241.45l-15-.31,1.5,1.5a11.68,11.68,0,0,1,.32-2.2,8.32,8.32,0,0,1,.43-1.52c-.25.12-.21.15.13.08l.65,0,1.32,0,2.29-.05c1.63,0,3.26,0,4.88,0,.75,0,1.5,0,2.25.08l1.28.06.4,0c.35.11.33,0,0-.17l-.21-.75a7.36,7.36,0,0,1-.45,2,24.5,24.5,0,0,1-.84,2.36l1.45-1.1-.3,0c-1.93-.12-1.93,2.88,0,3l.3,0a1.54,1.54,0,0,0,1.44-1.1,22.31,22.31,0,0,0,1.21-3.82c.26-1.21.3-2.42-.94-3.08-1.08-.57-2.58-.44-3.77-.49-1.34-.06-2.69-.09-4-.1s-2.61,0-3.92,0a14.61,14.61,0,0,0-4.18.28c-1.21.4-1.62,1.47-2,2.58a15,15,0,0,0-.67,3.87,1.52,1.52,0,0,0,1.5,1.5l15,.31C110.42,244.49,110.42,241.49,108.49,241.45Z" transform="translate(-6.54 -12.88)"/><path class="cls-1" d="M130,243l-15.06-.31a12.61,12.61,0,0,1,.72-4.33,1,1,0,0,1,.59-.68,2.71,2.71,0,0,1,.82-.13c4.27-.19,8.52-.17,12.68.06.62,0,1.32.11,1.58.42a.74.74,0,0,1,.09.58,21.31,21.31,0,0,1-1.12,4.41Z" transform="translate(-6.54 -12.88)"/><path d="M130,241.45l-15.06-.31,1.5,1.5a11.26,11.26,0,0,1,.23-2.39q.1-.47.24-.93c.06-.2.12-.41.19-.61a.41.41,0,0,1-.31.31c0-.06,4.38-.14,4.7-.14,1.57,0,3.15,0,4.72,0,.75,0,1.5,0,2.25.08l1.29.06.4,0c.34.11.33.06,0-.17l-.2-.75a6.81,6.81,0,0,1-.34,2c-.2.8-.45,1.58-.73,2.36l1.45-1.1-.3,0c-1.93-.12-1.93,2.88,0,3l.3,0a1.54,1.54,0,0,0,1.45-1.1,22.24,22.24,0,0,0,1-3.68c.22-1.25.33-2.54-1-3.22a9.06,9.06,0,0,0-3.63-.49c-1.34,0-2.69-.09-4-.1s-2.72,0-4.08,0a19.65,19.65,0,0,0-3.91.2,3,3,0,0,0-2.1,2.42,14.62,14.62,0,0,0-.57,4.11,1.53,1.53,0,0,0,1.5,1.5l15.06.31C131.9,244.49,131.9,241.49,130,241.45Z" transform="translate(-6.54 -12.88)"/><path class="cls-1" d="M136.8,237.5c4.26-.19,8.51-.17,12.68.06a2.66,2.66,0,0,1,1.6.42.74.74,0,0,1,.11.58,20.63,20.63,0,0,1-.92,4.41l-.3,0-15.08-.31a12.62,12.62,0,0,1,.53-4.33.92.92,0,0,1,.56-.68,2.71,2.71,0,0,1,.82-.13" transform="translate(-6.54 -12.88)"/><path d="M136.8,239c3.12-.13,6.25-.16,9.38-.07l2.36.08.94.05a6.29,6.29,0,0,0,.74.11c-.39-.74-.58-.85-.56-.31a3.55,3.55,0,0,1-.06.47c0,.3-.1.59-.16.88a21.56,21.56,0,0,1-.62,2.36l1.45-1.1c-2.45-.15-4.91-.12-7.36-.17l-8-.16,1.5,1.5a11.93,11.93,0,0,1,.11-2.39c.07-.42.18-.82.28-1.23s.13-.41.06-.26c-.43.24-.44.32,0,.24,1.91-.11,1.93-3.11,0-3a2.82,2.82,0,0,0-2.91,2.22,14.34,14.34,0,0,0-.5,4.42,1.54,1.54,0,0,0,1.5,1.5l8,.16c2.45,0,4.91,0,7.36.17a1.54,1.54,0,0,0,1.45-1.1,23.9,23.9,0,0,0,.67-2.65,7.81,7.81,0,0,0,.26-2.76c-.4-2-2.7-1.88-4.27-2-3.86-.18-7.72-.17-11.58,0-1.93.09-1.94,3.09,0,3Z" transform="translate(-6.54 -12.88)"/><path class="cls-1" d="M170,243l-15.08-.31a12.46,12.46,0,0,1,.33-4.33.9.9,0,0,1,.53-.68,2.69,2.69,0,0,1,.81-.13c4.26-.19,8.51-.17,12.69.06a2.69,2.69,0,0,1,1.61.42.73.73,0,0,1,.15.58,20.72,20.72,0,0,1-.73,4.41Z" transform="translate(-6.54 -12.88)"/><path d="M170,241.45l-15.08-.31,1.5,1.5a12.34,12.34,0,0,1,.05-2.85c0-.26.11-.52.16-.77l.07-.31,0,0-.35.26.44,0,.64,0c2-.08,4-.11,6.05-.09s3.9.06,5.84.18c.15,0,.32,0,.47,0s.48.32,0-.23-.25-.08-.28.28l-.06.58a18.34,18.34,0,0,1-.58,2.84l1.45-1.1-.31,0c-1.92-.11-1.92,2.89,0,3l.31,0a1.53,1.53,0,0,0,1.45-1.1,22.82,22.82,0,0,0,.71-3.93c.12-1.17.07-2.33-1.1-2.95a8.86,8.86,0,0,0-3.66-.5c-1.32-.06-2.63-.09-3.95-.11s-2.65,0-4,0a27.22,27.22,0,0,0-3.94.18,2.66,2.66,0,0,0-2.17,2.45,14.17,14.17,0,0,0-.25,4.11,1.54,1.54,0,0,0,1.5,1.5l15.08.31C171.9,244.49,171.9,241.49,170,241.45Z" transform="translate(-6.54 -12.88)"/><path class="cls-1" d="M189.9,238a.78.78,0,0,1,.17.58,19.7,19.7,0,0,1-.54,4.41" transform="translate(-6.54 -12.88)"/><path d="M188.84,239l-.14-.17-.15-.35a.79.79,0,0,1,.06.22l-.05-.4a12.72,12.72,0,0,1-.16,2.61l0-.4a19.91,19.91,0,0,1-.37,2,1.5,1.5,0,0,0,2.89.8,23.15,23.15,0,0,0,.51-3.09c0-.44.07-.89.08-1.34q0-.3,0-.6a2.42,2.42,0,0,0-.6-1.42,1.5,1.5,0,0,0-1.06-.44,1.54,1.54,0,0,0-1.06.44,1.52,1.52,0,0,0-.44,1.06,1.74,1.74,0,0,0,.44,1.06Z" transform="translate(-6.54 -12.88)"/><path class="cls-1" d="M209.22,243l-15.11-.31a12.35,12.35,0,0,1,0-4.33.78.78,0,0,1,.47-.68,2.53,2.53,0,0,1,.8-.13c4.24-.19,8.49-.17,12.69.06a2.87,2.87,0,0,1,1.65.42.76.76,0,0,1,.19.58,19.39,19.39,0,0,1-.34,4.41Z" transform="translate(-6.54 -12.88)"/><path d="M209.22,241.45l-15.11-.31,1.45,1.1a11,11,0,0,1-.14-2.63c0-.24.22-.86.13-1.05-.45.31-.55.46-.29.44h.23a6.78,6.78,0,0,0,.78,0c2-.08,3.93-.11,5.89-.09s3.81.07,5.72.17a2.64,2.64,0,0,0,.63,0c.26,0,.47.34.07-.23s-.2-.06-.19.28c0,.19,0,.39,0,.58a16.89,16.89,0,0,1-.3,2.84l1.45-1.1-.31,0c-1.93-.11-1.92,2.89,0,3l.31,0a1.51,1.51,0,0,0,1.44-1.1,23.62,23.62,0,0,0,.42-3.93c0-1.35-.19-2.58-1.61-3.1a12.08,12.08,0,0,0-3.6-.36c-1.34-.06-2.68-.09-4-.1s-2.68,0-4,0a14.38,14.38,0,0,0-4,.28c-1.37.45-1.56,1.73-1.69,3a14.77,14.77,0,0,0,.21,3.87,1.52,1.52,0,0,0,1.45,1.1l15.11.31C211.15,244.49,211.15,241.49,209.22,241.45Z" transform="translate(-6.54 -12.88)"/><path class="cls-1" d="M230,243l-15.12-.31a12.17,12.17,0,0,1-.24-4.33.73.73,0,0,1,.44-.68,2.42,2.42,0,0,1,.79-.13c4.23-.19,8.48-.17,12.69.06a3,3,0,0,1,1.67.42.79.79,0,0,1,.22.58,19.19,19.19,0,0,1-.14,4.41Z" transform="translate(-6.54 -12.88)"/><path d="M230,241.45l-15.12-.31,1.44,1.1A10.85,10.85,0,0,1,216,240a11.23,11.23,0,0,1,0-1.16l0-.32c-.49.33-.57.48-.24.44.2.13,1,0,1.24-.05l1.24,0c.77,0,1.55,0,2.32,0,1.6,0,3.2,0,4.8.05l2.47.1a2.78,2.78,0,0,1,1.54.25l-.54-.54q0-.41,0,.12a5.63,5.63,0,0,1,0,.58c0,.34,0,.68,0,1a16.48,16.48,0,0,1-.15,2.1l1.45-1.1-.31,0c-1.93-.11-1.92,2.89,0,3l.31,0a1.52,1.52,0,0,0,1.45-1.1,22.49,22.49,0,0,0,.24-3.93c0-1.35-.26-2.58-1.68-3.1a12.11,12.11,0,0,0-3.61-.36c-1.34-.06-2.68-.09-4-.1s-2.69,0-4,0a14.28,14.28,0,0,0-4,.28c-1.36.45-1.56,1.74-1.62,3a14.41,14.41,0,0,0,.37,3.87,1.52,1.52,0,0,0,1.45,1.1l15.12.31C231.89,244.49,231.89,241.49,230,241.45Z" transform="translate(-6.54 -12.88)"/><path class="cls-1" d="M250,238a.87.87,0,0,1,.25.58,19.7,19.7,0,0,1,.05,4.41l-.31,0-15.14-.31a12.53,12.53,0,0,1-.43-4.33.7.7,0,0,1,.41-.68,2.42,2.42,0,0,1,.79-.13c4.22-.19,8.47-.17,12.69.06A3.08,3.08,0,0,1,250,238" transform="translate(-6.54 -12.88)"/><path d="M248.68,238.74c.28.36.18,1.39.19,1.87a23.28,23.28,0,0,1-.1,2.36l1.5-1.5c-2.46-.15-4.94-.12-7.41-.17l-8-.16,1.45,1.1a11,11,0,0,1-.39-2.2,11.23,11.23,0,0,1,0-1.16,5.44,5.44,0,0,1,0-.57c-.6.5-.7.74-.3.69a4,4,0,0,0,1.23-.05l1.24,0c.78,0,1.55,0,2.33,0,1.6,0,3.2,0,4.8.05l2.47.1a2.85,2.85,0,0,1,1.56.25,1.51,1.51,0,0,0,2.05-.54,1.54,1.54,0,0,0-.54-2.05,4.62,4.62,0,0,0-2.45-.63c-1-.06-2.06-.1-3.09-.13q-3.18-.09-6.35,0c-1,0-2.07,0-3.1.1a2.76,2.76,0,0,0-2.55,1.18,5.2,5.2,0,0,0-.32,2.71,15.91,15.91,0,0,0,.5,3.15,1.56,1.56,0,0,0,1.45,1.1l8,.16c2.47,0,4.95,0,7.41.17a1.53,1.53,0,0,0,1.5-1.5,20.63,20.63,0,0,0,.08-2.94,5.13,5.13,0,0,0-.58-2.8,1.55,1.55,0,0,0-2.05-.54,1.51,1.51,0,0,0-.54,2.05Z" transform="translate(-6.54 -12.88)"/><path class="cls-1" d="M87,216.55a11.29,11.29,0,0,1,.93-3.85,1,1,0,0,1,.6-.6" transform="translate(-6.54 -12.88)"/><path d="M88.47,216.55c0-.27,0-.54.08-.8l-.06.4a12.11,12.11,0,0,1,.82-3l-.15.36a1.5,1.5,0,0,1,.22-.39l-.24.3a1.29,1.29,0,0,1,.17-.16l-.3.23.17-.1-.35.16.06,0a1.68,1.68,0,0,0,.9-.69,1.52,1.52,0,0,0,.15-1.16,1.52,1.52,0,0,0-1.84-1,2.89,2.89,0,0,0-1,.62,2,2,0,0,0-.45.63,13.55,13.55,0,0,0-.62,1.6,12.68,12.68,0,0,0-.54,3.05,1.52,1.52,0,0,0,1.5,1.5,1.54,1.54,0,0,0,1.5-1.5Z" transform="translate(-6.54 -12.88)"/><path class="cls-1" d="M70.94,223l-14.35-.28a12.38,12.38,0,0,1,1.22-4,1.13,1.13,0,0,1,.65-.62,2.62,2.62,0,0,1,.8-.11c4.11-.18,8.17-.16,12.12.05.58,0,1.24.1,1.45.39a.58.58,0,0,1,0,.53,21.68,21.68,0,0,1-1.62,4Z" transform="translate(-6.54 -12.88)"/><path d="M70.94,221.45l-14.35-.28,1.44,1.9a13.24,13.24,0,0,1,.52-2.26c.09-.26.18-.52.29-.78s.17-.37.27-.56.09-.19-.1,0c1.32-.07,2.88-.1,4.29-.11s3.08,0,4.62,0c.74,0,1.47,0,2.21.07l1.25.06.35,0c.29.09.3.07,0-.07l-.38-.67c0-.35,0-.35-.07,0,0,.18-.11.36-.16.54s-.22.63-.34.94a19.62,19.62,0,0,1-.89,1.92l1.3-.74-.29,0c-1.93-.11-1.92,2.89,0,3l.29,0a1.45,1.45,0,0,0,1.29-.74A24.37,24.37,0,0,0,74,220.28c.37-1.1.72-2.33-.37-3.15s-2.37-.61-3.5-.66-2.53-.09-3.8-.1a58.52,58.52,0,0,0-7.61.16,2.92,2.92,0,0,0-2.47,2,13.61,13.61,0,0,0-1.11,3.75,1.53,1.53,0,0,0,1.45,1.9l14.35.28C72.87,224.49,72.87,221.49,70.94,221.45Z" transform="translate(-6.54 -12.88)"/><path class="cls-1" d="M138.63,216.8l-14.19-.27a10.53,10.53,0,0,1,.59-3.85.85.85,0,0,1,.54-.6,2.43,2.43,0,0,1,.77-.11c4-.17,8-.16,12,.05a2.46,2.46,0,0,1,1.49.37.6.6,0,0,1,.1.52,17.74,17.74,0,0,1-1,3.91Z" transform="translate(-6.54 -12.88)"/><path d="M138.63,215.3,124.44,215l1.5,1.5a9.08,9.08,0,0,1,.16-2.08q.11-.48.24-1c.29-1-.18.16-.26,0a15.07,15.07,0,0,0,2.37-.08c.71,0,1.41,0,2.11,0,1.49,0,3,0,4.48,0l2.08.07c.39,0,.79,0,1.18.06l.51,0c.2.08.13,0-.22-.25l-.21-.76a5.32,5.32,0,0,1-.27,1.77,19.52,19.52,0,0,1-.64,2.1l1.45-1.1-.29,0c-1.93-.1-1.92,2.9,0,3l.29,0a1.53,1.53,0,0,0,1.44-1.1,18.51,18.51,0,0,0,.92-3.49c.2-1.31,0-2.49-1.39-3a11.81,11.81,0,0,0-3.36-.32c-1.24-.05-2.48-.07-3.72-.08s-2.5,0-3.75,0a19.19,19.19,0,0,0-3.64.19c-2.34.53-2.52,4-2.48,6a1.53,1.53,0,0,0,1.5,1.5l14.19.27C140.56,218.34,140.56,215.34,138.63,215.3Z" transform="translate(-6.54 -12.88)"/><path class="cls-1" d="M157.47,216.8l-14.2-.27a10.57,10.57,0,0,1,.42-3.85.8.8,0,0,1,.51-.6A2.43,2.43,0,0,1,145,212c4-.17,8-.16,12,.05a2.53,2.53,0,0,1,1.51.37.65.65,0,0,1,.12.52,17.21,17.21,0,0,1-.8,3.91Z" transform="translate(-6.54 -12.88)"/><path d="M157.47,215.3l-14.2-.27,1.5,1.5a9.23,9.23,0,0,1,.1-2.35q.06-.35.15-.69a2.76,2.76,0,0,1,.08-.27c.05-.17.05-.18,0-.05l-.38.31H145a3.14,3.14,0,0,0,.75,0c1.86-.07,3.71-.1,5.56-.09s3.57.06,5.35.15c0,0,1,.13,1,.11l-.54-.7,0,.28a5.54,5.54,0,0,0-.07.57,17.21,17.21,0,0,1-.65,2.66l1.45-1.1-.29,0c-1.93-.1-1.92,2.9,0,3l.29,0a1.54,1.54,0,0,0,1.45-1.1,19.41,19.41,0,0,0,.79-3.75,2.27,2.27,0,0,0-1.42-2.7,11.61,11.61,0,0,0-3.28-.32q-1.86-.07-3.72-.09c-1.2,0-2.4,0-3.6,0a20.59,20.59,0,0,0-3.93.2,2.67,2.67,0,0,0-2,2.26,12.45,12.45,0,0,0-.32,3.7,1.53,1.53,0,0,0,1.5,1.5l14.2.27C159.4,218.34,159.4,215.34,157.47,215.3Z" transform="translate(-6.54 -12.88)"/><path class="cls-1" d="M175.62,216.8l-14.22-.27a10.24,10.24,0,0,1,.26-3.85.76.76,0,0,1,.49-.6,2.33,2.33,0,0,1,.76-.11c4-.17,8-.16,12,.05a2.64,2.64,0,0,1,1.53.37.63.63,0,0,1,.14.52,16.29,16.29,0,0,1-.64,3.91Z" transform="translate(-6.54 -12.88)"/><path d="M175.62,215.3,161.4,215l1.5,1.5a9.8,9.8,0,0,1,0-2.48c0-.18.07-.37.11-.56l.06-.27c.05-.17.05-.18,0-.05l-.4.31h.26a3.14,3.14,0,0,0,.75,0q2.78-.1,5.55-.09c1.79,0,3.58.06,5.36.15,0,0,1,.12,1,.11l-.51-.7,0,.28a3.16,3.16,0,0,0-.05.69,15.65,15.65,0,0,1-.51,2.54l1.44-1.1-.28,0c-1.93-.1-1.93,2.9,0,3l.28,0a1.51,1.51,0,0,0,1.45-1.1,20.05,20.05,0,0,0,.66-3.75,2.35,2.35,0,0,0-1.49-2.7,11.61,11.61,0,0,0-3.28-.32c-1.24,0-2.49-.08-3.73-.09s-2.4,0-3.59,0a20.59,20.59,0,0,0-3.93.2,2.55,2.55,0,0,0-1.9,2.26,12.1,12.1,0,0,0-.19,3.7,1.54,1.54,0,0,0,1.5,1.5l14.22.27C177.55,218.34,177.55,215.34,175.62,215.3Z" transform="translate(-6.54 -12.88)"/><path class="cls-1" d="M195.9,212.91a15.94,15.94,0,0,1-.46,3.91l-.28,0-14.23-.27" transform="translate(-6.54 -12.88)"/><path d="M194.4,212.91a15.94,15.94,0,0,1-.4,3.51l1.44-1.1c-4.82-.27-9.68-.2-14.51-.29-1.93,0-1.93,3,0,3,4.83.09,9.69,0,14.51.29a1.52,1.52,0,0,0,1.45-1.1,19,19,0,0,0,.51-4.31,1.5,1.5,0,0,0-3,0Z" transform="translate(-6.54 -12.88)"/><path class="cls-1" d="M214.7,216.8l-14.25-.27a10.39,10.39,0,0,1-.09-3.85.7.7,0,0,1,.43-.6,2.33,2.33,0,0,1,.76-.11c4-.17,8-.16,12,.05a2.79,2.79,0,0,1,1.56.37.67.67,0,0,1,.19.52,16.17,16.17,0,0,1-.27,3.91Z" transform="translate(-6.54 -12.88)"/><path d="M214.7,215.3,200.45,215l1.45,1.1a9,9,0,0,1-.17-2.08,6.45,6.45,0,0,0,.08-1c.1-.37-.08-.24-.53.4l.56,0c1.46-.07,2.92-.1,4.38-.11s2.92,0,4.38.05l2.33.09a2.84,2.84,0,0,1,1.39.2l-.54-.54c0-.33,0-.32,0,0,0,.18,0,.37,0,.55s0,.56,0,.84a14.21,14.21,0,0,1-.22,1.84l1.45-1.1-.29,0c-1.93-.1-1.93,2.9,0,3l.29,0a1.51,1.51,0,0,0,1.44-1.1,19,19,0,0,0,.35-3.75c0-1.27-.38-2.31-1.69-2.73a13.17,13.17,0,0,0-3.32-.3c-1.27-.05-2.53-.07-3.79-.08s-2.44,0-3.66,0a19,19,0,0,0-3.69.19c-1.36.3-1.72,1.44-1.85,2.66a12.11,12.11,0,0,0,.23,3.7,1.51,1.51,0,0,0,1.44,1.1l14.25.27C216.63,218.34,216.63,215.34,214.7,215.3Z" transform="translate(-6.54 -12.88)"/><path class="cls-1" d="M232.84,216.8l-14.25-.27a10.24,10.24,0,0,1-.26-3.85.64.64,0,0,1,.41-.6,2.17,2.17,0,0,1,.74-.11c4-.17,8-.16,12,.05a2.89,2.89,0,0,1,1.58.37.72.72,0,0,1,.21.52,16,16,0,0,1-.11,3.91Z" transform="translate(-6.54 -12.88)"/><path d="M232.84,215.3,218.59,215l1.44,1.1a9.73,9.73,0,0,1-.28-2.08,4.56,4.56,0,0,0,.05-1.09c-.06-.27-.25-.09-.58.52l.56,0c1.46-.07,2.92-.1,4.38-.11s2.92,0,4.38.05l2.33.09a8.89,8.89,0,0,1,1,.06.66.66,0,0,1,.19.07l-.38-.67a5.21,5.21,0,0,1,.1,1.63,14.23,14.23,0,0,1-.13,1.84l1.45-1.1-.29,0c-1.93-.1-1.92,2.9,0,3l.29,0a1.51,1.51,0,0,0,1.45-1.1,18.84,18.84,0,0,0,.2-3.75c-.07-1.27-.43-2.31-1.74-2.73a13.32,13.32,0,0,0-3.34-.3c-1.26-.05-2.52-.07-3.79-.08s-2.43,0-3.65,0a18.2,18.2,0,0,0-3.69.19c-2.6.59-1.88,4.51-1.43,6.36a1.53,1.53,0,0,0,1.45,1.1l14.25.27C234.77,218.34,234.77,215.34,232.84,215.3Z" transform="translate(-6.54 -12.88)"/><path class="cls-1" d="M252.53,216.77l-14.27-.28a10.52,10.52,0,0,1-.43-3.84.6.6,0,0,1,.38-.6,2.17,2.17,0,0,1,.74-.12c4-.17,8-.15,12,.06a3,3,0,0,1,1.59.37.76.76,0,0,1,.24.52,16.41,16.41,0,0,1,.07,3.9Z" transform="translate(-6.54 -12.88)"/><path d="M252.53,215.27,238.26,215l1.45,1.1a9.12,9.12,0,0,1-.39-2.07c0-.35,0-.75,0-1.1.09-.59-.12-.42-.62.53l.55,0c1.46-.06,2.92-.09,4.38-.1s2.92,0,4.38.05q1.17,0,2.34.09c.28,0,1.13,0,1.25.12l-.39-.66a9.29,9.29,0,0,1,.12,3.86l1.5-1.5h-.29c-1.93-.11-1.92,2.89,0,3h.29a1.53,1.53,0,0,0,1.5-1.5,17,17,0,0,0,0-3.63,2.53,2.53,0,0,0-1.86-2.47,15.53,15.53,0,0,0-3.54-.28c-1.22-.05-2.44-.07-3.65-.08s-2.44,0-3.66,0a14.85,14.85,0,0,0-3.65.22c-2.5.69-1.62,4.53-1.1,6.32a1.52,1.52,0,0,0,1.44,1.1l14.27.28C254.46,218.31,254.46,215.31,252.53,215.27Z" transform="translate(-6.54 -12.88)"/><path class="cls-1" d="M272.07,216.77l-14.28-.28a10.5,10.5,0,0,1-.61-3.84.57.57,0,0,1,.35-.6,2.13,2.13,0,0,1,.74-.12c4-.17,8-.15,12,.06a3.07,3.07,0,0,1,1.61.37.84.84,0,0,1,.26.52,16.48,16.48,0,0,1,.25,3.9Z" transform="translate(-6.54 -12.88)"/><path d="M272.07,215.27,257.79,215l1.45,1.1a10.4,10.4,0,0,1-.49-1.92c0-.23-.05-.47-.06-.7s0-.37,0-.55q0-.54,0,0l-.54.54c-.18,0-.13,0,.17,0l.59,0,1.2,0c.69,0,1.39,0,2.09,0,1.55,0,3.09,0,4.64,0l2.25.08,1.2.06a3.15,3.15,0,0,0,.61.06c.06,0,.1,0,.1,0-.28-.39-.36-.39-.24,0s.1.68.12,1a16.6,16.6,0,0,1,0,2.23l1.5-1.5h-.29c-1.93-.11-1.92,2.89,0,3h.29a1.52,1.52,0,0,0,1.5-1.5,19,19,0,0,0-.19-3.61,2.63,2.63,0,0,0-1.92-2.49,14.66,14.66,0,0,0-3.31-.27q-1.87-.07-3.75-.09c-1.24,0-2.49,0-3.74,0a18,18,0,0,0-3.6.18c-2.66.63-1.61,4.57-1,6.36a1.55,1.55,0,0,0,1.45,1.1l14.28.28C274,218.31,274,215.31,272.07,215.27Z" transform="translate(-6.54 -12.88)"/><path class="cls-1" d="M290.91,216.77l-14.29-.28a11,11,0,0,1-.79-3.84.57.57,0,0,1,.33-.6,2.07,2.07,0,0,1,.73-.12c4-.17,8-.15,12,.06a3.17,3.17,0,0,1,1.63.37.93.93,0,0,1,.28.52,16.13,16.13,0,0,1,.42,3.9Z" transform="translate(-6.54 -12.88)"/><path d="M290.91,215.27,276.62,215l1.45,1.1a12.52,12.52,0,0,1-.58-1.92c-.05-.23-.08-.46-.11-.7s0-.37,0-.55q0-.54-.06,0l-.54.54q-.28,0,.15,0l.6,0,1.19,0c.7,0,1.39,0,2.09,0,1.55,0,3.1,0,4.65,0l2.25.08,1.2.06a3.15,3.15,0,0,0,.61.06c.06,0,.09,0,.11,0-.27-.39-.33-.39-.2,0a8.33,8.33,0,0,0,.2,1.11,16.83,16.83,0,0,1,.11,2.12l1.5-1.5h-.29c-1.93-.11-1.92,2.89,0,3h.29a1.51,1.51,0,0,0,1.5-1.5,19,19,0,0,0-.33-3.61,2.75,2.75,0,0,0-2-2.49,14.66,14.66,0,0,0-3.31-.27q-1.87-.07-3.75-.09c-1.25,0-2.5,0-3.74,0a17.29,17.29,0,0,0-3.6.18c-2.7.65-1.48,4.6-.81,6.36a1.55,1.55,0,0,0,1.45,1.1l14.29.28C292.84,218.31,292.84,215.31,290.91,215.27Z" transform="translate(-6.54 -12.88)"/><path class="cls-1" d="M309.75,216.77l-14.3-.28a11.3,11.3,0,0,1-1-3.84.54.54,0,0,1,.3-.6,2.07,2.07,0,0,1,.73-.12c4-.17,8-.15,12,.06a3.24,3.24,0,0,1,1.64.37.81.81,0,0,1,.3.52,16.39,16.39,0,0,1,.6,3.9Z" transform="translate(-6.54 -12.88)"/><path d="M309.75,215.27l-14.3-.28,1.29.75a11.32,11.32,0,0,1-.54-1.71c-.06-.25-.11-.5-.15-.76s0-.23,0-.35c0-.36,0-.36-.1,0l-.53.54c-.21,0-.16,0,.14,0l.61,0,1.22,0,2.14-.05c1.54,0,3.08,0,4.61,0,.72,0,1.44,0,2.16.07.14,0,1.95.15,2,.14s0-.19-.22-.3l.07.28a7.12,7.12,0,0,0,.25,1.11,15.24,15.24,0,0,1,.22,2.12l1.5-1.5h-.29c-1.93-.11-1.92,2.89,0,3H310a1.5,1.5,0,0,0,1.5-1.5,19.94,19.94,0,0,0-.47-3.61,2.88,2.88,0,0,0-2.05-2.49,15.29,15.29,0,0,0-3.38-.28c-1.28,0-2.56-.07-3.84-.08s-2.56,0-3.84,0a13.32,13.32,0,0,0-3.57.25c-2.63.86-.95,5-.24,6.65a1.49,1.49,0,0,0,1.3.74l14.3.28C311.68,218.31,311.68,215.31,309.75,215.27Z" transform="translate(-6.54 -12.88)"/><path class="cls-1" d="M328.59,216.77l-14.31-.28a11.44,11.44,0,0,1-1.13-3.84c0-.22,0-.47.27-.6a2.07,2.07,0,0,1,.73-.12c4-.17,8-.15,12,.06a3.38,3.38,0,0,1,1.67.37.89.89,0,0,1,.32.52,16.73,16.73,0,0,1,.77,3.9Z" transform="translate(-6.54 -12.88)"/><path d="M328.59,215.27,314.28,215l1.29.75a10.64,10.64,0,0,1-.63-1.71c-.08-.27-.14-.54-.2-.82s-.05-.28-.07-.41-.05-.21-.12.12l-.54.54c-.21,0-.16,0,.14,0l.6,0,1.22,0,2.14-.05c1.54,0,3.08,0,4.62,0,.72,0,1.44,0,2.16.07.14,0,1.95.17,2,.14s.06-.16-.18-.3l.08.28c.05.37.22.75.3,1.11a15.55,15.55,0,0,1,.33,2.12l1.5-1.5h-.29c-1.93-.11-1.92,2.89,0,3h.29a1.5,1.5,0,0,0,1.5-1.5,20,20,0,0,0-.61-3.61,3,3,0,0,0-2.12-2.49,15.29,15.29,0,0,0-3.38-.28c-1.28,0-2.57-.07-3.85-.08s-2.56,0-3.84,0a13.17,13.17,0,0,0-3.55.25c-2.67.87-.82,5,0,6.65a1.49,1.49,0,0,0,1.3.74l14.31.28C330.52,218.31,330.52,215.31,328.59,215.27Z" transform="translate(-6.54 -12.88)"/><path class="cls-1" d="M56.46,224l24.33.17a6.73,6.73,0,0,1-.37,4.06,1,1,0,0,1-.84.65,7,7,0,0,1-1.34.13c-7,.22-14,.23-20.93,0a6.66,6.66,0,0,1-2.64-.39.47.47,0,0,1-.19-.55A12.3,12.3,0,0,1,56,224Z" transform="translate(-6.54 -12.88)"/><path d="M56.46,225.5l24.33.17-1.44-1.1a5.51,5.51,0,0,1,0,1.9c-.11.65-.06.95-.67,1a40.8,40.8,0,0,1-4.14.11q-4,.09-8.06.08c-2.59,0-5.17,0-7.76-.09-.61,0-1.22,0-1.83-.05-.31,0-.63-.07-.94-.06s-.66-.34-.22.27.27.15.39-.28a7.76,7.76,0,0,1,.25-.82,12.17,12.17,0,0,1,.87-1.91l-1.3.75h.49c1.93.06,1.93-2.94,0-3H56a1.46,1.46,0,0,0-1.29.74,12,12,0,0,0-1.7,4.88c-.08,1.56,1.27,2.16,2.59,2.32a88.72,88.72,0,0,0,10.94.25q5.63,0,11.24-.16c1.49,0,3.17-.06,4-1.54a8.11,8.11,0,0,0,.52-5.21,1.52,1.52,0,0,0-1.45-1.1l-24.33-.17A1.5,1.5,0,0,0,56.46,225.5Z" transform="translate(-6.54 -12.88)"/><path class="cls-1" d="M54,230.86,83,231a6.1,6.1,0,0,1-.19,4.18c-.1.25-.28.52-1,.67a9.67,9.67,0,0,1-1.58.14c-8.37.22-16.73.24-25,0a9.21,9.21,0,0,1-3.16-.4.47.47,0,0,1-.26-.57,11,11,0,0,1,1.53-4.25Z" transform="translate(-6.54 -12.88)"/><path d="M54,232.36l29,.18-1.45-1.11a4.8,4.8,0,0,1,.18,2.13,2.47,2.47,0,0,1-.25.95c0,.13,0,.14,0,0s-.09-.19-.36,0a32.4,32.4,0,0,0-4.51.12c-3.2.06-6.39.1-9.58.1s-6.18,0-9.27-.09l-2.43-.05a14.46,14.46,0,0,0-2-.11l-.31-.06.37.67s.22-.95.25-1.07a11.43,11.43,0,0,1,1.07-2.4l-1.3.75H54c1.93,0,1.93-3,0-3h-.59a1.46,1.46,0,0,0-1.29.74c-.84,1.47-2.1,3.84-1.7,5.61.36,1.6,2.32,1.74,3.64,1.82,4.21.28,8.48.19,12.7.19s8.68-.05,13-.17c1.46,0,3.42,0,4.27-1.41a7.36,7.36,0,0,0,.42-5.49,1.53,1.53,0,0,0-1.45-1.1l-29-.18A1.5,1.5,0,0,0,54,232.36Z" transform="translate(-6.54 -12.88)"/><path class="cls-1" d="M51.83,237.43l38.38.18a5,5,0,0,1,.2,4.31c-.1.25-.3.54-1.21.69a16.18,16.18,0,0,1-2.07.14c-11,.23-22.09.25-33,.05a15.85,15.85,0,0,1-4.23-.42c-.42-.17-.42-.39-.41-.59a9,9,0,0,1,1.57-4.38Z" transform="translate(-6.54 -12.88)"/><path d="M51.83,238.93l38.38.18-1.3-.75a3.38,3.38,0,0,1,.18,2.83c-.07.18,0,.14.11-.11a2.35,2.35,0,0,1-.59.1,14.66,14.66,0,0,1-1.48.07c-2,.05-4,.07-5.93.1q-6.18.09-12.35.09t-12.28-.1a51.07,51.07,0,0,1-5.25-.18c-.12,0-.7-.21-.81-.15.36.94.53,1.07.52.38l.08-.4a8.8,8.8,0,0,1,1.24-2.82l-1.29.74.77,0c1.93,0,1.93-3,0-3a3.24,3.24,0,0,0-1.35.11c-.87.37-1.31,1.56-1.66,2.38-.56,1.28-1.45,3.64-.28,4.84s3.18,1,4.56,1c2.13.07,4.27.08,6.41.11q13.32.15,26.63-.11c1.7,0,4.38.27,5.46-1.4s.74-4.22-.1-6a1.46,1.46,0,0,0-1.29-.74l-38.38-.18A1.5,1.5,0,0,0,51.83,238.93Z" transform="translate(-6.54 -12.88)"/><path class="cls-1" d="M48.94,244.19l25.47.19a7.88,7.88,0,0,1-.46,4.44,1.13,1.13,0,0,1-.89.72,7.63,7.63,0,0,1-1.4.14c-7.36.24-14.71.25-21.93,0A6.56,6.56,0,0,1,47,249.3a.53.53,0,0,1-.19-.61,14.38,14.38,0,0,1,1.64-4.52Z" transform="translate(-6.54 -12.88)"/><path d="M48.94,245.69l25.47.19L73,244.77a6.47,6.47,0,0,1,0,2.06,4.35,4.35,0,0,1-.3,1.14c-.12.25-.14.18,0,.12a4.59,4.59,0,0,1-1.74.11l-2.2.06c-2.94.07-5.87.11-8.81.11s-5.66,0-8.49-.1l-2.1-.06c-.32,0-.66-.07-1-.07s-.71-.33-.26.22.3,0,.43-.51c.08-.27.17-.55.26-.82a13.7,13.7,0,0,1,1-2.1l-1.3.74.51,0c1.93.06,1.93-2.94,0-3l-.51,0a1.49,1.49,0,0,0-1.29.75,13,13,0,0,0-1.85,5.27c-.06,1.51,1.1,2.17,2.44,2.38a42.49,42.49,0,0,0,5.86.24c2,0,4,.06,6.08.06,4,0,8.12,0,12.17-.2,1.35-.06,2.74-.28,3.41-1.59a9.13,9.13,0,0,0,.6-5.6,1.49,1.49,0,0,0-1.44-1.1l-25.47-.19A1.5,1.5,0,0,0,48.94,245.69Z" transform="translate(-6.54 -12.88)"/><path class="cls-1" d="M78.48,244.19l20.17.19a9.7,9.7,0,0,1-.42,4.44,1,1,0,0,1-.71.72,4.89,4.89,0,0,1-1.11.14c-5.84.24-11.66.25-17.37,0a4.19,4.19,0,0,1-2.17-.42.61.61,0,0,1-.15-.61,17.2,17.2,0,0,1,1.36-4.52Z" transform="translate(-6.54 -12.88)"/><path d="M78.48,245.69l20.17.19-1.5-1.5a9,9,0,0,1-.19,3.43c0,.14-.07.27-.11.41s-.08.27-.06.07c.18,0-.54-.11-.6-.1l-1.75.06q-3.7.12-7.41.12t-7.13-.12a14.27,14.27,0,0,1-1.6-.07,3.75,3.75,0,0,0-.59-.11l.52.64.07-.38a9.1,9.1,0,0,0,.44-1.69,17.52,17.52,0,0,1,.63-1.71l-1.29.74.4,0c1.93.07,1.93-2.93,0-3l-.4,0a1.48,1.48,0,0,0-1.3.75c-.85,2-3,6.45,0,7.5a15.49,15.49,0,0,0,4.41.37c1.73.05,3.46.07,5.19.08,3.33,0,6.69,0,10-.19,1.47-.09,2.74-.45,3.27-2a10.9,10.9,0,0,0,.47-4.84,1.53,1.53,0,0,0-1.5-1.5l-20.17-.19A1.5,1.5,0,0,0,78.48,245.69Z" transform="translate(-6.54 -12.88)"/><path class="cls-1" d="M104.65,244.19l25.48.19a7.63,7.63,0,0,1,.1,4.44c-.07.26-.21.55-.81.72a7.24,7.24,0,0,1-1.38.14c-7.33.24-14.68.25-21.92,0a7,7,0,0,1-2.81-.42.59.59,0,0,1-.26-.61,13,13,0,0,1,1.08-4.52Z" transform="translate(-6.54 -12.88)"/><path d="M104.65,245.69l25.48.19-1.44-1.11a7.43,7.43,0,0,1,.32,2,9.12,9.12,0,0,1-.12,1.16c-.11.78-.13.1.13.12-1.24-.1-2.66.14-3.91.17q-4.39.11-8.8.11c-2.83,0-5.67,0-8.5-.1l-2.1-.06a8.4,8.4,0,0,1-1-.07c-.41,0-.54-.27-.33.23.31.76.22-.41.26-.64s.11-.61.18-.91a16.54,16.54,0,0,1,.76-2.25l-1.45,1.1.52,0c1.93.06,1.93-2.94,0-3l-.52,0a1.55,1.55,0,0,0-1.44,1.11c-.64,1.53-1.39,3.62-1.11,5.32s1.92,1.94,3.31,2.06c3.85.35,7.81.21,11.67.21s7.91,0,11.84-.21c1.34-.08,2.71-.38,3.22-1.78a9,9,0,0,0,0-5.4,1.52,1.52,0,0,0-1.45-1.1l-25.48-.19A1.5,1.5,0,0,0,104.65,245.69Z" transform="translate(-6.54 -12.88)"/><path class="cls-1" d="M338.59,250l-25.88-.19a9.73,9.73,0,0,1-1.87-4.46c0-.26,0-.55.52-.7a5.16,5.16,0,0,1,1.31-.14c7.14-.24,14.39-.25,21.65,0a8.82,8.82,0,0,1,3,.42,1.08,1.08,0,0,1,.57.6,13.4,13.4,0,0,1,1.24,4.54Z" transform="translate(-6.54 -12.88)"/><path d="M338.59,248.47l-25.88-.19L314,249a11.71,11.71,0,0,1-1-1.67c-.27-.54-.35-1.15-.59-1.69l-.07-.37c-.55.55-.61.79-.2.71a2.5,2.5,0,0,0,.77,0l2.2-.06q4.53-.12,9.08-.12c3,0,5.93,0,8.89.11.74,0,3-.23,3.53.3a5.79,5.79,0,0,1,.6,1.7,11.53,11.53,0,0,1,.41,2.09l1.5-1.5-.53,0c-1.93-.06-1.92,2.94,0,3l.53,0a1.51,1.51,0,0,0,1.5-1.5c-.19-1.84-.55-4.35-1.79-5.81s-4-1.24-5.75-1.28q-7.51-.18-15-.06l-3.42.08a17.34,17.34,0,0,0-3.38.19c-2.13.49-2.08,2.35-1.52,4.09A11.82,11.82,0,0,0,311,250c.8,1.26,1.46,1.3,2.91,1.31l7.47.06,17.17.12A1.5,1.5,0,0,0,338.59,248.47Z" transform="translate(-6.54 -12.88)"/><path class="cls-1" d="M308.68,250l-20.5-.19a11.1,11.1,0,0,1-1.44-4.46.59.59,0,0,1,.42-.7,3.31,3.31,0,0,1,1-.14c5.66-.24,11.4-.25,17.14,0a5.65,5.65,0,0,1,2.37.42,1,1,0,0,1,.44.6,15.85,15.85,0,0,1,.94,4.54Z" transform="translate(-6.54 -12.88)"/><path d="M308.68,248.47l-20.5-.19,1.29.74a10.58,10.58,0,0,1-1.12-3c0-.09,0-.67-.11-.71-.57.52-.65.74-.23.67l.41,0q.87,0,1.74-.06,3.63-.12,7.24-.12t7.06.11c.54,0,1.1,0,1.64.07.09,0,.88.09.63,0,0-.18,0-.15,0,.09s.09.27.13.41a14.6,14.6,0,0,1,.68,3.53l1.5-1.5-.41,0c-1.94-.07-1.93,2.93,0,3l.41,0a1.5,1.5,0,0,0,1.5-1.5,17,17,0,0,0-1-4.94,3.09,3.09,0,0,0-2.73-2,68.47,68.47,0,0,0-10.13-.27c-1.68,0-3.36,0-5.05.07a21.1,21.1,0,0,0-4.77.27c-3.22.86-1,5.58,0,7.41a1.5,1.5,0,0,0,1.3.74l20.5.19A1.5,1.5,0,0,0,308.68,248.47Z" transform="translate(-6.54 -12.88)"/><path class="cls-1" d="M282.18,250l-25.87-.19a8.79,8.79,0,0,1-1.32-4.46c0-.26.06-.55.61-.7a5.35,5.35,0,0,1,1.32-.14c7.18-.24,14.43-.25,21.66,0a8.36,8.36,0,0,1,2.94.42.93.93,0,0,1,.5.6,12.5,12.5,0,0,1,.68,4.54Z" transform="translate(-6.54 -12.88)"/><path d="M282.18,248.47l-25.87-.19,1.3.74a9,9,0,0,1-.84-1.87c-.06-.21-.21-1.8-.28-1.83l-.27.69.35,0a5.7,5.7,0,0,0,1.09,0l2.2-.07c2.95-.07,5.91-.1,8.86-.1s5.75,0,8.63.11c.68,0,1.37,0,2.06.06a7.81,7.81,0,0,1,1,.1c.07,0,.85.2.34,0-.17-.25-.19-.23-.07,0a5.82,5.82,0,0,1,.2.68q.12.45.21.9a10.83,10.83,0,0,1,.15,2.34l1.5-1.5-.52,0c-1.93-.06-1.93,2.94,0,3l.52,0a1.52,1.52,0,0,0,1.5-1.5,11.71,11.71,0,0,0-.9-5.33c-.71-1.39-2.27-1.58-3.69-1.68-3.93-.28-7.93-.2-11.88-.19s-7.71-.11-11.51.22c-1.4.13-2.66.74-2.73,2.31a10.11,10.11,0,0,0,1.53,5.22,1.49,1.49,0,0,0,1.29.74l25.87.19A1.5,1.5,0,0,0,282.18,248.47Z" transform="translate(-6.54 -12.88)"/><path class="cls-1" d="M136.81,244.41l111.46.18c3.36,1.46,4.87,2.95,4.46,4.45-.07.26-.4.56-2.87.72-1.64.1-3.83.12-5.91.14-31.8.24-63.86.25-95.68,0-4.73,0-10.13-.1-12.64-.43-1.36-.18-1.56-.4-1.71-.61-1-1.51-.83-3,.63-4.52Z" transform="translate(-6.54 -12.88)"/><path d="M136.81,245.91l98.46.16c4,0,8,.06,12,0A5.6,5.6,0,0,1,251,248s.48.7.35.69c-.61-.05.46-.58.45-.64.18-.06.17-.06,0,0a3.2,3.2,0,0,1-.42.1,25.92,25.92,0,0,1-4.22.25c-2,0-4.06,0-6.08.06l-12.38.08q-24.31.12-48.62.08-13.63,0-27.26-.11c-4.08,0-8.15,0-12.22-.14a45.32,45.32,0,0,1-4.65-.28c-.28,0-.56-.1-.85-.17.19.05.33.79,0-.08a2,2,0,0,1,.61-2.35l-1.06.44,2.26,0a1.5,1.5,0,0,0,0-3,18.94,18.94,0,0,0-2.26,0c-1.69.17-2.76,2.59-2.77,4.1a4.14,4.14,0,0,0,1.71,3.5,9.91,9.91,0,0,0,4.09.7c8.24.53,16.56.3,24.8.33q27.17.12,54.33,0,13.5,0,27-.15c2,0,4,0,6-.13a7.77,7.77,0,0,0,3.66-.72c2.46-1.61,0-4.73-1.62-5.82a14.66,14.66,0,0,0-2.27-1.24,7.12,7.12,0,0,0-3.18-.4h-7l-13.5,0-27.49,0-54.73-.09h-6.74A1.5,1.5,0,0,0,136.81,245.91Z" transform="translate(-6.54 -12.88)"/><path class="cls-1" d="M305.7,218l24.08.17a8.75,8.75,0,0,1,1.94,3.94c0,.23,0,.49-.47.63a6.3,6.3,0,0,1-1.24.13c-6.8.21-13.71.22-20.62,0a8.62,8.62,0,0,1-2.82-.38.91.91,0,0,1-.5-.54,10.55,10.55,0,0,1-.86-4Z" transform="translate(-6.54 -12.88)"/><path d="M305.7,219.45l24.08.17-1.06-.44a9,9,0,0,1,.95,1.47,10.24,10.24,0,0,0,.53,1.44l.26-.79-.45,0a5.47,5.47,0,0,0-1.21,0l-1.95.05q-4.05.09-8.09.09c-2.63,0-5.26,0-7.89-.09l-1.87-.05c-.4,0-1.27.08-1.62-.18s-.65-2.44-.67-3.23l-1.5,1.5h.49c1.93.05,1.93-2.95,0-3h-.49a1.5,1.5,0,0,0-1.5,1.5c.06,1.7.29,4.37,1.69,5.55s3.64.86,5.23.9q7,.17,14,.05l3.41-.07a16.2,16.2,0,0,0,3.41-.2c2-.5,1.91-2.34,1.27-4a10.77,10.77,0,0,0-1.39-2.5,2.57,2.57,0,0,0-2.55-1.1l-7.13-.05-16-.11A1.5,1.5,0,0,0,305.7,219.45Z" transform="translate(-6.54 -12.88)"/><path class="cls-1" d="M304.13,230.75l28.86.17a8.57,8.57,0,0,1,2.17,4.19c0,.24,0,.52-.58.67a7.31,7.31,0,0,1-1.49.13c-8.16.23-16.45.24-24.72.05a11.18,11.18,0,0,1-3.36-.41.94.94,0,0,1-.59-.57,10,10,0,0,1-.88-4.25Z" transform="translate(-6.54 -12.88)"/><path d="M304.13,232.25l28.86.17-1.06-.44a9,9,0,0,1,1.21,1.78,4.61,4.61,0,0,1,.36.86c0,.12.07.24.1.36.08.48.27.27.59-.65a11.62,11.62,0,0,0-2.08.11l-2.46.05q-4.8.1-9.62.1t-9.67-.09c-1.28,0-3.17.25-4.38-.22-.89-.34-.94-2.65-.94-3.55l-1.5,1.5.59,0c1.93,0,1.93-3,0-3l-.59,0a1.52,1.52,0,0,0-1.5,1.5c0,1.83.29,5,2.06,6s4.71.71,6.75.75q8.06.15,16.1,0l3.93-.07a22.7,22.7,0,0,0,3.78-.19c2.4-.46,2.17-2.53,1.4-4.34a10.71,10.71,0,0,0-1.72-2.74c-.94-1.07-2.27-.78-3.59-.79l-8.21,0-18.41-.11A1.5,1.5,0,0,0,304.13,232.25Z" transform="translate(-6.54 -12.88)"/><path class="cls-1" d="M336.31,243l-40.38-.41a6.35,6.35,0,0,1-2-4.34c0-.24.09-.52,1-.67a14.43,14.43,0,0,1,2.07-.12c11.21-.17,22.53-.12,33.82.14a20.33,20.33,0,0,1,4.59.44,1.13,1.13,0,0,1,.77.58,8,8,0,0,1,1,4.4Z" transform="translate(-6.54 -12.88)"/><path d="M336.31,241.46l-40.38-.41,1.06.44a5.7,5.7,0,0,1-1.52-2.59l-.06-.33c0-.67-.13-.51-.53.5.05,0,1.08-.13,1.16-.13,2.11-.09,4.22-.07,6.33-.08q6.47-.06,12.92,0t13,.17a46.41,46.41,0,0,1,5.78.24c.94.13.81,0,1.17.92a6.74,6.74,0,0,1,.43,2.81l1.5-1.5-.82,0c-1.93-.05-1.93,2.95,0,3l.82,0a1.52,1.52,0,0,0,1.5-1.5c.11-2.45-.6-5.87-3.32-6.54-2.94-.73-6.3-.42-9.31-.47q-10.58-.19-21.15-.13l-5,0a39.14,39.14,0,0,0-5.08.16c-3,.45-2.7,3.28-1.52,5.46a9.31,9.31,0,0,0,1.25,1.75,2.19,2.19,0,0,0,1.89.8c1.82.06,3.65,0,5.48.06l10.46.11,23.94.24A1.5,1.5,0,0,0,336.31,241.46Z" transform="translate(-6.54 -12.88)"/><path class="cls-1" d="M91.33,223,77,222.76a11.11,11.11,0,0,1,.75-4,.91.91,0,0,1,.57-.61,2.56,2.56,0,0,1,.79-.12c4.08-.18,8.14-.16,12.11.05.6,0,1.26.1,1.51.39a.61.61,0,0,1,.07.53,18.66,18.66,0,0,1-1.13,4Z" transform="translate(-6.54 -12.88)"/><path d="M91.33,221.54,77,221.26l1.5,1.5a9.17,9.17,0,0,1,.26-2.15q.11-.42.24-.84c.06-.19.12-.38.19-.57a.52.52,0,0,1-.35.38,15,15,0,0,0,2.15-.08l2.35,0q2.25,0,4.5,0l2.16.07,1.22.06.37,0c.35.11.32,0-.07-.21l-.21-.76a5.51,5.51,0,0,1-.36,1.83,21.1,21.1,0,0,1-.73,2.16l1.45-1.1-.29,0c-1.93-.11-1.92,2.89,0,3l.29,0a1.53,1.53,0,0,0,1.44-1.1,20.56,20.56,0,0,0,1.07-3.59c.23-1.23.12-2.39-1.18-2.93a10.67,10.67,0,0,0-3.61-.4q-1.86-.07-3.72-.09c-1.24,0-2.49,0-3.74,0a20.52,20.52,0,0,0-3.76.19,2.91,2.91,0,0,0-2.07,2.3,13.16,13.16,0,0,0-.6,3.79,1.53,1.53,0,0,0,1.5,1.5l14.38.28C93.26,224.58,93.26,221.58,91.33,221.54Z" transform="translate(-6.54 -12.88)"/><path class="cls-1" d="M186.31,242.93l-13.94-.27a11.65,11.65,0,0,1,1.25-3.73,1.09,1.09,0,0,1,.64-.58,2.54,2.54,0,0,1,.78-.11c4-.17,7.93-.15,11.76,0,.58,0,1.22.09,1.41.36a.55.55,0,0,1,0,.5,19.74,19.74,0,0,1-1.64,3.8Z" transform="translate(-6.54 -12.88)"/><path d="M186.31,241.43l-13.94-.27,1.45,1.9a11.09,11.09,0,0,1,.54-2.13c.09-.24.18-.47.29-.71l.27-.53c.12-.19.09-.18-.1,0a11.16,11.16,0,0,0,1.79,0l2.35-.05c1.5,0,3,0,4.49,0l2.14.07,1.21.06.34,0c.29.08.29.05,0-.1l-.38-.66.06.24v-.8a14.63,14.63,0,0,1-1.54,3.7l1.29-.74-.27,0c-1.93-.11-1.93,2.89,0,3l.27,0a1.51,1.51,0,0,0,1.3-.75,23.93,23.93,0,0,0,1.52-3.34c.42-1.18.61-2.49-.7-3.19a8.16,8.16,0,0,0-3.41-.45q-1.84-.08-3.69-.09c-1.24,0-2.49,0-3.73,0a20.52,20.52,0,0,0-3.76.19,3,3,0,0,0-2.11,2,12.94,12.94,0,0,0-1.07,3.42,1.52,1.52,0,0,0,1.44,1.9l13.94.27C188.24,244.47,188.24,241.47,186.31,241.43Z" transform="translate(-6.54 -12.88)"/><path class="cls-1" d="M101.31,216.85l-14.51-.29a11.83,11.83,0,0,1,.82-4,1,1,0,0,1,.58-.63,3,3,0,0,1,.8-.12c4.12-.17,8.22-.15,12.22.06.6,0,1.27.1,1.51.39a.61.61,0,0,1,.07.54,19.35,19.35,0,0,1-1.2,4.09Z" transform="translate(-6.54 -12.88)"/><path d="M101.31,215.35l-14.51-.29,1.5,1.5a10.7,10.7,0,0,1,.3-2.19c.08-.29.16-.58.26-.86.26-.83,0,0-.13-.21.12.11,1-.05,1.22-.05l1,0c.79,0,1.58,0,2.37-.05,1.51,0,3,0,4.54,0,.73,0,1.45,0,2.18.07l1.23.06.37,0c.35.11.33,0-.07-.2l-.2-.76a6.14,6.14,0,0,1-.4,1.87,21.89,21.89,0,0,1-.77,2.19l1.45-1.1h-.29c-1.93-.12-1.92,2.89,0,3h.29a1.53,1.53,0,0,0,1.44-1.1,19.52,19.52,0,0,0,1.13-3.65c.24-1.23.14-2.41-1.16-3a10.85,10.85,0,0,0-3.64-.41c-1.25,0-2.5-.07-3.74-.08s-2.52,0-3.78,0a20,20,0,0,0-3.79.2c-1.23.27-1.73,1.22-2.1,2.32a13.58,13.58,0,0,0-.66,3.85,1.53,1.53,0,0,0,1.5,1.5l14.51.29C103.24,218.38,103.24,215.38,101.31,215.35Z" transform="translate(-6.54 -12.88)"/><path class="cls-1" d="M194.64,216.85l-14.46-.29a13,13,0,0,1,1.34-4,1.19,1.19,0,0,1,.67-.63,3.11,3.11,0,0,1,.81-.12c4.15-.17,8.24-.15,12.22.06.59,0,1.26.1,1.46.39a.64.64,0,0,1,0,.54,22.07,22.07,0,0,1-1.75,4.09Z" transform="translate(-6.54 -12.88)"/><path d="M194.64,215.35l-14.46-.29,1.44,1.9a12.72,12.72,0,0,1,.59-2.3c.1-.27.2-.54.32-.8s.19-.38.29-.57.1-.19-.08,0c1.37-.16,2.92-.11,4.34-.13s3.11,0,4.66,0l2.22.08,1.26.06.36,0c.29.09.3.07,0-.07l-.39-.66c0-.35,0-.34-.08,0-.06.19-.12.37-.19.55s-.22.61-.35.91a21.66,21.66,0,0,1-1,2l1.29-.74h-.29c-1.93-.12-1.92,2.88,0,3h.29a1.48,1.48,0,0,0,1.3-.74,26.73,26.73,0,0,0,1.57-3.5c.4-1.1.77-2.34-.33-3.18-.95-.72-2.38-.61-3.51-.66s-2.55-.09-3.82-.11a61.66,61.66,0,0,0-7.69.16,3.07,3.07,0,0,0-2.51,2,15,15,0,0,0-1.21,3.81,1.53,1.53,0,0,0,1.45,1.9l14.46.29C196.57,218.38,196.57,215.38,194.64,215.35Z" transform="translate(-6.54 -12.88)"/><path class="cls-1" d="M214.1,229.13l-14.2-.28a12.47,12.47,0,0,1,1.43-3.88,1.14,1.14,0,0,1,.67-.61,3.11,3.11,0,0,1,.81-.12c4.08-.17,8.1-.15,12,.06.58,0,1.23.09,1.42.37a.62.62,0,0,1,0,.53,22,22,0,0,1-1.82,4Z" transform="translate(-6.54 -12.88)"/><path d="M214.1,227.63l-14.2-.28,1.44,1.9A12,12,0,0,1,202,227c.11-.26.23-.51.35-.75s.19-.37.29-.56.11-.18-.06,0c1.32,0,2.85-.1,4.25-.11s3.05,0,4.58,0l2.18.08,1.24.06.34,0c.29.08.3.06,0-.09l-.39-.66.06.25v-.79a15.8,15.8,0,0,1-1.75,3.86l1.3-.74-.29,0c-1.92-.11-1.92,2.89,0,3l.29,0a1.5,1.5,0,0,0,1.29-.75,24.55,24.55,0,0,0,1.59-3.26c.46-1.15.9-2.56-.39-3.37a6.77,6.77,0,0,0-3.31-.53c-1.3-.06-2.6-.09-3.91-.11s-2.54,0-3.81,0a26.71,26.71,0,0,0-3.79.17,3.18,3.18,0,0,0-2.39,2.08,14.34,14.34,0,0,0-1.22,3.55,1.53,1.53,0,0,0,1.45,1.9l14.2.28C216,230.67,216,227.67,214.1,227.63Z" transform="translate(-6.54 -12.88)"/><path class="cls-1" d="M233,229.13l-14.19-.28a12.79,12.79,0,0,1,1.53-3.88,1.21,1.21,0,0,1,.69-.61,3.17,3.17,0,0,1,.81-.12c4.09-.17,8.1-.15,12,.06.58,0,1.23.09,1.41.37a.59.59,0,0,1,0,.53,23.52,23.52,0,0,1-1.93,4Z" transform="translate(-6.54 -12.88)"/><path d="M233,227.63l-14.19-.28,1.44,1.9a11.54,11.54,0,0,1,.67-2.14c.13-.28.27-.56.41-.83l.31-.56q.19-.28-.06,0c1.35,0,2.86-.1,4.27-.11s3.05,0,4.58,0l2.17.08,1.24.06.34,0c.29.08.3.06,0-.09l-.39-.66,0,.25v-.79a16.55,16.55,0,0,1-1.86,3.86l1.3-.74-.29,0c-1.92-.11-1.92,2.89,0,3l.29,0a1.48,1.48,0,0,0,1.29-.75,25.51,25.51,0,0,0,1.63-3.16c.5-1.17,1-2.62-.31-3.47a6.69,6.69,0,0,0-3.3-.53c-1.3-.06-2.6-.09-3.9-.11s-2.54,0-3.81,0a26.58,26.58,0,0,0-3.79.17,3.28,3.28,0,0,0-2.43,2.08,14.57,14.57,0,0,0-1.31,3.55,1.52,1.52,0,0,0,1.45,1.9l14.19.28C235,230.67,235,227.67,233,227.63Z" transform="translate(-6.54 -12.88)"/><path class="cls-1" d="M238.06,236.1,224,235.83a12.91,12.91,0,0,1,1.55-3.81,1.27,1.27,0,0,1,.69-.6,3.09,3.09,0,0,1,.8-.11c4.05-.17,8-.15,11.88.05.57,0,1.22.1,1.39.37a.55.55,0,0,1,0,.51,21.62,21.62,0,0,1-1.94,3.88Z" transform="translate(-6.54 -12.88)"/><path d="M238.06,234.6,224,234.33l1.45,1.89a11.5,11.5,0,0,1,.68-2.08c.13-.28.27-.55.41-.82,0,0,.46-.66.25-.51a7.84,7.84,0,0,1,1.84-.05c.8,0,1.59,0,2.38,0,1.51,0,3,0,4.53,0l2.16.08,1.22.05.33,0q.45.13,0-.09l-.38-.66,0,.25v-.8a16,16,0,0,1-1.87,3.78l1.3-.74-.28,0c-1.93-.11-1.92,2.89,0,3l.28,0a1.49,1.49,0,0,0,1.29-.75,23.5,23.5,0,0,0,1.64-3.1c.5-1.16,1-2.59-.3-3.44a6.72,6.72,0,0,0-3.27-.52c-1.29-.06-2.58-.09-3.87-.11s-2.51,0-3.77,0a26.29,26.29,0,0,0-3.76.17,3.29,3.29,0,0,0-2.42,2.05,14.43,14.43,0,0,0-1.32,3.49,1.52,1.52,0,0,0,1.44,1.9l14.06.27C240,237.64,240,234.64,238.06,234.6Z" transform="translate(-6.54 -12.88)"/><path class="cls-1" d="M154.56,230.13l-14.21-.27a11.58,11.58,0,0,1,1.1-3.88,1,1,0,0,1,.62-.6,2.56,2.56,0,0,1,.79-.12c4.06-.17,8.07-.15,12,.06.58,0,1.24.09,1.45.37a.56.56,0,0,1,0,.52,19.43,19.43,0,0,1-1.49,3.94Z" transform="translate(-6.54 -12.88)"/><path d="M154.56,228.63l-14.21-.27,1.5,1.5a10,10,0,0,1,.49-2.1,6.61,6.61,0,0,1,.28-.74c.06-.14.12-.28.19-.42a.35.35,0,0,1-.22.18c1.48.05,3-.11,4.47-.13s3,0,4.45,0c.71,0,1.42,0,2.13.07l1.21.06h.35c.35.11.31,0-.12-.22l-.21-.76a8.36,8.36,0,0,1-.5,1.65c-.24.65-.52,1.27-.82,1.89l1.29-.74-.28,0c-1.93-.11-1.92,2.89,0,3l.28,0a1.48,1.48,0,0,0,1.3-.74,23.3,23.3,0,0,0,1.44-3.6c.36-1.18.46-2.45-.8-3.11a8.32,8.32,0,0,0-3.44-.45c-1.27-.06-2.54-.09-3.82-.1s-2.57,0-3.86,0a20.3,20.3,0,0,0-3.74.19c-1.21.27-1.73,1.21-2.16,2.28a13.24,13.24,0,0,0-.91,3.72,1.52,1.52,0,0,0,1.5,1.5l14.21.27C156.49,231.67,156.49,228.67,154.56,228.63Z" transform="translate(-6.54 -12.88)"/><path class="cls-1" d="M272,230.13l-14.16-.27a13.59,13.59,0,0,1,1.75-3.88,1.31,1.31,0,0,1,.72-.6,2.84,2.84,0,0,1,.81-.12c4.09-.17,8.1-.15,12,.06.58,0,1.23.09,1.39.37a.58.58,0,0,1-.06.52,23.61,23.61,0,0,1-2.15,3.94Z" transform="translate(-6.54 -12.88)"/><path d="M272,228.63l-14.16-.27,1.44,1.89a11.91,11.91,0,0,1,.74-2,6,6,0,0,1,.84-1.49s.59,0,.59,0l1.33-.05c.76,0,1.53,0,2.3,0,1.51,0,3,0,4.53,0,.74,0,1.49,0,2.23.08l1.26.06h.34c.3.09.29.06,0-.08l-.44-1.06c.06.43-.59,1.32-.81,1.73-.37.67-.77,1.33-1.2,2l1.3-.74-.28,0c-1.93-.11-1.92,2.89,0,3,1.38.08,2-1.26,2.55-2.3s1.54-2.43,1.44-3.64c-.12-1.52-1.64-1.79-2.89-1.87s-2.65-.12-4-.15a76.22,76.22,0,0,0-8.28.11,3.44,3.44,0,0,0-2.89,2,15.34,15.34,0,0,0-1.57,3.68,1.52,1.52,0,0,0,1.45,1.9l14.16.27C274,231.67,274,228.67,272,228.63Z" transform="translate(-6.54 -12.88)"/><path class="cls-1" d="M261.28,223,247,222.76a14.14,14.14,0,0,1,1.71-4,1.31,1.31,0,0,1,.73-.61,2.74,2.74,0,0,1,.81-.12c4.13-.18,8.18-.16,12.11.05.58,0,1.23.1,1.41.39s0,.34-.06.53a24.32,24.32,0,0,1-2.11,4Z" transform="translate(-6.54 -12.88)"/><path d="M261.28,221.54,247,221.26l1.45,1.9a11.19,11.19,0,0,1,.78-2.19,6.11,6.11,0,0,1,.75-1.39,3.45,3.45,0,0,1,.92,0l1,0,2.42,0q2.31,0,4.62,0l2.19.07,1.25.06.34,0c.3.09.3.07,0-.07l-.38-.66,0,.25v-.8a17.82,17.82,0,0,1-2.06,3.94l1.3-.74-.28,0c-1.93-.11-1.93,2.89,0,3l.28,0a1.48,1.48,0,0,0,1.29-.75,26.45,26.45,0,0,0,1.78-3.21c.52-1.17,1.11-2.64-.25-3.5a6.87,6.87,0,0,0-3.31-.54c-1.31-.05-2.62-.09-3.93-.1s-2.57,0-3.85,0a27.22,27.22,0,0,0-3.83.18,3.43,3.43,0,0,0-2.49,2.1,15.24,15.24,0,0,0-1.45,3.61,1.51,1.51,0,0,0,1.44,1.9l14.32.28C263.21,224.58,263.21,221.58,261.28,221.54Z" transform="translate(-6.54 -12.88)"/><path class="cls-1" d="M278.46,224.06l-14.28-.28a14.1,14.1,0,0,1,1.8-3.94,1.35,1.35,0,0,1,.74-.62,2.78,2.78,0,0,1,.81-.11c4.13-.18,8.18-.16,12.09,0,.58,0,1.23.1,1.4.38a.6.6,0,0,1-.07.53,24.62,24.62,0,0,1-2.21,4Z" transform="translate(-6.54 -12.88)"/><path d="M278.46,222.56l-14.28-.28,1.44,1.9a12.56,12.56,0,0,1,.77-2,6.09,6.09,0,0,1,.87-1.53,4.37,4.37,0,0,1,.61,0l1.33,0c.78,0,1.55,0,2.32-.05,1.53,0,3.05,0,4.58,0l2.25.08,1.27.06.34,0c.3.09.3.06,0-.08l-.44-1.06c.05.45-.62,1.36-.84,1.77-.38.69-.8,1.36-1.23,2l1.29-.74-.28,0c-1.93-.11-1.92,2.89,0,3,1.39.08,2-1.28,2.58-2.33s1.58-2.46,1.48-3.69c-.13-1.52-1.65-1.8-2.9-1.88s-2.67-.12-4-.15a77.51,77.51,0,0,0-8.35.11,3.49,3.49,0,0,0-2.92,2,16.07,16.07,0,0,0-1.61,3.74,1.52,1.52,0,0,0,1.45,1.9l14.28.28C280.39,225.6,280.39,222.6,278.46,222.56Z" transform="translate(-6.54 -12.88)"/><path class="cls-1" d="M329.74,229.13l-14.16-.28a15,15,0,0,1,2.08-3.88,1.44,1.44,0,0,1,.77-.61,3.39,3.39,0,0,1,.82-.12c4.11-.17,8.13-.15,12,.06.57,0,1.21.09,1.36.37a.63.63,0,0,1-.11.53,27.54,27.54,0,0,1-2.48,4Z" transform="translate(-6.54 -12.88)"/><path d="M329.74,227.63l-14.16-.28,1.45,1.9a11,11,0,0,1,.92-2,5.55,5.55,0,0,1,1-1.52,5.94,5.94,0,0,1,1.64-.07l2.48-.05c1.57,0,3.13,0,4.7,0,.74,0,1.49,0,2.23.08.42,0,.84,0,1.26.06l.33,0q.45.12,0-.09l-.44-1.06v.25l.2-.75a20.84,20.84,0,0,1-2.6,4.22l1.3-.74-.28,0c-1.93-.11-1.92,2.89,0,3,1.37.08,2-1.3,2.69-2.31s1.75-2.41,1.68-3.65c-.09-1.51-1.65-1.79-2.86-1.87-1.38-.09-2.76-.13-4.13-.15a63.94,63.94,0,0,0-8.42.14,3.9,3.9,0,0,0-2.87,2.19,17.18,17.18,0,0,0-1.7,3.47,1.51,1.51,0,0,0,1.45,1.9l14.16.28C331.67,230.67,331.67,227.67,329.74,227.63Z" transform="translate(-6.54 -12.88)"/><g id="Trackpad"><path d="M142.83,255.65a71.49,71.49,0,0,1-3.71,14.16,1.51,1.51,0,0,0,1.44,1.9l76.79.12,21.94,0a1.52,1.52,0,0,0,1.45-1.9,106.52,106.52,0,0,1-1.82-13.91,1.54,1.54,0,0,0-1.5-1.5q-36.79.25-73.59-.49-10.44-.21-20.88-.49c-1.93-.06-1.93,2.94,0,3q36.78,1,73.58,1,10.46,0,20.89-.06l-1.5-1.5a113.88,113.88,0,0,0,1.93,14.71l1.44-1.9-76.79-.12-21.94,0,1.45,1.9a71.49,71.49,0,0,0,3.71-14.16c.3-1.89-2.59-2.7-2.89-.8Z" transform="translate(-6.54 -12.88)"/></g><g id="Magsafe"><path class="cls-5" d="M30.24,211.54a24.39,24.39,0,0,1-11.77-3.38,5.93,5.93,0,0,1-2-1.53,18.5,18.5,0,0,1-1-2.43,46.36,46.36,0,0,0-2.5-4.25c-.38-.64-.76-1.29-1.09-2a7,7,0,0,1-.31-.75c-.06-.19-.23-1.16-.16-.54-.07-.67-.09-1.35-.12-2-.11-2.47-.17-4.95-.2-7.42,0-2.21,0-4.41.16-6.61,0-.1-.16.48,0,.05,0-.08,0-.17.06-.26s.41-1,.19-.48c.42-1,.85-2,1.29-2.93a65.42,65.42,0,0,1,3.4-6.87l.34-.53c.18-.29.34-.28,0-.05.39-.28-.27.15-.12.06s-.27.09-.26.09a1.69,1.69,0,0,0,.35-.1c.17,0,.63-.12.19-.06l.74-.07c.62,0,1.24-.05,1.87,0,2.84,0,5.67.3,8.5.5.41,0,.83,0,1.24.07,0,0,0,0,.17.08s.41.33.63.55A8.55,8.55,0,0,1,32,174.37c.72,2.8,5.07,1.61,4.34-1.2s-3.16-6.89-6.35-7.56a28.71,28.71,0,0,0-3.35-.25c-1.45-.11-2.9-.23-4.35-.31-2.44-.13-5.77-.58-8,.64-2,1.06-3,4.09-3.93,6C9.15,174,8,176.44,7.06,178.9c-.66,1.75-.5,3.94-.51,5.78,0,2.86,0,5.73.14,8.59.09,2.48.16,4.7,1.27,7,.91,1.88,2.17,3.56,3.16,5.39.49.89.7,1.74,1.14,2.69a7.31,7.31,0,0,0,2.67,2.9A28.58,28.58,0,0,0,30.24,216c2.89.08,2.89-4.42,0-4.5Z" transform="translate(-6.54 -12.88)"/><path class="cls-3" d="M40.48,210.93l-7.68-.79a.81.81,0,0,0-.44.05.7.7,0,0,0-.29.38c-1.2,2.62-2.3,5.29-3.28,8,2.52.52,5,1,7.58,1.44Z" transform="translate(-6.54 -12.88)"/><path d="M40.48,209.43,35.73,209l-2.37-.25a2.3,2.3,0,0,0-2.42.83,11.76,11.76,0,0,0-.89,1.9c-.34.76-.66,1.53-1,2.3q-.91,2.21-1.72,4.45a1.49,1.49,0,0,0,1,1.84c2.52.52,5,1,7.58,1.44a1.53,1.53,0,0,0,1.69-.68l4.11-9.09a1.53,1.53,0,0,0-.53-2.05,1.51,1.51,0,0,0-2.06.54l-4.11,9.08,1.69-.69q-3.8-.66-7.57-1.44l1,1.84q.75-2.08,1.59-4.14c.25-.6.5-1.19.76-1.78l.45-1c.08-.17.15-.34.23-.5l.09-.21c.08-.17.1-.19.06-.07l-.66.38c-.14.05-.11,0,0,0s.37,0,.56.06l1,.11,2,.21,4.07.41a1.5,1.5,0,0,0,1.5-1.5A1.54,1.54,0,0,0,40.48,209.43Z" transform="translate(-6.54 -12.88)"/><path class="cls-6" d="M34.24,216a1.13,1.13,0,0,0,0-2.25,1.13,1.13,0,0,0,0,2.25Z" transform="translate(-6.54 -12.88)"/></g></svg>