<svg id="Calque_1" data-name="Calque 1" xmlns="http://www.w3.org/2000/svg" viewBox="0 0 641.98 568.01"><defs><style>.cls-1{fill:#969696;}.cls-2{fill:#b2b2b2;}.cls-3{fill:#303030;}</style></defs><path class="cls-1" d="M319.17,501.11q-29.94,2.72-60.05,2.46c-8.81,25.52-17.63,51.05-27.34,76.25l105.6,1.46,21.37.3,66.31.92q-6.09-40.72-13.18-81.31c-30.83-2.28-62.13-1.75-93-.44" transform="translate(-4.34 -15.99)"/><path d="M319.17,499.61q-29.94,2.7-60.05,2.46a1.52,1.52,0,0,0-1.44,1.1c-6.88,19.92-13.76,39.84-21.07,59.61q-3.08,8.34-6.27,16.64a1.51,1.51,0,0,0,1.44,1.9l75.46,1,75.44,1,42.38.59a1.53,1.53,0,0,0,1.45-1.9q-4.77-31.77-10.11-63.46-1.51-8.92-3.07-17.85a1.54,1.54,0,0,0-1.45-1.1,713.27,713.27,0,0,0-72.38-1.17q-10.32.28-20.64.73c-1.93.08-1.94,3.08,0,3,24.12-1,48.28-1.57,72.41-.69q10.32.39,20.61,1.13l-1.44-1.1Q416,533.24,420.89,565q1.38,9,2.73,17.91l1.44-1.9-75.51-1-75.43-1.05-42.34-.58,1.45,1.9c7.57-19.67,14.61-39.54,21.52-59.45q2.92-8.4,5.82-16.81l-1.45,1.11q30.06.24,60.05-2.46c1.91-.17,1.93-3.17,0-3Z" transform="translate(-4.34 -15.99)"/><path class="cls-2" d="M363.29,363.51q-39.29-1.22-78.56,1.19l.65,2.12a1275.7,1275.7,0,0,1,2,149.43c-.17,3.74-.33,7.66,1.28,11,2.69,5.7,9.43,8.14,15.63,9.27,9,1.64,18.26,1.65,27.41,1.18,10.6-.53,22.68-2.59,28.24-11.63,2.83-4.61,3.37-10.22,3.7-15.62C366.6,461.55,357.9,412.25,363.29,363.51Zm-34.12,89.08c-.64,2.94-1.42,5.94-3.21,8.35s-4.84,4.11-7.78,3.49l.11-.09c-5.4-6.6-8.11-15.1-8.74-23.6s.72-17,2.74-25.3c1.25-5.12,2.87-10.38,6.48-14.23,2.39-2.55,6.5-4.31,9.31-2.24,1.88,1.39,2.42,3.93,2.76,6.24A132.89,132.89,0,0,1,329.17,452.59Z" transform="translate(-4.34 -15.99)"/><path d="M363.29,362q-30.59-.93-61.17.31-8.7.35-17.39.88a1.52,1.52,0,0,0-1.44,1.9c.18.62.42,1.24.56,1.87a29.36,29.36,0,0,1,.34,4.31q.38,5.45.7,10.91.64,10.65,1.1,21.33.93,21.59,1.13,43.2t-.34,43.47q-.27,10.8-.73,21.59c-.25,6-1.34,13,2.46,18.23,3.12,4.27,8.23,6.41,13.24,7.57a90.51,90.51,0,0,0,20,1.94,123.49,123.49,0,0,0,18.13-1c5-.74,10.11-2.08,14.44-4.8a21.34,21.34,0,0,0,9.31-12.59c1.73-6.29,1.66-13.14,1.87-19.61.48-14.26.1-28.53-.49-42.78-1.19-28.29-3.25-56.67-1.19-85,.24-3.41.55-6.82.93-10.21.21-1.92-2.79-1.91-3,0-3,27.57-1.59,55.33-.29,82.95.65,13.85,1.26,27.71,1.26,41.58,0,6.84-.15,13.68-.53,20.51-.33,6-.6,12.55-4.18,17.68-5.79,8.3-17.58,9.6-26.85,10A136.9,136.9,0,0,1,311,536c-5.56-.55-11.62-1.39-16.44-4.44a11.81,11.81,0,0,1-4.77-5.45c-1.13-2.84-1-6-.92-9,.29-7,.59-14,.79-21q.63-21,.56-42-.15-42.23-3.08-84.38a20.84,20.84,0,0,0-.34-3.62c-.16-.63-.38-1.25-.57-1.86l-1.45,1.89q30.54-1.86,61.15-1.55,8.7.09,17.41.36C365.22,365.06,365.22,362.06,363.29,362Z" transform="translate(-4.34 -15.99)"/><path d="M327.73,452.19c-.6,2.71-1.26,5.55-2.94,7.81-1.4,1.89-3.78,3.42-6.21,3l.66,2.5.11-.09a1.54,1.54,0,0,0,0-2.12c-10.87-13.46-9.42-32.09-5.52-47.84a35.85,35.85,0,0,1,4-10.6c1.61-2.56,4.6-5.83,8-5.23,3.63.64,3.62,6.43,3.95,9.18a134.18,134.18,0,0,1,.89,13.45,131.62,131.62,0,0,1-3,29.95c-.41,1.89,2.48,2.69,2.89.8a135.25,135.25,0,0,0,3.09-29.55,132.26,132.26,0,0,0-.93-14.89c-.45-3.77-.61-8.81-4.23-11.07-3.23-2-7.29-.42-9.94,1.82-3.12,2.63-5,6.65-6.27,10.44a90.17,90.17,0,0,0-3.23,13.57,76.29,76.29,0,0,0-1.2,14.55c.23,9.9,3,19.76,9.32,27.54v-2.12l-.11.09a1.51,1.51,0,0,0,.66,2.51,9.47,9.47,0,0,0,8.64-3.15c2.44-2.69,3.44-6.27,4.2-9.74C331,451.11,328.14,450.31,327.73,452.19Z" transform="translate(-4.34 -15.99)"/><path class="cls-3" d="M396.21,350c.5,7.72,1,15.48.44,23.21-.07,1-.16,1.92-.26,2.88,0,.3-.05.66-.11,1,.34-1.52,0,0,0,.31-.29,1.84-.64,3.68-1.1,5.48-.35,1.38-.75,2.74-1.21,4.09-.25.73-.51,1.46-.8,2.18-.14.36-.75,1.49,0,0-.17.34-.31.71-.47,1.05a42,42,0,0,1-2.16,4.09q-.5.83-1,1.62l-.65.94-.45.62c-.39.51-.3.4.24-.31a14.36,14.36,0,0,0-1.47,1.74c-.47.52-.95,1-1.45,1.5s-1,1-1.53,1.41a7.75,7.75,0,0,0-.88.73q1.06-.82.3-.24l-.62.44a33.18,33.18,0,0,1-4,2.38c-.39.2-.78.39-1.18.57s-1.6.8-.16.09a24.58,24.58,0,0,1-2.85,1.09c-3,1.06-6.16,1.93-9.27,2.73-2,.51-4.05.87-6.1,1.19-1,.16-2.08.31-3.13.45-.51.08-2.72.37-.47.07l-2.11.28a150.85,150.85,0,0,0-15.52,2.59c-8.56,2.08-18.18,6.57-20,16.16-.91,4.84-1.41,9.77-2,14.65l-.51,4c-.07.53-.36,2.63,0,.27l-.24,1.73a47.06,47.06,0,0,1-.8,4.7c-.74,3,1,6.64,4.19,7.38s6.59-.93,7.38-4.19a107.21,107.21,0,0,0,1.72-11.57c.3-2.31.59-4.62.89-6.93.07-.56.14-1.11.22-1.67.14-1.11-.22,1.62-.07.52,0-.17,0-.34.07-.52.14-1,.28-2.06.44-3.09a25.17,25.17,0,0,1,.71-3.66c0-.1.07-.2.1-.3.19-.64.63-.7-.26.59.24-.36.4-.81.63-1.18.12-.19.26-.37.37-.56.51-.83-1.06,1.22-.39.51.31-.33.6-.68.93-1s.72-.59,1.05-.91c-1.48,1.46-.41.33.15,0a21.49,21.49,0,0,1,2.67-1.44l.72-.33c-1.81.84-.87.37-.44.2l1.55-.56c1.09-.36,2.19-.68,3.3-1,2.34-.6,4.72-1.07,7.11-1.47,1.13-.18,2.25-.36,3.38-.52l1.85-.26.91-.13c1.62-.22-1.13.15-.07,0a143.64,143.64,0,0,0,14.3-2.25c6.73-1.6,13.77-3.67,19.68-7.34a40.62,40.62,0,0,0,14-15c8.28-15,7.66-32.39,6.58-49-.21-3.12-2.62-6.15-6-6-3.08.14-6.22,2.65-6,6Z" transform="translate(-4.34 -15.99)"/><path d="M644.82,24.62Q473,15.6,300.72,18c-23.36.32-46.71.8-70.07,1.28L24.5,23.5c-.93,5-1.07,6-2,11l-1,14C2.06,176.26,6.25,294.75,6.18,424c29.33.47,58.18-10.07,87.36-14.9,20.72-3.43,41.61-4,62.45-4.52L219.87,403c135.93-3.55,271.93-7.1,407.76-18.17ZM417.17,345.78c-52.58,5.15-105.26,14.07-157.76,10.9-30-1.81-60.84-2.48-90.91-2.18-49.59.49-88,4-138,1,9-105.54,8.77-210,17.78-315.56l-4.06-1.17,343.62-2.89,80.22-.67c50.76-.43,101.57-.85,152.09,3.49a2218.05,2218.05,0,0,0-8.8,299.51C546.62,338.83,481.82,339.45,417.17,345.78Z" transform="translate(-4.34 -15.99)"/><path d="M644.82,23.12Q521.16,16.64,397.29,16c-80.6-.38-161.17,1.61-241.75,3.26L24.5,22a1.52,1.52,0,0,0-1.45,1.1A191.58,191.58,0,0,0,20.3,44.29c-.77,10.73-2.83,21.4-4.19,32.07-3.57,27.93-6.13,56-7.91,84.08-3.53,55.63-4,111.4-3.84,167.12.08,32.16.33,64.32.32,96.48a1.52,1.52,0,0,0,1.5,1.5c19.37.21,38.33-4.1,57.09-8.47,19.52-4.56,38.91-8.28,59-9.61,20.19-1.35,40.47-1.52,60.7-2L244,403.82c81.76-2.15,163.53-4.46,245.21-8.57,46.18-2.32,92.34-5.22,138.42-9a1.54,1.54,0,0,0,1.5-1.5l6.72-140.63,6.68-140,3.79-79.54c.09-1.93-2.91-1.92-3,0l-6.71,140.63-6.68,140-3.8,79.54,1.5-1.5c-82,6.67-164.19,10.63-246.4,13.49q-61.62,2.14-123.25,3.68c-40.24,1.07-80.52,1.68-120.75,3.24A353.84,353.84,0,0,0,71.9,412c-21.65,4.93-43.34,10.79-65.72,10.55l1.5,1.5c0-56.36-.81-112.73,0-169.09.83-55.54,3.42-111.1,9.89-166.29q1.45-12.45,3.18-24.87c.76-5.48,1.88-11,2.31-16.51.27-3.57.51-7.14.76-10.71A116.21,116.21,0,0,1,26,23.9L24.5,25Q142.22,22.59,260,20.17c82.19-1.59,164.39-1.58,246.57.54q69.18,1.78,138.3,5.41C646.75,26.22,646.75,23.22,644.82,23.12Z" transform="translate(-4.34 -15.99)"/><path d="M417.17,344.28c-51.66,5.08-103.37,13.82-155.44,11-25.72-1.38-51.42-2.33-77.18-2.38-24.34,0-48.66.79-73,1.54-27,.83-54,1.13-81-.47l1.5,1.5c3.49-41.05,5.62-82.2,7.43-123.36,1.79-40.86,3.28-81.73,5.54-122.56,1.29-23.24,2.84-46.46,4.81-69.64a1.52,1.52,0,0,0-1.1-1.45l-4.06-1.17-.4,3,225.94-1.9c74.56-.62,149.12-1.43,223.67-1.85,42.14-.24,84.32.1,126.32,3.68l-1.5-1.5Q613,96.81,610.41,155.16q-2.6,58.58-2.1,117.23.29,32.92,1.54,65.82l1.5-1.5c-50.52.48-101.08,1-151.52,4.16q-21.36,1.36-42.66,3.41c-1.91.19-1.93,3.19,0,3,50.34-4.9,100.92-6.4,151.48-7.1,14.23-.2,28.47-.33,42.7-.47a1.52,1.52,0,0,0,1.5-1.5q-2.22-58.24-1.39-116.55.84-58.66,4.78-117.21,2.22-32.91,5.41-65.75c.09-.85-.75-1.44-1.5-1.5-37.33-3.18-74.81-3.81-112.26-3.74-37.3.07-74.61.54-111.91.86L171.31,36.2,44.22,37.27a1.51,1.51,0,0,0-.4,2.95l4.06,1.16-1.1-1.44C43.29,81,41.15,122.14,39.35,163.3c-1.79,40.85-3.28,81.72-5.54,122.56C32.52,309.09,31,332.31,29,355.5a1.52,1.52,0,0,0,1.5,1.5c48.3,2.85,96.55-.81,144.86-1.05q38.63-.19,77.2,1.83a552.62,552.62,0,0,0,77-1.15c29.27-2.48,58.39-6.47,87.62-9.35C419.07,347.09,419.09,344.09,417.17,344.28Z" transform="translate(-4.34 -15.99)"/></svg>