<svg id="Calque_1" data-name="Calque 1" xmlns="http://www.w3.org/2000/svg" width="97.04" height="84.91" viewBox="0 0 97.04 84.91" preserveAspectRatio="xMinYMin meet"><defs><style>.cls-1{fill:#606060;}.cls-2{fill:#303030;}.cls-3{fill:#fff;}</style></defs><path class="cls-1" d="M5.23,34.9C11.52,49.37,23.05,61.15,35,73.24c4.66,4.72,9.47,9.58,15.11,13.1s12.4,5.63,18.7,4.2a32.23,32.23,0,0,0,9-4c7.79-4.6,15.33-10.5,18.39-19.53A10.59,10.59,0,0,0,96.46,60a12.22,12.22,0,0,0-4.31-5.07A69,69,0,0,0,68.86,42.87c-10.94-3.13-22.31-3.11-33.15-5.64-3.4-.79-6.74-1.83-10.14-2.53-2.74-.56-5.53-.9-8.31-1.24L6.58,32.16a1.92,1.92,0,0,0-1.48.24c-.42.34-.42,1.2.08,1.22Z" transform="translate(-1.78 -7.58)"/><path d="M3.93,35.66c6.36,14.49,17.61,26.07,28.56,37.19C38.17,78.62,43.89,84.69,51,88.64a30.55,30.55,0,0,0,11.1,3.71,21.81,21.81,0,0,0,11.4-1.86,57.59,57.59,0,0,0,9.76-5.67,46.08,46.08,0,0,0,7.79-6.63,30.57,30.57,0,0,0,5.72-8.71c1.47-3.47,2.41-7.43.62-11-1.69-3.35-5.38-5.64-8.38-7.69a70,70,0,0,0-10.6-6c-7.61-3.45-15.61-5.11-23.85-6.21-4.32-.57-8.65-1-13-1.75S33.19,35,29,34a102.4,102.4,0,0,0-12.69-2.11L9.73,31C8,30.83,5.36,30,4,31.44a2.19,2.19,0,0,0,.83,3.63l-1.1-1.45,0,1.28c.07,1.92,3.07,1.93,3,0l-.05-1.28a1.57,1.57,0,0,0-1.1-1.44l-.21-.08.89.69-.06.83.86.1c.49.05,1,.12,1.46.18l2.91.35,6.29.77a86,86,0,0,1,11.6,2.12c3.83,1,7.63,2,11.53,2.63s7.75,1.09,11.63,1.59c7.66,1,15.25,2.26,22.43,5.19a68.06,68.06,0,0,1,9.8,5,42.93,42.93,0,0,1,8.74,6.51c2.67,2.83,2.16,6.34.84,9.69a27,27,0,0,1-5.06,8A53.19,53.19,0,0,1,73.85,87a20,20,0,0,1-10.46,2.42,25.4,25.4,0,0,1-10.25-3.1C46.53,82.87,41.23,77.44,36,72.18c-11.27-11.42-23-23.13-29.52-38C5.75,32.38,3.16,33.91,3.93,35.66Z" transform="translate(-1.78 -7.58)"/><path class="cls-2" d="M54.4,80.31C39.31,68,25,56.31,12.94,43.34c-3.53-3.82-6.89-7.81-8.78-12.62a10.26,10.26,0,0,1-.81-5.56c.68-3.8,4.25-6.46,7.5-8.46,7.35-4.51,15.46-8.39,23.52-7.55a36.4,36.4,0,0,1,9.43,2.64,111.47,111.47,0,0,1,18.8,9.33A192.9,192.9,0,0,1,80.4,34.37a73.39,73.39,0,0,1,7.92,7,40.74,40.74,0,0,1,6.14,8.73c2.3,4.38,3.87,9.87,2.08,14.21a15.69,15.69,0,0,1-2.15,3.48C89.58,74.17,83.77,80.06,76.5,83.05s-16.21,2.62-22.79-2.78Z" transform="translate(-1.78 -7.58)"/><path d="M55.46,79.25C42.31,68.53,29.05,57.83,17.21,45.65a85.13,85.13,0,0,1-8-9C7.11,33.75,4.49,29.8,4.74,26c.24-3.45,3.43-5.85,6.1-7.56a62,62,0,0,1,11.06-5.8A27.11,27.11,0,0,1,33.72,10.6c4.18.3,8.2,2,12,3.58A107.53,107.53,0,0,1,68.17,26.73c3.56,2.59,7,5.34,10.41,8.09a74,74,0,0,1,9.24,8.27A36.52,36.52,0,0,1,94.16,53c1.41,3.33,2.47,7.52.92,11a21.69,21.69,0,0,1-3.15,4.58c-1.16,1.45-2.38,2.87-3.66,4.22a40.73,40.73,0,0,1-8.72,7.09C73.48,83.42,66,84.7,59.33,81.93a19,19,0,0,1-4.56-2.72l-1.06,2.56.69,0c1.93.11,1.92-2.89,0-3l-.69,0a1.52,1.52,0,0,0-1.06,2.56,23.74,23.74,0,0,0,21.57,4.1c7.78-2.22,14.13-7.83,19.18-14,2.57-3.11,5.07-6.2,5.38-10.38s-1.22-8.32-3.13-11.92A41.48,41.48,0,0,0,88.07,39a132.43,132.43,0,0,0-10.75-9c-7.24-5.75-14.69-11.11-23-15.21A113.27,113.27,0,0,0,41.56,9.36a27.31,27.31,0,0,0-13-1.56A40.19,40.19,0,0,0,16.15,12,46.7,46.7,0,0,0,5.61,18.68c-3,2.73-4.5,6.34-3.55,10.37s3.43,7.74,6,11c5.48,6.87,12.08,13,18.59,18.86,6.84,6.19,13.94,12.08,21.08,17.92l5.62,4.59C54.82,82.58,57,80.47,55.46,79.25Z" transform="translate(-1.78 -7.58)"/><path d="M15.39,14.59A75.49,75.49,0,0,1,48.9,31.26c1.46,1.25,3.59-.87,2.12-2.12A78.53,78.53,0,0,0,16.19,11.7c-1.89-.4-2.69,2.5-.8,2.89Z" transform="translate(-1.78 -7.58)"/><path class="cls-3" d="M24.05,17.57,21.78,17a5.34,5.34,0,0,1-1.67-.63,1.77,1.77,0,0,1-.82-1.51c.07-.93,1-1.6,1.84-2a7.83,7.83,0,0,1,4.1-.53,6.2,6.2,0,0,1,3.86,2.07,2.66,2.66,0,0,1,.69,1.44.49.49,0,0,1,0,.24.36.36,0,0,1-.18.14,12,12,0,0,1-5.92,1.41Z" transform="translate(-1.78 -7.58)"/><path d="M24.45,16.12l-2.27-.57a5.38,5.38,0,0,1-1-.3,3,3,0,0,0-.27-.18c.23.17-.22-.13,0,0-.08-.15-.1-.18-.07-.09l0-.09c0,.33,0-.31,0,.06,0-.15.05-.18,0-.08s0,.07.06-.07c-.19.12.12-.11.16-.14.25-.24-.13,0,.18-.13l.4-.23a5.31,5.31,0,0,1,.83-.28,5.81,5.81,0,0,1,3.84.16c-.2-.08.26.12.25.12a4.63,4.63,0,0,1,.43.24,2.7,2.7,0,0,1,.55.41c.13.11.24.22.36.34l.16.19c-.05-.07-.05-.06,0,0s.22.35.2.32,0,0,0,.12a1,1,0,0,1,0-.24l.38-.66c.18-.12.16-.12,0,0l-.34.16-.51.22a11.29,11.29,0,0,1-1.43.44,9.83,9.83,0,0,1-2.72.29l.4,2.94.41-.09a1.5,1.5,0,1,0-.8-2.9l-.41.1c-1.67.4-1.26,2.91.4,3a13.82,13.82,0,0,0,6.43-1.48,1.94,1.94,0,0,0,1.18-1.49,3.27,3.27,0,0,0-.45-1.92,6.46,6.46,0,0,0-2.19-2.22A8.63,8.63,0,0,0,22.29,11c-2,.38-4.54,1.65-4.5,4,.06,3,3.63,3.45,5.86,4A1.54,1.54,0,0,0,25.5,18,1.53,1.53,0,0,0,24.45,16.12Z" transform="translate(-1.78 -7.58)"/></svg>