<svg id="Draw" xmlns="http://www.w3.org/2000/svg" viewBox="0 0 546.55 562.9"><defs><style>.cls-1{fill:#fefbe3;}.cls-2{fill:#1d1d1b;}.cls-3{fill:#c0b4da;}.cls-4{fill:#f6a13b;}</style></defs><path class="cls-1" d="M162.4,273C113.47,417.06,64,591.1,13.69,805.22l61.52,3.38,234.48,12.88c79.46,4.36,160.58,8.77,240.78-1.38,4.5-219.21,5.1-397,2.81-544.06q-201.85-.51-394-6.22Z" transform="translate(-11.2 -265.89)"/><path class="cls-2" d="M160,272.38q-14.86,43.78-28.73,87.9-15,47.46-28.89,95.22-15,51.36-29,103-15,55.23-29.06,110.72Q29.1,729,14.92,789.08q-1.83,7.74-3.64,15.48a2.53,2.53,0,0,0,2.41,3.16l209.52,11.51Q276.08,822.13,329,825c34.49,1.85,69,3.47,103.55,3.72,39.4.29,78.85-1.23,118-6.15a2.57,2.57,0,0,0,2.5-2.5q1.28-61.85,2.2-123.68.86-57.34,1.35-114.7.45-53.1.55-106.19.07-49.08-.21-98.15-.27-45.28-.92-90.58-.08-5.39-.16-10.76a2.53,2.53,0,0,0-2.5-2.5q-77.94-.21-155.87-1.19-76.73-1-153.44-2.79-42.36-1-84.71-2.24a2.52,2.52,0,0,0-1.76,4.26l3.13,3.23c2.24,2.31,5.78-1.23,3.53-3.54L161,268.05l-1.77,4.27q75.57,2.24,151.16,3.65,77.37,1.45,154.76,2.09,44.06.36,88.1.48l-2.5-2.5q.71,44.82,1,89.67.33,48.59.29,97.18,0,52.58-.45,105.16-.43,56.81-1.25,113.61-.86,61.27-2.09,122.54-.15,7.95-.32,15.9l2.5-2.5c-69.57,8.74-139.85,6.66-209.7,3S201,813,131.09,809.17l-117.4-6.45,2.41,3.17q14.22-60.6,29.36-121Q59.61,628.7,74.67,572.69q14.06-52.11,29.05-104,13.92-48,28.78-95.74,13.89-44.53,28.75-88.78,1.77-5.27,3.56-10.51C165.84,270.65,161,269.34,160,272.38Z" transform="translate(-11.2 -265.89)"/><g id="Vertical"><path class="cls-3" d="M173.35,324l-19.52,80.32L133,490.09l-22.3,91.78L86.85,680,61.39,784.83,58,798.59c-.38,1.56,2,2.23,2.41.66L86.24,693.14l24-98.94,22.48-92.55,21-86.45,19.6-80.69,2.39-9.82c.38-1.56-2-2.23-2.41-.66Z" transform="translate(-11.2 -265.89)"/><path class="cls-3" d="M210.59,325.49l-17.81,79.93L173.7,491.05l-20.42,91.67-21.83,98L108,785.84l-3,13.33c-.35,1.57,2.06,2.24,2.41.67L131,694.32l22-98.84L173.59,503l19.25-86.39,18-81,2.12-9.52c.35-1.57-2.06-2.24-2.41-.67Z" transform="translate(-11.2 -265.89)"/><path class="cls-3" d="M246.55,325.9q-8.67,40.37-17.17,80.76-9.09,43.29-18,86.61-9.54,46.38-18.9,92.79-10,49.62-19.84,99.28-10.5,53-20.83,106.1L149.16,805c-.3,1.57,2.1,2.24,2.41.66q10.4-53.51,21-107,9.9-50.07,20-100.1,9.42-46.82,19-93.57,9-43.69,18.12-87.36,8.53-40.76,17.27-81.47l2.07-9.66c.34-1.57-2.07-2.24-2.41-.66Z" transform="translate(-11.2 -265.89)"/><path class="cls-3" d="M283.82,325.22l-13.62,80L255.61,491,240,582.74l-16.63,97.72L205.51,785.24l-2.3,13.47c-.26,1.57,2.14,2.25,2.41.66l18-105.63,16.84-98.93,15.75-92.53,14.66-86.09L284.6,335.5l1.64-9.62c.26-1.57-2.15-2.25-2.42-.66Z" transform="translate(-11.2 -265.89)"/><path class="cls-3" d="M323.11,327.79l-12.77,80.93L296.7,495.11l-14.6,92.51L266.41,687,249.72,792.74l-2.15,13.64c-.25,1.58,2.16,2.26,2.41.67l16.89-107,15.75-99.77L297.35,507l13.81-87.5L324,338.18l1.54-9.72c.25-1.58-2.16-2.25-2.41-.67Z" transform="translate(-11.2 -265.89)"/><path class="cls-3" d="M355.39,330.29q-5.37,39.78-10.75,79.54-5.77,42.59-11.59,85.18-6.24,45.75-12.52,91.52-6.69,48.69-13.4,97.38-7.17,52-14.37,103.93-.93,6.74-1.87,13.47c-.21,1.57,2.19,2.25,2.41.66q7.27-52.38,14.5-104.77,6.76-49.1,13.51-98.18,6.35-46.14,12.64-92.29,5.87-42.94,11.69-85.9,5.44-40.11,10.86-80.23c.43-3.21.86-6.43,1.3-9.64.21-1.58-2.2-2.26-2.41-.67Z" transform="translate(-11.2 -265.89)"/><path class="cls-3" d="M393.33,330l-7.86,80.95-8.42,86.82-9,93-9.61,99.07L348.11,796.12l-1.34,13.79c-.15,1.6,2.35,1.59,2.5,0l10.4-107.19L369.4,602.4l9.1-93.77L387,421.45l7.93-81.67.95-9.81c.15-1.6-2.35-1.59-2.5,0Z" transform="translate(-11.2 -265.89)"/><path class="cls-3" d="M434,332.59l-8.23,97.7-7.76,92-7.24,85.9-7.75,92-8.21,97.45-1.08,12.78c-.14,1.61,2.36,1.6,2.5,0l8.31-98.66,7.78-92.26,7.3-86.59L427.3,442l8.22-97.48,1-11.94c.14-1.6-2.36-1.6-2.5,0Z" transform="translate(-11.2 -265.89)"/><path class="cls-3" d="M471.47,331.54a711.92,711.92,0,0,0-11.34,80.69c-2.52,28.93-3.75,57.95-4.43,87-.74,31.13-.85,62.26-1,93.4-.14,33.47-.3,66.95-1,100.42-.75,35.62-2.11,71.22-4.49,106.76q-.47,6.88-1,13.77c-.12,1.6,2.38,1.6,2.5,0,2.67-35.82,4.27-71.71,5.17-107.61.84-33.47,1.09-67,1.24-100.42.14-31.43.19-62.85.78-94.27.55-29.17,1.55-58.35,3.75-87.45A753.73,753.73,0,0,1,472,341.92c.6-3.25,1.24-6.48,1.9-9.71.32-1.57-2.09-2.25-2.41-.67Z" transform="translate(-11.2 -265.89)"/><path class="cls-3" d="M510.16,332.35l-1.67,91.24-1.79,97.84Q505.85,568,505,614.5q-.89,45.69-2.21,91.38-1.47,48.87-3.84,97.72-.32,6.24-.64,12.47c-.08,1.6,2.42,1.6,2.5,0q2.58-49.3,4.12-98.65c1-30.53,1.72-61.08,2.35-91.62s1.15-60.92,1.71-91.38q.9-49.6,1.81-99.21l1.69-92.09.2-10.77a1.25,1.25,0,0,0-2.5,0Z" transform="translate(-11.2 -265.89)"/></g><g id="Horizontal"><path class="cls-3" d="M143.56,349.24q38.73.5,77.47.88,38.5.4,77,.74l79.23.69,79.29.7,80.05.69,10,.09a1.25,1.25,0,0,0,0-2.5l-80.13-.7-79.39-.69-79.39-.69q-38.55-.34-77.09-.73t-77.29-.86l-9.79-.12a1.25,1.25,0,0,0,0,2.5Z" transform="translate(-11.2 -265.89)"/><path class="cls-3" d="M135.54,374.2a517.87,517.87,0,0,0,76.62,4.71c27-.17,54.06-2.55,81.1-2.21,6.72.09,13.45.38,20.14,1s13.54,1.79,20.31,2.71c13.3,1.83,26.67,1.5,40.06,1.4l83-.62,81.88-.61,9.61-.08a1.25,1.25,0,0,0,0-2.5l-80.9.61-82.62.62c-13.47.1-27.05.68-40.5-.21-6.84-.45-13.59-1.58-20.37-2.56q-9.71-1.39-19.51-1.91c-27.06-1.43-54.18,1.2-81.23,1.71-25.72.49-51.47-.13-77-3.18q-4.95-.6-9.9-1.3c-1.57-.23-2.25,2.18-.66,2.41Z" transform="translate(-11.2 -265.89)"/><path class="cls-3" d="M127.71,401c26.43,2.59,53.13,2.5,79.67,3.21,27.4.74,54.81,1.71,82.23,1.44,13.8-.14,27.61-.6,41.38-1.61,6.75-.49,13.68-1.68,20.46-1.14,6.53.52,12.95,2,19.51,2.47,13.63,1,27.39.77,41.05,1l41.26.67,83.07,1.35,10.43.17a1.25,1.25,0,0,0,0-2.5l-83.16-1.35c-27.47-.45-55-.65-82.43-1.37a155.23,155.23,0,0,1-20.66-1.65c-3-.48-6-1-9.07-1.28a57.86,57.86,0,0,0-9.76.25q-20.85,1.86-41.76,2.33c-27.4.63-54.82-.25-82.21-1l-41.31-1.1c-12.94-.34-25.9-.61-38.81-1.54-3.3-.24-6.6-.53-9.89-.85-1.6-.16-1.59,2.34,0,2.5Z" transform="translate(-11.2 -265.89)"/><path class="cls-3" d="M119,429.78c55.71,2,111.49,1.94,167.22,2.61l167.17,2,95.47,1.16a1.25,1.25,0,0,0,0-2.5l-169-2q-83.64-1-167.3-2c-31.2-.31-62.39-.67-93.57-1.78-1.61,0-1.61,2.45,0,2.5Z" transform="translate(-11.2 -265.89)"/><path class="cls-3" d="M110.58,456,282.8,460.3,455,464.56l93.66,2.33a1.25,1.25,0,0,0,0-2.5l-169.77-4.21L207.77,456l-97.19-2.41a1.25,1.25,0,0,0,0,2.5Z" transform="translate(-11.2 -265.89)"/><path class="cls-3" d="M102.92,485.67l172.69,4.56,173.66,4.58,99.19,2.61c1.61.05,1.61-2.45,0-2.5L373,490.29,199.3,485.71l-96.38-2.54c-1.61-.05-1.6,2.45,0,2.5Z" transform="translate(-11.2 -265.89)"/><path class="cls-3" d="M95.45,514.51l176.61,6.22,176.49,6.21c33.22,1.17,66.47,2.33,99.71,1.35,1.61,0,1.62-2.55,0-2.5-29.66.87-59.33.05-89-1s-59.2-2.09-88.8-3.13L194,515.48,95.45,512c-1.61-.06-1.6,2.44,0,2.5Z" transform="translate(-11.2 -265.89)"/><path class="cls-3" d="M85.51,546.67c28.66,5.52,58.08,3.77,87.06,2.78a749.62,749.62,0,0,1,91.53,2.26C279,553,294,554.57,309,555.2c15.31.65,30.52-.24,45.81-.8,7.61-.27,15.23-.4,22.83,0s15.2,1.5,22.77,2.54A269.45,269.45,0,0,0,445,559.18c29.87-.88,59.9-4.9,89.7-.92q5.67.76,11.26,1.92c1.57.32,2.24-2.09.67-2.41-29.33-6-59.21-3.15-88.82-1.63-14.87.77-29.8,1.16-44.64-.17-15.2-1.37-30.07-4.28-45.39-4.32-15.11,0-30.2,1.35-45.31,1.35s-30.4-1.26-45.54-2.63c-30.5-2.76-60.92-4.53-91.56-3.8-29.41.69-59.1,3.25-88.4-.56q-5.43-.71-10.8-1.75c-1.57-.3-2.25,2.11-.66,2.41Z" transform="translate(-11.2 -265.89)"/><path class="cls-3" d="M78.34,577.64l184.32,6.81L444,591.16,547,595c1.61,0,1.61-2.45,0-2.5l-182.49-6.76-183.38-6.77-102.74-3.8c-1.61-.06-1.61,2.44,0,2.5Z" transform="translate(-11.2 -265.89)"/><path class="cls-3" d="M68.73,611c30.06,4.74,60.59,4.84,91,5.21q46.84.59,93.69,1.9,47.2,1.32,94.4,3.39c15.79.7,31.84.77,47.48,3.17,7.25,1.11,14.42,2.57,21.75,3,7.73.49,15.49.23,23.23,0l105.63-2.48a1.25,1.25,0,0,0,0-2.5L451.52,625c-15.64.37-31.28,1.29-46.78-1.27-7-1.17-14-2.31-21.14-2.89-7.82-.64-15.67-.93-23.51-1.28q-93.61-4.29-187.33-5.67c-34.46-.51-69.23.09-103.37-5.31-1.57-.24-2.25,2.16-.66,2.42Z" transform="translate(-11.2 -265.89)"/><path class="cls-3" d="M59.63,646.73l95.78,4.17q46.79,2,93.56,4t93.44,3.77q47.22,1.8,94.46,3.32,48.3,1.54,96.62,2.67l12.11.27a1.25,1.25,0,0,0,0-2.5q-48.21-1.05-96.41-2.55-47.55-1.47-95.1-3.27-46.77-1.75-93.53-3.73-46.55-1.93-93.1-4l-95.92-4.17-11.91-.52c-1.61-.07-1.6,2.43,0,2.5Z" transform="translate(-11.2 -265.89)"/><path class="cls-3" d="M51.05,682.85c31.94,2.47,63.88,4.92,95.85,6.87,32.5,2,65,3.44,97.58,3.88,32.71.46,65.39-.2,98.09.83,32.15,1,64.28,2.59,96.42,4l92.87,4L544,703c1.61.07,1.6-2.43,0-2.5l-93.64-4.06c-31.88-1.39-63.75-2.9-95.64-4.07-16.18-.59-32.36-1-48.54-1.17-16.5-.13-33,.15-49.49.06-32.62-.2-65.24-1.45-97.81-3.3-32-1.82-64-4.21-96-6.67l-11.78-.91c-1.61-.12-1.6,2.38,0,2.5Z" transform="translate(-11.2 -265.89)"/><path class="cls-3" d="M41,718.67l98.94,5.92,100.15,6c33.18,2,66.41,4.65,99.66,5,33,.33,65.92-2.6,98.87-1.06,8.08.38,16.16,1,24.18,2.07,8.39,1.1,16.63,2.93,25,4.26,14.5,2.32,28.92.88,43.49,1.42a117.25,117.25,0,0,1,12.13,1.08c1.57.22,2.25-2.18.66-2.41-14.37-2-28.71-.47-43.13-1.2-8.41-.43-16.59-2-24.84-3.56-7.91-1.47-15.89-2.53-23.91-3.24-32.85-2.94-65.84-.3-98.74.12-33.33.42-66.63-2.17-99.88-4.16l-100.8-6-99.58-6L41,716.17c-1.61-.09-1.6,2.41,0,2.5Z" transform="translate(-11.2 -265.89)"/><path class="cls-3" d="M32.39,759.76c33.4.66,66.78,1.81,100.16,3.23s66.86,3.07,100.28,4.74q49.16,2.46,98.3,5.1,49.42,2.65,98.85,5.52,50.36,2.91,100.7,6l12.72.79c1.6.1,1.6-2.4,0-2.5q-50.5-3.14-101-6.08-49.5-2.9-99-5.58-49.14-2.67-98.3-5.14Q195,763.32,145,761c-33.34-1.47-66.69-2.73-100-3.5q-6.27-.15-12.56-.27a1.25,1.25,0,0,0,0,2.5Z" transform="translate(-11.2 -265.89)"/></g><path class="cls-4" d="M271.61,324.16c91.12,3.67,181.51,6.88,276,3.9,4.76-12.78,7.72-31.42,7.5-44.16,0-1.85-.2-3.85-1.91-5.29-2.49-2.1-7-1.89-11-1.95-131.75-2-260.63,2.51-383.4-8.27L144.72,322q62.61,2.49,126.89,2.18" transform="translate(-11.2 -265.89)"/><path class="cls-2" d="M271.61,326.66c35.53,1.43,71.06,2.8,106.61,3.75,35.87.95,71.76,1.49,107.65,1.28q30.86-.18,61.7-1.13a2.58,2.58,0,0,0,2.41-1.83A132.45,132.45,0,0,0,557.34,292c.33-5,1.61-12.43-3.12-15.75-2.37-1.66-5.4-2-8.21-2.07-3.59-.14-7.18-.11-10.77-.16-31.1-.42-62.2-.5-93.3-.52-30.82,0-61.63,0-92.45-.21-30.31-.21-60.62-.65-90.92-1.65-29.61-1-59.21-2.49-88.74-4.86q-5.54-.44-11.05-.93a2.52,2.52,0,0,0-2.41,1.84l-14.06,53.59a2.54,2.54,0,0,0,2.41,3.16q49.16,1.95,98.34,2.18,14.26.06,28.55,0c3.22,0,3.22-5,0-5q-49.44.24-98.88-1.21-14-.42-28-1l2.42,3.16,14.05-53.58-2.41,1.83c28.8,2.52,57.67,4.2,86.56,5.31,29.42,1.14,58.85,1.71,88.29,2,30.06.3,60.13.31,90.19.33,30.35,0,60.7,0,91,.3q11.42.1,22.83.26c3.28.05,6.63-.07,9.9.22a7.72,7.72,0,0,1,3.68,1c1.11.79,1.25,2,1.29,3.3.38,11.9-1.68,24.19-4.81,35.62-.75,2.76-1.6,5.48-2.59,8.16l2.41-1.84c-36.32,1.14-72.65,1.39-109,1-35.67-.38-71.33-1.36-107-2.61q-30-1.05-60-2.29c-3.22-.13-3.21,4.87,0,5Z" transform="translate(-11.2 -265.89)"/></svg>