<svg id="Calque_1" data-name="Calque 1" xmlns="http://www.w3.org/2000/svg" viewBox="0 0 959.43 964.49"><defs><style>.cls-1{fill:#ffffed;}</style></defs><path class="cls-1" d="M45.5,943.5C33,642.28,29.38,345.17,30.34,43.69c0-2.92,2.23-5.93,1.12-8.62-4-9.57,14.65-14.81,24-14.57,308.13,7.76,617,13.83,925.13,8.35-34,124-18.45,255.32-12.62,383.79,8.41,185.6-4.08,371.62,2.16,557.31-34.83,5.95-70.36,6-105.7,6l-820.33-.08,0-27.83Z" transform="translate(-25.69 -15.93)"/><path d="M50,943.5Q42.35,759.39,38.8,575.13q-3.64-183.84-4-367.72-.12-45.65-.09-91.29,0-22.86.07-45.73,0-11.45.06-22.88c0-3.43,1.07-6.32,1.34-9.66.14-1.77-1.06-4-.73-5.63.64-3.1,6.39-4.77,8.88-5.52a46,46,0,0,1,15-1.6l45.75,1.13q45.76,1.13,91.53,2.17,185,4.22,370.12,6.25c122.72,1.15,245.45,1.17,368.17-.57q22.88-.33,45.75-.73l-4.34-5.7c-31.6,116.11-20.63,237.45-14.23,356,6.74,125,4,250.08,2.43,375.17-.86,70.38-1.16,140.78,1.18,211.14l3.31-4.34c-29.6,5-59.67,5.68-89.62,5.79-29.76.1-59.53,0-89.29,0H608.83l-360.56,0-204.13,0,4.5,4.5,0-20.41c0-4,0-6.93,1.24-10.72,1.73-5.54-7-7.92-8.68-2.4-3.27,10.48-1.54,22.62-1.52,33.53a4.56,4.56,0,0,0,4.5,4.5l364.38,0,362.47,0q50.46,0,100.92,0c33.26,0,66.58-.6,99.46-6.12a4.51,4.51,0,0,0,3.3-4.34c-4.15-124.91.08-249.85.77-374.77.35-62.67-.22-125.36-3.18-188-2.81-59.38-7.48-118.69-8.28-178.15-.89-66.91,3.35-134.21,21-199a4.55,4.55,0,0,0-4.34-5.7C856,26.56,731.4,26.89,606.78,26s-249.32-3-374-5.78q-46.73-1-93.44-2.15-23.84-.57-47.66-1.16L69.8,16.36c-6.32-.16-12.8-.81-19.09-.09-7.86.89-18.73,3.48-22.91,11-2.12,3.83-.43,6.91-.82,10.8-.32,3.22-1.14,6-1.15,9.41q0,6.68,0,13.35-.12,46.67-.09,93.32Q25.84,340,28.89,525.89q3.21,186,10.27,371.89Q40,920.64,41,943.5C41.24,949.27,50.24,949.3,50,943.5Z" transform="translate(-25.69 -15.93)"/></svg>