<svg id="Draw" xmlns="http://www.w3.org/2000/svg" width="513.3" height="495.72" viewBox="0 0 513.3 495.72"><defs><style>.cls-1{fill:#e2e2e2;}.cls-2{fill:#3a3a3a;}.cls-3{fill:#afafaf;}.cls-4{fill:#3d3d3d;}.cls-5{fill:#f3f3f3;}.cls-6{fill:#fe3939;}</style></defs><g id="Antenna"><path class="cls-1" d="M163.16,170.94l91.91-44.42c12.32-6,24.67-11.92,37.52-16.65l5.94,12.54-60.79,30.66c-11.44,5.77-22.9,11.55-34.86,16.16-12.88,5-27.6,8.46-40.2,2.83Z" transform="translate(-115.38 -2.51)"/><path d="M163.92,172.24l50.66-24.49c16.72-8.08,33.41-16.24,50.17-24.23,9.27-4.41,18.61-8.65,28.24-12.21l-1.69-.69,5.94,12.54.53-2L244.53,148c-8.67,4.37-17.3,8.82-26.09,12.94-8.41,3.94-17,7.75-26,10.23-9.42,2.59-19.81,3.65-29-.38l.54,2.06.48-1.12c.75-1.75-1.83-3.28-2.59-1.51l-.48,1.11a1.51,1.51,0,0,0,.53,2c17.27,7.57,36.55-.21,52.58-7.36,9-4,17.84-8.52,26.66-13l27.29-13.76,30.84-15.56a1.55,1.55,0,0,0,.54-2l-5.94-12.54a1.52,1.52,0,0,0-1.7-.69C275,114.79,258.51,123.2,242,131.19L191.1,155.78l-28.7,13.87C160.67,170.49,162.19,173.08,163.92,172.24Z" transform="translate(-115.38 -2.51)"/><path class="cls-1" d="M399.11,63.33c-18.42,11.94-39.22,19.57-59.77,27.26A53.78,53.78,0,0,0,327.85,96c-3.58,2.42-6.61,5.73-10.6,7.38a42.27,42.27,0,0,1-6.19,1.7A46.44,46.44,0,0,0,298,110.51c-1.69,1-3.51,2.56-3.31,4.53.18,1.76,2,3,3.79,3a11.16,11.16,0,0,0,5.06-1.38L364,89.45c6.14-2.77,12.28-5.54,18.32-8.51q10.57-5.2,20.71-11.22l-2.59-7.11Z" transform="translate(-115.38 -2.51)"/><path d="M398.35,62c-13.29,8.58-27.8,15-42.5,20.7-7.3,2.84-14.77,5.34-22,8.39a40.88,40.88,0,0,0-9.68,5.72c-2.82,2.24-5.54,4.6-9.06,5.66-3.69,1.11-7.42,1.76-11,3.24-3.15,1.29-6.94,2.82-9.33,5.35s-2.13,5.92.84,7.66c3.37,2,7.1-.05,10.24-1.47l46.82-21.11c15.41-7,30.93-13.7,45.67-22,1.81-1,3.62-2.07,5.41-3.13a1.54,1.54,0,0,0,.69-1.7l-2.6-7.11a1.52,1.52,0,0,0-2.2-.89l-1.3.72c-1.69.93-.18,3.53,1.51,2.59l1.3-.72L399,63l2.6,7.11.68-1.69C388.36,76.64,373.8,83.38,359.12,90l-45,20.29-10.91,4.92c-1.51.69-3.3,1.64-5,1.35-1.32-.22-2.53-1.32-1.79-2.68s2.26-2.06,3.47-2.76a44.52,44.52,0,0,1,5.24-2.56,93.87,93.87,0,0,1,10.37-3,25.14,25.14,0,0,0,8.92-5,44.62,44.62,0,0,1,9-5.88c3.32-1.56,6.81-2.74,10.24-4,3.58-1.34,7.15-2.68,10.71-4,15.74-6.06,31.35-12.73,45.56-21.91C401.48,63.58,400,61,398.35,62Z" transform="translate(-115.38 -2.51)"/><path class="cls-1" d="M402.35,63.21q8.81-4.51,17.65-9l5.25-2.66c1.61-.81,3.22-1.63,4.84-2.43,7-3.47,14-6.75,21.11-10l27.08-12.58c1.73-.8.25-.53,2.07-1.09s10.21-5.44,12-6c4.41-1.35,4.84-.53,8.83-2.83.85-.49,4-1.7,4.34-.76,1.2,3.59,2.61,1.56,1.2,3.59-.51.72-5.23,1.93-6,2.39C492.76,26.73,486.51,29,478,32.65c-9.63,4.14-15.52,7.83-25.14,12C449,46.26,446,48,442,49.41a51.39,51.39,0,0,0-6,2.39,42.76,42.76,0,0,0-4.79,2.39,89.28,89.28,0,0,1-14.37,7.19c-3.84,1.42-9.35,4.91-13.19,6.33Z" transform="translate(-115.38 -2.51)"/><path d="M403.11,64.51c17-8.71,34-17.21,51.33-25.24l13.09-6.08,6.55-3,3.16-1.46a11.28,11.28,0,0,0,2.9-1.51l.13-.11c.36-.34.14-.29.19-.24s-.85.48.29.08c.4-.14.78-.31,1.17-.48,1-.46,2-1,3-1.52,2.3-1.21,4.57-2.5,6.92-3.62,1.86-.88,4.64-1,6.86-1.82,1.41-.5,2.63-1.37,4-1.9.6-.24,1.28-.29,1.85-.53.05,0,.12.05.18,0,.33-.27-.7-.13-.56-.33-.09.13.59,1.28.68,1.42a3.74,3.74,0,0,0,1.2,1.27,1.7,1.7,0,0,0,.31.21c.05-.05-.7-1.54-.53-1.53,0,0,0,0-.16.21s0,.12-.1.16a2.59,2.59,0,0,1-.6.3c-.56.24-1.16.43-1.73.62A23,23,0,0,0,500,20.53c-1.8.93-3.51,2.07-5.32,3-7.47,3.91-15.45,6.7-23.06,10.31-3.68,1.75-7.29,3.63-10.93,5.44-4,2-8,3.66-12,5.56-2,.94-3.92,1.91-6,2.69-1.89.73-3.8,1.35-5.66,2.14a85.38,85.38,0,0,0-9,4.67,85.3,85.3,0,0,1-10.47,5.14A106,106,0,0,0,408,64.07a45.14,45.14,0,0,1-4.67,2.2l1.85,1-1.36-4.5c-.56-1.84-3.45-1.06-2.89.8l1.35,4.5a1.52,1.52,0,0,0,1.85,1c3.56-1.35,6.83-3.33,10.24-5s6.92-2.89,10.28-4.56c1.79-.89,3.56-1.83,5.29-2.83a47.87,47.87,0,0,1,4.46-2.54c1.67-.76,3.31-1.59,5-2.26,2.06-.8,4.16-1.48,6.19-2.35,4.27-1.84,8.5-3.85,12.71-5.83,3.83-1.8,7.58-3.75,11.37-5.63,7.9-3.92,16.21-6.92,24.13-10.79q2.88-1.41,5.66-3a17.13,17.13,0,0,1,3.66-1.78c2-.65,5.29-1.32,5.62-3.87.15-1.17-.92-1.53-1.29-2.08s-.49-1.48-1.07-2a2.59,2.59,0,0,0-2-.55c-2.9.21-5.14,2.3-7.92,2.92a29,29,0,0,0-7.24,2.26c-2.5,1.27-4.95,2.65-7.45,3.92a20,20,0,0,1-2.51,1.08,2.64,2.64,0,0,0-1,.52c-.11.09-.57.52-.28.31s-.45.15-.52.19c-.6.29-1.21.56-1.81.83L462,32.49c-9,4.17-18,8.29-26.93,12.59S417.12,54,408.21,58.54q-3.31,1.68-6.61,3.38C399.88,62.8,401.39,65.39,403.11,64.51Z" transform="translate(-115.38 -2.51)"/><path class="cls-1" d="M505.31,10.31,511,21.15a.93.93,0,0,0,.39.46.91.91,0,0,0,.63,0,36.6,36.6,0,0,0,11.63-5.21A6.22,6.22,0,0,1,522,13.29a19.09,19.09,0,0,0-.47-2.72c-.52-1.48-1.92-2.52-2.42-4-.32-.94-.42-2.2-1.36-2.5a2.37,2.37,0,0,0-1.93.58,48.59,48.59,0,0,1-10.05,4.52Z" transform="translate(-115.38 -2.51)"/><path d="M504,11.07l3.5,6.69,1.83,3.51c.57,1.08,1.17,2,2.53,1.87a14,14,0,0,0,3.28-.9c1.09-.36,2.15-.78,3.2-1.24a36.82,36.82,0,0,0,6-3.31,1.52,1.52,0,0,0,.3-2.35,6,6,0,0,1-1.38-3.58,7.72,7.72,0,0,0-1.6-3.83,10,10,0,0,1-1-1.49A11.75,11.75,0,0,1,520.23,5a3.14,3.14,0,0,0-2.76-2.51c-1.47-.07-2.76,1.12-4,1.79a35.33,35.33,0,0,1-4,1.89c-.72.3-1.46.57-2.19.85a13.83,13.83,0,0,0-2.25.84c-.65.38-.88,1.36-1.16,2a1.5,1.5,0,1,0,2.89.8l.48-1.14-1.05,1c2.33-.84,4.65-1.7,6.9-2.75a30.45,30.45,0,0,0,3.08-1.66l.68-.43c.17-.09.54-.18.36-.33.15.13.19.53.24.71a8.3,8.3,0,0,0,1.17,2.61,9.06,9.06,0,0,1,1.58,2.49c.3,1.08.23,2.22.6,3.28a8.42,8.42,0,0,0,1.77,2.92l.3-2.36a31.6,31.6,0,0,1-11.59,5.12h.8l-.11,0,.53.54a18.25,18.25,0,0,1-1.39-2.58l-1.5-2.87-3-5.73C505.71,7.84,503.12,9.36,504,11.07Z" transform="translate(-115.38 -2.51)"/></g><g id="Feet"><path class="cls-2" d="M169.88,488l.44,7.91q14.72-.14,29.43.78c.6,0,1.33,0,1.61-.52a1.57,1.57,0,0,0,.13-.78l-.09-6.52a1.36,1.36,0,0,0-.28-1,1.3,1.3,0,0,0-.76-.28c-6.24-.83-12.59,1.06-18.86.46-3.73-.35-7.61-1.55-11.09-.19" transform="translate(-115.38 -2.51)"/><path d="M168.38,488l.44,7.91a1.52,1.52,0,0,0,1.5,1.5q8-.08,16,.16c2.61.08,5.23.18,7.84.31,1.31.06,2.62.13,3.92.21a8.42,8.42,0,0,0,3.32-.09c2.29-.84,1.62-4,1.6-5.87s.57-5-1.65-5.83a11.64,11.64,0,0,0-3.28-.37,36.43,36.43,0,0,0-3.77.07c-2.61.16-5.19.49-7.8.63a42.86,42.86,0,0,1-8.39-.51c-2.7-.39-5.43-.62-8.05.33-1.8.65-1,3.55.8,2.89,4-1.44,8.27.21,12.34.34,4.42.15,8.8-.71,13.22-.77a28.45,28.45,0,0,1,3.06.11,2.37,2.37,0,0,0,.64.07c.49-.21-.3.07-.17-.22a6.13,6.13,0,0,0,0,1.86c0,1.09,0,2.18,0,3.26a13,13,0,0,0,0,1.4c0-.08.51-.2.17-.19s-.6,0-.9,0c-4.49-.25-9-.47-13.48-.6-5.16-.15-10.31-.19-15.46-.15l1.5,1.5-.44-7.91c-.11-1.92-3.11-1.93-3,0Z" transform="translate(-115.38 -2.51)"/><path class="cls-2" d="M546.59,488l.44,7.91q14.73-.15,29.44.78c.59,0,1.32,0,1.61-.52a1.52,1.52,0,0,0,.12-.79q0-3.25-.09-6.51a1.34,1.34,0,0,0-.27-1,1.28,1.28,0,0,0-.76-.27c-6.25-.83-12.59,1.05-18.86.46-3.73-.36-7.61-1.56-11.1-.19" transform="translate(-115.38 -2.51)"/><path d="M545.09,488l.44,7.91a1.54,1.54,0,0,0,1.5,1.5q8-.07,16,.16c2.62.07,5.24.18,7.85.3l3.92.21a8.24,8.24,0,0,0,3.32-.09c2.29-.84,1.62-4,1.59-5.87s.57-5-1.65-5.82a11.29,11.29,0,0,0-3.28-.38c-1.25,0-2.51,0-3.76.07-2.61.16-5.2.49-7.8.64a42.87,42.87,0,0,1-8.39-.52c-2.7-.38-5.43-.62-8.06.33-1.8.65-1,3.55.8,2.89,4-1.43,8.27.22,12.34.35,4.43.14,8.81-.71,13.23-.77a28.17,28.17,0,0,1,3,.1,2.08,2.08,0,0,0,.64.08c.5-.22-.29.07-.17-.22a6.85,6.85,0,0,0,0,1.86c0,1.08,0,2.17.05,3.26a10.75,10.75,0,0,0,0,1.39c0-.08.51-.19.18-.18s-.6,0-.9,0c-4.5-.26-9-.48-13.49-.61q-7.72-.21-15.46-.14l1.5,1.5-.44-7.91c-.1-1.92-3.11-1.93-3,0Z" transform="translate(-115.38 -2.51)"/></g><g id="Rotor"><path d="M447.65,172.52a6.06,6.06,0,0,1-2.47-4l4.95.12a12.37,12.37,0,0,1-.64-4.9,44.5,44.5,0,0,1,4.51,3.1,10.27,10.27,0,0,1,2-6.29l3.22,5.1a9.42,9.42,0,0,1,3.13-5.35l1.26,3.32a50.58,50.58,0,0,1,5.75-4.12,12.53,12.53,0,0,1,1,4.13l4.49-4.91.93,4.68a16.66,16.66,0,0,0,4.89-3.64L481,164a11.9,11.9,0,0,0,5.13-3.41,6.45,6.45,0,0,1,.44,4.53,27.9,27.9,0,0,0,5.87-3.09,11.6,11.6,0,0,1-1.12,4.56,19.91,19.91,0,0,0,5.56-3.21,9.8,9.8,0,0,1-1.29,5l5.29-1.36c.59,2.75-.83,5.64-2.95,7.48a20,20,0,0,1-7.54,3.65c-13.31,4-28.24,4.18-40.63-2.11Z" transform="translate(-115.38 -2.51)"/></g><g id="Base"><path class="cls-3" d="M164,173.81l-43.36.13-.23,227.5c0,21.07,0,42.21-2.75,63.1-.68,5.29-1.48,11,.93,15.72,4.27,8.45,15.74,9.45,25.21,9.33q230.61-3,461.26.25c5.59.08,11.68,0,16-3.53,5.52-4.49,6-12.62,6-19.74q-.06-140.43-.11-280.87c0-5.44-.58-11.92-5.32-14.59-2.41-1.36-5.33-1.33-8.1-1.27-56.18,1.29-112.39,1.66-168.59,2l-284,1.88Z" transform="translate(-115.38 -2.51)"/><path d="M164,172.31l-43.36.13a1.52,1.52,0,0,0-1.5,1.5l-.17,161.49c0,26.68.09,53.38-.11,80.06-.09,13.38-.43,26.76-1.7,40.08-.91,9.58-4.87,22.39,3.53,29.81,7,6.15,17.49,5.78,26.16,5.67q20.12-.27,40.22-.48,40.47-.42,81-.66,80.44-.46,160.89-.16,80.94.31,161.89,1.39c6.35.09,12.78.48,19.12.15,4.71-.24,9.53-1.26,13-4.65,7.37-7.13,5.6-20,5.6-29.23l0-80.39-.06-161.81V194.86c0-5.35.43-10.92-.55-16.21-.74-4-2.72-7.75-6.61-9.36a19.19,19.19,0,0,0-7.76-.95c-3.38.06-6.77.15-10.15.22q-40.37.85-80.74,1.21c-53.72.54-107.44.8-161.16,1.15L200.09,172l-39.19.26a1.5,1.5,0,0,0,0,3l3,.06c1.94,0,1.94-3,0-3l-3-.06v3l157.77-1q78.84-.53,157.7-1.05,39.6-.28,79.22-.78,19.54-.27,39.1-.64c6.54-.13,13.08-.36,19.62-.42,2.73,0,5.66.05,7.79,2,1.78,1.65,2.52,4.13,2.91,6.46,1,5.88.38,12.18.38,18.11v19.34l0,39.69,0,78.35,0,79.38v39.18c0,6,.27,12-.13,18-.34,5-1.46,10.54-5.72,13.65-4.69,3.43-11.18,2.9-16.67,2.82l-19.34-.26q-19.86-.26-39.71-.47-39.21-.42-78.41-.65-78.92-.46-157.83-.2T149.86,488c-8.8.11-21.32,1.51-28-5.63-4-4.28-3.65-10.31-3-15.73.76-6.35,1.47-12.69,1.92-19.07,1.78-25.8,1.09-51.78,1.12-77.62l.16-157.43,0-38.59-1.5,1.5,43.36-.13A1.5,1.5,0,0,0,164,172.31Z" transform="translate(-115.38 -2.51)"/></g><g id="Ampli"><g id="Base-2" data-name="Base"><path class="cls-4" d="M160.71,270.88c3.82-5.47,18-28.28,22.54-33.18,7.41-8,16.15-14.65,24.85-21.24,7.71-5.84,15.48-11.73,24.12-16.11,20.44-10.36,44.68-11.59,67.1-6.84s43.29,15.11,62.88,27c5.71,3.46,11.36,7.09,16.23,11.65s9,10.13,12.84,15.7c10.76,15.55,20.44,32.27,24.67,50.7,3.37,14.67,3.17,30,1,44.89a172.44,172.44,0,0,1-10.43,38.9,152.06,152.06,0,0,1-8.94,18.71,129.66,129.66,0,0,1-208.65,23.48c-2.13-2.34-4.17-4.75-6.2-7.16-9.44-11.23-18.81-22.85-24.35-36.43-5.22-12.82-6.77-26.79-8.27-40.55C147.87,320.08,149,287.64,160.71,270.88Z" transform="translate(-115.38 -2.51)"/><path d="M162,271.64c4.93-7.09,9.42-14.49,14.22-21.67,2.24-3.36,4.47-6.77,7-9.92,3.93-4.91,9-9.1,13.8-13.07,5.92-4.87,12.07-9.49,18.25-14a120.82,120.82,0,0,1,19.39-12.12c12.94-6.18,27.41-8.69,41.68-8.46,29.88.5,57.81,13.1,83,28.19,6.43,3.85,12.9,7.81,18.36,13,5.28,5,9.51,11,13.61,17,8.23,12.08,15.75,24.86,20.44,38.76,5,14.78,6.09,30.37,4.66,45.84a169,169,0,0,1-10.91,45.57,137,137,0,0,1-21.21,37,130.84,130.84,0,0,1-29,26.3,128,128,0,0,1-155.64-11,147,147,0,0,1-14.92-15.54c-4.69-5.55-9.35-11.15-13.58-17.06a100.9,100.9,0,0,1-11-18.95,99,99,0,0,1-6.15-22.11,215.6,215.6,0,0,1-3.38-38.12c.09-12.06,1.24-24.36,4.88-35.91A50.57,50.57,0,0,1,162,271.64c1.1-1.6-1.5-3.1-2.59-1.52-6.58,9.52-9.15,21.5-10.57,32.79a163,163,0,0,0-.43,35.87c1.47,15.12,3.26,30.64,9.39,44.69,6,13.66,15.65,25.29,25.19,36.58a138.48,138.48,0,0,0,31.79,28,131.21,131.21,0,0,0,183.63-45.53,162.56,162.56,0,0,0,17.19-44.16c3.66-15.57,5.48-31.87,3.81-47.83-1.58-15.16-6.72-29.44-14-42.79a220.39,220.39,0,0,0-11.81-19.1c-4.24-6.21-8.65-12.42-14.16-17.58s-12.1-9.24-18.62-13.14-13.26-7.67-20.12-11.07c-13.53-6.72-27.79-12.22-42.65-15.16a113.59,113.59,0,0,0-43.71-.48A89.28,89.28,0,0,0,233.57,198a121,121,0,0,0-19.82,12.33c-6.24,4.6-12.46,9.28-18.47,14.19-5,4.08-10.2,8.39-14.24,13.46-5.82,7.31-10.71,15.43-15.79,23.26-1.93,3-3.82,6-5.83,8.86C158.31,271.71,160.91,273.21,162,271.64Z" transform="translate(-115.38 -2.51)"/></g><g id="horizontal"><path d="M330.71,202.34c-24.58.06-49.16,0-73.74,0l-21.86,0a1.5,1.5,0,0,0,0,3c24.57-.07,49.15,0,73.73,0q10.94,0,21.87,0a1.5,1.5,0,0,0,0-3Z" transform="translate(-115.38 -2.51)"/><path d="M354.65,215.51c-17.87.82-35.75,1.29-53.64,1.05-9.13-.13-18.27-.42-27.4-.82-9.84-.42-19.66-.92-29.52-.72-11.15.24-22.28,1.06-33.39,1.89-1.92.14-1.93,3.14,0,3,9.88-.74,19.77-1.47,29.67-1.79s19.68,0,29.52.46c17.87.82,35.75,1.23,53.63.95,10.38-.17,20.76-.54,31.13-1,1.92-.09,1.93-3.09,0-3Z" transform="translate(-115.38 -2.51)"/><path d="M377.4,229.87c-23.63.51-47.25.57-70.88.52-23.94,0-47.88-.09-71.82-.37q-20.47-.22-41-.64c-1.93,0-1.93,3,0,3q36.48.72,73,.91c23.57.11,47.14.19,70.71.08q20-.09,40-.5c1.92,0,1.93-3,0-3Z" transform="translate(-115.38 -2.51)"/><path d="M388.17,243c-26.5.66-53,1.27-79.5,1.37-27.2.11-54.41,0-81.61-.22-15.38-.09-30.76-.32-46.13-1-1.93-.09-1.93,2.91,0,3,27.43,1.2,54.91,1,82.36,1.14,26.73.09,53.46.16,80.19-.31,14.9-.25,29.79-.62,44.69-1,1.93,0,1.93-3,0-3Z" transform="translate(-115.38 -2.51)"/><path d="M397.75,257.41q-44.42,0-88.83.07-43.69.06-87.39.12l-50.37,0a1.5,1.5,0,0,0,0,3q44.42,0,88.83-.07,43.68-.07,87.38-.13,25.19,0,50.38,0a1.5,1.5,0,0,0,0-3Z" transform="translate(-115.38 -2.51)"/><path d="M406.13,271.77q-46.32-.06-92.63-.19-48-.18-96-.58-27.18-.24-54.37-.55c-1.93,0-1.93,3,0,3q48.13.56,96.27.86,47.09.3,94.18.38,26.28.06,52.55.08a1.5,1.5,0,0,0,0-3Z" transform="translate(-115.38 -2.51)"/><path d="M412.11,286.14c-7.79,0-15.58-.35-23.37-.61-8.16-.28-16.31-.24-24.48-.21l-50.12.15c-33.37.11-66.76.46-100.13,0-18.7-.23-37.39-.78-56.06-1.95-1.92-.12-1.92,2.88,0,3,33.47,2.1,67,2.18,100.54,2.08s66.8-.2,100.2-.3c9.09,0,18.19-.17,27.29.1,8.71.26,17.41.72,26.13.7a1.5,1.5,0,0,0,0-3Z" transform="translate(-115.38 -2.51)"/><path d="M415.7,300.5q-50.81-.88-101.61-1.49-50.1-.56-100.21-.65-28.74,0-57.5.12a1.5,1.5,0,0,0,0,3q50.82-.27,101.63,0,50.1.3,100.2,1.05,28.74.42,57.49.93c1.94,0,1.94-3,0-3Z" transform="translate(-115.38 -2.51)"/><path d="M416.9,313.67q-51.84.9-103.68.9-51.21,0-102.39-.88-29.06-.49-58.09-1.24c-1.93,0-1.93,3,0,3q51.82,1.32,103.67,1.84,51.19.49,102.4.11,29-.22,58.09-.73c1.93,0,1.94-3,0-3Z" transform="translate(-115.38 -2.51)"/><path d="M418.1,330.43c-34.89.46-69.77.93-104.66,1.06-34.52.13-69-.08-103.55-.94q-29.4-.72-58.8-2.14c-1.93-.09-1.93,2.91,0,3,34.84,1.7,69.71,2.58,104.58,2.93,34.53.34,69.05.17,103.57-.19q29.43-.3,58.86-.72a1.5,1.5,0,0,0,0-3Z" transform="translate(-115.38 -2.51)"/><path d="M415.7,346c-34.55.5-69.11,1.06-103.67,1.46-34,.4-68,.65-102.08.57q-29.2-.06-58.42-.49a1.5,1.5,0,0,0,0,3q51.84.76,103.67.42c34-.18,68.06-.61,102.08-1.1L415.7,349c1.93,0,1.94-3,0-3Z" transform="translate(-115.38 -2.51)"/><path d="M412.11,361.56q-49.53.4-99.07.68c-33.52.23-67.05.8-100.56.37-19.07-.25-38.14-.88-57.17-2.25-1.92-.14-1.91,2.87,0,3,33.82,2.43,67.74,2.53,101.63,2.3q49.55-.33,99.08-.7,28.05-.18,56.09-.4a1.5,1.5,0,0,0,0-3Z" transform="translate(-115.38 -2.51)"/><path d="M406.13,380.71c-31.16,2.53-62.42.59-93.62.47l-96.46-.38-54-.21a1.5,1.5,0,0,0,0,3l96.46.38,48,.19c15.8.06,31.58.42,47.38.7,17.42.3,34.86.27,52.24-1.15,1.91-.15,1.92-3.15,0-3Z" transform="translate(-115.38 -2.51)"/><path d="M399,396.32l-89.42-.62-89.07-.62-50.15-.35a1.5,1.5,0,0,0,0,3l89.32.62,89.09.62,50.23.35a1.5,1.5,0,0,0,0-3Z" transform="translate(-115.38 -2.51)"/><path d="M385.54,413.28q-39.3.33-78.62.42t-78.36-.06q-22.09-.09-44.18-.25a1.5,1.5,0,0,0,0,3q39.32.28,78.62.34t78.37-.15q22.08-.12,44.17-.3a1.5,1.5,0,0,0,0-3Z" transform="translate(-115.38 -2.51)"/><path d="M373.1,427.51q-34.34.17-68.66.15T236,427.48q-19.35-.09-38.69-.25a1.5,1.5,0,0,0,0,3q34.32.27,68.65.37t68.41,0q19.35,0,38.7-.13a1.5,1.5,0,0,0,0-3Z" transform="translate(-115.38 -2.51)"/><path d="M354.44,440.75l-52.94.93-52.93.92-30,.52c-1.93,0-1.94,3,0,3l52.93-.92,52.94-.92,30-.53c1.93,0,1.93-3,0-3Z" transform="translate(-115.38 -2.51)"/></g><g id="vertical"><path d="M158.64,277l.22,81.27.06,22.93a1.5,1.5,0,0,0,3,0L161.7,300,161.64,277a1.5,1.5,0,0,0-3,0Z" transform="translate(-115.38 -2.51)"/><path d="M172.11,253.35q1.37,29.78,1,59.59-.19,14.78-.83,29.54c-.42,9.93-.93,19.84-.72,29.78.23,11.15,1,22.27,1.88,33.39.14,1.91,3.14,1.93,3,0-.73-9.88-1.47-19.77-1.78-29.68s0-19.84.46-29.76q1.37-29.65,1-59.35-.21-16.75-1-33.51c-.09-1.92-3.09-1.94-3,0Z" transform="translate(-115.38 -2.51)"/><path d="M185.87,236.79q.8,36.32.95,72.64.17,36.1-.27,72.21-.24,20.49-.65,41c0,1.93,3,1.93,3,0q.73-36.47.91-72.95.16-36-.25-72.08-.24-20.4-.69-40.79c0-1.93-3-1.94-3,0Z" transform="translate(-115.38 -2.51)"/><path d="M200,224.75c.69,27.59.92,55.2.94,82.81q0,40.86-.23,81.73c-.1,15.38-.32,30.76-1,46.13-.08,1.93,2.92,1.92,3,0,1.2-27.44,1-54.91,1.14-82.37.09-27.3.17-54.61-.08-81.91q-.21-23.2-.77-46.39c0-1.93-3-1.94-3,0Z" transform="translate(-115.38 -2.51)"/><path d="M214.2,213.84l0,90.44,0,89.94v51a1.5,1.5,0,0,0,3,0l0-90.44,0-89.94v-51a1.5,1.5,0,0,0-3,0Z" transform="translate(-115.38 -2.51)"/><path d="M228.3,206.43q-.08,48.09-.2,96.17t-.58,96.25q-.24,27.18-.55,54.36a1.5,1.5,0,0,0,3,0q.56-48.12.86-96.26t.38-96.2q.06-27.17.09-54.32a1.5,1.5,0,0,0-3,0Z" transform="translate(-115.38 -2.51)"/><path d="M241.69,201.77q.15,50.14.31,100.29c.1,33.42.45,66.85,0,100.26-.23,18.7-.77,37.4-1.95,56.07-.12,1.93,2.88,1.92,3,0,2.1-33.44,2.18-67,2.09-100.46s-.21-66.85-.31-100.27l-.17-55.89a1.5,1.5,0,0,0-3,0Z" transform="translate(-115.38 -2.51)"/><path d="M256.61,196.08q-.92,51.61-1.36,103.23-.44,51.36-.42,102.71,0,29,.18,57.94a1.5,1.5,0,0,0,3,0q-.28-51.61-.11-103.24.19-51.36.83-102.71.36-29,.88-57.93c0-1.93-3-1.93-3,0Z" transform="translate(-115.38 -2.51)"/><path d="M270.05,195.57Q271,248,271,300.43q0,52.17-.8,104.33-.48,29.43-1.22,58.85c-.05,1.93,2.95,1.93,3,0q1.32-52.42,1.79-104.86.45-52.17,0-104.33-.24-29.43-.75-58.85c0-1.93-3-1.94-3,0Z" transform="translate(-115.38 -2.51)"/><path d="M287,195.45c.46,35.13.92,70.25,1,105.37s-.08,70.24-.94,105.35q-.74,29.55-2.15,59.09c-.09,1.93,2.91,1.92,3,0,1.71-35.08,2.58-70.19,2.93-105.3s.18-70.25-.18-105.37q-.3-29.57-.71-59.14c0-1.93-3-1.93-3,0Z" transform="translate(-115.38 -2.51)"/><path d="M303,197.1q.77,52.36,1.32,104.74.48,51.92.33,103.84-.12,29.57-.54,59.14c0,1.93,3,1.93,3,0q.76-52.36.57-104.74-.15-51.93-.86-103.84-.37-29.56-.82-59.14a1.5,1.5,0,0,0-3,0Z" transform="translate(-115.38 -2.51)"/><path d="M317.9,200.75l.83,101.79c.28,33.86.84,67.74.4,101.61-.25,19-.89,38-2.25,56.88-.13,1.93,2.87,1.92,3,0,2.43-33.75,2.53-67.6,2.31-101.42s-.55-67.82-.83-101.74l-.46-57.12a1.5,1.5,0,0,0-3,0Z" transform="translate(-115.38 -2.51)"/><path d="M335.4,208c2.6,31.87,2.43,63.87,2.3,95.82l-.37,96.46-.22,54a1.5,1.5,0,0,0,3,0l.38-96.46c.13-32.07.55-64.16.17-96.22-.21-17.88-.81-35.76-2.26-53.58-.16-1.91-3.16-1.93-3,0Z" transform="translate(-115.38 -2.51)"/><path d="M352.84,217.33l-.62,89.42-.62,89.07L351.26,446a1.5,1.5,0,0,0,3,0l.61-89.31.62-89.09.35-50.23a1.5,1.5,0,0,0-3,0Z" transform="translate(-115.38 -2.51)"/><path d="M369.8,230.81q.33,39.3.43,78.61t-.07,78.37q-.09,22.08-.25,44.17a1.5,1.5,0,0,0,3,0q.29-39.3.34-78.61T373.1,275q-.11-22.1-.3-44.17a1.5,1.5,0,0,0-3,0Z" transform="translate(-115.38 -2.51)"/><path d="M384,243.25q.17,34.32.15,68.65T384,380.31q-.09,19.35-.25,38.7a1.5,1.5,0,0,0,3,0q.27-34.32.37-68.66t0-68.41q0-19.33-.13-38.69a1.5,1.5,0,0,0-3,0Z" transform="translate(-115.38 -2.51)"/><path d="M397.27,261.91q.47,25.86,1,51.73.53,25.51,1,51,.29,14.76.55,29.52c0,1.93,3,1.94,3,0q-.45-25.86-1-51.73-.51-25.51-1-51-.29-14.76-.55-29.52c0-1.93-3-1.94-3,0Z" transform="translate(-115.38 -2.51)"/></g></g><g id="Channels"><path class="cls-5" d="M504.55,280.8a696.78,696.78,0,0,1-.41-70.51c.12-2.68.34-5.58,2.09-7.62s4.8-2.72,7.56-3.16a225.33,225.33,0,0,1,60.83-1.26c2.55.3,5.24.7,7.22,2.34,3.08,2.57,3.32,7.14,3.32,11.15l-.09,70.93-.15,129.78c0,18.53,0,37.08-1.51,55.55a4.48,4.48,0,0,1-.64,2.37c-.81,1.08-2.35,1.2-3.7,1.23L509.42,473c-1.73,0-3.57,0-5-.88-2.58-1.63-2.81-5.24-2.76-8.29l3.21-183Z" transform="translate(-115.38 -2.51)"/><path d="M506.05,280.8q-1.94-34.4-.48-68.87c.1-2.34,0-5,1-7.11s3.14-2.94,5.28-3.43a124.94,124.94,0,0,1,16.24-2.17,225.55,225.55,0,0,1,33.69-.57q4.27.24,8.54.65a48.37,48.37,0,0,1,7.48,1,6.71,6.71,0,0,1,4.8,3.89,16.1,16.1,0,0,1,1,6c.28,11.24,0,22.53,0,33.77q0,34.43-.08,68.85l-.08,69c0,22.93.32,45.9-.55,68.82-.22,5.79-.42,11.63-1,17.4-.1,1-.28,1.73-1.37,2a19.21,19.21,0,0,1-3.94.17l-8.5.17-34.55.68-17.55.35c-2.7.05-5.42.23-8.11.13-2.23-.08-3.78-1-4.38-3.21a23.52,23.52,0,0,1-.35-6.65l.16-8.77.29-17,1.21-69,1.21-69,.3-17a1.55,1.55,0,0,0-1.5-1.5l-.28,0c-1.92-.19-1.91,2.81,0,3l.28,0-1.5-1.5-1.26,71.77-1.25,71.49L500.19,460c-.07,4-.84,9.53,2.43,12.63,1.73,1.64,4.09,1.9,6.36,1.88,2.89,0,5.78-.12,8.66-.17l35.92-.71,17.83-.35c2.86-.06,5.77.05,8.62-.2,2.19-.19,4.11-1.12,4.69-3.41.64-2.57.51-5.52.67-8.16.19-3,.34-6,.47-9,.24-5.9.38-11.8.46-17.7.17-11.92.13-23.85.14-35.77l.08-71.73.09-71.37q0-17.87,0-35.73c0-2.95,0-5.9,0-8.85a27.37,27.37,0,0,0-.6-6.32c-1.15-4.73-4.65-7.26-9.33-8A157.21,157.21,0,0,0,560,195.55q-8.69-.44-17.4-.19t-17.62,1.18q-4.18.45-8.36,1.05a35.24,35.24,0,0,0-7.5,1.5,8.94,8.94,0,0,0-5.05,4.22,16.33,16.33,0,0,0-1.36,6.56c-.3,6-.46,11.94-.58,17.91q-.36,17.78.2,35.54.27,8.74.77,17.48C503.15,282.72,506.15,282.73,506.05,280.8Z" transform="translate(-115.38 -2.51)"/><path d="M543.93,208.76a80.39,80.39,0,0,1,29.54.52c1.88.38,2.69-2.51.8-2.89a84.48,84.48,0,0,0-31.14-.53c-1.9.33-1.09,3.22.8,2.9Z" transform="translate(-115.38 -2.51)"/><path d="M542.1,219a185,185,0,0,0,19.49-2.31c1.9-.33,1.09-3.22-.8-2.89A180.38,180.38,0,0,1,542.1,216c-1.92.13-1.93,3.13,0,3Z" transform="translate(-115.38 -2.51)"/><path d="M543.49,228.3l30.81-.39a1.5,1.5,0,0,0,0-3l-30.81.39c-1.93,0-1.93,3,0,3Z" transform="translate(-115.38 -2.51)"/><path d="M543,237a98.65,98.65,0,0,0,19-1.19,1.5,1.5,0,1,0-.79-2.89A94.47,94.47,0,0,1,543,234c-1.93-.07-1.92,2.93,0,3Z" transform="translate(-115.38 -2.51)"/><path d="M544,245.44h31.27a1.5,1.5,0,0,0,0-3H544a1.5,1.5,0,0,0,0,3Z" transform="translate(-115.38 -2.51)"/><path d="M542.09,256.18q10.47-1.1,21-1.42c1.92-.06,1.93-3.06,0-3q-10.53.33-21,1.42a1.55,1.55,0,0,0-1.5,1.5,1.5,1.5,0,0,0,1.5,1.5Z" transform="translate(-115.38 -2.51)"/><path d="M543,263.59q15.16.44,30.34-.34c1.92-.1,1.93-3.1,0-3q-15.17.78-30.34.34c-1.94-.06-1.93,2.94,0,3Z" transform="translate(-115.38 -2.51)"/><path d="M543,272.05h19.61a1.5,1.5,0,0,0,0-3H543a1.5,1.5,0,0,0,0,3Z" transform="translate(-115.38 -2.51)"/><path d="M543.52,280.56q15.38,1.23,30.75,2.58c1.92.16,1.91-2.84,0-3q-15.37-1.35-30.75-2.58c-1.93-.16-1.92,2.84,0,3Z" transform="translate(-115.38 -2.51)"/><path d="M543,289.39a76.34,76.34,0,0,1,17.8.85,1.55,1.55,0,0,0,1.84-1.05,1.51,1.51,0,0,0-1-1.85,79.8,79.8,0,0,0-18.59-.95c-1.92.13-1.93,3.13,0,3Z" transform="translate(-115.38 -2.51)"/><path d="M542.09,298.19h32.68a1.5,1.5,0,0,0,0-3H542.09a1.5,1.5,0,0,0,0,3Z" transform="translate(-115.38 -2.51)"/><path d="M542.76,307.59a127.53,127.53,0,0,1,19.31,1.76c1.89.32,2.7-2.57.8-2.89a134.28,134.28,0,0,0-20.11-1.87c-1.93,0-1.93,3,0,3Z" transform="translate(-115.38 -2.51)"/><path d="M542.28,316.9a160.79,160.79,0,0,1,31.84,1.63c1.88.29,2.7-2.6.79-2.89a165,165,0,0,0-32.63-1.74c-1.92.1-1.93,3.1,0,3Z" transform="translate(-115.38 -2.51)"/><path d="M543.24,326.49h19.27a1.5,1.5,0,0,0,0-3H543.24a1.5,1.5,0,0,0,0,3Z" transform="translate(-115.38 -2.51)"/><path d="M541.8,335.29l32.27-.69c1.93,0,1.94-3,0-3l-32.27.69c-1.93,0-1.94,3,0,3Z" transform="translate(-115.38 -2.51)"/><path d="M543.73,344.93l16.86-.62c1.92-.07,1.93-3.07,0-3l-16.86.62c-1.93.08-1.94,3.08,0,3Z" transform="translate(-115.38 -2.51)"/><path d="M542.28,352.58l32.76-.69c1.92,0,1.93-3,0-3l-32.76.69c-1.93,0-1.94,3,0,3Z" transform="translate(-115.38 -2.51)"/><path d="M542.28,362.15a83.73,83.73,0,0,0,20.59-1.7c1.89-.39,1.09-3.28-.8-2.89a80.66,80.66,0,0,1-19.79,1.59c-1.93-.09-1.93,2.91,0,3Z" transform="translate(-115.38 -2.51)"/><path d="M543.26,371.13a171.19,171.19,0,0,0,33.19-.17c1.9-.2,1.92-3.2,0-3a171.19,171.19,0,0,1-33.19.17c-1.93-.18-1.91,2.82,0,3Z" transform="translate(-115.38 -2.51)"/><path d="M542.28,379.59l21.67-.47c1.93,0,1.93-3,0-3l-21.67.47c-1.93,0-1.94,3,0,3Z" transform="translate(-115.38 -2.51)"/><path d="M544.2,388.64H575a1.5,1.5,0,0,0,0-3H544.2a1.5,1.5,0,0,0,0,3Z" transform="translate(-115.38 -2.51)"/><path d="M543.25,398.19a187.08,187.08,0,0,0,20.23.56c1.92-.06,1.93-3.06,0-3a187.08,187.08,0,0,1-20.23-.56c-1.93-.15-1.92,2.85,0,3Z" transform="translate(-115.38 -2.51)"/><path d="M542.28,406.49q16.14.12,32.27-.64c1.92-.09,1.93-3.1,0-3q-16.12.76-32.27.64a1.5,1.5,0,0,0,0,3Z" transform="translate(-115.38 -2.51)"/><path d="M542.76,417.53a101.56,101.56,0,0,0,20.61-1.17,1.5,1.5,0,0,0,1-1.84,1.53,1.53,0,0,0-1.84-1,98.75,98.75,0,0,1-19.81,1.06c-1.93-.09-1.93,2.91,0,3Z" transform="translate(-115.38 -2.51)"/><path d="M542.76,424.79l32.28.63c1.93,0,1.93-3,0-3l-32.28-.63c-1.93,0-1.93,3,0,3Z" transform="translate(-115.38 -2.51)"/><path d="M543.24,435a136.73,136.73,0,0,0,20.12-1.31,1.52,1.52,0,0,0,1-1.85,1.55,1.55,0,0,0-1.85-1.05A130,130,0,0,1,543.24,432a1.5,1.5,0,0,0,0,3Z" transform="translate(-115.38 -2.51)"/><path d="M542.45,442.25a51.76,51.76,0,0,0,7.64,1.24c2.69.18,5.4,0,8.1-.05l16.37-.52c1.92-.06,1.93-3.06,0-3l-15.88.5c-2.55.09-5.1.22-7.65.12a44.7,44.7,0,0,1-7.79-1.18c-1.88-.41-2.68,2.48-.79,2.89Z" transform="translate(-115.38 -2.51)"/><path d="M543.24,452.24h19.27a1.5,1.5,0,0,0,0-3H543.24a1.5,1.5,0,0,0,0,3Z" transform="translate(-115.38 -2.51)"/><path d="M541.32,461.08l33.24-.67c1.93,0,1.93-3,0-3l-33.24.67c-1.93,0-1.94,3,0,3Z" transform="translate(-115.38 -2.51)"/><path class="cls-6" d="M505.36,254.24l32.14.73a29.91,29.91,0,0,0,5-.16c1.28-.17,2.53-.51,3.79-.74a44.55,44.55,0,0,1,7.48-.57q15.11-.24,30.2.77c.24,2.21.42,4.43.52,6.65a3.18,3.18,0,0,1-.55,2.39A3.14,3.14,0,0,1,582,264c-21,2.65-42.25.66-63.34,2-4,.25-8,.62-11.94,0a4.11,4.11,0,0,1-2.56-1.11,4.44,4.44,0,0,1-.69-3l.1-6.94Z" transform="translate(-115.38 -2.51)"/><path d="M505.36,255.74l31.15.71a36.08,36.08,0,0,0,7.12-.31,56.52,56.52,0,0,1,7.33-1.06c5.14-.23,10.31-.16,15.45-.06q8.79.15,17.57.75l-1.5-1.5c.17,1.58.31,3.16.42,4.75,0,.63.08,1.26.1,1.9s.16,1.31-.67,1.53a28,28,0,0,1-4.2.5c-1.62.16-3.25.3-4.89.41-6.36.46-12.75.59-19.13.62-12.78.06-25.52-.08-38.28.68-1.75.11-3.51.19-5.27.14-1.43,0-3.45.07-4.77-.6s-.78-2.52-.76-3.6l.08-5.7-1.1,1.44,1.75-.66c1.78-.67,1-3.57-.8-2.89l-1.75.66a1.55,1.55,0,0,0-1.1,1.45l-.08,5.45a11.46,11.46,0,0,0,.36,4.33c1.16,3,5,3,7.7,3.11,3.52.14,7.05-.24,10.57-.42s7-.29,10.57-.35c14.33-.22,28.69.37,43-.73q2.94-.23,5.87-.55c1.52-.17,3.42-.12,4.66-1.16s1.3-2.62,1.23-4.14c-.1-2.06-.28-4.12-.5-6.17a1.55,1.55,0,0,0-1.5-1.5c-10.36-.69-20.76-1-31.14-.75a42,42,0,0,0-7.17.65,34.75,34.75,0,0,1-7.26.82c-5.17-.08-10.33-.24-15.5-.35l-17.55-.4C503.43,252.69,503.43,255.69,505.36,255.74Z" transform="translate(-115.38 -2.51)"/></g></svg>