<svg id="Calque_1" data-name="Calque 1" xmlns="http://www.w3.org/2000/svg" width="198.77" height="180.95" viewBox="0 0 198.77 180.95"><defs><style>.cls-1{fill:#fcef06;}</style></defs><g id="V1"><path class="cls-1" d="M36.9,154.27l-14.53-11c-2.36-1.79-2.68-2.53-6.28.86-3,2.81-6,5.64-9,8.49-2.31,2.19-4.95,5-4.79,7.26l1-.51A400.79,400.79,0,0,1,30.9,188.74c39.37-38,76.27-74.45,111.3-109.08l23.61-23.34c11.6-11.46,23-22.78,32.32-34.27A353.84,353.84,0,0,0,160.25,11a4.86,4.86,0,0,0-2.66,0,7.4,7.4,0,0,0-2.88,1.93L19.33,141.05" transform="translate(-0.83 -9.28)"/><path d="M37.66,153l-11.92-9c-2.17-1.64-4.84-4.76-7.81-3.19a24.18,24.18,0,0,0-4.7,4L7.67,150C5,152.54.76,155.81.83,159.87a1.51,1.51,0,0,0,2.25,1.3l1-.51-1.82-.24c9.7,9.31,18.86,19.16,27.59,29.38a1.51,1.51,0,0,0,2.12,0q33.61-32.42,66.86-65.21Q131,92.91,163.09,61.12c12.42-12.27,25.1-24.41,36.1-38a1.53,1.53,0,0,0-.66-2.51q-11.25-4-22.72-7.19-5.73-1.61-11.5-3a42.85,42.85,0,0,0-4.75-1.06,6.19,6.19,0,0,0-4.76,1.47c-2.69,2.11-5.07,4.71-7.55,7.06l-8.05,7.62L123.55,40.3,57.43,102.91,18.27,140c-1.4,1.33.72,3.45,2.12,2.12L87.86,78.23,151.3,18.16q2.14-2.06,4.31-4.09a7.68,7.68,0,0,1,2-1.55,4,4,0,0,1,2.7,0c4.15,1,8.28,2,12.39,3.14q12.66,3.45,25,7.84L197.07,21c-9.78,12.09-20.92,23-32,33.92L132.48,87.16q-32.08,31.71-64.3,63.28-19.11,18.69-38.34,37.24H32C23.23,177.46,14.07,167.6,4.37,158.3a1.54,1.54,0,0,0-1.82-.23l-1,.51,2.26,1.29c0-1.59,1.31-3,2.32-4.15,1.32-1.44,2.77-2.76,4.18-4.1l5-4.75a21.51,21.51,0,0,1,4.1-3.53c.26-.13.25-.12.29-.11a4.67,4.67,0,0,1,1.12.75l4.68,3.55,10.6,8c1.54,1.17,3-1.43,1.52-2.59Z" transform="translate(-0.83 -9.28)"/><path class="cls-1" d="M28.7,132a77.93,77.93,0,0,1,10.91,8.58" transform="translate(-0.83 -9.28)"/><path d="M27.94,133.33a75.54,75.54,0,0,1,10.6,8.34,1.5,1.5,0,1,0,2.13-2.12,79.57,79.57,0,0,0-11.22-8.81,1.51,1.51,0,0,0-2.05.53,1.54,1.54,0,0,0,.54,2.06Z" transform="translate(-0.83 -9.28)"/><path class="cls-1" d="M37.58,124,48,132" transform="translate(-0.83 -9.28)"/><path d="M36.83,125.32l10.37,7.93a1.52,1.52,0,0,0,2.06-.54,1.54,1.54,0,0,0-.54-2.05l-10.38-7.93a1.51,1.51,0,0,0-2.05.54,1.53,1.53,0,0,0,.54,2Z" transform="translate(-0.83 -9.28)"/><path class="cls-1" d="M45,116.68l11,8" transform="translate(-0.83 -9.28)"/><path d="M44.24,118l11,8a1.5,1.5,0,1,0,1.52-2.59l-11.05-8A1.5,1.5,0,0,0,44.24,118Z" transform="translate(-0.83 -9.28)"/><path class="cls-1" d="M53,109.05l17.92,12.56" transform="translate(-0.83 -9.28)"/><path d="M52.22,110.34,70.13,122.9c1.58,1.11,3.08-1.49,1.51-2.59L53.73,107.75c-1.58-1.11-3.08,1.49-1.51,2.59Z" transform="translate(-0.83 -9.28)"/><path class="cls-1" d="M60.87,102.25a67.26,67.26,0,0,0,11.16,8" transform="translate(-0.83 -9.28)"/><path d="M59.81,103.31a69.17,69.17,0,0,0,11.46,8.21,1.5,1.5,0,0,0,1.52-2.59,66.31,66.31,0,0,1-10.86-7.74,1.53,1.53,0,0,0-2.12,0,1.51,1.51,0,0,0,0,2.12Z" transform="translate(-0.83 -9.28)"/><path class="cls-1" d="M68.5,94.93l11.36,6.88" transform="translate(-0.83 -9.28)"/><path d="M67.74,96.23l11.37,6.88c1.65,1,3.16-1.59,1.51-2.59L69.26,93.64c-1.66-1-3.17,1.59-1.52,2.59Z" transform="translate(-0.83 -9.28)"/><path class="cls-1" d="M76.32,87.44,88,93.65" transform="translate(-0.83 -9.28)"/><path d="M75.57,88.74,87.24,95a1.53,1.53,0,0,0,2.05-.54,1.51,1.51,0,0,0-.54-2L77.08,86.15a1.53,1.53,0,0,0-2,.54,1.51,1.51,0,0,0,.54,2Z" transform="translate(-0.83 -9.28)"/><path class="cls-1" d="M84.4,79.71l17.44,10.22" transform="translate(-0.83 -9.28)"/><path d="M83.65,81l17.43,10.23a1.5,1.5,0,0,0,1.52-2.59L85.16,78.41A1.5,1.5,0,0,0,83.65,81Z" transform="translate(-0.83 -9.28)"/><path class="cls-1" d="M91.56,73.1l11.06,5.58" transform="translate(-0.83 -9.28)"/><path d="M90.8,74.39,101.86,80a1.54,1.54,0,0,0,2-.54,1.51,1.51,0,0,0-.54-2L92.32,71.8a1.55,1.55,0,0,0-2.06.54,1.52,1.52,0,0,0,.54,2Z" transform="translate(-0.83 -9.28)"/><path class="cls-1" d="M98.43,66l13,6.19" transform="translate(-0.83 -9.28)"/><path d="M97.67,67.33l13,6.19a1.54,1.54,0,0,0,2-.54,1.51,1.51,0,0,0-.54-2l-13-6.19a1.55,1.55,0,0,0-2.06.53,1.53,1.53,0,0,0,.54,2.06Z" transform="translate(-0.83 -9.28)"/><path class="cls-1" d="M107.62,58.69q5.17,2.93,10.15,6.33" transform="translate(-0.83 -9.28)"/><path d="M106.86,60q5.2,2.94,10.16,6.32a1.51,1.51,0,0,0,2-.54,1.53,1.53,0,0,0-.54-2q-4.95-3.37-10.15-6.32A1.5,1.5,0,1,0,106.86,60Z" transform="translate(-0.83 -9.28)"/><path class="cls-1" d="M113.94,51.91l18,8.89" transform="translate(-0.83 -9.28)"/><path d="M113.18,53.2l18,8.89c1.72.86,3.24-1.73,1.51-2.59l-18-8.89c-1.73-.85-3.25,1.74-1.52,2.59Z" transform="translate(-0.83 -9.28)"/><path class="cls-1" d="M122.48,44.22q4.71,2.78,9.29,5.93" transform="translate(-0.83 -9.28)"/><path d="M121.72,45.52q4.75,2.79,9.29,5.92a1.5,1.5,0,0,0,2.05-.54,1.52,1.52,0,0,0-.54-2q-4.53-3.12-9.28-5.92a1.5,1.5,0,1,0-1.52,2.59Z" transform="translate(-0.83 -9.28)"/><path class="cls-1" d="M128.18,39c4.15.83,8.25,1.8,12.31,2.94" transform="translate(-0.83 -9.28)"/><path d="M127.78,40.46q6.21,1.23,12.31,2.93a1.5,1.5,0,0,0,.8-2.89q-6.1-1.7-12.31-2.93a1.54,1.54,0,0,0-1.85,1,1.52,1.52,0,0,0,1,1.85Z" transform="translate(-0.83 -9.28)"/><path class="cls-1" d="M136.29,31.16c3.57,1.4,5.71,4.08,9.45,5.5" transform="translate(-0.83 -9.28)"/><path d="M135.89,32.6l.15.06c-.1,0-.1,0,0,0l.28.13q.3.14.6.3.61.31,1.2.69c.75.47,1.48,1,2.2,1.5a23.24,23.24,0,0,0,5,2.82,1.5,1.5,0,0,0,1.85-1.05,1.54,1.54,0,0,0-1.05-1.84s-.37-.15-.27-.1-.15-.07-.18-.09q-.31-.14-.63-.3c-.42-.21-.84-.45-1.24-.7-.76-.46-1.5-1-2.23-1.5a23.84,23.84,0,0,0-4.9-2.81,1.5,1.5,0,0,0-1.84,1.05,1.53,1.53,0,0,0,1,1.84Z" transform="translate(-0.83 -9.28)"/><path class="cls-1" d="M142.16,24.87l21.28,5.64" transform="translate(-0.83 -9.28)"/><path d="M141.77,26.32,163,32a1.51,1.51,0,0,0,.8-2.9l-21.28-5.63a1.5,1.5,0,0,0-.79,2.89Z" transform="translate(-0.83 -9.28)"/></g></svg>