<svg id="Calque_1" data-name="Calque 1" xmlns="http://www.w3.org/2000/svg" width="575.03" height="477.63" viewBox="0 0 575.03 477.63"><defs><style>.cls-1{fill:#a5836b;}.cls-2{fill:#bf977c;}.cls-3{fill:#d8a988;}</style></defs><g id="Shelf"><path class="cls-1" d="M49.19,267.73A1008.34,1008.34,0,0,1,62.39,125.8c1-6.22,2.23-12.72,5.45-17.37,4.94-7.12,13-7.83,20.23-8.06,111-3.43,222-5.13,332.9-.7,30,1.2,60.3,2.91,89.13,14a29.48,29.48,0,0,1,9.67,5.4c3.31,3,5.8,7.43,8,12,13.8,28.8,16.89,64.36,18.61,98.57,2.3,45.61,2.52,93.28-11.83,134.71-4.13,11.94-9.66,23.47-17.77,30.84s-18.08,9.91-27.75,12C395.52,427.57,300.17,422.83,205.55,418c-13.7-.69-27.43-1.39-41-4.3-10.46-2.24-20.8-5.81-31.38-6.38-16.35-.88-33.11,5.37-48.85-.62C66.55,400,53.44,378,48.47,354s-2.82-49.78,2-73.87Z" transform="translate(-12.42 -11.6)"/><path d="M50.69,267.73q.89-38.93,4.71-77.71,1.93-19.46,4.63-38.84,1.34-9.63,2.87-19.23c.9-5.69,1.6-11.55,3.45-17,1.74-5.17,5-9.42,10.19-11.35,4.62-1.7,9.66-1.65,14.52-1.8q19.86-.6,39.74-1.13,39.25-1,78.51-1.63c52.33-.74,104.69-.75,157,.44,25.56.59,51.18,1.13,76.7,2.81a292.8,292.8,0,0,1,37.11,4.51c5.92,1.15,11.79,2.57,17.57,4.29s11.76,3.47,17,6.33c5.48,3,8.65,8.18,11.32,13.62a131.08,131.08,0,0,1,6.52,16,202.39,202.39,0,0,1,7.77,33c3.73,23.77,4.75,48.05,5.42,72.08.67,24.22.3,48.63-3.3,72.64A226,226,0,0,1,534.73,359c-3.4,10.78-7.6,21.94-14.86,30.77-7.08,8.6-16.86,12.67-27.44,15.18-12.31,2.92-24.8,5.15-37.29,7.11a713.88,713.88,0,0,1-76.54,7.57c-50.91,2.45-101.9.48-152.77-2-12.81-.63-25.65-1.08-38.44-2.13A185.55,185.55,0,0,1,168.3,413c-6.08-1.15-12-2.81-18-4.26a91,91,0,0,0-18-2.88A129.89,129.89,0,0,0,114,406.93c-11.32,1.19-23.16,2.08-33.5-3.62C63.11,393.72,53.91,372.54,50,354a149.32,149.32,0,0,1-2.71-36.91c.26-6.23.82-12.45,1.61-18.63q.57-4.43,1.31-8.83c.5-3,1.5-6.24,1.68-9.3a41.11,41.11,0,0,0-.56-6.15l-.64-6.43c-.19-1.9-3.19-1.92-3,0l.71,7.16.39,4a15.66,15.66,0,0,1-.52,4.49,232.19,232.19,0,0,0-4.09,37.47c-.48,22.42,3.11,45.88,15.13,65.22,4.83,7.77,11.13,15,19.15,19.56,10.09,5.78,21.59,5.73,32.83,4.62,6.08-.6,12.16-1.4,18.28-1.43a80.73,80.73,0,0,1,19,2.59c6.47,1.54,12.87,3.36,19.42,4.57,6.11,1.14,12.28,1.87,18.47,2.41,13.1,1.12,26.26,1.56,39.39,2.21s26.11,1.25,39.17,1.75c26.26,1,52.55,1.63,78.84,1.3s52.48-1.6,78.59-4.34q19.21-2,38.3-5.14c12.38-2,25-4.09,37.09-7.52,10.39-2.94,19.32-8.18,25.84-16.91s10.67-19.5,14-30c7.34-23.3,10.23-47.82,11.1-72.16.89-24.67-.11-49.46-1.81-74.07-1.64-23.77-4.44-47.92-12.56-70.45a125.52,125.52,0,0,0-6.5-15.13c-2.54-4.92-5.7-9.53-10.49-12.47-5-3.08-11-4.86-16.62-6.6a182.42,182.42,0,0,0-18-4.61c-24.86-5.1-50.41-5.71-75.69-6.6-53.8-1.91-107.64-2.41-161.48-2q-40.5.3-81,1.2-20.37.45-40.74,1c-12.91.35-25.89.36-38.77,1.18-4.39.28-8.91,1-12.76,3.25A20.33,20.33,0,0,0,63.87,113c-2.14,5.63-2.84,11.78-3.79,17.7q-1.57,9.84-2.95,19.72-5.41,38.91-7.81,78.16-1.2,19.57-1.63,39.18C47.65,269.66,50.65,269.66,50.69,267.73Z" transform="translate(-12.42 -11.6)"/><path class="cls-2" d="M77.28,32.05l-3.41,318.6c-.06,5.27-.12,10.61-1.17,15.69-1.28,6.25-4,11.77-6.64,17.18q-23.13,47-46.25,94c-4-4.59-4.19-12.63-4.09-19.68q1.76-121.59,3.5-243.19c.52-36.39,1.44-74.72,15.47-105.83,11.79-26.14,32-45,40.49-73.33Z" transform="translate(-12.42 -11.6)"/><path d="M75.78,32.05l-1,89.44-1,89.88-1,89.44-.48,44.94c-.08,7.12.22,14.44-1.43,21.41-1.62,6.78-4.94,13-8,19.18q-19.8,40.23-39.59,80.44l-4.9,10,2.36-.3c-4.08-5-3.72-12.58-3.65-18.62.1-8.14.24-16.27.35-24.41l.71-49.26q.7-49.48,1.42-99c.46-31.88.4-63.81,1.59-95.68C22.35,160.87,25.11,131,38.17,105,44,93.28,51.68,82.62,58.81,71.68a197,197,0,0,0,10.07-17c3.05-5.89,5.16-12,7.53-18.13a23.37,23.37,0,0,1,2.17-3.78c1-1.65-1.58-3.16-2.59-1.51-.69,1.12-1.54,2.23-2.11,3.41-1.46,3-2.19,6.6-3.49,9.75a135.33,135.33,0,0,1-9.3,18c-6.86,11.34-14.8,22-21.43,33.48-14.51,25.14-19.15,53.79-20.84,82.41-.91,15.33-1,30.7-1.24,46.06l-.72,50.15q-.73,50.37-1.45,100.74l-.72,50.14-.36,24.85c-.1,6.92-.74,14.21.91,21a17.72,17.72,0,0,0,3.51,7.29,1.5,1.5,0,0,0,2.35-.31Q41,437.84,60.89,397.42C67,385.08,74.23,373,75.13,359c.47-7.35.31-14.76.39-22.12l.24-22.7,1-90.33,1-90.32,1-90.33.12-11.13A1.5,1.5,0,0,0,75.78,32.05Z" transform="translate(-12.42 -11.6)"/><path class="cls-3" d="M574.46,22.23A471.85,471.85,0,0,1,476,15.14c-6.15-1.09-12.33-2.31-18.53-2.06-5.43.21-10.79,1.55-16.16,2.68-24.94,5.23-50.26,5.9-75.49,6.56L87.37,29.65c-3.46.09-7,.22-10.2,2.13s-5.75,5.66-8.09,9.29a457.45,457.45,0,0,0-45.41,92.54l239.11.5,26.92,0c10.54,0,21.08.05,31.62,0,10-.06,20.08-.2,30.12-.34l40.33-.57c37.68-.53,75.36-1.06,113-2,3.44-.09,6.94-.2,10.17-1.77,3.82-1.87,6.95-5.64,9.88-9.44,21.49-27.86,38.38-62.13,49.09-99.64Z" transform="translate(-12.42 -11.6)"/><path d="M574.46,20.73a473.92,473.92,0,0,1-61.1-2q-15.62-1.51-31.1-4.07c-9.54-1.58-19.11-4-28.84-2.77-10.09,1.26-20,4-30.08,5.36s-20.18,2.1-30.31,2.6c-20.61,1-41.25,1.3-61.87,1.85L205.69,25,143,26.69l-31.37.83-16,.42c-4.45.11-9-.07-13.44.59-8.59,1.28-12.77,9.13-17,15.84Q57.68,56.33,51,68.76a469.6,469.6,0,0,0-23.71,51.1q-2.62,6.63-5,13.35a1.51,1.51,0,0,0,1.45,1.9l126.14.26,125.89.26c41.63.09,83.23-.44,124.85-1q31.54-.45,63.1-1,15.64-.29,31.28-.65c8.82-.2,18.41.94,25.39-5.47,6.15-5.66,11-13.38,15.59-20.28q7.35-11,13.63-22.57a313.9,313.9,0,0,0,21.62-50.18c1.51-4.53,2.91-9.09,4.23-13.68H572.5l.52,1.85a1.5,1.5,0,0,0,2.89-.8L575.39,20a1.51,1.51,0,0,0-2.89,0c-9.91,34.49-25.23,67.64-46.77,96.43-2.74,3.66-5.54,7.72-9.3,10.42-4.23,3-9.4,2.84-14.37,3q-15.36.39-30.73.68-31,.6-62,1c-41,.59-81.9,1.26-122.86,1.18L163,132.4,39,132.14l-15.35,0L25.11,134A479,479,0,0,1,47.62,81.64q6.2-12.27,13.14-24.16,3.42-5.85,7-11.59c2.35-3.75,4.61-7.89,7.82-11,3.76-3.62,8.5-3.67,13.41-3.8l15.41-.41,30.82-.81,61.63-1.62L320.15,25c20.56-.54,41.12-1,61.68-1.67,19.7-.68,39.48-2,58.83-5.94,4.9-1,9.79-2.28,14.79-2.71a59.69,59.69,0,0,1,15,1c9.65,1.62,19.27,3.3,29,4.54a471.83,471.83,0,0,0,60,3.76q7.5,0,15-.25C576.39,23.66,576.4,20.66,574.46,20.73Z" transform="translate(-12.42 -11.6)"/><path class="cls-2" d="M169.09,480.2c55.46,5.39,111.19-9.13,166.66-3.81,24.6,2.37,49,8.63,73.7,8.31,21.56-.27,43.28-5.58,64.57-1,7.27,1.58,20,3.92,27.35,4,25.84.17,20.94-17.53,36-45.83,6.19-11.62,24.82-36.9,31-48.52,3.73-7,13.67-17,9-22.91-2.77-3.51-7.42-3.11-11.21-2.63-98,12.36-196.61,2.3-294.86-4.93-30.06-2.22-60.45-4.14-90,3.33-8,2-16,4.74-24.11,5.43-6.14.52-12.31-.12-18.45-.76l-50.13-5.21c-4.06-.42-8.28-.82-12.09,1.16-4.49,2.33-7.72,7.59-10.71,12.67Q38.5,425.73,13.89,474.62q77,.44,153.93,7.53Z" transform="translate(-12.42 -11.6)"/><path d="M169.09,481.7c40.3,3.82,80.47-2.64,120.69-4.52a321.36,321.36,0,0,1,60.75,2.52c19.72,2.83,39.44,6.83,59.45,6.49s40.39-5.07,60.45-1.62c7.6,1.31,15.08,3.07,22.75,4,6.12.75,12.6,1.18,18.59-.61,9.64-2.88,13.34-11.81,16.51-20.51,2.41-6.61,4.75-13.23,7.76-19.59a139.76,139.76,0,0,1,9.21-16.08c7.47-11.53,15.65-22.66,22.62-34.5,3.19-5.4,7-10.49,10-16,2.64-5,3.64-11.37-2.45-14.24-3.07-1.44-6.54-1.05-9.79-.65q-7.49.93-15,1.71-15.52,1.59-31.1,2.51c-20.55,1.23-41.14,1.66-61.72,1.51-41.46-.31-82.85-2.94-124.18-6-20.59-1.52-41.18-3.16-61.77-4.68C252,360,232.05,358.59,212.15,360A180.62,180.62,0,0,0,183,364.26c-10,2.37-19.76,6-30.16,6.08-10.08.07-20.25-1.58-30.26-2.63l-31.19-3.24c-4.29-.45-8.81-1.21-13,0-3.67,1.07-6.5,3.62-8.81,6.58-5.59,7.12-9.73,15.63-14.23,23.46q-15.11,26.28-29.2,53.12-6.85,13-13.48,26.2a1.51,1.51,0,0,0,1.29,2.25q60,.36,120,4.72,17,1.25,34,2.81a1.48,1.48,0,0,0,1.29-.75l1.27-1.94c1.06-1.63-1.54-3.13-2.59-1.52l-1.27,1.95,1.3-.74q-59.8-5.5-119.88-7-17-.42-34-.52l1.3,2.26q13.22-26.25,27.35-52,7-12.78,14.26-25.43c4.57-8,8.84-16.47,14.25-23.94,2.85-3.94,6.35-6.83,11.38-7.13,4.6-.27,9.37.65,13.94,1.13l30.08,3.13c9.93,1,20.15,2.81,30.16,2.07,9.49-.71,18.49-4,27.69-6.16,19.15-4.47,38.92-5.09,58.49-4.37,19.73.74,39.43,2.53,59.11,4,40.06,3.08,80.12,6.19,120.28,7.63s80.57,1.19,120.68-2.48q7.5-.69,15-1.53c4.19-.48,8.57-1.49,12.8-1.3,3.92.16,7.17,2.54,6.24,6.71-.71,3.24-2.81,6.2-4.63,8.91C565.28,395,559,405.82,552,416.2c-7.3,10.86-14.87,21.59-20.15,33.62-2.54,5.8-4.61,11.78-6.8,17.72-1.62,4.4-3.33,9.12-6.46,12.71-8,9.11-23.22,5.88-33.54,4.11-8-1.37-15.77-3.34-23.87-3.82-9.7-.56-19.42.29-29.08,1.17-9.9.89-19.79,1.75-29.74,1.41A264.07,264.07,0,0,1,372.43,480c-19.23-2.87-38.27-6-57.76-6.29-39.1-.66-77.86,6-116.93,6.18-9.57,0-19.13-.32-28.65-1.22C167.17,478.52,167.18,481.52,169.09,481.7Z" transform="translate(-12.42 -11.6)"/><path class="cls-3" d="M585.89,371.8l-4-75.65L578,221.49c-.82-15.54-1.65-31.07-2.36-46.62q-3.54-76.68-3.65-153.55-24.23,40.89-45.15,85.07c-3.87,8.17-7.7,16.56-9.66,25.9-4.07,19.44.44,40,1.42,60.18,1.18,24.19-2.8,48.51-1,72.63.73,9.74,2.39,19.31,3.37,29,1.54,15.22,1.38,30.66,1.21,46l-1.46,137.09q14.45-26.45,28.88-52.88c10.05-18.41,20.4-37.2,34.5-49.89Z" transform="translate(-12.42 -11.6)"/><path d="M587.39,371.8l-7.22-136.65c-2.41-45.51-4.66-91-5.75-136.56q-.93-38.62-1-77.27a1.52,1.52,0,0,0-2.8-.76q-23.07,39-42.69,79.91c-6.13,12.78-12.11,25.51-13.53,39.79-1.51,15.12,1,30.24,2.18,45.28,1.23,15.33.34,30.61-.42,45.93s-.77,30.62,1.19,46c1,7.75,2.07,15.48,2.63,23.28s.72,15.33.74,23c.06,15.61-.25,31.22-.42,46.82l-1,94.87-.12,11.81A1.51,1.51,0,0,0,522,478q13.15-24.06,26.3-48.14c7.8-14.28,15.38-28.91,25.39-41.82a101,101,0,0,1,8.53-9.73,38.83,38.83,0,0,0,5-5.73c1.1-1.59-1.5-3.09-2.59-1.51a32.25,32.25,0,0,1-4.27,4.86,98.89,98.89,0,0,0-7.73,8.64,173.75,173.75,0,0,0-13.23,19.37c-8.89,14.8-16.84,30.18-25.11,45.32l-14.88,27.23,2.8.76,1-94q.26-23.55.51-47.11c.14-15.2.11-30.43-1.64-45.55-.88-7.62-2.08-15.2-2.77-22.84a200.29,200.29,0,0,1-.62-23c.37-15.38,1.83-30.72,1.59-46.1-.23-15-2.81-29.79-3.24-44.76a89.52,89.52,0,0,1,1.84-22.45,104.48,104.48,0,0,1,7.37-20.33C538.71,84,552.69,57.54,567.6,31.7q2.79-4.83,5.63-9.62l-2.79-.76q.1,68.63,2.93,137.22c1.89,45.58,4.57,91.14,7,136.7l4,76.56C584.5,373.72,587.5,373.73,587.39,371.8Z" transform="translate(-12.42 -11.6)"/></g></svg>