<svg id="Calque_1" data-name="Calque 1" xmlns="http://www.w3.org/2000/svg" viewBox="0 0 576.34 481.93"><defs><style>.cls-1{fill:#a5836b;}.cls-2{fill:#bf977c;}.cls-3{fill:#d8a988;}</style></defs><g id="Shelf"><path class="cls-1" d="M550.6,267.73A1008.34,1008.34,0,0,0,537.4,125.8c-1-6.22-2.23-12.72-5.45-17.37-4.94-7.12-13-7.83-20.24-8.06-110.94-3.43-222-5.13-332.89-.7-30,1.2-60.3,2.91-89.14,14a29.54,29.54,0,0,0-9.66,5.4c-3.31,3-5.8,7.43-8,12-13.8,28.8-16.89,64.36-18.61,98.57-2.3,45.61-2.52,93.28,11.83,134.71,4.13,11.94,9.66,23.47,17.77,30.84s18.08,9.91,27.75,12c93.48,20.36,188.83,15.62,283.45,10.83,13.7-.69,27.43-1.39,41-4.3,10.46-2.24,20.8-5.81,31.38-6.38,16.35-.88,33.11,5.37,48.85-.62C533.24,400,546.35,378,551.32,354s2.82-49.78-2-73.87Z" transform="translate(-12.33 -11.72)"/><path d="M552.1,267.73q-.92-40.16-5-80.14-2-19.36-4.69-38.65-1.38-9.87-3-19.71c-.93-5.72-1.67-11.62-3.86-17a19.52,19.52,0,0,0-9-10.43c-4-2-8.46-2.61-12.86-2.83-13.24-.65-26.51-.81-39.75-1.17q-40.24-1.08-80.5-1.71c-54-.8-108-.82-162,.44-26.27.61-52.65,1.09-78.86,3a280,280,0,0,0-36.49,4.87,183.46,183.46,0,0,0-18.42,4.85c-5.5,1.78-11.57,3.55-16.37,6.88-4.47,3.12-7.39,7.77-9.8,12.56a130.77,130.77,0,0,0-6.66,15.94,196.91,196.91,0,0,0-8.18,33.7c-3.88,24.18-5,48.85-5.66,73.3s-.27,49.15,3.33,73.45a224.3,224.3,0,0,0,8.07,35.47c3.37,10.54,7.54,21.24,14.39,30.05,6.69,8.59,15.9,13.51,26.29,16.3,12.08,3.24,24.57,5.34,36.9,7.36a711.24,711.24,0,0,0,78.27,8.15c52.36,2.7,104.8.63,157.12-1.95,13-.64,26-1.07,38.9-2.23a181.29,181.29,0,0,0,19.4-2.68c6.21-1.24,12.29-3,18.45-4.43a77.87,77.87,0,0,1,19-2.36c6.43.1,12.8,1,19.19,1.6,11,1,22.15.58,31.84-5.29C539,394.9,548.31,374.49,552.43,356c5.36-24.15,3.46-49.42-1.08-73.53-.9-4.76.27-9.89.75-14.7.19-1.92-2.82-1.91-3,0l-.66,6.68c-.23,2.31-.76,4.7-.34,7a249.79,249.79,0,0,1,4.45,37.06c.76,22.56-2.46,46.19-14.46,65.73-4.82,7.82-11.17,15.07-19.39,19.42-10.79,5.71-23.1,4.34-34.77,3.12a107.14,107.14,0,0,0-17.81-.85,99.93,99.93,0,0,0-17.51,3c-6.17,1.52-12.28,3.19-18.54,4.3a195.13,195.13,0,0,1-19.58,2.36c-25.33,1.93-50.8,2.77-76.18,3.75s-50.94,1.58-76.42,1.31-50.88-1.43-76.2-3.93c-25.16-2.48-50.5-6-75.09-12-11-2.67-20.92-7.27-27.88-16.54-6.67-8.86-10.66-19.57-13.92-30.07-7.12-23-9.91-47-10.75-71s.13-48.24,1.74-72.27c1.57-23.4,4.24-47.13,12-69.4a122.67,122.67,0,0,1,6.56-15.61c2.73-5.35,6-10,11.48-12.83s11.69-4.63,17.61-6.33,12-3.12,18-4.25c24.43-4.56,49.48-5,74.25-5.89,52.31-1.8,104.66-2.29,157-1.92s104.69,1.58,157,3.19c4.75.15,9.68.19,14.15,2,5.36,2.19,8.33,6.94,9.94,12.3,1.73,5.75,2.44,11.83,3.38,17.75q1.47,9.36,2.76,18.76,5.31,38.52,7.6,77.39,1.11,18.84,1.54,37.71C549.14,269.66,552.14,269.67,552.1,267.73Z" transform="translate(-12.33 -11.72)"/><path class="cls-2" d="M522.51,32.05l3.41,318.6c.06,5.27.12,10.61,1.17,15.69,1.28,6.25,4,11.77,6.64,17.18q23.13,47,46.25,94c4-4.59,4.19-12.63,4.09-19.68q-1.76-121.59-3.5-243.19c-.52-36.39-1.44-74.72-15.47-105.83-11.79-26.14-32-45-40.49-73.33Z" transform="translate(-12.33 -11.72)"/><path d="M521,32.05l1,90.33,1,90.33,1,90.33.48,44.94c.08,6.94,0,14,1.72,20.77,1.7,6.58,4.91,12.65,7.9,18.71l39.78,80.84,4.9,9.95a1.5,1.5,0,0,0,2.35.31c3.87-4.71,4.43-11.05,4.53-16.92.13-7.92-.18-15.87-.29-23.79l-.72-50.15q-.72-50.37-1.45-100.74c-.46-32.47-.4-65-1.61-97.45-1.07-28.72-3.87-58.56-16.65-84.75-5.85-12-13.62-22.87-20.9-34-3.59-5.5-7.07-11.09-10.12-16.91-1.66-3.17-3.21-6.41-4.57-9.72-1.24-3-1.94-6.47-3.35-9.41-.57-1.18-1.42-2.29-2.11-3.41-1-1.64-3.6-.14-2.59,1.51a23.37,23.37,0,0,1,2.17,3.78c1.24,3.21,2.21,6.49,3.55,9.67a136.62,136.62,0,0,0,8.82,17.09C542.44,74.51,550.23,85,556.82,96.2a137.82,137.82,0,0,1,15.36,38.66c3.35,14.26,4.93,28.87,5.79,43.47.89,15,1,30.11,1.23,45.17l.71,49.26q.71,49.49,1.42,99L582,421l.36,24.86c.1,7.25.78,14.79-.24,22a17.18,17.18,0,0,1-3.24,8.59l2.36.3-39.39-80c-3.22-6.53-6.6-13-9.59-19.65a53.7,53.7,0,0,1-4.76-20.56c-.56-14.83-.37-29.72-.53-44.55l-1-89.44-1-89.44-1-89.88L524,32.05A1.5,1.5,0,0,0,521,32.05Z" transform="translate(-12.33 -11.72)"/><path class="cls-3" d="M25.33,22.23a471.85,471.85,0,0,0,98.45-7.09c6.15-1.09,12.33-2.31,18.53-2.06,5.43.21,10.79,1.55,16.16,2.68,24.94,5.23,50.26,5.9,75.49,6.56l278.46,7.33c3.46.09,7,.22,10.2,2.13s5.75,5.66,8.09,9.29a457.45,457.45,0,0,1,45.41,92.54l-239.11.5-26.92,0c-10.54,0-21.08.05-31.62,0-10-.06-20.08-.2-30.12-.34L208,133.23c-37.68-.53-75.36-1.06-113-2-3.43-.09-6.93-.2-10.16-1.77-3.82-1.87-6.95-5.64-9.88-9.44C53.45,92.16,36.56,57.89,25.85,20.38Z" transform="translate(-12.33 -11.72)"/><path d="M25.33,23.73a475.53,475.53,0,0,0,60-1.85Q100,20.49,114.6,18.19c9.76-1.53,19.79-4.36,29.74-3.48,5.18.45,10.23,1.79,15.32,2.82,4.9,1,9.84,1.81,14.8,2.49,9.66,1.34,19.37,2.16,29.11,2.71,20.19,1.12,40.44,1.36,60.66,1.89L387.5,27.87q61.9,1.62,123.82,3.25c4.73.13,9.26.3,12.86,3.79,3.2,3.11,5.46,7.23,7.82,11q7.26,11.53,13.76,23.52a463.88,463.88,0,0,1,23.88,51.25q2.61,6.63,5,13.34l1.44-1.89-123.94.26-123.79.25c-40.86.09-81.7-.35-122.56-.92q-31-.44-62-.95-15.65-.27-31.28-.61-7.68-.16-15.36-.36c-4.81-.12-9.74,0-13.82-3-3.75-2.7-6.55-6.76-9.3-10.42q-3.8-5.07-7.33-10.33Q59.35,95.15,53.07,83.54A309.23,309.23,0,0,1,31.36,33.19Q29.2,26.64,27.29,20a1.51,1.51,0,0,0-2.89,0l-.52,1.85a1.5,1.5,0,0,0,2.89.8l.52-1.85H24.4c10,34.71,25.38,68.16,47.07,97.14,5,6.65,10,13.53,18.82,14.54,4.81.55,9.74.39,14.57.5q8,.19,15.91.35,31.56.66,63.11,1.08c41.7.6,83.41,1.36,125.12,1.28l125.63-.27,125.59-.26,15.9,0a1.51,1.51,0,0,0,1.45-1.9A484.32,484.32,0,0,0,555.2,81q-6.27-12.51-13.33-24.62c-4.37-7.49-8.64-15.78-14.38-22.33-6.15-7-15.36-5.91-23.88-6.14l-31.36-.82-62.74-1.66L284,22.14c-20.78-.54-41.57-1-62.34-1.66-20.51-.64-41.09-1.77-61.25-5.84-9.43-1.91-18.16-3.79-27.82-2.48-10.45,1.41-20.77,3.57-31.23,4.92A470.42,470.42,0,0,1,40.34,21q-7.5,0-15-.25C23.39,20.66,23.4,23.66,25.33,23.73Z" transform="translate(-12.33 -11.72)"/><path class="cls-2" d="M430.7,480.2c-55.46,5.39-111.19-9.13-166.66-3.81-24.6,2.37-49,8.63-73.7,8.31-21.56-.27-43.28-5.58-64.57-1-7.27,1.58-20,3.92-27.35,4-25.84.17-20.94-17.53-36-45.83-6.19-11.62-24.82-36.9-31-48.52-3.73-7-13.67-17-9-22.91,2.77-3.51,7.42-3.11,11.21-2.63,98,12.36,196.61,2.3,294.86-4.93,30.05-2.22,60.45-4.14,90,3.33,8,2,16,4.74,24.11,5.43,6.14.52,12.31-.12,18.45-.76l50.13-5.21c4.06-.42,8.28-.82,12.09,1.16,4.49,2.33,7.72,7.59,10.71,12.67q27.26,46.22,51.87,95.11-77,.44-153.92,7.53Z" transform="translate(-12.33 -11.72)"/><path d="M430.7,478.7c-39,3.7-78-2.24-116.9-4.33-19.51-1-39-1-58.43,1.5-19.67,2.51-39.17,6.74-59.05,7.29-19.47.53-38.79-3.83-58.27-2.58-14.92.95-29.72,7.1-44.8,5.38-4.7-.53-9.09-2.23-12.21-5.88s-4.8-8.4-6.43-12.83c-4.39-12-8.94-23.54-15.79-34.35-7.22-11.38-15.13-22.31-22.26-33.75C33.4,394.08,30.41,389,27.1,384c-1.77-2.67-3.88-5.69-4.32-8.95-.59-4.28,3.44-6.07,7.13-6,4.37.05,8.81.95,13.15,1.43q7.48.84,15,1.51Q73,373.3,88,374c20,1,40.05,1.27,60.07,1,40.16-.52,80.25-3.12,120.29-6.11,20-1.5,40.06-3.09,60.1-4.56,19.31-1.43,38.72-2.73,58.08-1.49a175.39,175.39,0,0,1,30,4.38c9.18,2.21,18.2,5.47,27.71,6,9.85.53,19.86-1.18,29.64-2.2L504,367.93c4.53-.47,9.28-1.39,13.85-1,5,.38,8.4,3.57,11.18,7.47,5.36,7.54,9.66,16,14.25,24q14.52,25.37,28.12,51.27,6.72,12.79,13.22,25.71l1.29-2.26q-60,.36-119.94,4.72-17,1.25-34,2.81l1.3.74L432,479.44c-1.05-1.61-3.65-.11-2.59,1.52l1.27,1.94a1.48,1.48,0,0,0,1.29.75q59.8-5.5,119.88-7,17-.42,34-.52a1.51,1.51,0,0,0,1.3-2.25q-13.59-27-28.13-53.44-7.29-13.24-14.82-26.35c-4.54-7.9-8.69-16.64-14.51-23.69a17.06,17.06,0,0,0-8.72-6c-4.28-1.1-8.82-.29-13.13.16l-31.2,3.24c-10.17,1.06-20.55,2.81-30.79,2.55s-19.79-3.89-29.6-6.19c-19.23-4.49-39.09-5.19-58.75-4.49-20.47.74-40.91,2.62-61.32,4.19-41.16,3.16-82.35,6.33-123.62,7.67s-82.82.8-124-3.46c-5.12-.53-10.23-1.17-15.34-1.76-3.06-.36-6.4-.57-9.22.91-5.92,3.12-4.61,9.52-1.94,14.41,1.72,3.14,3.89,6,5.86,9,1.54,2.32,2.81,4.79,4.24,7.18,3.31,5.57,6.94,11,10.55,16.33,7.51,11.21,15.64,22.25,21.35,34.54,2.9,6.22,5.15,12.67,7.5,19.11C73.29,472.33,75,477.08,78,481c6.82,9.06,18.86,8.81,29.07,7.53,7.7-1,15.22-2.79,22.87-4,10-1.64,20.17-1.22,30.21-.43s20.12,2,30.23,2.15A206,206,0,0,0,220.72,484c20-2.7,39.82-6.5,60.08-7.13,40.36-1.26,80.39,5.8,120.71,6.06a287.33,287.33,0,0,0,29.19-1.21C432.61,481.52,432.62,478.52,430.7,478.7Z" transform="translate(-12.33 -11.72)"/><path class="cls-3" d="M13.89,371.8l4-75.65,3.95-74.66c.82-15.54,1.65-31.07,2.36-46.62q3.54-76.68,3.65-153.55Q52.08,62.21,73,106.39c3.87,8.17,7.7,16.56,9.66,25.9,4.07,19.44-.44,40-1.42,60.18-1.18,24.19,2.8,48.51,1,72.63-.73,9.74-2.39,19.31-3.37,29-1.54,15.22-1.38,30.66-1.21,46l1.46,137.09q-14.44-26.45-28.88-52.88c-10-18.41-20.4-37.2-34.5-49.89Z" transform="translate(-12.33 -11.72)"/><path d="M15.39,371.8l7.23-136.65c2.41-45.51,4.66-91,5.75-136.56q.93-38.62,1-77.27l-2.79.76q22.85,38.63,42.3,79.12c6.43,13.35,12.67,26.6,13.73,41.61,1,14.86-1.44,29.68-2.53,44.47-1.13,15.33-.1,30.64.63,46a258.19,258.19,0,0,1-1.49,45.93,355.89,355.89,0,0,0-3.15,45.43c0,15.61.26,31.23.43,46.84l1,94,.13,11.81,2.8-.76q-13.15-24.07-26.3-48.14c-7.78-14.24-15.35-28.77-25.27-41.67a110.18,110.18,0,0,0-8.08-9.44c-1.25-1.28-2.73-2.43-3.9-3.75A27.31,27.31,0,0,1,15.19,371c-1.09-1.58-3.69-.08-2.59,1.51,3.29,4.75,7.83,8.45,11.51,12.93a164.72,164.72,0,0,1,13.72,19.94c8.89,14.8,16.84,30.18,25.11,45.33L77.82,478a1.51,1.51,0,0,0,2.79-.75l-1-94.88q-.25-23.54-.5-47.09c-.15-15.5,0-31,1.85-46.42.93-7.61,2.1-15.2,2.71-22.84a210.09,210.09,0,0,0,.42-23c-.44-15.36-1.88-30.71-1.5-46.09s3.1-30.32,3.25-45.56a87.71,87.71,0,0,0-2.19-21.49,108.45,108.45,0,0,0-7.14-19.5C64,83,49.82,56.25,34.77,30.19Q32,25.36,29.15,20.56a1.52,1.52,0,0,0-2.8.76q-.11,68.63-2.93,137.22c-1.89,45.58-4.57,91.14-7,136.7L12.39,371.8C12.29,373.72,15.29,373.72,15.39,371.8Z" transform="translate(-12.33 -11.72)"/><path class="cls-3" d="M79,491.86c2-8.08,1-15.42,1-20.56,0-17.16-3-34.49-1.85-50.54.28-4-1-9.29-.68-13.26.53-5.95,1.54-10.34,1-16.35-2-23.65-1-50.65,0-72.65.2-4.34.65-23.66,1-28,2-25,2.08-36.94.87-63.36Q79.71,212.5,79,197.87c-.68-13.43.38-20.94-.49-34.37-.37-5.75,1-29,1-34,0-3.64,4.91.89,11.21,2.29l.87-.29c.28,36.23-1.81,58.86,2.92,95v11C92,275.05,88,319.44,93.35,358.57A337.46,337.46,0,0,1,96.5,410.5c-.28,15.22,1,29,1,45,0,5.36,2,24.81,2,30,.1,10.49-.56,3.72-10.92,6.67Z" transform="translate(-12.33 -11.72)"/><path d="M80.47,492.25c1.57-6.58,1.21-13.11,1.07-19.81-.16-7.68-.52-15.32-1.09-23s-1.15-15.35-1-23a90.83,90.83,0,0,0,.1-10.17,50.84,50.84,0,0,1-.4-10.09c.36-3.47.92-6.94,1-10.44s-.35-7.1-.57-10.64c-.47-7.38-.68-14.78-.72-22.17-.09-14.41.44-28.82,1.09-43.22.38-8.45.49-16.91.85-25.36.47-11.15,1.62-22.25,1.81-33.43.23-13.28-.41-26.55-1-39.82-.36-8-.77-15.94-1.14-23.91-.31-6.71-.14-13.42-.1-20.14,0-5.47-.42-10.92-.41-16.39,0-4.36.19-8.73.37-13.08.18-4.54.4-9.07.57-13.61,0-.78.06-1.57.08-2.35a6.27,6.27,0,0,0,0-1.93c-.24-.6-.33.23-.48,0l1,.24c1.19.41,2.31,1,3.46,1.51,2.13.92,4.73,2.36,7,1.57l-1.89-1.44c.2,28.14-1.19,56.28,1.68,84.34A145.74,145.74,0,0,1,93,230.58c0,3.76,0,7.46-.29,11.21-1,14.65-2.07,29.28-2.75,44-.72,15.15-1,30.34-.43,45.51.3,7.42.83,14.84,1.68,22.22.91,8,2,15.93,2.71,23.95s1,16.1,1.12,24.16c.07,7.75-.15,15.49.08,23.25.22,7.54.61,15.07.78,22.61.12,5.14.11,10.25.48,15.39s.8,10,1.18,15A70.38,70.38,0,0,1,98,489.39a3.88,3.88,0,0,1-.21,1.06c-.18-.17,1-.19-.16-.31a30.81,30.81,0,0,0-4.29-.28c-1.8.08-3.55.74-5.29.79s-3.52-.12-5.26-.17L79,490.36c-1.93-.07-1.93,2.93,0,3,3,.09,6.1.32,9.14.29,1.83,0,3.6-.75,5.47-.8,1.41,0,2.77.29,4.17.31,3.4,0,3.2-3.78,3.2-6.23,0-4.18-.39-8.35-.72-12.51-.39-4.95-.83-9.89-1.12-14.85-.36-5.95-.23-11.94-.44-17.9-.26-7.71-.65-15.4-.75-23.11-.1-8.15.17-16.3-.1-24.45S97.05,378,96.22,370c-.82-7.88-2-15.7-2.73-23.6a402.88,402.88,0,0,1-1.07-46.23c.41-15.28,1.38-30.54,2.43-45.79.63-9.17,1.57-18.4,1.15-27.6-.15-3.18-.77-6.4-1.11-9.57q-.58-5.65-1-11.33c-.51-6.89-.8-13.8-.93-20.71-.27-14,.09-28,.15-41.95,0-3.89,0-7.79,0-11.68a1.51,1.51,0,0,0-1.9-1.45c-1,.32-1.69-.11-2.83-.52-1.46-.53-2.86-1.2-4.28-1.82s-3.66-1.78-5.17-.51c-1.11.94-.89,2.58-.93,3.89,0,1.77-.12,3.53-.19,5.3-.36,8.74-1.12,17.57-.82,26.31.48,13.51.13,27,.79,40.53.74,15.1,1.6,30.22,1.86,45.35.2,12.24-.3,24.45-1.2,36.66-.69,9.22-.94,18.43-1.22,27.67-.37,12-1,24-1.24,36-.13,7.57-.15,15.14,0,22.71.18,7.31,1,14.6,1.17,21.91a74.09,74.09,0,0,1-.78,10.41,44.78,44.78,0,0,0-.07,10.22c.77,7.22,0,14.52.28,21.79.64,14.77,2.14,29.46,2.19,44.26a48.06,48.06,0,0,1-1.2,11.28C77.13,493.33,80,494.13,80.47,492.25Z" transform="translate(-12.33 -11.72)"/><path class="cls-3" d="M565,477.7c2-7.87,1-15,1-20,0-16.74-3-33.62-1.85-49.27.28-3.87,1.93-7.64,2.29-11.51.53-5.8-1.43-11.49-1.94-17.34-2-23.05-1-49.37,0-70.81.2-4.22.65-23.06,1-27.29,2-24.36,2.08-36,.87-61.75q-.66-14.26-1.38-28.52-1-19.65-2.33-39.28c-.37-5.6-2.56-17.45-.68-22.86,1.17-3.36,6.21-3.91,12.52-2.54h0c5,34,1.27,19.77,6,55v48.3c3,35.7,1,78.7,1,116.7,0,17.08,1.32,34.95,1,51.91-.28,14.83-.42,29.82,4.19,44.47,1.58,5-1.24,22.44-1.19,27.49.1,10.23-.56,4.76-10.92,7.63Z" transform="translate(-12.33 -11.72)"/><path d="M566.47,478.1c1.47-6,1.33-12,1.11-18.16-.24-6.65-.37-13.27-.85-19.91-.51-6.88-1.11-13.76-1.28-20.67-.07-3.23-.05-6.46.14-9.69.21-3.49,1.32-6.73,2-10.14,1.31-6.69-.87-13-1.52-19.65s-.91-13-1.07-19.55c-.33-13.06,0-26.13.47-39.18.34-8.76.71-17.51,1-26.27s.95-17.55,1.5-26.35c1.51-24.17,0-48.33-1.21-72.48q-1.1-21.74-2.53-43.44c-.32-4.75-1.09-9.45-1.38-14.2-.19-3.35-1.13-9.64,3.07-10.79,2.63-.72,5.58-.22,8.2.33l-1.05-1c1.39,9.47,2.6,18.92,3.15,28.48.24,4.11.62,8.22,1.08,12.32.41,3.71.88,7.42,1.36,11.12a27.44,27.44,0,0,1,.36,3.6v45.86c0,4.46.57,8.94.81,13.4.47,8.73.69,17.48.79,26.22.19,18.18-.16,36.35-.41,54.53-.11,8.91-.25,17.82-.18,26.74.07,9.48.49,18.95.77,28.42s.18,18.75.11,28.13a148.87,148.87,0,0,0,1.86,27.34c.42,2.33.93,4.65,1.54,6.93a38.82,38.82,0,0,1,1.22,4.5,37.06,37.06,0,0,1,0,7.52c-.34,5.62-1.17,11.19-1.47,16.81-.11,2,.23,4.21-.2,6.21a4.21,4.21,0,0,1-.17.53c0-.07.21-.13.14-.13-.36,0-.92.09-1.56.09a29.44,29.44,0,0,0-7.12.78,19,19,0,0,1-5.16.05l-5-.15c-1.93-.06-1.93,2.94,0,3l5.3.17a21,21,0,0,0,5.14-.05,31.87,31.87,0,0,1,7-.8c1.42,0,2.91-.08,3.76-1.4,1-1.48.77-3.71.77-5.39,0-2.25.13-4.46.34-6.7.56-5.95,1.41-11.95,1.32-17.93a31.13,31.13,0,0,0-1.49-7.91,91.06,91.06,0,0,1-2.58-14.49c-1-9.4-.68-18.84-.57-28.28.22-18.93-1.12-37.85-1-56.79.2-36.19,2-72.54-.92-108.67-.49-6-.1-12.2-.1-18.23V185.89c0-8.64-1.77-17.16-2.47-25.77-.61-7.52-1-15-2-22.48-.5-3.85-1-7.7-1.61-11.54a1.49,1.49,0,0,0-1.05-1c-4.09-.85-10.44-1.89-13.46,1.92-1.22,1.55-1.46,3.7-1.62,5.61a45.89,45.89,0,0,0,.12,7.32c.39,5.07,1.1,10.09,1.43,15.16q.72,11,1.35,22.09c.84,14.64,1.54,29.28,2.21,43.93.54,11.57.93,23.15.61,34.73-.28,10-1.35,20-1.77,30-.32,7.59-.43,15.2-.76,22.8-.56,12.72-1.1,25.45-1.15,38.19-.06,13.26-.11,26.86,2.24,40a37.41,37.41,0,0,1,.87,10.17c-.34,3.47-1.7,6.77-2.15,10.22-.89,6.73-.41,13.76,0,20.51.82,13.18,2.06,26.35,1.94,39.58a44.06,44.06,0,0,1-1.19,10.1C563.12,479.17,566,480,566.47,478.1Z" transform="translate(-12.33 -11.72)"/><path class="cls-3" d="M78,472.08c5.73,5.73,21.68-1.51,29.46-3.08,23.59-4.75,47.88-7.76,71.86-4.31,5.52.8,11,1.94,16.57,2.29,8.35.54,16.7-.69,25-1.93,33.59-5.06,67.76-10.5,101.34-5.37,5.95.91,11.85,2.15,17.79,3.19,36.55,6.41,73.94,5.22,111,4q20.53-.67,41.07-1.39,28.28-1,56.54-2.32c8.07-.37,25.13-2.56,32.92-.68,4.84,1.17,5.24,8.43,3.27,14.73l.41.86q-76.26.44-152.39,7.53l.21-.12c-54.91,5.39-111.55-11-166.46-5.64-24.36,2.37-48.55,8.63-73,8.31-21.35-.27-42.85-5.58-63.93-1-7.19,1.58-34.88,4.24-42.16,4.29-14.73.1-4.28-6.05-8.41-16.4" transform="translate(-12.33 -11.72)"/><path d="M76.94,473.14c3.78,3.5,9.47,2.8,14.12,1.86,5.85-1.17,11.43-3.44,17.27-4.65,18.17-3.74,36.82-6.22,55.4-5.54,9.22.34,18.15,2,27.27,3.19s18.19.27,27.27-1.06c18.7-2.74,37.36-5.79,56.22-7.12a220.09,220.09,0,0,1,56.21,2.86A378.8,378.8,0,0,0,385.46,469c18.56.72,37.14.32,55.7-.25s37.31-1.19,56-1.88c18.11-.67,36.31-1,54.4-2.32,6.6-.46,13.19-1.14,19.81-1.24a43,43,0,0,1,8.85.48c3.47.68,4.27,3.67,4.23,6.89,0,2.78-1.71,5.68-.49,8.22l1.29-2.26q-59.37.36-118.61,4.71-16.91,1.24-33.78,2.82l.76,2.79.21-.11c1.22-.7.76-2.95-.76-2.8-55.64,5.34-110.84-11-166.46-5.64-14.15,1.37-28.13,4-42.2,6A198.09,198.09,0,0,1,182,486.11c-14.19-1.06-28.43-3.18-42.67-1.87-4.68.44-9.22,1.5-13.85,2.2-4,.61-8.07,1.07-12.11,1.5-8.54.92-17.21,2-25.81,2.06-1.52,0-5.11.39-6.32-.94-.66-.74-.36-1.88-.23-2.78.61-4,1.06-7.66-.42-11.58-.67-1.79-3.57-1-2.89.8,1.39,3.68.85,6.93.31,10.67-.34,2.37,0,4.59,2.27,5.79,2.89,1.49,6.77,1.11,9.91,1,4-.19,8-.53,11.93-.88,8.34-.73,16.72-1.52,25-2.84,5.7-.9,11.24-2,17-2.27a168.69,168.69,0,0,1,21.32.74c14.65,1.23,29.07,2.63,43.78,1.41,14.16-1.17,28.15-3.78,42.2-5.83A272.23,272.23,0,0,1,295,480.32c14.18.21,28.32,1.35,42.43,2.68,31.77,3,63.73,7.06,95.66,4l-.76-2.8-.2.12c-1.23.7-.77,2.94.75,2.8q59.15-5.5,118.56-7,16.92-.42,33.83-.52a1.51,1.51,0,0,0,1.3-2.25c-.3-.63.38-2,.6-3.4a21.08,21.08,0,0,0,.26-4.69c-.18-2.57-.92-5.3-3-7-1.87-1.51-4.52-1.67-6.82-1.85a78.32,78.32,0,0,0-9.81-.05c-6.23.26-12.42,1-18.64,1.29-9.41.5-18.84.84-28.25,1.23-37.7,1.55-75.5,3.41-113.24,3.45-18.88,0-37.81-.71-56.54-3.25-9.38-1.28-18.63-3.32-28-4.78a190.38,190.38,0,0,0-27.4-2.18c-18.46-.19-36.86,1.91-55.12,4.49-9.56,1.35-19.09,3-28.67,4.18a92.36,92.36,0,0,1-14,.78,116.72,116.72,0,0,1-14.78-1.81c-17.91-2.88-36-2.42-53.89,0-8.28,1.12-16.82,2.25-24.89,4.45-6,1.63-11.88,4-18.09,4.47-2.47.18-5.27.11-7.19-1.68-1.41-1.31-3.54.81-2.12,2.13Z" transform="translate(-12.33 -11.72)"/><path class="cls-3" d="M79.43,129.5c11.11,2,21.21,1,28.29,1,23.63,0,47.48-3,69.58-1.85,5.47.28,10.8,1.93,16.26,2.29,8.19.53,16.37-.69,24.49-1.94,32.95-5.06,66.47-10.49,99.41-5.36,5.84.91,11.63,2.15,17.45,3.19,35.85,6.4,72.53,5.22,108.9,4q20.15-.66,40.29-1.38,27.73-1,55.47-2.32c7.91-.38,24.64-2.57,32.29-.69,4.74,1.17,5.14,8.43,3.2,14.73l.41.87q-74.81.42-149.49,7.52l.2-.12c-53.86,5.4-109.42-11-163.29-5.63-23.89,2.36-47.61,8.62-71.57,8.31-20.94-.28-42-5.58-62.71-1-7.06,1.57-34.22,4.24-41.36,4.28-14.44.1-4.2-6-8.25-16.39Z" transform="translate(-12.33 -11.72)"/><path d="M79,131a114.46,114.46,0,0,0,23,1.17c8-.24,16.08-.24,24.12-.6,17.12-.78,34.43-2.51,51.57-1.34,4.35.3,8.58,1.39,12.89,2a62.26,62.26,0,0,0,12.36.23c8.57-.58,17.06-2.18,25.54-3.47,17.81-2.71,35.7-5.19,53.73-5.72a202.71,202.71,0,0,1,26.54.85c8.66.88,17.14,2.72,25.7,4.24a345.22,345.22,0,0,0,52.24,4.87c17.74.43,35.48-.09,53.2-.67s35.71-1.18,53.56-1.87c16.87-.65,33.83-1,50.67-2.28,6.33-.49,12.67-1.12,19-1.12a30.39,30.39,0,0,1,8,.65c3.16.87,3.52,4.5,3.4,7.32-.11,2.62-1.6,5.21-.46,7.64l1.3-2.26q-58.35.34-116.58,4.72-16.47,1.23-32.91,2.8l.76,2.8.2-.12c1.21-.7.78-2.95-.76-2.8-28.95,2.84-58-.43-86.8-3.31s-57.61-5-86.43-1.14c-14.82,2-29.51,5-44.42,6.36-15.09,1.42-29.82,0-44.85-1.24a159.62,159.62,0,0,0-21.86-.7,144.45,144.45,0,0,0-16.18,2.28c-8.74,1.46-17.62,2.25-26.45,3-3.88.33-7.78.7-11.68.75-1.58,0-5.07.4-6.36-.88-.81-.8-.4-2.19-.23-3.2a34.44,34.44,0,0,0,.61-5.27c0-2-.72-3.83-1-5.75a27,27,0,0,1,.23-5.07l.19-4.28c.08-1.93-2.92-1.93-3,0-.13,2.93-.34,5.87-.4,8.8,0,1.58.72,3,.91,4.57a19.18,19.18,0,0,1-.29,5.45c-.4,2.42-1.09,5.27,1.1,7.05,2.63,2.13,7.06,1.66,10.21,1.52,8.71-.39,17.44-1.32,26.1-2.33,10.36-1.21,20.53-3.7,31-3.77,15-.11,29.8,2.64,44.76,2.84,15.21.2,30.29-2.24,45.26-4.63s29.74-4.46,44.84-4.72a414.66,414.66,0,0,1,44.84,2.1c33.19,3,66.55,7.84,99.92,4.57l-.75-2.79-.21.12c-1.21.7-.77,2.94.76,2.79q58.13-5.5,116.52-7,16.49-.42,33-.51a1.52,1.52,0,0,0,1.29-2.26c-.4-.86-.1-.19,0-.77.21-.82.39-1.65.52-2.49a21.68,21.68,0,0,0,.3-4.55c-.12-2.43-.72-5.08-2.51-6.86s-4.07-1.93-6.31-2.17a63.31,63.31,0,0,0-8.71-.2c-6.28.2-12.52.88-18.78,1.28-8.5.56-17,.81-25.52,1.17-36.37,1.55-72.82,3.26-109.23,3.57A444.69,444.69,0,0,1,353.06,128c-17.58-2-34.74-6.57-52.44-7.56-18.09-1-36.22.56-54.15,2.93-8.66,1.14-17.3,2.46-25.94,3.79-8.9,1.37-17.93,3-27,2.33-4.26-.3-8.41-1.36-12.63-1.93a101.39,101.39,0,0,0-12.81-.62c-8.67,0-17.34.35-26,.8-16.33.86-32.76,1.81-49.12,1.54a84.17,84.17,0,0,1-13.17-1.18C77.94,127.73,77.13,130.62,79,131Z" transform="translate(-12.33 -11.72)"/></g></svg>