<?xml version="1.0" encoding="utf-8"?>
<!-- Generator: Adobe Illustrator 25.0.0, SVG Export Plug-In . SVG Version: 6.00 Build 0)  -->
<svg version="1.1" xmlns="http://www.w3.org/2000/svg" xmlns:xlink="http://www.w3.org/1999/xlink" x="0px" y="0px"
	 viewBox="0 0 1000 1000" style="enable-background:new 0 0 1000 1000;" xml:space="preserve">
<style type="text/css">
	.st0{display:none;}
	.st1{display:inline;fill-rule:evenodd;clip-rule:evenodd;fill:#1B1F23;}
	.st2{fill-rule:evenodd;clip-rule:evenodd;fill:#FFFFFF;}
	.st3{fill-rule:evenodd;clip-rule:evenodd;fill:#2B2B2B;}
</style>
<g id="Calque_1" class="st0">
	<path class="st1" d="M500.17,22.68c-269.08,0-487.03,217.95-487.03,487.03c0,215.51,139.41,397.54,333.01,462.07
		c24.35,4.26,33.48-10.35,33.48-23.13c0-11.57-0.61-49.92-0.61-90.71c-122.37,22.53-154.02-29.83-163.76-57.23
		c-5.48-14-29.22-57.23-49.92-68.79c-17.05-9.13-41.4-31.66-0.61-32.27c38.35-0.61,65.75,35.31,74.88,49.92
		c43.83,73.66,113.84,52.96,141.85,40.18c4.26-31.66,17.05-52.96,31.05-65.14c-108.36-12.18-221.6-54.18-221.6-240.47
		c0-52.96,18.87-96.8,49.92-130.89c-4.87-12.18-21.92-62.1,4.87-129.06c0,0,40.79-12.78,133.93,49.92
		c38.96-10.96,80.36-16.44,121.76-16.44c41.4,0,82.8,5.48,121.76,16.44c93.14-63.31,133.93-49.92,133.93-49.92
		c26.79,66.97,9.74,116.89,4.87,129.06c31.05,34.09,49.92,77.32,49.92,130.89c0,186.9-113.84,228.3-222.21,240.47
		c17.65,15.22,32.87,44.44,32.87,90.1c0,65.14-0.61,117.5-0.61,133.93c0,12.78,9.13,28,33.48,23.13
		C847.78,907.25,987.2,724.61,987.2,509.71C987.2,240.63,769.25,22.68,500.17,22.68z"/>
</g>
<g id="Draw">
	<g>
		<path class="st2" d="M771.81,188.91c-6.1-12.71-12.68-25.57-23-35.16c-22.15-20.57-55.61-21.41-85.84-21.08
			c-42.31,0.46-84.85,0.95-126.49,8.43c-43.79,7.86-85.8,23.31-127.55,38.69c-51.09,18.82-102.19,37.64-153.28,56.46
			c-21.36,7.87-43.01,15.89-61.46,29.21c-35.31,25.48-55.05,67.8-64.23,110.36c-16.2,75.12-3.84,153.11,8.55,228.96
			c5.1,31.22,10.2,62.44,15.31,93.65c4.96,30.36,10.04,61.13,22.65,89.19c20.85,46.41,60.78,81.79,104.05,108.55
			c43.27,26.76,90.6,46.21,135.46,70.22c13.48,7.21,27.03,14.95,42.05,17.77c15,2.82,30.44,0.55,45.54-1.73
			c28.27-4.26,56.54-8.53,84.8-12.79c47.88-7.22,97.75-15.23,137.11-43.43c32.64-23.39,54.72-58.36,75.96-92.44
			c18.93-30.36,38.08-61.2,48.28-95.49c6.61-22.23,9.3-45.41,11.64-68.48c14.39-142.07,15.47-290.1-38.71-422.21
			c-11.38-27.76-25.53-55.11-47.26-75.79c-31.55-30.02-76.84-43.03-120.35-40.94"/>
		<g>
			<path d="M773.11,188.15c-8.69-18.07-18.72-35.44-36.96-45.24c-16.68-8.96-36.12-11.12-54.77-11.66
				c-23.35-0.67-46.88,0.06-70.22,0.96c-24.03,0.93-48.07,2.81-71.79,6.85c-48.41,8.25-94.52,25.89-140.42,42.8
				c-47.37,17.45-94.74,34.9-142.11,52.34c-20.98,7.73-42.38,15.45-60.94,28.2c-15.99,10.98-29.2,25.53-39.52,41.89
				c-22.48,35.61-31.75,78.26-34.66,119.8c-3.41,48.65,2.3,97.39,9.65,145.43c7.47,48.82,15.4,97.63,23.83,146.3
				c4,23.08,8.89,46.19,17.95,67.88c7.59,18.18,18.17,34.92,30.74,50.06c26.71,32.14,61.52,56.39,97.81,76.52
				c20.86,11.57,42.34,21.95,63.79,32.38c20.85,10.14,41.32,20.89,61.92,31.5c10.06,5.18,20.59,9.88,31.83,11.72
				c11.48,1.88,23.12,0.98,34.58-0.54c24.49-3.27,48.9-7.31,73.33-11c42.71-6.44,86.83-11.38,126.81-28.75
				c19.31-8.39,36.86-19.97,51.98-34.63c15.02-14.57,27.6-31.46,39.17-48.83c12.15-18.23,23.75-36.93,34.86-55.81
				c11.32-19.24,21.7-39.17,28.87-60.36c7.62-22.53,10.86-46.17,13.35-69.73c2.45-23.16,4.48-46.38,6.03-69.62
				c6.07-91.22,4.44-184.04-16.7-273.38c-5.17-21.85-11.51-43.42-19.14-64.54c-7.42-20.54-15.78-40.98-26.73-59.92
				c-10.36-17.93-23.34-34.41-39.81-47.12c-15.86-12.24-34.3-20.91-53.59-26.17c-18.6-5.08-37.98-6.99-57.22-6.14
				c-1.92,0.09-1.93,3.09,0,3c40.15-1.79,82.03,8.86,113.21,35.07c33.23,27.92,50.58,70.73,64.3,110.76
				c28.95,84.48,37.19,174.5,35.52,263.35c-0.84,45-4.15,89.95-8.88,134.7c-2.46,23.31-5.71,46.65-13.24,68.93
				c-7.33,21.68-18.1,41.99-29.74,61.63c-10.78,18.19-21.97,36.22-33.69,53.82c-11.57,17.36-24.14,34.21-39.2,48.71
				c-30.93,29.77-71.12,43.59-112.48,51.71c-21.64,4.25-43.51,7.25-65.31,10.54c-24.42,3.68-48.83,7.83-73.33,10.98
				c-12.19,1.57-24.68,2.33-36.75-0.47c-10.82-2.52-20.84-7.47-30.6-12.65c-20.52-10.89-41.24-21.29-62.13-31.45
				c-73.88-35.92-156.66-78.06-188.42-159.41c-8.17-20.92-12.67-43.02-16.46-65.09c-4.13-24.08-7.92-48.21-11.86-72.32
				c-7.76-47.48-16.47-94.98-20.35-142.98c-3.71-45.87-2.84-92.99,9.64-137.57c10.66-38.07,30.88-75.19,64.67-97.3
				c18.73-12.25,40.03-19.7,60.9-27.39c23.42-8.63,46.84-17.25,70.25-25.88c44.9-16.54,89.58-34.05,135.05-48.98
				c22.65-7.44,45.67-13.93,69.13-18.24c23.94-4.4,48.24-6.44,72.54-7.48c22.92-0.97,45.98-1.52,68.92-1.19
				c19.19,0.27,39.42,1.83,56.77,10.76c18.42,9.48,28.33,26.72,37,44.75C771.36,191.4,773.94,189.88,773.11,188.15L773.11,188.15z"
				/>
		</g>
	</g>
	<g>
		<path class="st3" d="M56.05,323.47c17.59-48.54,51.67-89.18,87.27-126.57c66.12-69.45,143.2-133.47,235.85-158.21
			c57.37-15.32,117.84-14.75,176.93-8.95c86.73,8.51,177.27,30.63,239.22,91.92c18.29,18.1,33.51,39.08,51.66,57.32
			c18.94,19.03,40.97,34.96,58.37,55.4c17.18,20.17,29.33,44.14,39.39,68.65c44.49,108.39,49.73,232.4,14.55,344.16
			s-110.52,210.4-209.07,273.76c-5.09,3.27-11.3,6.56-16.89,4.23c-4.02-1.68-6.38-5.8-8.3-9.72
			c-17.85-36.36-23.19-77.36-34.07-116.38c-10.89-39.01-29.6-78.86-64.53-99.36c40.76-11.9,81.31-27.9,113.6-55.49
			c49.71-42.48,74.79-110.44,69.9-175.65c-4.89-65.21-38.09-126.82-86.27-171.03c-3.37-3.09-6.94-6.29-8.51-10.58
			c-1.37-3.76-1.04-7.88-0.84-11.88c1.54-30.39-5.67-61.18-20.55-87.72c-2.24-3.99-4.88-8.1-9.02-10.04
			c-5.16-2.41-11.24-0.83-16.63,1.03c-31,10.68-59.12,29.61-80.68,54.31c-5.5,6.31-10.83,13.17-18.31,16.93
			c-8.03,4.03-17.42,3.92-26.41,3.98c-67.32,0.47-134.49,16.03-195.17,45.19c-8.57,4.12-17.41,8.61-26.92,8.66
			c-7.8,0.04-15.25-2.92-22.64-5.42c-32.39-10.98-67.52-13.73-101.23-7.95c-1.81,0.31-3.72,0.7-5.04,1.98
			c-1.71,1.66-1.91,4.3-1.97,6.68c-0.83,33.09,4.03,66.31,14.31,97.78c3,9.17,6.49,18.44,6.36,28.09
			c-0.13,9.92-4.08,19.33-7.33,28.7c-25.73,74.08-7.5,161.66,45.66,219.31s138.97,82.92,214.9,63.27c-2.2,8.88-1.01,18.2-1.34,27.35
			c-1.85,51.09-61.13,91.07-109.19,73.64c-25.77-9.35-44.98-30.81-67.94-45.78c-22.97-14.97-56.1-22.29-76.11-3.55
			c36.06,12.95,68.11,36.83,90.82,67.68c7.31,9.93,14.02,20.89,24.53,27.33c9.84,6.02,21.76,7.31,33.24,8.44
			c37.29,3.7,78.86,6.21,108.07-17.27c10.33,18.03,18.76,37.15,25.13,56.93c4.95,15.37,8.06,33.94-2.43,46.21
			c-6.56,7.67-16.98,10.83-27,12.01c-23.23,2.72-46.5-3.27-69.13-9.21c-46.17-12.11-92.76-24.39-135.22-46.18
			C150.55,882.79,81.39,773.46,43.62,659.81C6.65,548.58-1.78,425.32,55.87,323.26L56.05,323.47z"/>
		<g>
			<path d="M57.49,323.87c12.13-33.09,31.85-62.63,54.28-89.6c21.43-25.77,44.97-49.98,69.31-73
				c48.28-45.67,102.8-86.66,165.38-110.43c69.6-26.44,144.92-26.64,218.02-18.73c63.53,6.88,128.48,21.08,183.62,54.73
				c13.64,8.32,26.56,17.84,38.41,28.56c13.07,11.83,24.48,25.24,35.91,38.61c11.73,13.71,23.79,26.9,37.2,38.99
				c13.35,12.04,27.3,23.49,39.54,36.7c24.51,26.43,39.69,60.07,51.79,93.63c12.2,33.83,20.71,69,25.44,104.65
				c9.33,70.31,4.06,142.61-16.06,210.66c-18.13,61.3-48.37,118.93-87.96,169.08c-19.31,24.46-40.84,47.18-64.27,67.73
				c-12,10.52-24.49,20.47-37.44,29.79c-6.33,4.55-12.76,8.95-19.29,13.19c-3.96,2.57-8.47,5.79-13.36,6.02
				c-6.11,0.29-9.28-4.95-11.68-9.74c-30-60.09-25.11-133.61-67.69-188.17c-8.74-11.2-19.24-20.81-31.45-28.1
				c-0.12,0.91-0.24,1.83-0.36,2.74c29.75-8.72,59.21-19.44,85.86-35.5c24.6-14.83,45.85-34.34,62.05-58.09
				c31.48-46.16,43.28-104.34,34.26-159.29c-9.4-57.25-39.9-110.19-82.02-149.7c-2.42-2.27-5.02-4.42-7.19-6.95
				c-3.78-4.42-4.3-9.21-4.08-14.83c0.32-7.91,0.38-15.77-0.3-23.67c-1.36-15.85-4.99-31.51-10.81-46.32
				c-2.72-6.93-5.87-13.72-9.55-20.2c-2.66-4.69-5.94-9.58-11.35-11.29c-6.55-2.07-13.62,0.67-19.73,2.92
				c-6.57,2.42-13.01,5.21-19.27,8.34c-13.13,6.56-25.47,14.65-36.77,24.01c-5.9,4.9-11.5,10.15-16.76,15.73
				c-5.05,5.36-9.5,11.33-14.9,16.34c-13.31,12.32-32.64,9.11-49.35,9.81c-16.22,0.68-32.4,2.24-48.45,4.63
				c-33,4.91-65.47,13.4-96.64,25.31c-15.48,5.92-30.11,13.64-45.42,19.86c-8.93,3.63-17.48,4.54-26.85,1.95
				c-8.04-2.22-15.79-5.34-23.86-7.5c-15.78-4.23-32.09-6.58-48.42-7.03c-8.25-0.23-16.52,0.04-24.73,0.8
				c-3.66,0.34-7.3,0.78-10.94,1.3c-3.22,0.47-7.35,0.58-10.09,2.56c-4.9,3.53-3.37,12.26-3.34,17.4
				c0.05,8.42,0.47,16.85,1.25,25.24c1.55,16.61,4.49,33.09,8.82,49.21c4.6,17.11,13.61,34.27,9.37,52.34
				c-1.81,7.71-4.94,15.03-7.37,22.55c-2.18,6.75-4,13.62-5.48,20.55c-5.64,26.61-6.11,54.19-1.86,81.04
				c8.59,54.22,36.83,104.74,80.42,138.45c42.73,33.05,97.82,49.87,151.73,46.4c13.16-0.85,26.21-2.94,38.99-6.19
				c-0.62-0.62-1.23-1.23-1.85-1.85c-2.91,13.07-0.02,26.55-2.91,39.66c-2.18,9.91-6.55,19.22-12.43,27.46
				c-12.02,16.87-30.38,29.33-50.43,34.44c-22.45,5.72-43.86,0.46-63.09-11.9c-20.43-13.13-37.4-31.82-59.63-42.11
				c-20.77-9.62-47.42-13.09-65.71,3.45c-0.9,0.81-0.33,2.15,0.66,2.51c19.72,7.17,38.24,17.47,54.67,30.53
				c15.91,12.64,28.82,27.61,40.69,44.01c5.39,7.45,11.14,14.89,18.98,19.9c8.39,5.36,18.32,7.21,28.05,8.37
				c19.27,2.29,38.99,3.96,58.39,2.68c20.65-1.36,40.86-6.72,57.33-19.69c-0.79-0.1-1.57-0.2-2.36-0.3
				c9.63,16.93,17.68,34.71,23.87,53.19c4.87,14.52,10.16,33.73-0.19,47.18c-11.12,14.44-34.2,14.16-50.51,12.61
				c-19.62-1.87-38.75-7.59-57.73-12.61c-36.57-9.68-73.23-19.97-107.73-35.73c-29.18-13.33-56.29-30.81-80.67-51.64
				c-47.74-40.8-84.63-93.08-112.43-149.11c-29.8-60.06-50.91-125.63-59.46-192.2c-8.81-68.58-3.12-140.04,25.97-203.43
				c3.55-7.73,7.43-15.3,11.6-22.71c-0.79,0.1-1.57,0.2-2.36,0.3c0.06,0.07,0.12,0.14,0.18,0.21c1.28,1.45,3.39-0.67,2.12-2.12
				c-0.06-0.07-0.12-0.14-0.18-0.21c-0.64-0.72-1.91-0.5-2.36,0.3C19.36,385.24,8.39,457.8,14.34,528.9
				c5.78,69.14,25.95,137.32,55.03,200.16c27.22,58.82,63.99,114.18,112.32,157.78c24.11,21.75,51.01,40.4,80.18,54.7
				c34.82,17.08,72.17,28.14,109.52,38.14c19.3,5.17,38.7,10.99,58.52,13.84c16.17,2.32,35.37,3.4,50.36-4.42
				c31.86-16.62,10.61-62.53,0.1-85.96c-4.01-8.94-8.48-17.66-13.32-26.18c-0.52-0.92-1.62-0.88-2.36-0.3
				c-30.81,24.26-73.73,20.37-110.3,16.49c-11.05-1.17-22.52-2.93-31.74-9.61c-8.16-5.91-13.81-14.53-19.62-22.59
				c-11-15.25-23.95-28.93-38.76-40.53c-16.54-12.96-35.04-23.16-54.78-30.34c0.22,0.84,0.44,1.67,0.66,2.51
				c18.88-17.08,47.36-11.21,67.74-0.12c22.32,12.15,39.5,31.86,61.89,43.97c18.27,9.88,38.55,12.62,58.68,7.18
				c19.04-5.15,36.42-16.7,48.58-32.23c6.48-8.27,11.49-17.72,14.29-27.87c3.94-14.28,0.62-28.97,3.8-43.24
				c0.25-1.12-0.7-2.14-1.85-1.85c-52.26,13.33-108.83,5.71-156.44-19.36c-48.73-25.66-85.18-69.27-102.38-121.54
				c-8.46-25.69-12.3-52.87-11.18-79.9c0.57-13.79,2.47-27.51,5.71-40.93c3.39-14.02,10.18-27.41,12.38-41.65
				c2.44-15.75-4.77-30.51-9-45.31c-4.67-16.36-7.92-33.14-9.65-50.06c-0.83-8.08-1.32-16.2-1.47-24.32
				c-0.07-3.91-0.09-7.83,0.02-11.73c0.09-3.28,1.1-6.96,4.56-7.85c1.86-0.48,3.84-0.68,5.73-0.96c16.48-2.46,33.28-2.84,49.87-1.25
				c16.34,1.56,32.38,5.17,47.9,10.48c7.42,2.54,15.03,5.31,23.01,4.84c6.72-0.4,13.06-2.8,19.14-5.55
				c15.02-6.81,29.81-13.83,45.29-19.58c14.82-5.5,29.92-10.23,45.22-14.18c31.61-8.15,64.09-12.93,96.72-14.18
				c13.78-0.53,30.09,1.88,42.59-5.24c6.06-3.45,10.68-8.83,15.17-14.04c4.67-5.4,9.51-10.62,14.71-15.52
				c10.69-10.07,22.56-18.86,35.29-26.17c6.59-3.79,13.41-7.19,20.41-10.15c6.7-2.83,14.58-6.69,21.98-6.67
				c8.95,0.02,12.93,8.89,16.44,15.74c3.8,7.41,7,15.11,9.6,23.02c4.88,14.87,7.64,30.42,8.08,46.06c0.2,7.09-1.16,14.65-0.05,21.65
				c1.08,6.8,6.02,11.13,10.83,15.59c10.2,9.48,19.71,19.7,28.41,30.58c18.15,22.71,32.81,48.36,42.69,75.72
				c19.01,52.66,19.03,110.76-2.48,162.7c-10.56,25.51-26.18,49.01-46.22,68.05c-22.36,21.25-49.87,36.28-78.41,47.51
				c-13.65,5.37-27.61,9.92-41.68,14.05c-1.24,0.36-1.48,2.08-0.36,2.74c61.77,36.86,65.44,117.72,84.23,179.38
				c2.71,8.88,5.79,17.64,9.43,26.18c2.67,6.27,5.41,14.85,11.37,18.83c6.36,4.26,13.78,0.86,19.56-2.74
				c6.85-4.26,13.5-8.87,20.06-13.55c25.9-18.45,50.02-39.36,72.01-62.33c43.98-45.95,79.41-100.04,103.72-158.83
				c27.07-65.45,39.62-136.55,37.58-207.3c-2.05-71.03-18.13-144.31-51.02-207.63c-8.11-15.62-17.78-30.48-29.59-43.57
				c-12.26-13.58-26.41-25.25-40-37.44c-13.88-12.45-26.38-25.98-38.48-40.14c-11.76-13.76-23.52-27.54-37.04-39.62
				c-48.37-43.2-111.6-64.97-174.5-76.27c-34.64-6.22-69.9-9.8-105.06-11.09c-38.21-1.41-76.75,0.54-114.19,8.71
				c-66.36,14.5-125.75,49.69-177.67,92.6c-26.31,21.74-50.9,45.5-74.4,70.22c-24.13,25.38-47.37,52.01-65.55,82.07
				c-8.56,14.16-15.85,29.03-21.54,44.57C53.94,324.89,56.83,325.67,57.49,323.87z"/>
		</g>
	</g>
</g>
</svg>
