<svg id="Draw" xmlns="http://www.w3.org/2000/svg" viewBox="0 0 971.05 970.74"><defs><style>.cls-1{fill:#fff;}.cls-1,.cls-2{fill-rule:evenodd;}.cls-2{fill:#2b2b2b;}</style></defs><path class="cls-1" d="M771.81,188.91c-6.09-12.71-12.67-25.58-23-35.17-22.16-20.56-55.61-21.41-85.84-21.08-42.3.47-84.84,1-126.49,8.43-43.79,7.86-85.8,23.31-127.54,38.69L255.65,236.24c-21.35,7.87-43,15.89-61.46,29.21-35.31,25.49-55.05,67.8-64.23,110.36-16.2,75.13-3.84,153.12,8.55,229q7.67,46.83,15.31,93.65c5,30.37,10,61.13,22.65,89.19,20.85,46.41,60.78,81.79,104,108.55S371.13,942.38,416,966.38c13.47,7.22,27,15,42.05,17.78s30.44.55,45.54-1.73l84.8-12.79c47.88-7.23,97.75-15.23,137.11-43.44,32.64-23.39,54.72-58.36,76-92.43,18.94-30.37,38.08-61.2,48.29-95.5,6.61-22.22,9.3-45.4,11.64-68.47,14.39-142.07,15.47-290.1-38.72-422.22-11.38-27.75-25.53-55.11-47.26-75.79-31.55-30-76.84-43-120.35-40.93" transform="translate(-12.81 -24.48)"/><path class="cls-2" d="M56.05,323.47c17.59-48.54,51.67-89.18,87.27-126.57,66.12-69.46,143.2-133.47,235.85-158.21C436.54,23.37,497,23.94,556.1,29.74c86.74,8.5,177.27,30.63,239.23,91.92,18.29,18.1,33.51,39.09,51.66,57.32,18.93,19,41,35,58.37,55.4,17.18,20.17,29.33,44.14,39.39,68.65,44.49,108.38,49.73,232.4,14.55,344.15S848.78,857.58,750.23,920.94c-5.09,3.27-11.31,6.56-16.89,4.23-4-1.68-6.38-5.8-8.3-9.72C707.2,879.09,701.86,838.09,691,799.08s-29.6-78.86-64.53-99.36c40.77-11.89,81.32-27.9,113.6-55.49,49.71-42.48,74.79-110.44,69.9-175.65s-38.09-126.82-86.27-171c-3.37-3.09-6.94-6.29-8.51-10.58-1.37-3.75-1-7.88-.84-11.88a163.61,163.61,0,0,0-20.54-87.72c-2.24-4-4.88-8.11-9-10-5.16-2.41-11.24-.83-16.62,1a189.64,189.64,0,0,0-80.68,54.32c-5.5,6.3-10.83,13.17-18.31,16.93-8,4-17.42,3.92-26.4,4a459.77,459.77,0,0,0-195.17,45.19c-8.57,4.13-17.41,8.61-26.92,8.66-7.8.05-15.26-2.92-22.65-5.42a207.54,207.54,0,0,0-101.22-7.94c-1.81.31-3.73.7-5,2-1.71,1.66-1.91,4.3-2,6.68a292,292,0,0,0,14.31,97.78c3,9.17,6.49,18.45,6.36,28.09-.13,9.93-4.08,19.33-7.33,28.7-25.74,74.08-7.5,161.66,45.66,219.31s139,82.92,214.89,63.27c-2.2,8.88-1,18.2-1.34,27.35-1.85,51.08-61.13,91.07-109.19,73.64-25.77-9.35-45-30.81-67.94-45.78s-56.1-22.29-76.11-3.55a195.69,195.69,0,0,1,90.82,67.68c7.31,9.93,14,20.89,24.53,27.33,9.84,6,21.76,7.31,33.24,8.44,37.29,3.7,78.86,6.21,108.07-17.26a299.6,299.6,0,0,1,25.13,56.93c4.95,15.37,8.06,33.94-2.43,46.21-6.56,7.67-17,10.84-27,12-23.23,2.72-46.51-3.27-69.13-9.21-46.17-12.11-92.76-24.39-135.22-46.18-106.54-54.69-175.7-164-213.47-277.67-37-111.23-45.4-234.49,12.25-336.55Z" transform="translate(-12.81 -24.48)"/><path d="M57.49,323.87c12.13-33.09,31.86-62.64,54.29-89.61,21.43-25.76,45-50,69.31-73,48.28-45.67,102.8-86.66,165.38-110.43,69.59-26.45,144.91-26.65,218-18.74C628,39,693,53.18,748.1,86.83a255.63,255.63,0,0,1,38.41,28.56C799.58,127.22,811,140.63,822.43,154c11.73,13.71,23.79,26.9,37.2,39s27.3,23.49,39.55,36.7c24.51,26.43,39.69,60.07,51.79,93.63A503.06,503.06,0,0,1,872.38,807.7a512.68,512.68,0,0,1-64.27,67.73q-18,15.78-37.44,29.79-9.49,6.82-19.3,13.19c-4,2.58-8.47,5.79-13.35,6-6.12.29-9.29-5-11.68-9.74-30-60.09-25.11-133.61-67.69-188.18a114.36,114.36,0,0,0-31.45-28.09l-.36,2.74c29.75-8.72,59.21-19.44,85.86-35.5a198.85,198.85,0,0,0,62-58.09C806.24,561.42,818,503.24,809,448.29c-9.4-57.25-39.9-110.19-82-149.7a88.93,88.93,0,0,1-7.19-6.94c-3.78-4.42-4.3-9.22-4.08-14.84a187,187,0,0,0-.3-23.67,165.53,165.53,0,0,0-10.81-46.32,156.66,156.66,0,0,0-9.55-20.21c-2.66-4.69-5.94-9.58-11.35-11.29-6.55-2.07-13.62.67-19.73,2.92a189.84,189.84,0,0,0-19.27,8.34,192,192,0,0,0-36.77,24,188.77,188.77,0,0,0-16.76,15.73c-5.05,5.35-9.5,11.33-14.91,16.34-13.3,12.32-32.63,9.11-49.34,9.81a462.41,462.41,0,0,0-145.1,29.94c-15.48,5.91-30.11,13.64-45.42,19.86-8.93,3.63-17.49,4.54-26.85,2-8-2.22-15.79-5.34-23.86-7.5a209.7,209.7,0,0,0-48.42-7,206.39,206.39,0,0,0-24.74.8q-5.48.5-10.93,1.3c-3.22.47-7.35.58-10.1,2.56-4.9,3.53-3.37,12.26-3.34,17.4.06,8.42.47,16.85,1.26,25.24a294.35,294.35,0,0,0,8.82,49.2c4.6,17.12,13.6,34.27,9.37,52.34-1.81,7.71-4.94,15-7.37,22.54a205.47,205.47,0,0,0-5.48,20.56,223.26,223.26,0,0,0-1.86,81c8.59,54.22,36.83,104.73,80.43,138.44a226.88,226.88,0,0,0,151.73,46.4,214.15,214.15,0,0,0,39-6.19l-1.84-1.85c-2.92,13.07,0,26.55-2.92,39.66a75.51,75.51,0,0,1-12.42,27.46A90,90,0,0,1,396.45,841c-22.45,5.73-43.86.46-63.1-11.89C312.92,816,296,797.32,273.72,787,253,777.4,226.3,773.93,208,790.47a1.52,1.52,0,0,0,.66,2.51,195,195,0,0,1,54.67,30.53c15.91,12.64,28.83,27.61,40.69,44,5.39,7.45,11.15,14.89,19,19.9,8.39,5.36,18.32,7.21,28.05,8.37,19.27,2.29,39,4,58.39,2.68,20.65-1.36,40.86-6.72,57.33-19.69l-2.36-.31a301.64,301.64,0,0,1,23.87,53.19c4.87,14.53,10.16,33.74-.19,47.18C477,993.28,453.92,993,437.61,991.45c-19.62-1.87-38.75-7.59-57.73-12.61-36.58-9.68-73.23-20-107.73-35.73a345.1,345.1,0,0,1-80.67-51.64c-47.74-40.8-84.63-93.09-112.43-149.11-29.8-60.06-50.9-125.63-59.46-192.2-8.81-68.57-3.12-140,26-203.43C49.11,339,53,331.44,57.16,324l-2.35.3.18.21c1.27,1.45,3.39-.68,2.12-2.12l-.18-.21a1.51,1.51,0,0,0-2.36.31C19.36,385.24,8.39,457.8,14.34,528.9c5.78,69.14,26,137.32,55,200.16,27.22,58.81,64,114.18,112.32,157.78a350.38,350.38,0,0,0,80.18,54.7c34.82,17.08,72.17,28.14,109.52,38.14,19.3,5.17,38.7,11,58.52,13.84,16.17,2.32,35.37,3.4,50.36-4.42,31.86-16.62,10.61-62.53.1-86-4-8.94-8.48-17.66-13.33-26.18a1.52,1.52,0,0,0-2.35-.3C433.86,900.92,391,897,354.38,893.15c-11.05-1.17-22.52-2.93-31.74-9.61C314.47,877.64,308.83,869,303,861a197.34,197.34,0,0,0-93.53-70.88l.66,2.51c18.88-17.08,47.36-11.21,67.74-.12,22.31,12.15,39.5,31.86,61.88,44,18.28,9.89,38.55,12.62,58.68,7.18A93.25,93.25,0,0,0,447,811.38a80.09,80.09,0,0,0,14.3-27.87c3.94-14.28.62-29,3.8-43.24a1.52,1.52,0,0,0-1.85-1.85c-52.25,13.33-108.82,5.71-156.43-19.35A211.82,211.82,0,0,1,204.44,597.53a226.07,226.07,0,0,1-11.17-79.9A211.8,211.8,0,0,1,199,476.7c3.39-14,10.18-27.41,12.38-41.64,2.44-15.76-4.77-30.51-9-45.32a289.88,289.88,0,0,1-9.66-50.06q-1.24-12.12-1.47-24.32c-.07-3.91-.09-7.82,0-11.73.09-3.29,1.1-7,4.56-7.86a58,58,0,0,1,5.73-1,206,206,0,0,1,49.87-1.25A209.5,209.5,0,0,1,299.31,304c7.42,2.54,15,5.31,23,4.84,6.72-.4,13.06-2.8,19.13-5.55,15-6.81,29.81-13.83,45.3-19.58A459.69,459.69,0,0,1,528.69,255.4c13.78-.53,30.09,1.88,42.59-5.25,6.06-3.45,10.67-8.83,15.17-14a209.32,209.32,0,0,1,14.71-15.52,189.25,189.25,0,0,1,55.7-36.32c6.69-2.83,14.58-6.69,22-6.67,8.94,0,12.93,8.9,16.44,15.74a160.89,160.89,0,0,1,9.6,23A162.9,162.9,0,0,1,713,262.42c.2,7.09-1.16,14.65-.05,21.65,1.09,6.8,6,11.13,10.83,15.59a281.42,281.42,0,0,1,28.41,30.58A267.3,267.3,0,0,1,794.84,406c19,52.66,19,110.76-2.48,162.7a198.74,198.74,0,0,1-46.22,68C723.78,658,696.27,673,667.73,684.23c-13.66,5.37-27.61,9.92-41.69,14a1.52,1.52,0,0,0-.36,2.74c61.78,36.86,65.44,117.71,84.24,179.38a258.4,258.4,0,0,0,9.43,26.18c2.67,6.27,5.41,14.85,11.37,18.84,6.37,4.26,13.78.85,19.56-2.74,6.85-4.26,13.5-8.88,20.06-13.55a507.09,507.09,0,0,0,72-62.34A515,515,0,0,0,946.07,688c27.06-65.45,39.62-136.55,37.58-207.3-2.06-71-18.14-144.31-51-207.63-8.11-15.63-17.77-30.48-29.59-43.57-12.26-13.58-26.41-25.25-40-37.44-13.88-12.45-26.37-26-38.48-40.14-11.76-13.76-23.51-27.55-37-39.63C739.13,69.05,675.91,47.28,613,36A752.89,752.89,0,0,0,508,24.89c-38.21-1.4-76.75.54-114.19,8.72C327.41,48.11,268,83.3,216.1,126.21c-26.31,21.74-50.9,45.5-74.41,70.22-24.12,25.38-47.37,52-65.54,82.07A257.86,257.86,0,0,0,54.6,323.07C53.94,324.89,56.83,325.67,57.49,323.87Z" transform="translate(-12.81 -24.48)"/></svg>