<svg id="Calque_1" data-name="Calque 1" xmlns="http://www.w3.org/2000/svg" width="443.9" height="435.67" viewBox="0 0 443.9 435.67"><defs><style>.cls-1{fill:#f4f4f4;}.cls-2{fill:#fff;}.cls-3{fill:#d8d8d8;}</style></defs><path class="cls-1" d="M34.13,229.57,32.74,75.82c-.08-8.82.1-18.43,5.63-25.3,7.08-8.81,19.93-9.7,31.23-9.88l48-.74C222,38.3,326.37,36.69,430.76,37.51c11.06.08,23.89,1.08,30.18,10.18,3.87,5.61,4.11,12.88,4.21,19.7q2.61,186.2-4.2,372.37c-.21,5.58-.6,11.64-4.28,15.84-4.35,5-11.71,5.63-18.3,5.92q-192,8.69-384.3,8.28c-5.3,0-10.82-.07-15.58-2.43-11.29-5.6-13.08-20.69-13.24-33.29A1625.86,1625.86,0,0,1,35.48,230.93Z" transform="translate(-23.47 -35.76)"/><path d="M35.63,229.57l-.77-85.22-.39-43-.19-21.08c-.05-6-.36-12.14.74-18.07,1-5.54,3.46-10.71,8.09-14.12,4.32-3.16,9.72-4.53,14.94-5.21a151.63,151.63,0,0,1,16.78-.76l20.94-.32q42.48-.66,85-1.29c56.73-.82,113.46-1.49,170.19-1.64q21.06,0,42.11,0c13.81,0,27.66-.19,41.46.27,9.77.33,21.77,1.93,26.55,11.78,2.59,5.35,2.53,11.59,2.61,17.4q.15,10.55.27,21.08.93,85.2-.1,170.41t-4,170.36c-.21,6.1.19,12.71-1.35,18.67s-5.7,9.05-11.41,10.31c-6.21,1.37-12.87,1.13-19.18,1.4q-10.53.47-21.05.9-42.53,1.75-85.08,3.07-84.87,2.61-169.79,3.46-42.34.42-84.69.4c-6.87,0-13.95.45-20.79-.31C41,467.4,36,465.07,32.74,460.49c-5.67-8-5.9-18.76-6-28.16a1626.37,1626.37,0,0,1,6.93-169.25q.93-10,2-20,.54-5.22,1.13-10.42c.25-2.26-.11-2.67-1.59-4.16a1.5,1.5,0,0,0-2.13,2.12c.31.31,1.17.88,1.28,1.29-.3-1.07-.66,1.67-.66,1.61-.09.87-.19,1.74-.28,2.61q-.63,5.64-1.21,11.29-1.11,10.86-2.09,21.74-2,21.75-3.31,43.55-2.7,43.15-3.09,86.42c-.12,13.38-.55,26.91.23,40.28.53,9.13,2.21,19.7,9.34,26.17,3.88,3.52,8.8,5,13.94,5.49,6.91.62,14,.24,20.91.24q21.93,0,43.88-.1,86.9-.45,173.75-2.74,43.44-1.14,86.85-2.75,21.5-.8,43-1.71,11-.47,21.92-1c5.24-.23,10.69-.51,15.48-2.83,11-5.35,9.46-19.92,9.82-30.12q.78-21.94,1.42-43.9,1.28-43.47,2-86.94,1.51-86.94,1-173.91-.12-21.52-.39-43c-.08-6.87.07-13.78-.38-20.63C466.1,56.12,465,50.46,461.51,46c-6.15-7.93-17-9.49-26.38-9.86-14-.55-28.08-.25-42.09-.29-57.9-.15-115.8.36-173.7,1.11q-43.43.55-86.85,1.25l-42.83.66c-7.1.11-14.21.18-21.32.33a77.49,77.49,0,0,0-15.72,1.59,28.72,28.72,0,0,0-13.2,6.46,24.75,24.75,0,0,0-7.16,13.46c-1.2,5.85-1,11.86-1,17.79l.19,22,.79,87,.38,42.17A1.5,1.5,0,0,0,35.63,229.57Z" transform="translate(-23.47 -35.76)"/><path class="cls-2" d="M207.58,253.53l86.29-.31a593.1,593.1,0,0,0,.47-80.54A725.62,725.62,0,0,0,206.55,181c-7.53,23.24-3.35,48.45.89,72.51Z" transform="translate(-23.47 -35.76)"/><path d="M207.58,255l67.34-.24,18.95-.07a1.54,1.54,0,0,0,1.5-1.5,594.67,594.67,0,0,0,1.31-62.76q-.29-8.9-.84-17.78a1.52,1.52,0,0,0-1.5-1.5q-34.48,1.15-68.76,5.57-9.74,1.25-19.43,2.76a1.5,1.5,0,0,0-1.05,1.05c-6.11,19.05-4.54,39.34-1.55,58.81.43,2.77.89,5.54,1.36,8.31l.72,4.13c.17,1,.12,2.55,1.2,3,1.75.77,3.27-1.81,1.51-2.59l-.14-.06.69.89c-3.26-18.47-6.52-37.39-4.28-56.18A83.24,83.24,0,0,1,208,181.36l-1.05,1q33.9-5.28,68.19-7.34,9.6-.57,19.2-.89l-1.5-1.5a597.39,597.39,0,0,1,.58,62.77q-.39,8.9-1.05,17.77l1.5-1.5-67.33.24-19,.07A1.5,1.5,0,0,0,207.58,255Z" transform="translate(-23.47 -35.76)"/><path class="cls-3" d="M212.07,324.82a232,232,0,0,0-3.26-72.46c8.73,2.27,17.87,2.06,26.88,1.83l55.08-1.37c2.51,22.15,5,44.61,1.61,66.63a5.46,5.46,0,0,1-1.42,3.44,5.57,5.57,0,0,1-3.19,1,503.88,503.88,0,0,1-70.68,1.79c-1.82-.08-3.77-.22-5.23-1.31s-2.06-3.52-.7-4.73Z" transform="translate(-23.47 -35.76)"/><path d="M213.57,324.82a234.05,234.05,0,0,0-.63-57q-1.06-8-2.68-15.89l-1.85,1.85c10.21,2.59,20.82,2,31.25,1.78l32.75-.81,18.36-.46-1.5-1.5c2.25,19.84,4.52,39.91,2.48,59.87-.24,2.37-.47,4.78-.94,7.12-.19.94-.43,1.88-1.39,2.26a12.38,12.38,0,0,1-3.38.48q-7.64.7-15.29,1.18-15.19.93-30.41,1-8.42,0-16.82-.26c-2.71-.09-5.51,0-8.2-.38a4.54,4.54,0,0,1-2.88-1.18,1.66,1.66,0,0,1-.22-2.17l-2.5-.67.91,5.19c.33,1.9,3.22,1.1,2.89-.8l-.91-5.18a1.51,1.51,0,0,0-2.51-.67,4.47,4.47,0,0,0-.57,5.31c1,1.94,3.12,2.8,5.19,3.1a73.34,73.34,0,0,0,7.56.41c2.8.09,5.61.17,8.41.22q16.69.3,33.39-.51,8.16-.41,16.29-1.06c2.72-.22,5.45-.39,8.16-.74,2.3-.29,4.08-1.3,4.88-3.57s.91-5.13,1.18-7.59q.45-4,.68-8c.31-5.43.34-10.87.17-16.3-.39-12.39-1.78-24.71-3.17-37a1.54,1.54,0,0,0-1.5-1.5l-32.25.81c-10.61.26-21.25.76-31.86.69a72.64,72.64,0,0,1-17.45-1.9,1.51,1.51,0,0,0-1.84,1.84,232,232,0,0,1,4.44,56.2q-.34,7.95-1.24,15.86C210.36,326.74,213.36,326.72,213.57,324.82Z" transform="translate(-23.47 -35.76)"/></svg>