<svg id="Calque_1" data-name="Calque 1" xmlns="http://www.w3.org/2000/svg" width="192.77" height="326.6" viewBox="0 0 192.77 326.6"><defs><style>.cls-1{fill:#303030;}.cls-2{fill:#fff8e3;}.cls-3{fill:#d4af37;}</style></defs><path class="cls-1" d="M15.79,307Q8.68,201.71,5,96.23c-.38-11-.72-22.07,1.94-32.69s8.76-20.89,18.41-26.08c7.89-4.25,17.24-4.72,26.2-4.44a187.4,187.4,0,0,1,24.8,2.4c3.86.63,7.81,1.43,11.07,3.6A22,22,0,0,1,94,46.64c4.93,8.62,6.57,18.69,7.83,28.54,9.36,73.53,1.55,148.16,5.76,222.17a2.41,2.41,0,0,1-.57,2.11,2.3,2.3,0,0,1-1.32.36L16,306Z" transform="translate(-3.16 -11.34)"/><path d="M17.29,307Q14.94,272.07,13,237.14T9.36,167.25q-1.62-35-2.85-69.93C5.84,78.2,5.19,54.62,21.9,41.47c8-6.28,18.4-7.19,28.2-7,5.6.12,11.2.5,16.76,1.13,5.28.6,10.89,1.1,15.94,2.84,4.86,1.67,8,5.39,10.38,9.78a55.55,55.55,0,0,1,5.11,14.49c2.37,10.74,3.27,21.89,4.22,32.83,2,22.92,2.61,45.94,2.69,68.93s-.36,46.11-.45,69.17c0,11.52,0,23,.25,34.57q.18,8.64.52,17.27c.12,2.88.25,5.75.4,8.63,0,.63.07,1.25.1,1.88a6.66,6.66,0,0,1,.09,1.94c-.18.56-.59.39-1.21.44l-2.45.17-69.62,4.78L16,304.48a1.55,1.55,0,0,0-1.45,1.11l-.18,1c-.34,1.89,2.55,2.7,2.89.8l.18-1L16,307.48l71.52-4.91c6-.41,12-.79,18-1.23,2.48-.18,3.74-1.45,3.66-4-.1-3-.32-5.93-.45-8.89-.52-11.78-.77-23.57-.87-35.36-.18-23.69.26-47.38.39-71.06s0-47.3-1.5-70.91c-.73-11.83-1.78-23.65-3.26-35.42-1.3-10.3-2.93-20.9-8.22-30-2.49-4.31-5.82-7.85-10.5-9.73-4.91-2-10.5-2.45-15.72-3.1-5.79-.72-11.62-1.17-17.45-1.34A76.82,76.82,0,0,0,36,32.35a35.86,35.86,0,0,0-13.91,5.31,36.6,36.6,0,0,0-9.53,9.53c-5.71,8.19-8.17,18.06-9,27.89-.95,11.55,0,23.26.4,34.81q.66,18,1.44,36.06,1.53,35.91,3.47,71.81t4.25,71.77q.57,8.73,1.16,17.46C14.42,308.91,17.42,308.92,17.29,307Z" transform="translate(-3.16 -11.34)"/><path class="cls-2" d="M22.67,86c2,30.38,4,60.78,4,91.22,0,10.72-.33,21.43-.34,32.15a611.53,611.53,0,0,0,3.29,64.18l59.9-3c.54-16.12.34-32.25.13-48.38l-.77-59.54-.42-33-.62-47.84A367.23,367.23,0,0,0,25.25,83.2c-1.66.18-3.73,2.19-2.23,2.9Z" transform="translate(-3.16 -11.34)"/><path d="M21.17,86c1.63,24.43,3.26,48.87,3.79,73.36s-.64,48.83.25,73.25q.75,20.51,2.88,40.94a1.53,1.53,0,0,0,1.5,1.5l59.9-3a1.53,1.53,0,0,0,1.5-1.5c.82-24.63.12-49.3-.2-73.93l-.94-73.23-.54-41.61a1.53,1.53,0,0,0-1.5-1.5,368.66,368.66,0,0,0-59.62,1.13c-2.13.22-4.33.18-6,1.7-1.36,1.25-1.69,3.26.07,4.31l1.16-2.74-.35-.14c-1.79-.73-2.56,2.17-.8,2.89l.35.14c1.61.65,2.57-1.9,1.16-2.74.21.13-.05.8.2.76,0,0,.17-.23.22-.26a6.44,6.44,0,0,1,.78-.5,10.81,10.81,0,0,1,2.72-.37c2.21-.22,4.42-.43,6.63-.61q6.39-.54,12.8-.85,12.94-.63,25.9-.34,7.39.17,14.78.62l-1.5-1.5,1,73.71q.48,36.71.94,73.42c.17,13.88.25,27.76-.21,41.64l1.5-1.5-59.9,3,1.5,1.5a634.89,634.89,0,0,1-3.23-73.09c.15-12.21.38-24.42.18-36.64s-.68-24.47-1.32-36.69C26,113.37,25.09,99.67,24.17,86,24.05,84.05,21,84,21.17,86Z" transform="translate(-3.16 -11.34)"/><path class="cls-3" d="M33.1,32.76a39.77,39.77,0,0,1-1.78-19.47l36.79-.45a30,30,0,0,0,1.13,14.69c.61,1.81,1.14,4.33-.56,5.2a3.79,3.79,0,0,1-2,.24,317.94,317.94,0,0,0-34.1,0Z" transform="translate(-3.16 -11.34)"/><path d="M34.55,32.36a38.72,38.72,0,0,1-1.78-18.67l-1.45,1.1,36.79-.45-1.44-1.9a32.33,32.33,0,0,0,.48,13.32c.37,1.44,1.51,3.52,1.16,5-.23,1-1.31.67-2.1.63l-3.71-.17q-14.94-.6-29.9.2l.4,2.94.5-.2c1.76-.72,1-3.63-.8-2.89l-.5.2c-1.43.59-1.44,3.05.4,2.95q12.6-.67,25.21-.35,3.09.08,6.18.22c1.75.07,4,.56,5.57-.39,2.77-1.64,1.58-5.26.85-7.68a28.73,28.73,0,0,1-.85-13,1.52,1.52,0,0,0-1.45-1.9l-36.79.45a1.52,1.52,0,0,0-1.45,1.1,42,42,0,0,0,1.79,20.27C32.29,35,35.19,34.19,34.55,32.36Z" transform="translate(-3.16 -11.34)"/><g id="Label"><path d="M42.54,88.9a12.78,12.78,0,0,0-6.77,3.64c-2.08,2.09-2.1,4.8-2.08,7.57s-.4,5.73,1,8.1c1.21,2.05,3.39,3.29,5.46,4.31,1.73.85,3.25-1.73,1.52-2.59A10.78,10.78,0,0,1,37.49,107c-1.2-1.66-.78-4.17-.79-6.09s-.42-4.46,1-6.05a8.61,8.61,0,0,1,2-1.58,7.78,7.78,0,0,1,2.84-1.4A1.54,1.54,0,0,0,44,90.4a1.51,1.51,0,0,0-1.5-1.5Z" transform="translate(-3.16 -11.34)"/><path d="M38.58,139.49a16.22,16.22,0,0,1-1.92-8.61,15.41,15.41,0,0,1,.92-4.5c.34-.91.91-2.07,2.06-1.64a3.34,3.34,0,0,1,1.78,2.9,42.37,42.37,0,0,1,.15,5,27.7,27.7,0,0,1,0,4.82c-.15.9-.78,2.43-2,2.14-1.88-.46-2.68,2.43-.8,2.89A4.34,4.34,0,0,0,43,141.26a6.7,6.7,0,0,0,1.63-4.39c.11-1.78,0-3.6,0-5.39a25.19,25.19,0,0,0-.33-5.13c-.63-2.91-3.58-5.76-6.71-4.36-2.88,1.29-3.57,5.51-3.81,8.3A19.1,19.1,0,0,0,36,141c.93,1.7,3.52.19,2.59-1.51Z" transform="translate(-3.16 -11.34)"/><path d="M36.08,152.63l-.35,18c0,1.93,3,1.93,3,0l.35-18c0-1.93-3-1.93-3,0Z" transform="translate(-3.16 -11.34)"/><path d="M38.26,154.38a21.71,21.71,0,0,1,4.42-1.12,1.5,1.5,0,0,0,.36-2.74l-.36-.15a1.51,1.51,0,0,0-.79,0,21.16,21.16,0,0,0-4.43,1.12,1.57,1.57,0,0,0-.89.69,1.49,1.49,0,0,0-.15,1.15,1.51,1.51,0,0,0,1.84,1Z" transform="translate(-3.16 -11.34)"/><path d="M39.42,163.8H41a1.15,1.15,0,0,0,.58-.13,1,1,0,0,0,.48-.31,1.14,1.14,0,0,0,.31-.48,1.06,1.06,0,0,0,.13-.58l0-.4a1.49,1.49,0,0,0-.39-.66A1.54,1.54,0,0,0,41,160.8H39.42a1.15,1.15,0,0,0-.58.13,1.11,1.11,0,0,0-.49.31,1.17,1.17,0,0,0-.31.48,1.14,1.14,0,0,0-.12.58l0,.4a1.57,1.57,0,0,0,.38.66,1.59,1.59,0,0,0,1.07.44Z" transform="translate(-3.16 -11.34)"/><path d="M35.38,179.28l-.23,20.12a1.5,1.5,0,0,0,3,0l.23-20.12a1.5,1.5,0,0,0-3,0Z" transform="translate(-3.16 -11.34)"/><path d="M37.5,180.38l6-1.14a1.51,1.51,0,0,0,1-1.85,1.54,1.54,0,0,0-1.84-1l-6,1.15a1.51,1.51,0,0,0-1.05,1.84,1.54,1.54,0,0,0,1.85,1Z" transform="translate(-3.16 -11.34)"/><path d="M38.89,189.4H40.2a1.06,1.06,0,0,0,.58-.13,1.14,1.14,0,0,0,.48-.31,1,1,0,0,0,.31-.48,1.15,1.15,0,0,0,.13-.58l-.05-.4a1.59,1.59,0,0,0-.39-.66l-.3-.23a1.48,1.48,0,0,0-.76-.21H38.89a1.29,1.29,0,0,0-.58.13,1.24,1.24,0,0,0-.48.31,1.21,1.21,0,0,0-.31.49,1.11,1.11,0,0,0-.13.57l.06.4a1.45,1.45,0,0,0,.38.66l.31.24a1.5,1.5,0,0,0,.75.2Z" transform="translate(-3.16 -11.34)"/><path d="M36.21,208.55l-.75,17.23c-.08,1.93,2.92,1.93,3,0l.75-17.23c.08-1.93-2.92-1.93-3,0Z" transform="translate(-3.16 -11.34)"/><path d="M38.37,208.52l7.32-.56a1.5,1.5,0,0,0,0-3l-7.32.56a1.5,1.5,0,0,0,0,3Z" transform="translate(-3.16 -11.34)"/><path d="M39.42,217.36h2.09a1.58,1.58,0,0,0,1.06-.44,1.24,1.24,0,0,0,.31-.48,1.29,1.29,0,0,0,.13-.58,1.54,1.54,0,0,0-.44-1.06,1.58,1.58,0,0,0-1.06-.44H39.42a1.59,1.59,0,0,0-1.07.44,1.11,1.11,0,0,0-.31.48,1.14,1.14,0,0,0-.12.58,1.49,1.49,0,0,0,.43,1.06,1.59,1.59,0,0,0,1.07.44Z" transform="translate(-3.16 -11.34)"/><path d="M38.37,228l5.75.3a1.5,1.5,0,1,0,0-3l-5.75-.3a1.5,1.5,0,0,0,0,3Z" transform="translate(-3.16 -11.34)"/><path d="M35.45,240.16l.77,21.94c.07,1.92,3.07,1.93,3,0l-.77-21.94c-.07-1.93-3.07-1.93-3,0Z" transform="translate(-3.16 -11.34)"/><path d="M37.07,241.7A33.34,33.34,0,0,0,44,240.24a1.5,1.5,0,0,0-.8-2.89,31.38,31.38,0,0,1-3.16.86c-.52.12-1.05.22-1.57.31-.27,0-.53.09-.8.12h-.09l-.49,0a1.66,1.66,0,0,0-1.06.44,1.5,1.5,0,0,0,1.06,2.56Z" transform="translate(-3.16 -11.34)"/><path d="M38.89,250.8h2.35a1.54,1.54,0,0,0,1.06-.44,1.52,1.52,0,0,0,.44-1.06,1.46,1.46,0,0,0-.44-1.06,1.54,1.54,0,0,0-1.06-.44H38.89a1.5,1.5,0,0,0-1.5,1.5,1.54,1.54,0,0,0,.44,1.06,1.58,1.58,0,0,0,1.06.44Z" transform="translate(-3.16 -11.34)"/><path d="M38.78,263.08c.31-.05-.31,0,.09,0l.39,0,.66,0a12.19,12.19,0,0,1,1.48,0l.39,0h0a4,4,0,0,0,.71.12c.48.1,1,.23,1.44.38a1.5,1.5,0,0,0,.79-2.89,15,15,0,0,0-6.79-.48,1.49,1.49,0,0,0-.9.69,1.59,1.59,0,0,0-.15,1.15,1.52,1.52,0,0,0,.69.9,1.78,1.78,0,0,0,1.16.15Z" transform="translate(-3.16 -11.34)"/><path d="M61.79,89.93q-.32,7.47-.61,14.95a12.83,12.83,0,0,0,0,3.5A2.23,2.23,0,0,0,63.57,110c2.42,0,4.84,0,7.26,0a1.5,1.5,0,0,0,0-3l-3.9,0H64.1c-.15,0-.75-.08-.64,0l.54.54c.19.35.09-.47.1-.61,0-.37,0-.74,0-1.11l.09-2.22c.06-1.53.12-3.07.19-4.61q.18-4.52.37-9c.08-1.93-2.92-1.92-3,0Z" transform="translate(-3.16 -11.34)"/><path d="M64.66,122.07l-.58,17.76c-.06,1.93,2.94,1.93,3,0l.58-17.76c.06-1.93-2.94-1.93-3,0Z" transform="translate(-3.16 -11.34)"/><path d="M68.36,168.12A9.72,9.72,0,0,1,64.27,162c-.7-2.6-1.19-5.89.34-8.28a6.12,6.12,0,0,1,2.79-2.31c1-.43,2.64-.76,3.56,0S72,154,72.19,155.11a25,25,0,0,1,.2,4.81,14.51,14.51,0,0,1-1.24,5.23c-.57,1.2-1.53,2.69-3,2.74-1.93.08-1.94,3.08,0,3,4.28-.17,6.33-4.86,6.95-8.51a23.25,23.25,0,0,0,.2-6.29,13.18,13.18,0,0,0-1.39-5.67c-2.2-3.59-7.14-2.63-9.94-.37-3.32,2.67-3.63,6.72-3,10.66s2.37,7.89,5.9,10a1.5,1.5,0,0,0,1.52-2.59Z" transform="translate(-3.16 -11.34)"/><path d="M67.32,161.41a8.76,8.76,0,0,0,1.75,2.84,23.74,23.74,0,0,1,1.75,2.34,22.14,22.14,0,0,1,2.56,5.52,1.53,1.53,0,0,0,1.85,1,1.51,1.51,0,0,0,1-1.84,25.27,25.27,0,0,0-2.66-5.93,27.6,27.6,0,0,0-1.9-2.64c-.25-.31-.66-.77-.83-1a7.31,7.31,0,0,1-.43-.65,2.1,2.1,0,0,1-.23-.5,1.54,1.54,0,0,0-1.85-1,1.51,1.51,0,0,0-1.05,1.84Z" transform="translate(-3.16 -11.34)"/><path d="M60.89,177.72c.43,6.68-1.48,14.47,2.74,20.34,1.86,2.6,5.05,3.88,7.69,1.56a15.9,15.9,0,0,0,2.83-3.68,11.49,11.49,0,0,0,1.65-5c.21-2,.11-4,.12-6l0-6.7a1.5,1.5,0,0,0-3,0c0,4,.15,8-.08,12a9.52,9.52,0,0,1-1.83,5c-.66,1-1.74,3-3.16,2.62s-2.34-2.22-2.85-3.47a16.77,16.77,0,0,1-1.1-4.95c-.31-3.9.23-7.81,0-11.71-.12-1.92-3.12-1.93-3,0Z" transform="translate(-3.16 -11.34)"/><path d="M69.09,223.72c-2.06-.44-2.71-3-3.12-4.77-.59-2.51-.94-5.37.18-7.78a2.86,2.86,0,0,1,2.65-1.86,5.61,5.61,0,0,1,3.2.18c.93.51,1,1.86,1.13,2.8.18,1.51.33,3,.43,4.54a11.42,11.42,0,0,1-.23,4.66c-.32.92-1.27,2.08-2.38,1.88a1.53,1.53,0,0,0-1.84,1,1.51,1.51,0,0,0,1,1.84,5,5,0,0,0,4.77-1.69,7.85,7.85,0,0,0,1.73-5.15,45.69,45.69,0,0,0-.38-5.84c-.19-1.76-.24-3.81-1.3-5.32a5.3,5.3,0,0,0-4.64-2.06c-1.72,0-3.74.18-5.13,1.29-3,2.41-3,7.06-2.49,10.5s1.78,7.81,5.57,8.62c1.88.41,2.69-2.48.8-2.89Z" transform="translate(-3.16 -11.34)"/><path d="M67,261.06V249.33c0-3-.57-6.82.92-9.51.56-1,1.83-2.19,3.09-1.7s2.1,2.61,2.19,3.76c.1,1.41-1.25,1.55-2.35,1.72a7.06,7.06,0,0,0-3.83,1.46,1.51,1.51,0,0,0,1.06,2.56c1.55,0,3.15-.09,4.69,0-.25-.28-.31-.32-.19-.11l.24.52c.12.27.24.54.35.81.33.76.64,1.52.93,2.3a62.46,62.46,0,0,1,2.53,8.68c.4,1.89,3.29,1.09,2.89-.8a60.8,60.8,0,0,0-3.26-10.53c-.53-1.27-1-3.12-2.37-3.68a6.94,6.94,0,0,0-2.53-.2l-3.28,0,1.06,2.56c.9-.77,2.5-.61,3.6-.89a4.4,4.4,0,0,0,3.16-2.59c1-2.6-.75-6.43-3-7.93-2.7-1.82-6.16,0-7.6,2.53-1.53,2.76-1.33,6.11-1.33,9.16v13.6a1.5,1.5,0,0,0,3,0Z" transform="translate(-3.16 -11.34)"/></g><path d="M176.9,281.17c-8.65,1.24-17.31,4.06-26.14,2.95-3.85-.48-8.09-1.76-10.93-4.53a6.08,6.08,0,0,1-2.19-4.59,5,5,0,0,1,2.35-3.64c3.1-2.17,7.28-2.76,10.92-3.39a122.7,122.7,0,0,1,13.53-1.47c4.47-.26,8.95-.47,13.42-.52,4-.05,8.16.14,11.81,1.89,1.57.76,3.85,2.14,2.94,4.18a15.42,15.42,0,0,1-4.07,4.88,20.65,20.65,0,0,1-11.19,4.92l1.5,1.5,0-.73c-.14-1.92-3.14-1.93-3,0l0,.73c.06.74.65,1.59,1.5,1.5a23.94,23.94,0,0,0,12-4.71,23.44,23.44,0,0,0,4.46-4.44c1.32-1.72,2.58-3.76,1.85-6-1.34-4.16-7-5.75-10.79-6.31-4.93-.72-10-.35-14.92-.15-5.23.22-10.46.53-15.66,1.22-4.67.62-9.7,1.27-14,3.31-3.56,1.68-6.32,5-5.45,9.11.94,4.4,5.35,7.18,9.25,8.68,10.93,4.21,22.63.09,33.64-1.49a1.51,1.51,0,0,0,1.05-1.84A1.53,1.53,0,0,0,176.9,281.17Z" transform="translate(-3.16 -11.34)"/><path class="cls-1" d="M192.23,296.18c-2.51,17.78-2.66,10.29-4.53,28.14l-.14-1.18c1.22.66.6.45.53,1.82a3.84,3.84,0,0,1-.8,1.88,16.49,16.49,0,0,1-11.8,6.9l0-.53c-4.54.63-9,1.81-13.55,2.23s-9.38,0-13.29-2.35c-2.1-1.26-4-3.44-3.62-5.83l-.57-.65c-1.81-16.73-.42-11.13-4.37-27.5Z" transform="translate(-3.16 -11.34)"/><path d="M190.78,295.78c-.67,4.75-1.46,9.44-2.52,14.11a125,125,0,0,0-2.06,14.43h3l-.14-1.18-2.26,1.29.37.21c.45.3.34-.08-.32-1.15a1.94,1.94,0,0,0-.14.51,5.09,5.09,0,0,1-.49,1.74,12.43,12.43,0,0,1-2.94,3.24,15.11,15.11,0,0,1-7.79,3.26l1.5,1.5,0-.53a1.53,1.53,0,0,0-1.9-1.44c-6.3.89-12.58,2.87-19,2.16a14.58,14.58,0,0,1-7.73-2.89,4.6,4.6,0,0,1-1.87-3.07,2.56,2.56,0,0,0-.39-1.77c-.17-.23-.38-.44-.57-.65l.44,1.06c-.51-4.69-.78-9.41-1.41-14.09a136.55,136.55,0,0,0-3-13.81l-1.44,1.9,17.63-1,28.1-1.57,6.45-.37c1.92-.1,1.93-3.1,0-3l-17.63,1-28.1,1.58-6.45.36a1.52,1.52,0,0,0-1.45,1.9,131,131,0,0,1,3,14c.23,2,.37,3.92.55,5.89.15,1.64.32,3.29.49,4.93a10.29,10.29,0,0,0,.37,2.84,4.46,4.46,0,0,0,.88,1.15l-.44-1.07c-.71,6.3,7.5,9.08,12.35,9.65,6.75.78,13.39-1.31,20-2.25l-1.9-1.45,0,.53c.06.74.65,1.6,1.5,1.5a18.4,18.4,0,0,0,10.9-5,9.93,9.93,0,0,0,3.2-5.25c.27-1.48.14-2.34-1.27-3.12-.9-.49-2.41.11-2.26,1.3l.14,1.18a1.5,1.5,0,0,0,3,0,118,118,0,0,1,2-13.77c1.05-4.62,1.82-9.27,2.49-14a1.55,1.55,0,0,0-1.05-1.84A1.52,1.52,0,0,0,190.78,295.78Z" transform="translate(-3.16 -11.34)"/><path class="cls-1" d="M176.73,306.93c-5.29.71-10.48,2-15.81,2.51s-10.95,0-15.51-2.65c-2.44-1.43-4.66-3.89-4.22-6.58.53-3.17,4.28-4.77,7.56-5.54,8.38-2,17.08-2.3,25.72-2.58,4.86-.16,10-.25,14.26,2,1.43.74,2.84,2,2.75,3.53a4.17,4.17,0,0,1-.93,2.13,19.39,19.39,0,0,1-13.77,7.8Z" transform="translate(-3.16 -11.34)"/><path d="M176.34,305.48c-7.43,1-14.84,3.28-22.41,2.44-3.24-.36-6.88-1.35-9.36-3.57a5,5,0,0,1-1.94-3.41,3.83,3.83,0,0,1,2.06-3.11c2.68-1.68,6.09-2.14,9.14-2.66a111.12,111.12,0,0,1,11.51-1.2c3.76-.22,7.53-.37,11.29-.44,3.41-.06,7,0,10.16,1.29,1.18.47,3.63,1.51,3.09,3.14s-2.3,3.06-3.51,4.07a18.22,18.22,0,0,1-9.59,4l1.5,1.5-.05-.6c-.14-1.91-3.14-1.93-3,0l.05.6c.06.74.65,1.59,1.5,1.5a21.52,21.52,0,0,0,10.49-3.93c2.51-1.84,6.65-5.37,5.5-8.91s-6.38-4.9-9.7-5.36c-4.27-.58-8.63-.25-12.92-.09-4.64.18-9.28.46-13.88,1.06-4,.53-8.23,1.06-11.9,2.79-3,1.43-5.42,4.3-4.54,7.81.92,3.69,4.69,5.92,8,7.16,9.52,3.55,19.71.13,29.3-1.18a1.51,1.51,0,0,0,1.05-1.85A1.54,1.54,0,0,0,176.34,305.48Z" transform="translate(-3.16 -11.34)"/><path d="M193,270.12q-3.78,27.36-6.61,54.84h3l-.14-1.19L187,325.06l.37.21c.44.3.33-.08-.32-1.13a1.84,1.84,0,0,0-.14.51,5.31,5.31,0,0,1-.49,1.78,12.68,12.68,0,0,1-2.94,3.3,14.91,14.91,0,0,1-7.79,3.34l1.5,1.5,0-.54a1.54,1.54,0,0,0-1.9-1.45c-6.3.91-12.58,2.93-19,2.21a14.43,14.43,0,0,1-7.73-3,4.75,4.75,0,0,1-1.87-3.15,2.58,2.58,0,0,0-.39-1.78c-.17-.24-.38-.45-.57-.67l.44,1.06a416.12,416.12,0,0,0-8.7-51.05c-.45-1.87-3.34-1.08-2.9.8q3.18,13.47,5.45,27.12,1.13,6.81,2,13.65c.29,2.26.57,4.53.82,6.8a13.06,13.06,0,0,0,.42,3.26,5.21,5.21,0,0,0,.89,1.15l-.44-1.06c-.7,6.33,7.42,9.22,12.35,9.8,6.75.79,13.38-1.34,20-2.29l-1.9-1.45,0,.54c.05.74.65,1.6,1.5,1.5a18.23,18.23,0,0,0,10.9-5.12,10.21,10.21,0,0,0,3.2-5.33,3.89,3.89,0,0,0,.16-1.69,2.63,2.63,0,0,0-1.43-1.46c-.9-.5-2.4.11-2.26,1.3l.14,1.19a1.5,1.5,0,0,0,3,0q2.78-27.07,6.51-54a1.55,1.55,0,0,0-1-1.84,1.52,1.52,0,0,0-1.85,1.05Z" transform="translate(-3.16 -11.34)"/></svg>