<svg id="Draw" xmlns="http://www.w3.org/2000/svg" width="658.18" height="473.56" viewBox="0 0 658.18 473.56"><defs><style>.cls-1{fill:#fcfbe8;}.cls-2{fill:#848484;}.cls-3{fill:#afafaf;}.cls-4{fill:#3a3a3a;}</style></defs><g id="Body"><g id="Base"><path class="cls-1" d="M328.56,164.77a231.81,231.81,0,0,0-91.75-8.61c-28.83,3.1-56.76,11.59-84.5,20-11.5,3.5-23.06,7-33.84,12.35-26.26,13-46.67,36.25-59,62.8s-17.05,56.21-16.8,85.5c.1,11.62,1,23.46,5.32,34.25,11.41,28.54,42.86,42.66,71.43,54l46.54,18.49c18.35,7.29,36.78,14.61,56,19.16,48,11.39,98.34,5,147.1-2.71C420.16,452,471.1,442.5,521.19,429.47c23.32-6.07,47.38-13.42,65-29.89C607,380.05,615.69,348.91,609.42,321s-26.72-51.83-52.63-63.88c-12.26-5.7-25.51-8.86-38.55-12.43-48-13.09-94.13-31.92-140.17-50.7Z" transform="translate(-41.04 -19.63)"/><path d="M329,163.33a234.3,234.3,0,0,0-78.86-9.71c-27.1,1.33-53.5,7.87-79.43,15.49-24,7-49.09,13.26-69.57,28.24-17.68,12.91-31.73,30.47-41.41,50-11.09,22.4-16.55,47.22-18.09,72.08-1.44,23.27-1.12,48.28,13.84,67.49,12.63,16.23,31.68,26.12,50.19,34.09,23.69,10.2,47.91,19.39,71.94,28.74a365,365,0,0,0,38.23,13,226.47,226.47,0,0,0,39,6.69c27,2.31,54.11.34,80.9-3.07,27.19-3.46,54.28-8,81.27-12.88,27.46-4.94,54.83-10.47,82-16.95,23.4-5.59,48-10.79,69.26-22.39,19.2-10.46,33.64-27,40.41-47.87A87.07,87.07,0,0,0,605.72,305,98,98,0,0,0,564,259.15c-10.71-6-22.49-9.66-34.28-12.89-13.13-3.59-26.24-7.2-39.21-11.35-25.93-8.29-51.39-17.95-76.67-28q-9.62-3.82-19.2-7.73c-5.22-2.12-10.85-3.9-15.86-6.47-3-1.52-5.8-3.43-8.68-5.13l-33.64-19.87-7.11-4.2a1.5,1.5,0,0,0-1.51,2.59l23.05,13.62c8.69,5.13,17.25,10.71,26.15,15.45,3.54,1.88,7.55,3.14,11.25,4.65q9.33,3.79,18.68,7.56c12.13,4.87,24.29,9.66,36.53,14.26,24.76,9.33,49.83,17.89,75.37,24.83,12.4,3.37,25,6.41,36.72,11.79a95.86,95.86,0,0,1,26,17.63c15.27,14.51,25.93,34.2,27.95,55.33s-4,43.23-17.45,59.82c-14.47,17.9-36.28,27-57.8,33.31-25,7.35-50.62,13-76.13,18.22-26.44,5.45-53,10.17-79.65,14.48-52,8.42-106.25,16.68-158.26,3.79-25.65-6.36-50.09-17.14-74.59-26.88-21-8.34-42.91-15.77-62.41-27.39C65,395.66,50.22,380.37,46,358.94c-2.4-12.22-2.18-25.05-1.52-37.43A210.11,210.11,0,0,1,49.78,284c5.45-22.8,15.33-44.62,30.35-62.73S114,190.61,136,183c12.36-4.28,25-7.91,37.54-11.57s25.49-7.14,38.46-9.79a240.26,240.26,0,0,1,78.52-3.42,231.49,231.49,0,0,1,37.63,8C330,166.78,330.81,163.88,329,163.33Z" transform="translate(-41.04 -19.63)"/></g><g id="Foot"><path class="cls-2" d="M185,368.59a61.08,61.08,0,0,1,32,2.24c6.35,2.27,12.23,5.65,18.07,9L280.42,406c6.72,3.87,13.63,7.9,18.33,14.08s6.68,15.1,2.68,21.75a14.8,14.8,0,0,1-5.22,5.12c-4.3,2.49-9.51,2.63-14.48,2.7l-27,.4c-8.61.13-17.35.25-25.7-1.89-6.86-1.76-13.23-5-19.88-7.4-11.65-4.24-24.05-6-35.89-9.63s-23.62-9.68-30.4-20" transform="translate(-41.04 -19.63)"/><path d="M185.37,370a59.87,59.87,0,0,1,31.23,2.24,91.78,91.78,0,0,1,14.12,6.82c4.82,2.72,9.6,5.51,14.39,8.27l29.59,17c8.22,4.73,17.89,9.26,23.43,17.33,4.83,7,6.14,18-1.85,23.37-4.14,2.78-9.31,2.93-14.12,3l-16.9.25c-5.66.08-11.31.22-17,.21A82.85,82.85,0,0,1,232,447.26a84.23,84.23,0,0,1-15.14-5.09A136.34,136.34,0,0,0,202,436.84c-18.31-5.18-39.7-7-53.66-21.42a35.08,35.08,0,0,1-4.12-5.13c-1.07-1.6-3.66-.1-2.59,1.51,11.55,17.46,33.4,21.46,52.29,26a136.07,136.07,0,0,1,16.19,4.8c5.1,1.94,10.06,4.27,15.26,6,11,3.57,22.73,3,34.17,2.84l17.72-.26c5.25-.08,10.8.22,15.89-1.33a16.57,16.57,0,0,0,10.46-9,19.61,19.61,0,0,0,.59-13.34c-2.8-9.68-11.13-15.85-19.4-20.76-10-6-20.25-11.69-30.38-17.52l-15.33-8.83c-4.86-2.8-9.7-5.69-14.76-8.12a62.71,62.71,0,0,0-31.62-6.22,66.89,66.89,0,0,0-8.11,1.06c-1.9.36-1.1,3.25.79,2.89Z" transform="translate(-41.04 -19.63)"/></g><g id="Cuisse"><path d="M150.53,253.43a73.36,73.36,0,0,1,47.09,91.77c-2.82,9.06-7.83,20.46-18,22.92-1.88.45-1.08,3.35.8,2.89,9.44-2.27,14.92-11.34,18.27-19.77a76.57,76.57,0,0,0-19.73-84.58,77.37,77.37,0,0,0-27.6-16.12c-1.84-.6-2.63,2.29-.8,2.89Z" transform="translate(-41.04 -19.63)"/></g><g id="Tail"><path class="cls-3" d="M126.69,359.6c1.76,33.95,37.64,54.69,69.86,65.52C240.78,440,287.78,448.49,334.22,444s92.37-22.89,125.27-56c10.75-10.82,20-23.05,30.69-33.93a178.64,178.64,0,0,1,88.18-48.92c3.31-.74,7-1.3,9.87.57,3.77,2.5,3.94,7.9,3.5,12.4-6.85,70.16-64.88,127.24-130.8,152.22S322.27,493.8,252,488.18c-42.88-3.43-86.6-8.53-125.39-27.12s-72.35-53.12-79-95.63" transform="translate(-41.04 -19.63)"/><path d="M125.19,359.6c2.06,34.71,36.88,54.6,66,65.22,42.19,15.4,88.32,24.05,133.29,21.39,39.69-2.34,79.35-14.21,112.12-37.12A176.09,176.09,0,0,0,459,390.59c8-7.88,15.19-16.59,22.62-25,13.92-15.8,29.63-29.47,48-39.94a177.36,177.36,0,0,1,27.7-12.81q7.17-2.58,14.54-4.55c4.38-1.16,11.51-4.07,15.68-1.27,3.86,2.58,3,8.76,2.6,12.68-.48,4.44-1.19,8.86-2.1,13.23a150.47,150.47,0,0,1-7.53,25c-13.36,33.57-38.21,61.84-67.36,82.74-32.64,23.39-70.76,36.9-110.15,43.6-44.23,7.53-89.45,6.72-134.06,3.68-44-3-89.36-6.59-130.63-23.36-34.48-14-66.27-39.14-81.58-73.81A104.49,104.49,0,0,1,49.08,365c-.3-1.9-3.19-1.09-2.89.8,5.86,36.66,31.23,67,61.83,86.61,36.63,23.43,80.76,31.19,123.32,35.42,44.94,4.46,90.57,7.25,135.67,3.76,41.95-3.24,84.26-12.32,121.61-32.25,31.83-17,60.29-41.41,79.88-71.88a161.93,161.93,0,0,0,21.06-48.06c1.11-4.44,2-8.94,2.69-13.47.63-4.13,1.4-8.46,1.1-12.65-.26-3.57-1.46-7.23-4.72-9.12-4-2.34-9.07-.92-13.29.09a180.21,180.21,0,0,0-79.11,41.86c-8.35,7.59-15.73,16.08-23.1,24.59-7.19,8.31-14.5,16.48-22.75,23.75a177.46,177.46,0,0,1-24.89,18.3,206.53,206.53,0,0,1-55.84,23.38c-44.24,11.48-90.89,8.8-135-1.66C214.47,429.72,194,424,175.31,414.91c-15.41-7.47-30.83-17.67-39.93-32.58a49.16,49.16,0,0,1-7.19-22.73c-.11-1.92-3.11-1.93-3,0Z" transform="translate(-41.04 -19.63)"/></g></g><g id="Head"><g id="Base-2" data-name="Base"><path class="cls-1" d="M352.46,201.4a757.84,757.84,0,0,1-58.12-92.83,222.56,222.56,0,0,1,62,10.4c14.83,4.73,29.6,11.08,45.16,10.86A99.28,99.28,0,0,1,421,109.37c9.72-7.66,20.78-13.43,32-18.58C496.28,71,546.11,59.63,591.59,73.74a16.12,16.12,0,0,0,5.91,1.1c2.33-.17,4.43-1.39,6.44-2.59l86.25-51.13-20.84,59.4c-2.48,7.07-5,14.34-4.79,21.83.53,19.59,18.6,33.64,27.08,51.31,11.22,23.38,4.82,51.11-3.14,75.78-4,12.37-9.24,25.72-20.7,31.83-4.53,2.42-9.7,3.47-14.19,6-5.38,3-9.43,7.88-14.31,11.65-7.57,5.85-16.89,8.9-26.08,11.58a520,520,0,0,1-196.63,18.16c-22.46-2.25-48.13-8.3-58-28.58-3.11-6.34-4.25-13.45-5-20.47a227.19,227.19,0,0,1,1.14-58.77Z" transform="translate(-41.04 -19.63)"/><path d="M353.75,200.64a760.14,760.14,0,0,1-46.43-71.59q-6-10.53-11.68-21.23l-1.3,2.25A222.88,222.88,0,0,1,338,115.52c14,3.19,27.21,8.51,41,12.38a82.4,82.4,0,0,0,20.37,3.42c1.31,0,2.53.29,3.47-.73,1.22-1.31,2.18-3,3.31-4.38a98.37,98.37,0,0,1,6.65-7.48c9.64-9.8,21.29-17.06,33.55-23.12C470.69,83.57,497,74.43,524,70.68a169.47,169.47,0,0,1,40.32-1,139,139,0,0,1,20.16,3.56c3.24.82,6.41,2,9.67,2.73a12.54,12.54,0,0,0,9.06-1.59c6.62-3.63,13-7.7,19.52-11.55L642.05,51.4,681.1,28.25,691,22.41l-2.21-1.69L676.37,56l-6.12,17.44c-2,5.77-4.26,11.51-5.75,17.45a39.83,39.83,0,0,0,2.92,28c4,8.3,10,15.48,15.28,23,5.82,8.28,10.39,17,12.29,27,2,10.72,1.29,21.85-.65,32.52a217.64,217.64,0,0,1-8.39,31c-3,8.65-6.68,17.66-13.62,23.9-4.07,3.65-9,5.32-14,7.23a40.17,40.17,0,0,0-12.62,7.76c-4.12,3.65-8,7.35-12.84,10.06a78.2,78.2,0,0,1-14.79,6.1,474.63,474.63,0,0,1-68.36,15.77A519.27,519.27,0,0,1,479,309.56c-23,.49-46.34-.09-69.12-3.22-16.44-2.26-35.21-6.89-46-20.6-6.73-8.57-8.25-19.48-9.23-30a227,227,0,0,1-.48-36.41q.62-9.08,2-18.1a1.52,1.52,0,0,0-1.85-1.84l-2.2.58a1.5,1.5,0,0,0,.79,2.9l2.21-.59-1.85-1.84a232.83,232.83,0,0,0-2.55,37.49q.13,9.32,1,18.58a97.17,97.17,0,0,0,2.7,16.71A41.06,41.06,0,0,0,369.11,295c6.87,5.28,15.05,8.62,23.35,10.9a161.21,161.21,0,0,0,27.87,4.56q18,1.67,36.06,2.06a521.69,521.69,0,0,0,72.11-3.41,522.22,522.22,0,0,0,71.34-13.42c10.82-2.83,22.08-5.51,32.13-10.53a56.91,56.91,0,0,0,12.91-9.12c4.19-3.82,8.24-7.32,13.58-9.42,4.91-1.93,9.86-3.42,14.09-6.68a37.42,37.42,0,0,0,9-10.26c5.09-8.29,8-17.9,10.71-27.16,6.11-20.5,10.63-43.52,3-64.26C691.78,149,685.84,141,680,133c-5.41-7.43-11-15.23-13.14-24.33-2.72-11.62,2.21-22.94,6-33.74l12.51-35.63,6.25-17.82a1.52,1.52,0,0,0-2.21-1.7l-59.08,35-14.26,8.46c-4.89,2.9-9.71,6.06-14.75,8.7a9.86,9.86,0,0,1-7.9.73c-2.63-.75-5.22-1.58-7.86-2.26a141.35,141.35,0,0,0-14.69-2.93c-40.14-5.81-81,4.86-117.38,21.36-10.38,4.71-20.63,9.89-29.89,16.59a102.48,102.48,0,0,0-23.4,23.58l1.3-.75c-14.11.11-27.4-5-40.59-9.44a225.69,225.69,0,0,0-66.59-11.82,1.51,1.51,0,0,0-1.29,2.26,760.16,760.16,0,0,0,44.11,73q6.84,10,14,19.79C352.29,203.7,354.89,202.2,353.75,200.64Z" transform="translate(-41.04 -19.63)"/></g><g id="Gray_Parts" data-name="Gray Parts"><path class="cls-3" d="M354.87,199.29c13.65-23.74,33.85-43.3,45.7-68-35-6.2-68.65-21.94-104.2-21.42a862.82,862.82,0,0,0,56.71,88.8Z" transform="translate(-41.04 -19.63)"/><path class="cls-3" d="M596.9,77l55.66-31.39a125.45,125.45,0,0,0,14.55-9.12c6.22-4.75,12.41-11,20.31-10.89A750.14,750.14,0,0,0,661.17,105c-21.31-9.63-43.13-18.12-64.93-26.6Z" transform="translate(-41.04 -19.63)"/><path class="cls-3" d="M398.46,221c-1.34-19.38,7.6-38.49,20.89-52.66s30.6-23.95,48.36-31.82C498.88,122.67,533,114,567,116.71s67.8,17.7,88.84,44.53c6.31,22.5,10.64,47.47,5.59,70.29-2.46,11.13-2.94,22.52-11.68,29.83-6,5-6.18,6-12.41,10.73-7.28,5.53-15.54,14-23.54,18.39-4.53,2.51-18.68,5.74-23.75,6.74-34.3,6.79-71.77,14-106.73,13.43-17.34-.27-35.81-7.31-50.4-16.68-23.06-14.79-30.55-44.44-36.16-71.26Z" transform="translate(-41.04 -19.63)"/></g><g id="Details"><path d="M444.74,209c0,.07.05-.11.17-.24a3.85,3.85,0,0,1,.92-.63,9.44,9.44,0,0,1,2.62-.67q3.26-.53,6.55-.81a88.67,88.67,0,0,1,13-.12c8.3.53,16.6,3,24.94,1.77a21.32,21.32,0,0,0,11-4.8c1.46-1.27-.67-3.38-2.13-2.13-6.58,5.7-16.07,4.45-24,3.29a97.51,97.51,0,0,0-27.56-.48c-2.2.3-4.66.43-6.56,1.71-1.64,1.11-2.42,2.74-1.57,4.62s3.38.24,2.59-1.51Z" transform="translate(-41.04 -19.63)"/><path d="M557.67,194.79c7.36-1.09,14.86-2.48,20.55-7.67,5.29-4.82,8.33-11.82,14.24-16,3.23-2.28,7.13-3.72,11-2.41,1.84.61,2.63-2.28.8-2.9-7.27-2.44-14.42,2.56-18.88,7.92-4.76,5.73-8.47,12.36-15.73,15.25a57.23,57.23,0,0,1-12.81,2.92c-1.9.28-1.09,3.17.8,2.89Z" transform="translate(-41.04 -19.63)"/><path class="cls-4" d="M529.38,246.84,549,257.92a53.52,53.52,0,0,0,11-16.39c-4.86-2.35-10.34,1.73-15.73,2-4.66.25-9.89-2.26-13.66.49Z" transform="translate(-41.04 -19.63)"/><path d="M528.62,248.13l19.59,11.09A1.53,1.53,0,0,0,550,259a55.2,55.2,0,0,0,11.2-16.69,1.52,1.52,0,0,0-.53-2c-3.25-1.46-6.52-.85-9.8.16a49.84,49.84,0,0,1-5.12,1.45,15.74,15.74,0,0,1-4.94,0c-3.22-.41-6.63-1.23-9.74.14a3.86,3.86,0,0,0-2.27,2.29l-.89,2.14c-.74,1.78,2.17,2.56,2.9.8l1.16-2.8-.69.9c2-1.35,4.26-1.18,6.53-.89a28.84,28.84,0,0,0,7.35.5,42.21,42.21,0,0,0,7.09-1.84c2.22-.65,4.69-1.28,6.9-.28l-.54-2.05a53.22,53.22,0,0,1-10.73,16.08l1.82-.23-19.58-11.09C528.46,244.59,526.94,247.18,528.62,248.13Z" transform="translate(-41.04 -19.63)"/><path d="M527.15,288a140.27,140.27,0,0,1,40.77-4.85c1.93.06,1.93-2.94,0-3a142.87,142.87,0,0,0-41.56,5,1.5,1.5,0,0,0,.79,2.89Z" transform="translate(-41.04 -19.63)"/><path d="M395.35,251.6c11.9-.22,23.81-.44,35.71-.15,6,.15,12,.43,17.93.9,5.8.46,11.6,1.42,17.43,1.45a43.19,43.19,0,0,0,9.27-1.05,95.06,95.06,0,0,1,9.59-1.9c1.9-.2,1.92-3.2,0-3-5.63.61-11,2.63-16.7,2.9S457,250,451.2,249.53c-11.86-1-23.76-1.26-35.65-1.21-6.74,0-13.47.16-20.2.28-1.92,0-1.93,3,0,3Z" transform="translate(-41.04 -19.63)"/><path d="M396.37,270.55c10.66.3,21.14-2,31.42-4.58,10.62-2.68,21.16-5.51,32.08-6.64a139.63,139.63,0,0,1,19.07-.64c1.93.06,1.92-2.94,0-3a140.59,140.59,0,0,0-33.38,2.86c-10.49,2.18-20.72,5.42-31.25,7.41a84.4,84.4,0,0,1-17.94,1.59c-1.93-.05-1.93,2.95,0,3Z" transform="translate(-41.04 -19.63)"/><path d="M484.78,264.18c-21.9,7.22-44.36,12.09-66.91,16.74l-19.58,4c-1.89.39-1.09,3.28.8,2.89,22.72-4.68,45.6-8.92,68-15.14q9.33-2.59,18.53-5.63c1.83-.6,1-3.5-.8-2.89Z" transform="translate(-41.04 -19.63)"/><path d="M589.07,235.71c4.88-1.3,8.4-5,12.17-8.08,4.44-3.67,9.79-5.58,15.07-7.7a256.47,256.47,0,0,0,32.19-15.57q8.71-5,17-10.68c1.59-1.08.09-3.68-1.51-2.59a255.69,255.69,0,0,1-30.71,18q-7.92,3.91-16.09,7.27c-5.17,2.12-10.66,3.86-15.31,7s-8.15,8-13.62,9.42a1.51,1.51,0,0,0,.8,2.9Z" transform="translate(-41.04 -19.63)"/><path d="M598.06,239.69c10.18-2.49,19.73-6.86,29.41-10.77a223.89,223.89,0,0,1,30.31-9.87c5.83-1.45,11.71-2.64,17.63-3.61,1.9-.32,1.09-3.21-.8-2.9a223.53,223.53,0,0,0-31.07,7.4c-10.09,3.18-19.75,7.38-29.56,11.3a126,126,0,0,1-16.72,5.56c-1.87.46-1.08,3.35.8,2.89Z" transform="translate(-41.04 -19.63)"/><path d="M598.19,249a410.09,410.09,0,0,1,62.95-11.45q9-.92,18-1.44c1.92-.11,1.93-3.11,0-3a416.29,416.29,0,0,0-63.95,8.71q-9,1.95-17.84,4.29a1.5,1.5,0,0,0,.8,2.89Z" transform="translate(-41.04 -19.63)"/></g></g></svg>